<svg xmlns="http://www.w3.org/2000/svg" width="146.27" height="146.27" viewBox="0 0 146.27 146.27"><defs><style>.cls-1{fill:#6c2a13;}.cls-2{fill:#fff;}</style></defs><g id="Layer_2" data-name="Layer 2"><g id="Layer_2-2" data-name="Layer 2"><circle class="cls-1" cx="73.13" cy="73.13" r="73.13"/><path class="cls-2" d="M33.11,106.69c10.5-17.25,17-28.68,20.17-34.5-2.8-6-8.69-17.89-18.21-36.32,8.12-.11,16.81-.33,25.63-.65,0,0,3.22,9.05,11.06,27.38,8.69-20.16,12.33-30.83,12.33-30.83,17.51.54,25.91.54,25.91.54l-19.33,39c14.29,27,21.15,38.27,21.15,38.27-20.59.54-27,1-27,1L72.18,80.71c-7.56,15.52-11.9,26.62-11.9,26.62C41.65,106.79,33.11,106.69,33.11,106.69Z"/></g></g></svg>