<svg xmlns="http://www.w3.org/2000/svg" width="4294.64" height="2400.58" viewBox="0 0 4294.64 2400.58"><defs><style>.cls-1{fill:#8e7661;}.cls-2{fill:#6d5a47;}.cls-3{fill:#b3dbe1;}.cls-4{fill:#6d2a13;}.cls-5{fill:#782f18;}.cls-21,.cls-52,.cls-6{fill:none;stroke-miterlimit:10;}.cls-6{stroke:#984c3b;stroke-width:3.29px;}.cls-7{fill:#4b1c10;}.cls-8{fill:#80a6a9;}.cls-9{fill:#7f6858;}.cls-10{fill:#62513b;}.cls-11{fill:#ef9021;}.cls-12{fill:#443525;}.cls-13{fill:#0a0505;}.cls-14,.cls-15,.cls-48,.cls-57{fill:#fff;}.cls-15,.cls-34{opacity:0.18;}.cls-16{fill:#6d5849;}.cls-17{fill:#594839;}.cls-18{fill:#030202;opacity:0.39;}.cls-19{fill:#4c231d;}.cls-20,.cls-24{fill:#240f0e;}.cls-21{stroke:#2d1a10;stroke-width:1.6px;}.cls-22{fill:#6d3732;}.cls-23{fill:#60493a;}.cls-24{opacity:0.57;}.cls-25{fill:#321713;}.cls-26{fill:#703e39;}.cls-27{fill:#e2d3ba;}.cls-28{fill:#f4f1ef;}.cls-29{fill:#0f0a08;opacity:0.33;}.cls-30{fill:#c6c4c4;}.cls-31{fill:#3d1a14;}.cls-32{fill:#120b0a;opacity:0.78;}.cls-33{fill:#a36340;}.cls-34,.cls-35{fill:#f8f7f7;}.cls-35{opacity:0.29;}.cls-36{fill:#845a34;}.cls-37{fill:#56371f;}.cls-38,.cls-58{fill:#331e11;}.cls-38{opacity:0.26;}.cls-39{fill:#777676;}.cls-40{fill:#77502c;}.cls-41{fill:#a0703f;}.cls-42{fill:#ad7b4e;}.cls-43{font-size:12px;fill:#231f20;font-family:MyriadPro-Regular, Myriad Pro;}.cls-44{fill:#301d11;}.cls-45{fill:#3a1b1b;}.cls-46{fill:#f47621;}.cls-47{fill:#3e2112;}.cls-48{opacity:0.09;}.cls-49{fill:#cb6328;}.cls-50{fill:#0b0907;opacity:0.2;}.cls-51{fill:#3f99ad;}.cls-52{stroke:#9cdbee;stroke-width:3.29px;}.cls-53{fill:#f7f7f6;}.cls-54{fill:#cecdcc;}.cls-55{fill:#7c532c;}.cls-56{fill:#28190f;}.cls-57{opacity:0.06;}.cls-58{opacity:0.61;}.cls-59{fill:#203133;}.cls-60{fill:#554339;}.cls-61{fill:#53757d;}.cls-62{fill:#f37332;}.cls-63{fill:#f6ba2f;}.cls-64{fill:#fdfeff;}.cls-65{fill:#73a3b2;}.cls-66{fill:#6fa942;}.cls-67{fill:#992220;}</style></defs><g id="Layer_2" data-name="Layer 2"><g id="Layer_1-2" data-name="Layer 1"><polygon class="cls-1" points="4294.64 2329.57 21.96 2271.97 21.96 0 4294.64 0 4294.64 2329.57"/><path class="cls-2" d="M4294.64,2392.08l-776.76-534.64s-45-1336.34-81.76-1793.34h858.52Z"/><path class="cls-3" d="M3878.55,1116.88c.55,2.8,1.12,5.6,1.66,8.41C3880.17,1121.6,3880.11,1117.93,3878.55,1116.88Z"/><path class="cls-3" d="M3928.94,1101.57c-5.75-.78-11.5-1.52-17.25-2.28q.27,11.87.56,23.72Q3920.62,1112.44,3928.94,1101.57Z"/><path class="cls-3" d="M3905.07,1132.06l-1.81-.24a7,7,0,0,0-.7,3.38C3903.4,1134.16,3904.23,1133.1,3905.07,1132.06Z"/><path class="cls-1" d="M3575.26,1750.47l-12.47,224.37,698.69,425.74-6.66-258.1C4025.4,1957.06,3797.69,1852.67,3575.26,1750.47Z"/><path class="cls-1" d="M3604.3,1051l-1.5,30.92c80.91,2.37,162.72,5,245.27,10.28C3804.77,959.48,3767.4,827,3716,720.73,3648.81,813.07,3604.68,933.08,3604.3,1051Z"/><path class="cls-1" d="M3884.57,586.76c-52.71,15.36-102,52.32-144,102.46,48.5,122.84,100.6,251.81,133.51,405.64,8.81,1,17.62,2,26.45,3.05C3890.11,927.33,3902,755.14,3884.57,586.76Z"/><path class="cls-1" d="M4127.81,741.81c-54.68-107.53-135.06-168.95-222.3-159.44,3.89,171.17,2.37,345.92,6.18,516.92,5.75.76,11.5,1.5,17.25,2.28C4002.79,1003,4072.94,886.47,4127.81,741.81Z"/><path class="cls-1" d="M4199.54,1054.89c-2.43-101.16-23.06-197.71-56-278.33-44.57,151.1-115.71,246.65-191.31,328.38,83.86,15.45,168.35,34.08,253.44,58.72Z"/><path class="cls-1" d="M4207.49,1195.91c-101.36-26.55-202.26-46.45-302.42-63.85-.84,1-1.67,2.1-2.51,3.14a7,7,0,0,1,.7-3.38c-101.64-9.56-202.39-15.5-301.86-21.07l-14.46,420.78c157.75,27.62,314.67,32.26,473.22,70.64,56.22,13.28,112,44.42,168.3,78.91Z"/><path class="cls-1" d="M3585.88,1551.86l-9.21,172.61c220.81,109.5,445.69,225.48,676.39,387.19L4231,1725.36C4012.79,1632.17,3797.81,1576.76,3585.88,1551.86Z"/><path class="cls-4" d="M4179.49,2290.6l-27.14-1223.88c-5.22-232.46-121.94-417.52-255.7-401-132.44,30-241.71,211.65-241.73,392l-.46,948.72Z"/><path class="cls-4" d="M3901.25,1857.13c52.55-255.51,58.07-734.92-26.66-1007.5-17.77-55.11-7.33-124.46,15.09-182.38-26.17,6.12-51.31,18.77-74.75,36.65-24.17,138.61-37.71,277.52-20.91,416,31.28,268.54,100.83,732.38,50.54,969.6l36,18.3C3876.81,2018.57,3886.9,1933.86,3901.25,1857.13Z"/><path class="cls-5" d="M3961,1068.59c3.36-103.15,1.71-211.23-4.77-314.47-1.34-28.53-3-57.63-4.56-86.88a141.32,141.32,0,0,0-55-1.47c-2.33.41-4.65,1-7,1.48-22.42,57.92-32.86,127.27-15.09,182.38,84.73,272.58,79.21,752,26.66,1007.5-14.35,76.73-24.44,161.44-20.71,250.7l81.76,44.58C3939.46,1845.1,3951.49,1371.79,3961,1068.59Z"/><path class="cls-4" d="M4039.92,1183.5c8.15-166.84-7.88-332.39-34.92-491.38-16.94-11.84-34.79-20.3-53.33-24.88,1.52,29.25,3.22,58.35,4.56,86.88,6.48,103.24,8.13,211.32,4.77,314.47-9.51,303.2-21.54,776.51,1.3,1083.82l73,43.28C3980.35,1912.23,4026.14,1453.63,4039.92,1183.5Z"/><path class="cls-5" d="M4046.67,1698.63c35.84-254.55,28.84-728.74-21.33-989.85A210.15,210.15,0,0,0,4005,692.12c27,159,43.07,324.54,34.92,491.38C4026.14,1453.63,3973.09,1940,4028,2223l50.9,35c-12.49-51.09-18.63-132.87-23-182.34C4045.94,1946.34,4030.86,1815.61,4046.67,1698.63Z"/><path class="cls-4" d="M4093.77,1674c16-201.08,44.76-596.15,9-802.94-20.89-48.47-47.33-88.84-77.44-118,50.25,261.89,57.22,735.77,21.28,989.36-15.84,116.56-.75,247.47,9.26,376.79,4.33,49.51,15.36,99.77,27.87,151l95.91,66.23-4.23-192.19C4120.54,1988.75,4082.42,1826.23,4093.77,1674Z"/><path class="cls-4" d="M4116.17,1861.15c12.86,61.17,33.11,114.37,57.46,163.37l-20.77-934.84c-8.21,103.27-21.86,392.85-40,485.59C4094.23,1657.64,4096.28,1762,4116.17,1861.15Z"/><path class="cls-5" d="M4116.17,1861.15c-19.89-99.17-21.94-203.51-3.27-285.88,18.1-92.74,31.75-382.32,40-485.59l-.51-23c-2-88.38-20.37-172.27-49.72-241.44,35.66,206.26,7,602.3-9,803.89-11.3,152.64,26.75,314.55,81.59,469.14l-1.63-73.79C4149.28,1975.52,4129,1922.32,4116.17,1861.15Z"/><path class="cls-4" d="M3654.81,1434.22l-.18,337.75C3695.33,1684.78,3684.68,1546.2,3654.81,1434.22Z"/><path class="cls-4" d="M3679.19,1107.74c-18.57-56.12-14.5-115.37-6.6-175.78a466.14,466.14,0,0,0-17.67,125.81l-.11,376.45c29.87,112,40.52,250.56-.18,337.75l-.1,142.93C3776,1793,3748.26,1314.75,3679.19,1107.74Z"/><path class="cls-5" d="M3698.58,1082.19c-25.53-80.91,6.09-169.11,19-260.09a501.73,501.73,0,0,0-45,109.86c-7.9,60.41-12,119.66,6.6,175.78,69.07,207,96.82,685.25-24.66,807.16l0,28.5a89.75,89.75,0,0,0,33.09-20.46C3806.35,1775.78,3760.73,1302.76,3698.58,1082.19Z"/><path class="cls-4" d="M3766.72,1063.91c-16.84-102.94-10-217.13,13.25-328.31-23.44,24.63-44.49,54-62.37,86.5-12.93,91-44.55,179.18-19,260.09,62.15,220.57,107.77,693.59-11,840.75a89.75,89.75,0,0,1-33.09,20.46l-.05,63.09,80.93,32.52C3828.16,1818.93,3814.42,1354,3766.72,1063.91Z"/><path class="cls-5" d="M3794,1119.93c-16.8-138.51-3.26-277.42,20.91-416a300.64,300.64,0,0,0-35,31.7c-23.23,111.18-30.09,225.37-13.25,328.31,47.7,290.1,61.44,755-31.33,975.1l109.17,50.52C3894.85,1852.31,3825.3,1388.47,3794,1119.93Z"/><path class="cls-6" d="M3850,674.77s-45.53,124-37.17,350.58c8.5,227.88,83.22,835.38,35.05,1047.77"/><path class="cls-6" d="M3780,735.6s-37.91,153.56-19,284c19.22,133.32,56.17,566.89,41,706.57-15.38,137.3-87,304.23-87,304.23"/><path class="cls-6" d="M3989.51,685.21s72.58,275.57,52.4,453.07c-20.54,173.78-58.75,731-46.76,844,12.1,114.11,40.32,222.59,40.32,222.59"/><polygon class="cls-7" points="3904.31 2120.37 3914.71 2125.96 3896.68 668.47 3887.03 670.19 3904.31 2120.37"/><path class="cls-7" d="M3958.38,1790.47c-20.76-8.32-38-43.27-38.43-78.17s16-57.8,36.59-50.76c20.66,7.33,38,43,38.53,79.14S3979.17,1799.08,3958.38,1790.47Zm-1.58-111.14c-15-5.28-27,11.2-26.65,36.61s12.87,50.79,28,56.75,27.1-10,26.7-36.09S3971.84,1684.76,3956.8,1679.33Z"/><path class="cls-7" d="M3944.36,1634.34s-3,38.09,3.84,62.51l19.75,7.24s7.42-13.58,5.47-58.89Z"/><path class="cls-3" d="M3958.13,1772.69c-20.75-8.14-38-43-38.4-77.85s15.94-57.95,36.56-51.09c20.64,7.15,37.92,42.64,38.49,78.83S3978.9,1781.12,3958.13,1772.69Zm-1.59-111.15c-15-5.15-27,11.44-26.62,36.85s12.86,50.69,27.95,56.52,27.08-10.25,26.68-36.33S3971.58,1666.84,3956.54,1661.54Z"/><path class="cls-8" d="M3944.11,1616.65s-3,38.12,3.84,62.49l19.74,7.07s7.41-13.64,5.46-59Z"/><path class="cls-7" d="M3838.42,1746.27c-20.6-6.63-37.52-38.54-37.75-71.39s16.19-55.46,36.65-50.11c20.5,5.65,37.49,38.23,37.85,72.37S3859,1753.2,3838.42,1746.27Zm-1-104.73c-14.91-4.06-26.88,12.22-26.69,36.15s12.51,47.1,27.49,51.83c15,4.88,27-11,26.74-35.63S3852.4,1645.74,3837.47,1641.54Z"/><path class="cls-7" d="M3825.37,1599.89s-3.22,36.1,3.46,58.7l19.59,5.63s7.45-13.26,5.77-55.91Z"/><path class="cls-3" d="M3838.27,1729.52c-20.58-6.46-37.49-38.22-37.72-71.08s16.18-55.61,36.62-50.43c20.48,5.46,37.45,37.91,37.82,72S3858.87,1736.27,3838.27,1729.52Zm-.95-104.75c-14.89-3.92-26.85,12.46-26.67,36.39s12.5,47,27.47,51.61c15,4.75,27-11.28,26.72-35.87S3852.24,1628.85,3837.32,1624.77Z"/><path class="cls-8" d="M3825.23,1583.22s-3.22,36.14,3.46,58.68l19.57,5.46s7.44-13.32,5.76-56Z"/><path class="cls-9" d="M21.6,1902.32l3496.28-44.88S3106.27,191.62,1904.62,173.32C1056.36,160.4,689.15,140.05,22,618.53Z"/><polygon class="cls-10" points="21.96 2392.07 23.81 1894.41 3517.89 1857.44 4294.64 2392.07 21.96 2392.07"/><path class="cls-11" d="M2547.68,474.41a3.21,3.21,0,0,0,.06-.63Z"/><polygon class="cls-12" points="268.24 2068.23 25.17 2053.22 25.17 2111.02 94 2094.15 385.34 2096.88 331.44 2070.96 268.24 2068.23"/><polygon class="cls-13" points="25.52 2090.12 370.52 2089.75 385.34 2096.88 94 2109.35 25.17 2134.72 25.52 2090.12"/><path class="cls-12" d="M360.55,2074.69l3425.39-54.84s-1626.88,48.57-1775.85,51.64S360.55,2074.69,360.55,2074.69Z"/><polygon class="cls-12" points="0 1972.97 2357.24 1959.37 3632.34 1936 3626.23 1932.3 2358.28 1954.72 1.89 1968.82 0 1972.97"/><polygon class="cls-12" points="13.07 2195.94 2610.47 2158.88 3955.31 2155.43 3965.66 2160.6 12.63 2204.57 13.07 2195.94"/><path class="cls-14" d="M3436.12,104.1s27.64,432.69,32.26,529.11,25.23,573,25.23,573Z"/><polygon class="cls-15" points="3559.59 287.81 3449.05 280.93 3290.83 284.37 3293.52 385.53 3455.34 385.53 3562.78 405.61 3559.59 287.81"/><rect class="cls-16" x="1457.06" y="844.33" width="247.09" height="85.89"/><polygon class="cls-16" points="1736.21 837.15 1736.21 936.11 1947.79 935.32 1947.79 844.33 1736.21 837.15"/><polygon class="cls-16" points="1593.32 956.61 1819.51 956.61 1819.51 1037.52 1589.86 1037.52 1593.32 956.61"/><polygon class="cls-16" points="1327.84 686.99 1515.85 696.6 1515.85 784.38 1324.29 791.67 1327.84 686.99"/><polygon class="cls-17" points="3768.5 258.56 3948.18 269.82 3948.18 350.48 3770.35 339.33 3768.5 258.56"/><polygon class="cls-17" points="3865.21 363.56 4027.73 373.75 4033.97 464.14 3865.21 451.54 3865.21 363.56"/><polygon class="cls-18" points="2778.32 2001.06 3146.45 1986.27 3417.56 2056.92 2950.88 2103.8 2778.32 2001.06"/><polygon class="cls-19" points="3261.01 2062.96 3288.32 1242.56 3039.09 1226.39 3065.03 2019.13 3261.01 2062.96"/><polygon class="cls-20" points="3288.32 1242.56 3347.89 1239.17 3304.7 2053.19 3261.01 2062.96 3288.32 1242.56"/><line class="cls-21" x1="3226.22" y1="1238.53" x2="3200.46" y2="2049.42"/><line class="cls-21" x1="3127.04" y1="1232.1" x2="3104.73" y2="2028.01"/><polygon class="cls-22" points="3347.89 1239.17 3288.32 1242.56 3039.09 1226.39 3143.23 1222.08 3347.89 1239.17"/><polygon class="cls-20" points="3250.46 1751.64 2976.57 1767.2 2979.84 1824.76 3245.96 1798.09 3250.46 1751.64"/><polygon class="cls-19" points="2976.57 1767.2 2820.03 1732.57 2828.16 1781.86 2979.84 1824.76 2976.57 1767.2"/><polygon class="cls-22" points="2820.03 1732.57 3088.47 1719.6 3250.46 1751.64 2976.57 1767.2 2820.03 1732.57"/><polygon class="cls-20" points="3005.02 2080.18 2995.83 1823.16 3039.6 1818.77 3048.89 2070.47 3005.02 2080.18"/><polygon class="cls-19" points="3005.02 2080.18 2852.93 2030.08 2843.8 1786.28 2995.83 1823.16 3005.02 2080.18"/><polygon class="cls-20" points="2910.62 1740.06 2987.61 1762.37 2999.98 1758.74 2921.87 1736.76 2910.62 1740.06"/><polygon class="cls-23" points="2999.98 1758.74 2999.88 1756.96 2987.9 1753.76 2987.99 1755.37 2999.98 1758.74"/><path class="cls-9" d="M2989,1756.62s4.19-26.68-9.8-30.83-46.27-10.88-52.35-7c-8.39,5.38-5.13,21.36-5.13,21.36Z"/><polygon class="cls-9" points="2984.54 1758.71 2988.96 1756.62 2988.47 1748.15 2981.8 1748.52 2984.54 1758.71"/><path class="cls-9" d="M2921,1722s3.44-3.5,7.73-3.92,6,9.3,6,9.3Z"/><path class="cls-20" d="M2984.54,1758.71s4.19-26.68-9.8-30.84-46.27-10.87-52.35-7c-8.39,5.38-5.13,21.36-5.13,21.36Z"/><line class="cls-21" x1="2914.03" y1="1800.06" x2="2915.26" y2="2048.36"/><polygon class="cls-24" points="3245.96 1798.09 3058.15 1808.76 3061.92 1875.16 3245.96 1798.09"/><polygon class="cls-24" points="2997.91 1821.14 2843.8 1786.28 2848.38 1866.92 2996.84 1840.88 2997.91 1821.14"/><path class="cls-20" d="M3171.46,1371.42s43.63-42.1,41.63-63.36-32.83-20.31-41.83,2.37c0,0-1.89-33.15-26-24.65S3150.31,1361.54,3171.46,1371.42Z"/><polygon class="cls-18" points="750.38 2086.26 1040.65 2012.63 1370.36 2021.6 1174.04 2131.49 750.38 2086.26"/><polygon class="cls-19" points="891.42 2086.66 817.62 1269.13 1065.53 1238.85 1084.61 2031.78 891.42 2086.66"/><polygon class="cls-20" points="817.62 1269.13 757.95 1269.13 847.25 2079.38 891.42 2086.66 817.62 1269.13"/><line class="cls-21" x1="879.39" y1="1261.58" x2="951.11" y2="2069.7"/><line class="cls-21" x1="978.05" y1="1249.53" x2="1045.48" y2="2042.89"/><polygon class="cls-22" points="757.95 1269.13 817.62 1269.13 1065.53 1238.85 961.31 1240.45 757.95 1269.13"/><polygon class="cls-20" points="884.3 1775.24 1158.63 1775.24 1158.63 1832.89 891.42 1821.36 884.3 1775.24"/><polygon class="cls-19" points="1158.63 1775.24 1312.96 1731.78 1307.63 1781.45 1158.63 1832.89 1158.63 1775.24"/><polygon class="cls-22" points="1312.96 1731.78 1044.21 1734.06 884.3 1775.24 1158.63 1775.24 1312.96 1731.78"/><polygon class="cls-20" points="1147.98 2089.32 1142.58 1832.2 1098.63 1830.3 1103.64 2082.12 1147.98 2089.32"/><polygon class="cls-19" points="1147.98 2089.32 1296.99 2030.68 1292.28 1786.75 1142.58 1832.2 1147.98 2089.32"/><polygon class="cls-20" points="1222.93 1744.39 1147.34 1771.04 1134.78 1768.12 1211.52 1741.74 1222.93 1744.39"/><polygon class="cls-23" points="1134.78 1768.12 1134.78 1766.34 1146.56 1762.46 1146.56 1764.08 1134.78 1768.12"/><path class="cls-9" d="M1145.66,1765.38s-5.7-26.4,8-31.34,45.57-13.49,51.86-9.94c8.69,4.9,6.34,21,6.34,21Z"/><polygon class="cls-9" points="1150.19 1767.21 1145.66 1765.38 1145.67 1756.9 1152.35 1756.88 1150.19 1767.21"/><path class="cls-9" d="M1211.53,1726.92s-3.62-3.3-7.93-3.46-5.45,9.61-5.45,9.61Z"/><path class="cls-20" d="M1150.19,1767.21s-5.7-26.4,8-31.34,45.57-13.48,51.87-9.94c8.68,4.9,6.34,21,6.34,21Z"/><line class="cls-21" x1="1222.93" y1="1804.49" x2="1235.79" y2="2052.47"/><polygon class="cls-24" points="891.42 1821.36 1079.55 1821.36 1079.55 1887.87 891.42 1821.36"/><polygon class="cls-24" points="1140.38 1830.3 1292.28 1786.75 1292.28 1867.53 1142.58 1849.94 1140.38 1830.3"/><path class="cls-20" d="M941.6,1391.16s-46-39.56-45.16-60.91,31.63-22.14,41.91,0c0,0,0-33.2,24.5-26.09S962.16,1380.09,941.6,1391.16Z"/><rect class="cls-16" x="96.48" y="714.26" width="220.24" height="89.96"/><polygon class="cls-16" points="345.3 706.74 345.3 810.39 533.88 809.56 533.88 714.26 345.3 706.74"/><polygon class="cls-16" points="217.94 831.87 419.54 831.87 419.54 916.61 214.85 916.61 217.94 831.87"/><rect class="cls-16" x="453.42" y="835.06" width="220.24" height="89.96"/><polygon class="cls-16" points="702.24 827.54 702.24 931.2 890.83 930.37 890.83 835.06 702.24 827.54"/><polygon class="cls-16" points="574.88 952.67 776.48 952.67 776.48 1037.41 571.8 1037.41 574.88 952.67"/><rect class="cls-16" x="2521.13" y="957.51" width="220.24" height="89.96"/><polygon class="cls-16" points="2642.59 1075.12 2844.19 1075.12 2844.19 1159.86 2639.51 1159.86 2642.59 1075.12"/><path class="cls-25" d="M1764.45,652.24l4.93,52,535.15-3.28V659.49s-136.25-37.89-273.6-32.42S1774.85,641.84,1764.45,652.24Z"/><path class="cls-19" d="M2314.49,658.51s-428.89,19.44-574.79,0l5.37,90.76s291.73,65.91,564,0Z"/><path class="cls-26" d="M2023.69,620.34c-135.21,4.82-285,20.61-284,38.17,0,0,170.16,19.28,292.27,17.9s282.52-17.9,282.52-17.9S2158.9,615.51,2023.69,620.34Zm-234.55,33.8c297.33-49.67,476,4.37,476,4.37C2118.2,674.6,1789.14,654.14,1789.14,654.14Z"/><polygon class="cls-27" points="1780.32 687.81 1755.15 542.8 1831.76 537.33 1837.78 694.92 1780.32 687.81"/><path class="cls-28" d="M1776.68,488c0,11.2,3.2,21.6,5.6,32-5.6-8-12-15.2-14.4-24.8-3.2,16.8.8,32.8,13.6,45.6.94.62,1.26,1.87,1.31,3.38l18.25-.8C1801.79,522.08,1794.64,501.42,1776.68,488Z"/><path class="cls-11" d="M1820.81,511.07c-3.28-17-48.7-36.67-48.7-62.38,0,0-20.24,35-17,60.19s20.79,35.56,20.79,35.56l6.85-.3c0-1.51-.37-2.76-1.31-3.38-12.8-12.8-16.8-28.8-13.6-45.6,2.4,9.6,8.8,16.8,14.4,24.8-2.4-10.4-5.6-20.8-5.6-32,18,13.46,25.11,34.12,24.36,55.38l6.49-.28S1824.1,528,1820.81,511.07Z"/><polygon class="cls-27" points="2005.54 724.78 1999.74 502.31 2059.39 502.31 2049.08 728.07 2005.54 724.78"/><path class="cls-28" d="M2036.68,450.36c0,12,.8,23.2-1.6,35.2-6.4-7.2-11.2-14.4-12.8-24-8.41,13-4.39,29.65,1.57,43l18.48,3.94C2050.32,490.22,2046.87,467.14,2036.68,450.36Z"/><path class="cls-11" d="M2039.69,425.16l-3.07,12.58L2027.14,412c-1.06,20.8-13.17,36.12-19.74,56.36a35.55,35.55,0,0,0,6,33.93l10.43,2.22c-6-13.32-10-30-1.57-43,1.6,9.6,6.4,16.8,12.8,24,2.4-12,1.6-23.2,1.6-35.2,10.19,16.78,13.64,39.86,5.65,58.11l4.47.95s9.85-22.43,12.59-38.85S2039.69,425.16,2039.69,425.16Z"/><polygon class="cls-27" points="2201.36 702.96 2208.22 525.84 2267.86 530.76 2254.98 704.6 2201.36 702.96"/><path class="cls-28" d="M2253.48,490.36c-3.2,8.8-1.6,22.4-12.8,26.4a185.81,185.81,0,0,1,.74-20.17c-.37,2.05-2.41,3.44-3.14,4.17-9,9.62-10.76,22.32-10.28,34.4l17.32,1.38C2252.71,522.42,2255.92,506,2253.48,490.36Z"/><path class="cls-11" d="M2256.37,448.69V470l-14.22-21.34c1.64,26.81-18.61,35.56-27.36,55.81s6,30.09,6,30.09l7.19.57c-.48-12.08,1.3-24.78,10.28-34.4.73-.73,2.77-2.12,3.14-4.17l.06-.63a3.21,3.21,0,0,1-.06.63,185.81,185.81,0,0,0-.74,20.17c11.2-4,9.6-17.6,12.8-26.4,2.44,15.59-.77,32.06-8.16,46.18l10,.79s13.13-20.79,17.51-37.76S2256.37,448.69,2256.37,448.69Z"/><polygon class="cls-25" points="1992.44 153.48 1821.24 704.22 1837.78 712.06 2005.51 159 1992.44 153.48"/><polygon class="cls-25" points="2018.93 153.48 2235.85 718.53 2219.84 726.41 2005.51 159 2018.93 153.48"/><polygon class="cls-15" points="1803.9 642.67 1764.45 694.92 1830.11 747.31 1883.34 704.22 1803.9 642.67"/><polygon class="cls-15" points="1952.4 689.76 2109.94 694.92 2096.99 757.38 1959.6 757.38 1952.4 689.76"/><polygon class="cls-15" points="2167.49 689.76 2289.06 676.48 2281.15 733.64 2167.49 747.31 2167.49 689.76"/><path class="cls-26" d="M1914.79,531.08l13.2-.35c-3.38-3.42-8.49-9.94-7.78-17.63,1-11.36,29.19-27.25,27.56-44.16,0,0,15.33,21.73,14.8,38.49a34.24,34.24,0,0,1-8.93,22.61l11.08-.3-7.09,97-36.73,8.39Z"/><path class="cls-26" d="M2073.51,532.05l13.18-.86c-3.51-3.28-8.87-9.6-8.45-17.32.62-11.39,28.14-28.34,25.86-45.18,0,0,16.14,21.13,16.25,37.91a34.24,34.24,0,0,1-8.06,22.93l11.06-.72L2120,626l-36.39,9.77Z"/><ellipse class="cls-25" cx="2007.5" cy="144.65" rx="42.78" ry="36.67"/><rect class="cls-25" x="1994.76" y="64.1" width="22.72" height="52.74"/><polygon class="cls-29" points="2414.39 878.61 3236.99 1038.57 3323.2 852.98 2414.39 878.61"/><path class="cls-30" d="M2505.91,878.61s-10.19,78.53,65.36,117.45h5.32l-7.72-117.45Z"/><path class="cls-31" d="M2511.23,878.61s-10.19,78.53,65.36,117.45l-2.4-117.45Z"/><polygon class="cls-32" points="2574.19 878.61 2574.91 913.95 2510.77 887.36 2505.45 888.79 2505.91 878.61 2574.19 878.61"/><path class="cls-30" d="M3272.1,881s10.19,78.53-65.37,117.45h-5.32L3209.13,881Z"/><path class="cls-31" d="M3266.77,881s10.2,78.53-65.36,117.45l2.4-117.45Z"/><polygon class="cls-32" points="3203.81 881.02 3203.09 916.35 3267.24 889.77 3272.56 891.2 3272.1 881.02 3203.81 881.02"/><polygon class="cls-33" points="2408.41 834.34 2457.97 798.5 3339.16 798.5 3344.69 834.34 2408.41 834.34"/><path class="cls-31" d="M2408.4,834.34l6,44.27s798,4.23,930.3,13.41V834.34Z"/><path class="cls-30" d="M2408.4,834.34h936.29s-367.63-4-556.05-4S2413.44,825.87,2408.4,834.34Z"/><path class="cls-30" d="M2408.4,834.34s-3.75,20.3,6,44.27C2414.39,878.61,2407,842.12,2408.4,834.34Z"/><polygon class="cls-34" points="2524.55 805.37 2446.79 806.58 2422.09 824.44 2512.48 821.09 2524.55 805.37"/><polygon class="cls-35" points="2936.18 814.56 2936.18 859.72 3207.05 859.72 3207.05 834.34 3179.76 815.83 2936.18 814.56"/><polygon class="cls-29" points="2541.02 793.89 2493.01 816.42 2742.73 821.51 2803.19 798.5 2541.02 793.89"/><path class="cls-36" d="M2508.22,698.06l2.68,111.35,219.12,3V698.06S2516.16,695.24,2508.22,698.06Z"/><path class="cls-37" d="M2569.71,699s-5.28,111.12-3.39,111.15S2569.71,699,2569.71,699Z"/><path class="cls-37" d="M2629.12,700.88s-3.88,42.56-3.88,55.09V812.4S2632.1,704.3,2629.12,700.88Z"/><path class="cls-37" d="M2686.14,700.88s.59,76.89,0,82.86,0,26.43,0,26.43S2688.53,703.41,2686.14,700.88Z"/><path class="cls-38" d="M2508.22,698.06l221.8,2.76v8.58s-35.52-1.49-76.72-1.49-145.08,9-145.08,9Z"/><circle class="cls-39" cx="2518.22" cy="726.57" r="2.84"/><circle class="cls-39" cx="2521.38" cy="797.05" r="3.16"/><circle class="cls-39" cx="2720.69" cy="720.97" r="4.1"/><circle class="cls-39" cx="2720.39" cy="797.69" r="3.81"/><polygon class="cls-40" points="2734.76 635.33 2767.22 637.35 2765.73 694.2 2733.49 700.88 2711.25 670.98 2734.76 635.33"/><path class="cls-41" d="M2736.94,646.93c-29.61,1.72-59.54-.69-88.19-9.58l-82.43,2c-9.8,3.58-19.69,7.31-29.79,10-12,2.66-24.55,1.44-36.74.5l.4,17.86c29.83-6,59.27-14.85,89.94-12.76,49.45,3.85,97.86,18,143.59,37.11l.41-15.73-12.61-3.78,13.24-3.78S2736.59,656.57,2736.94,646.93Z"/><path class="cls-41" d="M2602.93,669.32c-33.3-5.55-60,12.35-85.77,29.73,7.14-.7,14.91-1.32,19.67-1.32,1.69,0,7.74.08,16.72.21,20.72-17.48,47.52-13.55,68.37,1.08l39.56.66A114,114,0,0,0,2602.93,669.32Z"/><path class="cls-42" d="M2553.55,697.94c16.08.24,41.57.64,68.37,1.08C2601.07,684.39,2574.27,680.46,2553.55,697.94Z"/><text class="cls-43" transform="translate(2564.4 663.12)">v</text><path class="cls-42" d="M2736.94,646.93c.23-6.35-.18-11.6-2.18-11.6s-40.65.92-86,2C2677.4,646.24,2707.33,648.65,2736.94,646.93Z"/><path class="cls-42" d="M2536.53,649.32c10.1-2.65,20-6.38,29.79-10L2499.6,641l.19,8.82C2512,650.76,2524.53,652,2536.53,649.32Z"/><path class="cls-37" d="M2755,696.81s-2.68,45.31-2.68,56.33V798.5L2730,812.4V700.82Z"/><polygon class="cls-37" points="2734.76 668.74 2763.94 670.38 2734.13 676.3 2721.52 672.52 2734.76 668.74"/><polygon class="cls-37" points="2766.72 656.12 2742.73 652.82 2766.72 652.82 2766.72 656.12"/><polygon class="cls-44" points="2730.02 709.4 2754.49 705.83 2755.01 696.81 2730.02 700.82 2730.02 709.4"/><polygon class="cls-45" points="2842.48 440.64 3144.19 440.64 3137.86 818.75 2832.42 818.75 2842.48 440.64"/><polygon class="cls-46" points="2866.48 476.69 3117.9 476.69 3107.55 787.76 2861.68 787.76 2866.48 476.69"/><polygon class="cls-20" points="2866.48 476.69 2842.48 440.64 3144.19 440.64 3117.9 476.69 2866.48 476.69"/><path class="cls-47" d="M2865.26,426.8c7-6.18,3.58-19.72-5.49-21.94-5.46-1.33-10.83,1.42-14.34,5.52A27.78,27.78,0,0,0,2839,426c-.51,5.69,1.15,11.95,6.47,14.88a21.44,21.44,0,0,0,9,2.18c3.63.26,7.28.39,10.91.45a75.43,75.43,0,0,0,20.31-2.15,84.51,84.51,0,0,0,16.75-6.48c10.81-5.44,20.66-12.53,30.76-19.12,10.67-7,22-13.82,34.52-16.66,11.83-2.68,25.29-.82,33.46,8.94a19.57,19.57,0,0,1,4.56,14.37,17.92,17.92,0,0,1-6.31,12.33c-10,8-24.42-.83-31.79-8.45-1.82-1.88-3.93-4.48-3.86-7.25.07-2.92,3.39-4.44,5.71-5.4,4.45-1.84,11.76-2.16,12.55,4.07a3.8,3.8,0,0,1-1.87,4.14c-2.29,1.17-.27,4.62,2,3.46,4.71-2.39,4.78-8.92,2-12.79-4-5.61-11.87-4.6-17.37-2-2.92,1.37-5.92,3.35-6.77,6.65-.79,3.08.43,6.27,2.17,8.8a32.75,32.75,0,0,0,6.83,6.93,49.74,49.74,0,0,0,8.4,5.53c5.7,2.89,12.36,4.51,18.62,2.54a19.22,19.22,0,0,0,11.64-10.6,23.74,23.74,0,0,0,1.33-15.9,26.63,26.63,0,0,0-10.17-14c-11.12-8.19-25.77-7.71-38.33-3.49-12.26,4.13-23.24,11.26-33.93,18.37-10.26,6.81-20.51,14-31.91,18.75a68,68,0,0,1-17.51,4.89c-7.48,1-15.2.61-22.7.08-2.9-.2-6.15-.63-8.42-2.63a10,10,0,0,1-3.06-6.85,23.33,23.33,0,0,1,4.74-15.69c2.77-3.6,7.91-7.06,12.52-4.62,3.44,1.81,5.2,6.12,4.76,9.87a7.56,7.56,0,0,1-2.54,4.84c-1.94,1.7.9,4.52,2.83,2.82Z"/><path class="cls-47" d="M3027.72,421.18a5,5,0,0,1,2.44-5.64c2.23-1.34,5-.69,7,.77,4,2.9,4.55,8.33,2.55,12.58a11.79,11.79,0,0,1-11.37,7,15.21,15.21,0,0,1-12.43-7.85,18.68,18.68,0,0,1-.11-16.36,23.93,23.93,0,0,1,12.47-11.55c10.86-4.66,24.26-2.24,33.05,5.58s12.88,19.07,21,27.29c8.86,9,21.82,12,34.1,11.33,6.17-.33,12.53-2,16.46-7.09,3.53-4.6,4.67-10.76,3.89-16.42a22.16,22.16,0,0,0-7.48-14.11,18.14,18.14,0,0,0-14.28-3.91,16.8,16.8,0,0,0-12.13,7.7,13.81,13.81,0,0,0,1,15.58,10.85,10.85,0,0,0,13.92,2c4.6-3.09,4.9-9.22,1.34-13.26a7.61,7.61,0,0,0-6.21-2.63c-2.54.22-2.57,4.22,0,4,4.07-.34,6.25,5.46,3.28,8.1a6.64,6.64,0,0,1-5.7,1.3,6.85,6.85,0,0,1-4.88-4.23,10.4,10.4,0,0,1,4-12.34,14.78,14.78,0,0,1,12.87-1.72c10,3.37,13.15,17.38,8.26,25.94-3,5.33-9,6.82-14.71,7.08a49.77,49.77,0,0,1-18-2.26,32.91,32.91,0,0,1-14.39-9.57c-3.76-4.24-6.66-9.14-9.8-13.84s-6.64-9.48-11.17-13.06a36.31,36.31,0,0,0-16.39-7.31c-11.72-2-24.53,1.86-31.73,11.69-7,9.61-6,24.5,4.65,31,4.51,2.79,10.39,3.79,15.42,1.86a16.28,16.28,0,0,0,9.72-11,13.77,13.77,0,0,0-4.14-14.26c-4.6-3.78-11.26-3.81-15,1.22a8.4,8.4,0,0,0-1.34,7.41c.77,2.45,4.63,1.4,3.86-1.06Z"/><polygon class="cls-48" points="3115.1 629.51 2865.39 536.36 2865.51 489.31 3115.22 582.46 3115.1 629.51"/><polygon class="cls-48" points="3114.98 676.4 2865.27 583.24 2865.33 561.11 3115.04 654.26 3114.98 676.4"/><polygon class="cls-49" points="723.59 308.05 1264.2 308.05 1255.36 337.97 723.59 337.62 723.59 308.05"/><path class="cls-49" d="M731.18,324.66c0,21.84-15.54,39.55-34.7,39.55s-34.69-17.71-34.69-39.55,15.53-39.55,34.69-39.55S731.18,302.82,731.18,324.66Z"/><path class="cls-49" d="M1320.28,324.66c0,21.84-14.74,39.55-32.93,39.55s-32.92-17.71-32.92-39.55,14.74-39.55,32.92-39.55S1320.28,302.82,1320.28,324.66Z"/><polygon class="cls-50" points="774.08 380.05 774.08 750.83 997.63 690.24 1231.89 748.54 1221.79 379.05 774.08 380.05"/><polygon class="cls-51" points="763.98 354.29 763.98 725.07 987.53 664.48 1221.79 722.78 1221.79 353.29 763.98 354.29"/><polyline class="cls-52" points="786.79 354.74 788.85 692.97 991.8 636.99 1198.56 689.26 1196.37 356.59"/><polygon class="cls-53" points="1014.44 559.48 1029.14 549.12 1050.09 555.4 1031.66 570.5 1014.44 559.48"/><polygon class="cls-54" points="1029.14 549.12 1020.25 533.63 1038.88 536.34 1050.09 555.4 1029.14 549.12"/><path class="cls-14" d="M1047.56,410.22c-9.86-14.05-25.5-22.12-45.21-23.34-2.42-.15-4.83-.22-7.16-.22-47.23,0-63.13,29.8-64.8,37.78-.56,2.66,0,4.26,1.51,4.75a6.46,6.46,0,0,0,2,.31c4.41,0,9-3.86,9.64-4.38.23-.23,23.33-22.92,48.92-22.92a41.35,41.35,0,0,1,4.18.2c25.2,2.51,26.59,24.59,25.83,49-.5,15.86-13.75,48.86-43.41,59.7,9-44.19,28.13-84.05,30.29-86.91,3.59-4.78,1.85-7.87,1.1-9.2-1.17-2.06-15.11-7.79-20.08-8.85a13.19,13.19,0,0,0-2.8-.3,14.74,14.74,0,0,0-8.36,2.68c-7.86,6-17.13,21.47-24.8,41.3-7.82,20.2-13,42.41-14.28,61.34-20.38-10.17-8.57-39.87-8.44-40.18l.1-.24v-.26c-.06-7.56-3.37-9.15-6.13-9.15-3.75,0-7.62,3.22-8.05,3.58l-.22.24c-6.24,8.17-11.22,27.52-4.32,42.61,4.66,10.21,13.75,16.94,27,20a91.79,91.79,0,0,0,5.11,24.07c6,21.8,18.67,42.1,26.54,42.59l.78,0c8.36,0,12.72-8.16,12.91-8.51l.32-.63-.34-.62c-7.2-13-10.58-29.57-10.07-49.18.22-2.2.48-4.49.78-6.84,40.27-5.3,66.51-30.3,77.7-52.1C1061,462.65,1062.76,431.86,1047.56,410.22Z"/><ellipse class="cls-18" cx="451.92" cy="1952.63" rx="224.88" ry="20.34"/><path class="cls-37" d="M253.57,1574.82S193.16,1792.21,276.39,1922c0,0,142.3,29.6,316.81,4.2,0,0,76.51-118.47,9.5-362.59Z"/><path class="cls-55" d="M245.57,1544s195.94-41.43,361.05-16.57L617.36,1563s-321.79,14.21-381,20.13Z"/><path class="cls-55" d="M248.2,1901.53s231.16,28.91,369.16,0l-15.12,36.83s-93.16,8.34-170.94,8.76-167.18-8.76-167.18-8.76Z"/><path class="cls-41" d="M248.2,1901.53l14.74-3.7s12.63,5.23,50.61,6.92,172.35,5.35,207.78,3.38,84.51-8.56,84.51-8.56l1.85-4.9,9.67,6.86s-114.48,23-235.51,12.23S248.2,1901.53,248.2,1901.53Z"/><path class="cls-56" d="M301.2,1578.59s-10.61,112.78-8.68,161.8,21,164.36,21,164.36S277.1,1667,301.2,1578.59Z"/><path class="cls-56" d="M387.81,1573.89s4,142.58,4,187.84-4,143-4,143S407.91,1652.47,387.81,1573.89Z"/><path class="cls-56" d="M492.89,1568.71s36.77,128.48-6.61,336.94C486.28,1905.65,543.84,1695.68,492.89,1568.71Z"/><path class="cls-56" d="M561.47,1568.71s31.19,111.42,29.88,168.47-24.1,168.47-24.1,168.47S610.63,1682.93,561.47,1568.71Z"/><path class="cls-39" d="M243.55,1620.86s270.29-23.82,369.77-14.34l7.51,38.56s-138.41,2.38-228.06,5.78-155.92,15.32-155.92,15.32Z"/><path class="cls-39" d="M236.85,1797.32s172.32,26.82,392.1-8.82l-8.12,46s-176.42,39-379.13,0Z"/><path class="cls-57" d="M426.84,1578.59s1.05,98.33,0,149.27-4.72,166.81-4.72,166.81,14.1-1.41,24.91,0,28.66-110,28.66-171.94-11.55-144.14-11.55-144.14Z"/><path class="cls-58" d="M251.45,1583.11l351.25-19.47,6.84,26.52s-182-20.66-361.34,10.68Z"/><path class="cls-37" d="M610.63,1178.34s60.41,217.39-22.82,347.22c0,0-142.3,29.59-316.81,4.2,0,0-76.52-118.47-9.5-362.6Z"/><path class="cls-55" d="M618.63,1147.57s-195.94-41.43-361-16.57l-10.74,35.51s321.79,14.2,381,20.12Z"/><path class="cls-55" d="M616,1505.05s-231.16,28.91-369.16,0L262,1541.89s93.16,8.33,170.94,8.75,167.18-8.75,167.18-8.75Z"/><path class="cls-41" d="M616,1505.05l-14.74-3.7s-12.63,5.24-50.61,6.93-172.35,5.34-207.78,3.37-84.51-8.56-84.51-8.56l-1.85-4.89-9.67,6.85s114.48,23,235.51,12.23S616,1505.05,616,1505.05Z"/><path class="cls-56" d="M563,1182.12s10.61,112.77,8.68,161.79-21,164.37-21,164.37S587.1,1270.51,563,1182.12Z"/><path class="cls-56" d="M476.39,1177.41s-4,142.58-4,187.84,4,143,4,143S456.29,1256,476.39,1177.41Z"/><path class="cls-56" d="M371.31,1172.24s-36.77,128.47,6.61,336.94C377.92,1509.18,320.36,1299.2,371.31,1172.24Z"/><path class="cls-56" d="M302.73,1172.24s-31.19,111.41-29.88,168.47S297,1509.18,297,1509.18,253.57,1286.45,302.73,1172.24Z"/><path class="cls-39" d="M620.65,1224.39s-270.29-23.83-369.78-14.34l-7.5,38.56s138.41,2.37,228.05,5.77,155.93,15.32,155.93,15.32Z"/><path class="cls-39" d="M627.35,1400.84S455,1427.66,235.25,1392l8.12,46s176.41,39,379.12,0Z"/><path class="cls-57" d="M437.36,1182.12s-1.05,98.32,0,149.27,4.72,166.81,4.72,166.81-14.11-1.42-24.91,0-28.67-110-28.67-172,11.56-144.13,11.56-144.13Z"/><path class="cls-58" d="M612.74,1186.63,261.5,1167.16l-6.85,26.52s182-20.66,361.35,10.69Z"/><path class="cls-59" d="M373.73,387.57,366,419.92C382.64,419.92,373.73,387.57,373.73,387.57Z"/><path class="cls-60" d="M523.82,549.72l1.33-22.59-21.21-.37c34-66.65-19.45-152.34-19.45-152.34,0,20-26.72,48.52-26.72,48.52L448.87,343c-37.4,22.83-53.43,97.05-53.43,97.05l-8.91-22.84s-12.47,21.41-17.81,54.24c-3.75,23,7.4,43.22,14.39,53.23L358,524.27l3.57,30.93,49.73-1.68,3.11,11.19.52.1L422.27,612c-11.77,5.33-19.71,14.92-19.71,26,0,16.82,18.21,30.45,40.67,30.45s40.66-13.63,40.66-30.45c0-11.89-9.19-22.07-22.46-27.09l10.41-59.4Z"/><path class="cls-61" d="M469.4,612.41c0,16.82-18.21,30.45-40.67,30.45s-40.67-13.63-40.67-30.45S406.27,582,428.73,582,469.4,595.6,469.4,612.41Z"/><path class="cls-62" d="M373.81,505.85s-24.93-27.12-19.59-59.94S372,391.67,372,391.67l8.91,22.84s16-74.22,53.43-97.05l8.9,79.92S470,368.84,470,348.86c0,0,55.21,88.48,17.81,155.56C487.8,504.42,418.34,518.69,373.81,505.85Z"/><path class="cls-63" d="M386.28,508.7s-8.9-57.08-7.12-64.22,8.9,5.71,8.9,5.71,21.37-57.09,30.28-79.92l24.93,69.93s19.6-22.84,21.38-45.67c0,0,20.78,65.65,3,112.75C467.62,507.28,437.93,517.27,386.28,508.7Z"/><path class="cls-64" d="M407.65,510.84s10.69-42.1,10.69-57.8V438.77s17.81,20,19.59,32.83l19.59-14.28s3.56,38.54-10.68,51.38Z"/><path class="cls-64" d="M399.94,487.77s-4.75-26.16,1.78-46.14C401.72,441.63,413,480.16,399.94,487.77Z"/><path class="cls-62" d="M375,376l7.72-32.35S391.63,376,375,376Z"/><polygon class="cls-65" points="343.54 498.71 510.65 501.57 509.32 524.17 347.1 529.64 343.54 498.71"/><path class="cls-65" d="M398.16,524.4l12.46,80.4s13.06,4.28,32.65,1.43l14.25-81.35Z"/><polygon class="cls-61" points="396.38 526.31 457.52 524.88 452.77 549.14 399.94 539.15 396.38 526.31"/><path class="cls-61" d="M420.72,606.71l-.6-58.52S426.06,605.75,420.72,606.71Z"/><path class="cls-61" d="M431.4,595.76s1.19-70.4,2.38-65.17S436.15,596.24,431.4,595.76Z"/><path class="cls-61" d="M411.81,571s-4.16-38.06-7.12-38.54S411.81,571,411.81,571Z"/><path class="cls-61" d="M374.41,512c0,3.68-3.32,6.66-7.42,6.66s-7.42-3-7.42-6.66,3.32-6.66,7.42-6.66S374.41,508.36,374.41,512Z"/><path class="cls-61" d="M500.86,512.27a6,6,0,1,1-5.94-5.47A5.72,5.72,0,0,1,500.86,512.27Z"/><ellipse class="cls-66" cx="147.34" cy="2001.31" rx="28.96" ry="20.11"/><ellipse class="cls-67" cx="164.48" cy="2001.31" rx="7.38" ry="13.16"/></g></g></svg>