<svg xmlns="http://www.w3.org/2000/svg" xmlns:xlink="http://www.w3.org/1999/xlink" width="1737.34" height="985.23" viewBox="0 0 1737.34 985.23"><defs><style>.cls-1{fill:#030202;opacity:0.39;}.cls-2{fill:#8e504d;}.cls-3{fill:#4c231d;}.cls-4{fill:#a3836d;}.cls-5{fill:#240f0e;}.cls-6{fill:#60493a;}.cls-69,.cls-7{fill:#7f6858;}.cls-8{fill:#b29786;}.cls-9{fill:#381815;}.cls-10{fill:#e5e4e3;}.cls-11{fill:#565656;}.cls-12{fill:#232120;}.cls-13{fill:#cc9265;}.cls-14{fill:#e3cdbf;}.cls-15{fill:#c9b1a3;}.cls-16{fill:#5f2b7b;}.cls-17{fill:#1e3d1c;}.cls-18{fill:#ba805a;}.cls-19{fill:#992220;}.cls-20{fill:#aa3636;}.cls-21{fill:url(#linear-gradient);}.cls-22{fill:#fff;}.cls-22,.cls-69{opacity:0.11;}.cls-23{opacity:0.45;}.cls-24{fill:url(#linear-gradient-2);}.cls-25{fill:url(#linear-gradient-3);}.cls-26{fill:url(#linear-gradient-4);}.cls-27{fill:url(#linear-gradient-5);}.cls-28{fill:url(#linear-gradient-6);}.cls-29{fill:url(#linear-gradient-7);}.cls-30{fill:url(#linear-gradient-8);}.cls-31{fill:url(#linear-gradient-9);}.cls-32{fill:url(#linear-gradient-10);}.cls-33{fill:url(#linear-gradient-11);}.cls-34{fill:url(#linear-gradient-12);}.cls-35{fill:url(#linear-gradient-13);}.cls-36{fill:url(#linear-gradient-14);}.cls-37{fill:url(#linear-gradient-15);}.cls-38{fill:url(#linear-gradient-16);}.cls-39{fill:url(#linear-gradient-17);}.cls-40{fill:url(#linear-gradient-18);}.cls-41{fill:url(#linear-gradient-19);}.cls-42{fill:url(#linear-gradient-20);}.cls-43{fill:url(#linear-gradient-21);}.cls-44{fill:#c3972d;}.cls-45{fill:#b27230;}.cls-46{fill:#8d593c;}.cls-47{fill:#d66b6b;}.cls-48{fill:url(#linear-gradient-22);}.cls-49{fill:url(#linear-gradient-23);}.cls-50{fill:url(#linear-gradient-24);}.cls-51{fill:url(#linear-gradient-25);}.cls-52{fill:url(#linear-gradient-26);}.cls-53{fill:url(#linear-gradient-27);}.cls-54{fill:url(#linear-gradient-28);}.cls-55{fill:url(#linear-gradient-29);}.cls-56{fill:url(#linear-gradient-30);}.cls-57{fill:url(#linear-gradient-31);}.cls-58{fill:url(#linear-gradient-32);}.cls-59{fill:url(#linear-gradient-33);}.cls-60{fill:url(#linear-gradient-34);}.cls-61{fill:url(#linear-gradient-35);}.cls-62{fill:url(#linear-gradient-36);}.cls-63{fill:url(#linear-gradient-37);}.cls-64{fill:url(#linear-gradient-38);}.cls-65{fill:url(#linear-gradient-39);}.cls-66{fill:url(#linear-gradient-40);}.cls-67{fill:url(#linear-gradient-41);}.cls-68{fill:url(#linear-gradient-42);}.cls-70{fill:#ccae7f;}.cls-71{fill:#6fa942;}</style><linearGradient id="linear-gradient" x1="-2302.2" y1="-4099.03" x2="-2289.46" y2="-3934.25" gradientTransform="translate(3884.55 3225.4) rotate(-19.99)" gradientUnits="userSpaceOnUse"><stop offset="0" stop-color="#a1bb4b"/><stop offset="1" stop-color="#005d33"/></linearGradient><linearGradient id="linear-gradient-2" x1="-2328.17" y1="-4020.74" x2="-2323.79" y2="-4005.73" gradientTransform="matrix(0.79, 0.61, -0.61, 0.79, -272.72, 4853.24)" gradientUnits="userSpaceOnUse"><stop offset="0" stop-color="#a1bb4b"/><stop offset="1" stop-color="#548239"/></linearGradient><linearGradient id="linear-gradient-3" x1="-2289.68" y1="-4028.38" x2="-2284.5" y2="-4010.64" gradientTransform="translate(-615.92 4747.63) rotate(41.86)" xlink:href="#linear-gradient-2"/><linearGradient id="linear-gradient-4" x1="-2230.6" y1="-3982.32" x2="-2226.22" y2="-3967.31" gradientTransform="translate(-226.85 4760.62) rotate(37.6)" xlink:href="#linear-gradient-2"/><linearGradient id="linear-gradient-5" x1="-2263.2" y1="-3980.37" x2="-2259.56" y2="-3967.88" gradientTransform="translate(-702.41 4700.86) rotate(43.62)" xlink:href="#linear-gradient-2"/><linearGradient id="linear-gradient-6" x1="-2371.91" y1="-4051.12" x2="-2366.69" y2="-4033.23" gradientTransform="translate(-99.9 4906.72) rotate(35)" xlink:href="#linear-gradient-2"/><linearGradient id="linear-gradient-7" x1="-2300.27" y1="-4010.73" x2="-2296.81" y2="-3998.88" gradientTransform="translate(-277.78 4821.42) rotate(37.75)" xlink:href="#linear-gradient-2"/><linearGradient id="linear-gradient-8" x1="-1301" y1="-1830.69" x2="-1289.5" y2="-1681.88" gradientTransform="translate(2091.48 1617.63) rotate(-16.25)" xlink:href="#linear-gradient"/><linearGradient id="linear-gradient-9" x1="-1331.29" y1="-1753.02" x2="-1327.24" y2="-1739.12" gradientTransform="matrix(0.57, 0.82, -0.82, 0.57, -347.45, 2400.95)" xlink:href="#linear-gradient-2"/><linearGradient id="linear-gradient-10" x1="-1289.98" y1="-1761.79" x2="-1285.19" y2="-1745.36" gradientTransform="translate(-553.76 2265.53) rotate(61.33)" xlink:href="#linear-gradient-2"/><linearGradient id="linear-gradient-11" x1="-1228.25" y1="-1726.74" x2="-1224.2" y2="-1712.84" gradientTransform="translate(-278.35 2297.73) rotate(55.23)" xlink:href="#linear-gradient-2"/><linearGradient id="linear-gradient-12" x1="-1262.97" y1="-1723.57" x2="-1259.6" y2="-1712.02" gradientTransform="translate(-569.77 2218.29) rotate(63.41)" xlink:href="#linear-gradient-2"/><linearGradient id="linear-gradient-13" x1="-1374.27" y1="-1785.89" x2="-1369.44" y2="-1769.33" gradientTransform="matrix(0.63, 0.77, -0.77, 0.63, -224.22, 2483.06)" xlink:href="#linear-gradient-2"/><linearGradient id="linear-gradient-14" x1="-1300.52" y1="-1750.72" x2="-1297.32" y2="-1739.75" gradientTransform="translate(-343.69 2364.94) rotate(55.47)" xlink:href="#linear-gradient-2"/><linearGradient id="linear-gradient-15" x1="-107.55" y1="-231.06" x2="-96.92" y2="-93.54" gradientTransform="translate(462.87 347.04) rotate(-3.13)" xlink:href="#linear-gradient"/><linearGradient id="linear-gradient-16" x1="-139.81" y1="-157.85" x2="-135.95" y2="-144.63" gradientTransform="translate(190.26 363.52) rotate(81.32)" xlink:href="#linear-gradient-2"/><linearGradient id="linear-gradient-17" x1="-97.11" y1="-168.45" x2="-92.56" y2="-152.84" gradientTransform="translate(212.42 304.59) rotate(83.77)" xlink:href="#linear-gradient-2"/><linearGradient id="linear-gradient-18" x1="-36.23" y1="-137.08" x2="-32.37" y2="-123.87" gradientTransform="translate(299.72 273.08) rotate(81.32)" xlink:href="#linear-gradient-2"/><linearGradient id="linear-gradient-19" x1="-71.83" y1="-132.29" x2="-68.63" y2="-121.31" gradientTransform="matrix(0.1, 1, -1, 0.1, 268.17, 307.28)" xlink:href="#linear-gradient-2"/><linearGradient id="linear-gradient-20" x1="-181.69" y1="-188" x2="-177.09" y2="-172.24" gradientTransform="translate(135.89 389.84) rotate(78.41)" xlink:href="#linear-gradient-2"/><linearGradient id="linear-gradient-21" x1="-108.44" y1="-157.12" x2="-105.4" y2="-146.69" gradientTransform="translate(215.11 330.21) rotate(81.44)" xlink:href="#linear-gradient-2"/><linearGradient id="linear-gradient-22" x1="-2015.6" y1="-4018.47" x2="-2002.86" y2="-3853.69" gradientTransform="matrix(-0.95, -0.3, -0.3, 0.95, -2047.66, 3350.82)" xlink:href="#linear-gradient"/><linearGradient id="linear-gradient-23" x1="-2068.04" y1="-3875.94" x2="-2063.67" y2="-3860.93" gradientTransform="matrix(-0.61, -0.79, -0.79, 0.61, -3236.75, 956.64)" xlink:href="#linear-gradient-2"/><linearGradient id="linear-gradient-24" x1="-2029.56" y1="-3883.58" x2="-2024.38" y2="-3865.84" gradientTransform="matrix(-0.67, -0.74, -0.74, 0.67, -3179.87, 1283.23)" xlink:href="#linear-gradient-2"/><linearGradient id="linear-gradient-25" x1="-1943.99" y1="-3901.76" x2="-1939.62" y2="-3886.75" gradientTransform="matrix(-0.61, -0.79, -0.79, 0.61, -3281.28, 1071.96)" xlink:href="#linear-gradient-2"/><linearGradient id="linear-gradient-26" x1="-1976.59" y1="-3899.8" x2="-1972.95" y2="-3887.32" gradientTransform="matrix(-0.69, -0.72, -0.72, 0.69, -3161.15, 1501.04)" xlink:href="#linear-gradient-2"/><linearGradient id="linear-gradient-27" x1="-2085.31" y1="-3970.56" x2="-2080.09" y2="-3952.67" gradientTransform="matrix(-0.57, -0.82, -0.82, 0.57, -3296.02, 779.51)" xlink:href="#linear-gradient-2"/><linearGradient id="linear-gradient-28" x1="-2013.67" y1="-3930.17" x2="-2010.21" y2="-3918.32" gradientTransform="matrix(-0.61, -0.79, -0.79, 0.61, -3269.99, 1038.37)" xlink:href="#linear-gradient-2"/><linearGradient id="linear-gradient-29" x1="-1009.75" y1="-1769.03" x2="-998.24" y2="-1620.22" gradientTransform="matrix(-0.97, -0.24, -0.24, 0.97, -319.32, 1673.66)" xlink:href="#linear-gradient"/><linearGradient id="linear-gradient-30" x1="-1040.03" y1="-1691.36" x2="-1035.98" y2="-1677.47" gradientTransform="matrix(-0.82, -0.57, -0.57, 0.82, -717.72, 1082.22)" xlink:href="#linear-gradient-2"/><linearGradient id="linear-gradient-31" x1="-998.72" y1="-1700.13" x2="-993.93" y2="-1683.71" gradientTransform="matrix(-0.88, -0.48, -0.48, 0.88, -628.97, 1279.68)" xlink:href="#linear-gradient-2"/><linearGradient id="linear-gradient-32" x1="-937" y1="-1665.08" x2="-932.94" y2="-1651.18" gradientTransform="matrix(-0.82, -0.57, -0.57, 0.82, -724.43, 1119.99)" xlink:href="#linear-gradient-2"/><linearGradient id="linear-gradient-33" x1="-971.71" y1="-1661.91" x2="-968.34" y2="-1650.36" gradientTransform="matrix(-0.89, -0.45, -0.45, 0.89, -586.2, 1348.1)" xlink:href="#linear-gradient-2"/><linearGradient id="linear-gradient-34" x1="-1083.01" y1="-1724.23" x2="-1078.19" y2="-1707.67" gradientTransform="matrix(-0.77, -0.63, -0.63, 0.77, -779.3, 911.11)" xlink:href="#linear-gradient-2"/><linearGradient id="linear-gradient-35" x1="-1009.26" y1="-1689.06" x2="-1006.06" y2="-1678.09" gradientTransform="matrix(-0.82, -0.57, -0.57, 0.82, -718.69, 1099.65)" xlink:href="#linear-gradient-2"/><linearGradient id="linear-gradient-36" x1="190.1" y1="-237.1" x2="200.73" y2="-99.59" gradientTransform="matrix(-1, -0.02, -0.02, 1, 1257.96, 339.9)" xlink:href="#linear-gradient"/><linearGradient id="linear-gradient-37" x1="157.84" y1="-163.89" x2="161.69" y2="-150.68" gradientTransform="matrix(-0.99, -0.15, -0.15, 0.99, 1235.02, 359.87)" xlink:href="#linear-gradient-2"/><linearGradient id="linear-gradient-38" x1="200.54" y1="-174.49" x2="205.09" y2="-158.88" gradientTransform="matrix(-0.99, -0.11, -0.11, 0.99, 1241.41, 357.9)" xlink:href="#linear-gradient-2"/><linearGradient id="linear-gradient-39" x1="261.42" y1="-143.13" x2="265.28" y2="-129.91" gradientTransform="matrix(-0.99, -0.15, -0.15, 0.99, 1236.66, 374.15)" xlink:href="#linear-gradient-2"/><linearGradient id="linear-gradient-40" x1="225.82" y1="-138.34" x2="229.02" y2="-127.36" gradientTransform="matrix(-1, -0.1, -0.1, 1, 1246.09, 358.01)" xlink:href="#linear-gradient-2"/><linearGradient id="linear-gradient-41" x1="115.96" y1="-194.04" x2="120.56" y2="-178.29" gradientTransform="matrix(-0.98, -0.2, -0.2, 0.98, 1221.31, 358.23)" xlink:href="#linear-gradient-2"/><linearGradient id="linear-gradient-42" x1="189.21" y1="-163.17" x2="192.25" y2="-152.74" gradientTransform="matrix(-0.99, -0.15, -0.15, 0.99, 1234.91, 363.7)" xlink:href="#linear-gradient-2"/></defs><g id="Layer_2" data-name="Layer 2"><g id="Layer_1-2" data-name="Layer 1"><polygon class="cls-1" points="0 985.23 306.25 779.24 1511.88 779.24 1737.34 963.39 0 985.23"/><path class="cls-2" d="M142.66,524.4s-13.61,1-17.35,7.48,1.72,57.43,4.78,61.5,10.14,4.46,19.17,3.42Z"/><path class="cls-3" d="M143.46,527.83s-16,1-19.75,7.47,1.72,57.44,4.78,61.51,10.14,4.46,21.57,3.42Z"/><path class="cls-4" d="M1488.83,499.07s13.64-.27,18,5.8,3.74,57.34,1.08,61.69-9.67,5.39-18.76,5.21Z"/><path class="cls-3" d="M1490.74,502.33s13.65-.27,18,5.8,3.73,57.34,1.08,61.69-9.68,5.39-18.77,5.21Z"/><polygon class="cls-4" points="1490.89 486.9 1198.83 492.45 1486.4 484.1 1490.89 486.9"/><polygon class="cls-5" points="1276.74 405.89 1353.42 449.43 1366.16 449.43 1288.33 405.89 1276.74 405.89"/><polygon class="cls-6" points="1366.16 449.43 1366.16 447.66 1354.22 441.15 1354.22 442.75 1366.16 449.43"/><path class="cls-7" d="M1355.13,444.23s5.81-24.7-8.13-32.72-46.23-23.7-52.62-21.65c-8.82,2.84-6.45,19.28-6.45,19.28Z"/><polygon class="cls-7" points="1350.53 445 1355.13 444.23 1355.13 435.88 1348.35 434.33 1350.53 445"/><path class="cls-7" d="M1288.33,391.28a12,12,0,0,1,8.05-1.6c4.37.82,5.52,10.72,5.52,10.72Z"/><path class="cls-5" d="M1350.53,445s5.81-24.7-8.13-32.71-46.23-23.71-52.62-21.65c-8.82,2.83-6.45,19.27-6.45,19.27Z"/><polygon class="cls-3" points="141.86 512.57 367.66 384.76 1324.26 382.76 1490.89 486.9 141.86 512.57"/><path class="cls-8" d="M352.46,796.6l-160,168.18s-2.05-161,10.26-190.18c8.95-21.23,43.14-53.72,43.14-53.72l3-170.42L309.86,529l-.58,154.51s23.81-25.66,33.05-23.81c5.5,1.1,10.95,10.81,11.36,31.94C354,705.94,352.46,796.6,352.46,796.6Z"/><path class="cls-8" d="M201.37,968.87l-8.94-4.09v-25.2S205.24,942.12,201.37,968.87Z"/><path class="cls-8" d="M342.33,659.72a32.55,32.55,0,0,1,12.09,5.72l-12.09,9.14Z"/><path class="cls-9" d="M318.8,533.11l-61.06,21.44L255.4,688.71a663.9,663.9,0,0,0,63-46Z"/><path class="cls-3" d="M362.62,695.75c-.41-21.13-5.86-30.84-11.35-31.94-9.24-1.85-33.06,23.81-33.06,23.81l.17-44.89a663.9,663.9,0,0,1-63,46L254.77,725s-34.19,32.49-43.15,53.72c-12.31,29.16-10.25,190.18-10.25,190.18l160-168.19S362.9,710,362.62,695.75Z"/><polygon class="cls-4" points="245.83 720.88 254.77 724.97 257.74 554.55 248.81 550.46 245.83 720.88"/><path class="cls-8" d="M1257.72,813l160,168.19s2.06-161-10.25-190.19c-9-21.22-43.15-53.72-43.15-53.72l-3-170.41-61.06-21.44.59,154.51s-23.82-25.67-33.06-23.82c-5.49,1.1-10.94,10.81-11.35,31.95C1256.21,722.3,1257.72,813,1257.72,813Z"/><path class="cls-8" d="M1408.81,985.23l8.93-4.09V955.93S1404.93,958.48,1408.81,985.23Z"/><path class="cls-8" d="M1267.84,676.07a32.55,32.55,0,0,0-12.09,5.73l12.09,9.14Z"/><path class="cls-9" d="M1352.43,570.91l-61-21.44.35,93.41c20.6-4.84,41.15-9.93,61.69-15.48Z"/><path class="cls-3" d="M1398.56,795c-9-21.22-43.15-53.72-43.15-53.72l-2-113.92c-20.54,5.55-41.09,10.64-61.69,15.48L1292,704s-23.81-25.67-33-23.82c-5.5,1.1-10.94,10.81-11.36,32-.27,14.28,1.23,104.93,1.23,104.93l160,168.19S1410.86,824.21,1398.56,795Z"/><polygon class="cls-4" points="1364.34 737.23 1355.41 741.32 1352.43 570.9 1361.37 566.82 1364.34 737.23"/><polygon class="cls-5" points="141.86 512.57 1490.89 486.9 1490.89 583.03 150.66 612.7 141.86 512.57"/><path class="cls-10" d="M667,294l310.6-9.18S952.41,405.9,811,414.28,667,294,667,294Z"/><path class="cls-10" d="M744,437.64s10.46-38.74,67.54-40.73,73.31,40.36,73.31,40.36Z"/><path class="cls-11" d="M667,297.77l310.61-9.17S952.42,409.65,811,418,667,297.77,667,297.77Z"/><path class="cls-11" d="M744,441.39s10.46-38.74,67.54-40.73S884.85,441,884.85,441Z"/><path class="cls-12" d="M685.87,303.38,953.62,299S864.08,320.19,810,321.81,685.87,303.38,685.87,303.38Z"/><ellipse class="cls-11" cx="369.55" cy="464.88" rx="150.56" ry="30.14" transform="translate(-21.43 17.87) rotate(-2.69)"/><path class="cls-13" d="M476.94,404.25v46.92s-49.13,25.1-99.2,20.73c0,0-87.15,8.55-108,4.28s-31.52-7-31.52-7l-2.78-54s20.4,14.14,57,15.78,91.32-6,91.32-6S424.1,428.25,476.94,404.25Z"/><path class="cls-14" d="M476.94,404.25s-9.73-19.65-81.58-15.83S234.79,402.68,235.43,415.2s27.35,22,62.12,21.61S383.77,425,383.77,425,460.25,425,476.94,404.25Z"/><path class="cls-15" d="M259.54,412.38s8.34,17,59.33,14.24,123.77-10.92,117.28-17.46S259.54,412.38,259.54,412.38Z"/><path class="cls-16" d="M259.54,377v35.41s83,14.78,176.61-3.22v-42S326.29,392.79,259.54,377Z"/><path class="cls-17" d="M249.8,360.6s-19-.22-9.73,13.26,67.67,4.85,72.31,14.07,34,16.86,36.94,9.77,7.1-10.26,13.59-9.77-.93,9.22,8.81,10.31,57.48-3.27,48.67-9.82,8.34-7,12.05-7.88,36.62-6.22,31.06-13.36-33.38-26.57-71.85-22.3S254,337.68,249.8,360.6Z"/><path class="cls-18" d="M381.88,472.19,383.77,425s31-1.24,40.91-2.67l9.92-1.42L436.15,466S407.34,476.85,381.88,472.19Z"/><path class="cls-19" d="M274.83,331.45v30.24s53.77,18.55,149.73,0V331.45S319.33,344.32,274.83,331.45Z"/><path class="cls-20" d="M383.88,342.14c-.87,0-24.64.56-24.85,2.13s1.09,21,1.09,21L385,363.5Z"/><path class="cls-20" d="M274.83,331.45s4.61-4.79,22.06-5.23,126.27.66,127.67,5.23S293.33,344.1,274.83,331.45Z"/><path class="cls-21" d="M438.6,201c-4.62-3.65-12.27-7.25-25.45,2,0,0-16.52,18.58-54.66,17.59q-3.9-.1-7.91-.44a3.71,3.71,0,0,0-.42-1.53,6.51,6.51,0,0,0-7.05-2.91,3.93,3.93,0,0,0-3.26,3.24q-5.49-.75-11-1.72a6.73,6.73,0,0,0-.6-1.67,8.9,8.9,0,0,0-9.44-4.56,4.87,4.87,0,0,0-3.79,3.63c-25.2-5-48.16-10.26-58.17-3.6-6.5,4.33-8.15,19.94.9,35.7-2.44,1.54-2.65,4.87-.34,7.8s6.08,4.36,9.07,3.7c9.35,9.66,23.65,18.26,44.39,22.94a6.4,6.4,0,0,0,.74,2.85c2,3.94,7.52,6.21,12.29,5.06,3-.73,5-2.67,5.57-5,13.9,1.31,30,1.09,48.66-1.2C413.19,278.6,433.36,270,444.2,260a7.45,7.45,0,0,0,5.38.85c3-.72,4.34-3.28,3.08-5.73a5.85,5.85,0,0,0-2.34-2.34C464.38,230.86,444.2,205.43,438.6,201Z"/><path class="cls-22" d="M423,204.35s-14.6,16.85-44.53,20.32S282.32,210.44,270.13,213c-12.52,2.67-15.86,8.34-7.37,18.05s90.39,18.42,134.38,3.5S432.88,205.69,423,204.35Z"/><g class="cls-23"><ellipse class="cls-24" cx="332.78" cy="256.19" rx="5.2" ry="6.67" transform="translate(-17.79 487.43) rotate(-71)"/><ellipse class="cls-25" cx="362.05" cy="229.76" rx="6.25" ry="7.97" transform="translate(47.71 521.41) rotate(-75.26)"/><ellipse class="cls-26" cx="432.51" cy="253.54" rx="5.2" ry="6.67" transform="translate(-13.32 482.85) rotate(-57.6)"/><ellipse class="cls-27" cx="401.58" cy="265.21" rx="4.43" ry="5.63" transform="translate(-14.47 507.1) rotate(-63.62)"/><ellipse class="cls-28" cx="277.29" cy="238.7" rx="6.11" ry="7.9" transform="translate(-77.3 328.91) rotate(-55)"/><ellipse class="cls-29" cx="356.12" cy="249.03" rx="4.11" ry="5.27" transform="translate(-44.54 417.28) rotate(-57.74)"/></g><path class="cls-22" d="M266,229.33c33.06-4.58,68.41-5.17,99.53-14.44-31.82,7.29-88.45,6.25-98.59,11.08-4.07,1.93-6.94,4-8.5,6.12A20.16,20.16,0,0,1,266,229.33Z"/><path class="cls-30" d="M448.12,259.42c-4.16-3.59-11.4-7.11-26.22,2,0,0-19.62,18.26-58.31,17.31-2.63-.06-5.3-.21-8-.43a3.27,3.27,0,0,0-.2-1.5c-.84-2.22-3.86-3.5-6.74-2.85a4.82,4.82,0,0,0-3.81,3.18c-3.64-.49-7.3-1.06-10.94-1.69a5.63,5.63,0,0,0-.36-1.63c-1.24-3.3-5.24-5.3-8.92-4.48a6,6,0,0,0-4.41,3.57c-24.91-4.88-47.49-10.05-58.69-3.5-7.27,4.25-11.31,19.58-4.46,35.05-2.72,1.52-3.43,4.79-1.53,7.67a8.71,8.71,0,0,0,8.68,3.63c8.07,9.48,21.32,17.92,41.74,22.5a5.65,5.65,0,0,0,.32,2.8c1.47,3.88,6.73,6.1,11.75,5a8.69,8.69,0,0,0,6.43-4.92c13.95,1.28,30.41,1.06,49.73-1.2,36.34-4.23,58.17-12.67,70.74-22.56a7.17,7.17,0,0,0,5.34.83c3.12-.7,4.91-3.21,4-5.62a4.65,4.65,0,0,0-2-2.3C469.86,288.73,453.16,263.76,448.12,259.42Z"/><path class="cls-22" d="M431.75,262.71s-17.41,16.55-48.42,20-95.77-13.93-108.57-11.37c-13.14,2.63-17.4,8.2-10.22,17.74s89.26,18,136.3,3.36S441.59,264,431.75,262.71Z"/><g class="cls-23"><ellipse class="cls-31" cx="327.72" cy="314.61" rx="5.46" ry="6.34" transform="translate(-74.71 525.4) rotate(-71.48)"/><ellipse class="cls-32" cx="365.8" cy="296.01" rx="6.49" ry="7.67" transform="translate(-1.95 589.59) rotate(-77.58)"/><ellipse class="cls-33" cx="434" cy="311.02" rx="5.46" ry="6.34" transform="translate(1.21 623.72) rotate(-71.48)"/><ellipse class="cls-34" cx="400.74" cy="322.5" rx="4.57" ry="5.45" transform="translate(11.53 658.82) rotate(-79.66)"/><ellipse class="cls-35" cx="278.18" cy="296.52" rx="6.47" ry="7.47" transform="translate(-103.79 435.83) rotate(-66.86)"/><ellipse class="cls-36" cx="356.89" cy="306.62" rx="4.31" ry="5.01" transform="translate(-46.22 549.29) rotate(-71.71)"/></g><path class="cls-22" d="M274.18,273.78c33.34,3.13,67.34,10.6,100.64,8.81-33.2-.26-86.92-14.12-98.45-11.81-4.63.92-8.15,2.21-10.47,3.91A22.7,22.7,0,0,1,274.18,273.78Z"/><path class="cls-37" d="M451,172.39c-3-4.22-9-8.92-26.12-2.66,0,0-24.49,14.35-61.89,6.66-2.54-.52-5.09-1.14-7.64-1.81a3.46,3.46,0,0,0,.25-1.5c-.17-2.31-2.73-4.08-5.73-4a5.6,5.6,0,0,0-4.65,2.43c-3.4-1.11-6.79-2.31-10.16-3.56a5.39,5.39,0,0,0,.14-1.66c-.24-3.42-3.54-6.07-7.37-5.91a7,7,0,0,0-5.35,2.7C299.66,154,279.19,145,266.36,149.46c-8.33,2.87-16.78,17.09-14.68,33.36a5.63,5.63,0,0,0-3.75,7.2,7.63,7.63,0,0,0,7.39,5c5.06,10.64,15.49,21.18,34,29.21a5.77,5.77,0,0,0-.51,2.79c.28,4,4.75,7.11,10,6.89a10.09,10.09,0,0,0,7.71-3.67c13.21,3.69,29.3,6.35,48.79,7.53,36.64,2.23,60.39-2.17,75.53-9.6a6.72,6.72,0,0,0,5,1.74c3.25-.14,5.73-2.28,5.56-4.78a4,4,0,0,0-1.3-2.59C463.54,204.74,454.62,177.5,451,172.39Z"/><path class="cls-22" d="M434.08,172.73s-21.83,13.08-53,11-89.16-30.31-102.39-30c-13.57.26-19.36,4.93-15.17,15.48s81.61,33.17,131.75,27.11S443.29,175.73,434.08,172.73Z"/><g class="cls-23"><ellipse class="cls-38" cx="317.48" cy="205.09" rx="5.61" ry="6.17" transform="translate(82.66 501.26) rotate(-84.45)"/><ellipse class="cls-39" cx="360.05" cy="193.63" rx="6.61" ry="7.54" transform="translate(147.25 542.7) rotate(-86.9)"/><ellipse class="cls-40" cx="422.04" cy="220.17" rx="5.61" ry="6.17" transform="translate(162.1 618.95) rotate(-84.45)"/><ellipse class="cls-41" cx="386.27" cy="225.54" rx="4.64" ry="5.37" transform="translate(144.37 601.78) rotate(-87.54)"/><ellipse class="cls-42" cx="274.56" cy="178.81" rx="6.7" ry="7.2" transform="translate(57.28 424.06) rotate(-81.53)"/><ellipse class="cls-43" cx="348.25" cy="202.41" rx="4.43" ry="4.88" transform="translate(113.8 529.94) rotate(-84.57)"/></g><path class="cls-22" d="M277.37,156c31.54,8.88,62.46,22.09,95.41,26.17-32.26-6.06-80.48-28.95-92.4-28.72-4.78.09-8.59.74-11.34,2A22.5,22.5,0,0,1,277.37,156Z"/><path class="cls-44" d="M322.67,122.94l-72.61,9.16s116.09,55.65,135.84,60.14l71.81-43S360.38,139.53,322.67,122.94Z"/><polygon class="cls-45" points="250.06 132.1 385.9 192.24 457.71 149.26 454.85 160.78 386.2 201.99 250.06 145.2 250.06 132.1"/><path class="cls-46" d="M243.77,84.49s-.61,30.4,1.12,32.13,103.94,39.62,120,43.74c0,0,2.59,12.77,18.4,13.86s71-5.85,102.42-21.22c0,0,13.53-34.08,10.76-38.57S243.77,84.49,243.77,84.49Z"/><path class="cls-18" d="M350.82,67.9s-108.19,10.3-107,16.59,111,48.62,131.57,52.05c0,0-.58,9.89,10.29,13.24S508,128.26,495.46,111.94c-10.33-13.4-37.75-12-37.75-12S369.55,62.75,350.82,67.9Z"/><path class="cls-14" d="M454.85,105.65S370.69,70.93,360.63,70.5,249.82,82,250.06,83.92s77.8,34,95.87,39.41,36,10.59,36,10.59-.65,10,7.8,11.28,71.89-13.86,78.82-16,26-11.08,20.57-17.24S475.54,101.19,454.85,105.65Z"/><path class="cls-47" d="M374.82,344.27s-6.64-.7-6.64,0S369.9,362,372,362.41l2.08.44Z"/><ellipse class="cls-11" cx="1058.33" cy="443.4" rx="30.14" ry="150.56" transform="translate(606.93 1498.34) rotate(-89.57)"/><path class="cls-13" d="M948.63,387l1.85,46.89s50.09,23.14,99.94,16.81c0,0,87.42,5.11,108.09,0s31.22-8.24,31.22-8.24l.66-54s-19.83,14.93-56.35,18-91.49-2.4-91.49-2.4S1002.38,409,948.63,387Z"/><path class="cls-14" d="M948.63,387s9-20,80.9-19,161,7.92,160.86,20.46-26.47,23-61.22,24-86.62-8.43-86.62-8.43S966.12,407.1,948.63,387Z"/><path class="cls-15" d="M1166.19,386.6s-7.67,17.28-58.73,16.57-124.1-6-117.87-12.83S1166.19,386.6,1166.19,386.6Z"/><path class="cls-16" d="M1164.79,351.22l1.4,35.38s-82.33,18-176.6,3.74l-1.66-41.94S1098.72,369.66,1164.79,351.22Z"/><path class="cls-17" d="M1173.88,334.48s19-1,10.25,12.86-67.44,7.52-71.71,16.92-33.32,18.18-36.52,11.21-7.5-10-14-9.22,1.29,9.17-8.39,10.65-57.57-1-49-7.9-8.62-6.7-12.36-7.4-36.83-4.78-31.56-12.12,32.31-27.87,70.92-25.12S1168.8,311.74,1173.88,334.48Z"/><path class="cls-18" d="M1046.3,451.19l-3.75-47.1s-31,0-41-1l-10-1,.23,45.15S1021,456.85,1046.3,451.19Z"/><path class="cls-19" d="M1147.72,306.34l1.19,30.21s-53,20.66-149.61,5.9l-1.2-30.21S1103.76,321,1147.72,306.34Z"/><path class="cls-20" d="M1039.17,321.31c.87,0,24.64-.4,24.92,1.16s-.26,21-.26,21l-24.91-.8Z"/><path class="cls-20" d="M1147.72,306.34s-4.8-4.61-22.25-4.36-126.15,5.63-127.37,10.26S1129.73,319.71,1147.72,306.34Z"/><path class="cls-48" d="M978.93,182.45c4.48-3.83,12-7.72,25.52,1,0,0,17.24,17.91,55.31,15.42,2.59-.17,5.22-.43,7.88-.75a3.84,3.84,0,0,1,.36-1.54,6.5,6.5,0,0,1,6.94-3.19,4,4,0,0,1,3.38,3.11c3.63-.64,7.28-1.37,10.92-2.16a7.15,7.15,0,0,1,.53-1.69,8.9,8.9,0,0,1,9.25-4.92,4.85,4.85,0,0,1,3.94,3.47c25-6,47.72-12.15,58-5.88,6.66,4.06,8.93,19.6.5,35.7,2.5,1.45,2.84,4.76.66,7.79s-5.91,4.59-8.92,4c-9,10-22.91,19.18-43.45,24.68a6.46,6.46,0,0,1-.63,2.87c-1.87,4-7.28,6.51-12.08,5.55-3.07-.61-5.14-2.47-5.76-4.78-13.84,1.85-30,2.27-48.68.72-35.2-2.91-55.69-10.69-66.92-20.31a7.43,7.43,0,0,1-5.34,1c-3-.59-4.46-3.1-3.31-5.59a5.85,5.85,0,0,1,2.25-2.44C954.36,213.3,973.52,187.09,978.93,182.45Z"/><path class="cls-22" d="M994.64,185.17s15.26,16.27,45.31,18.56,95.52-18,107.8-15.89c12.61,2.17,16.17,7.7,8.07,17.75s-89.59,22-134.13,8.78S984.84,186.9,994.64,185.17Z"/><g class="cls-23"><ellipse class="cls-49" cx="1086.85" cy="233.42" rx="6.67" ry="5.2" transform="translate(-10.68 409.92) rotate(-21.26)"/><ellipse class="cls-50" cx="1056.56" cy="208.16" rx="7.97" ry="6.25" transform="translate(-14.69 318.04) rotate(-17)"/><ellipse class="cls-51" cx="987.09" cy="234.7" rx="6.67" ry="5.2" transform="translate(41.69 603.01) rotate(-34.66)"/><ellipse class="cls-52" cx="1018.46" cy="245.15" rx="5.63" ry="4.43" transform="translate(7.12 518.19) rotate(-28.64)"/><ellipse class="cls-53" cx="1141.61" cy="213.76" rx="7.9" ry="6.11" transform="translate(103.61 734.83) rotate(-37.26)"/><ellipse class="cls-54" cx="1063.24" cy="227.18" rx="5.27" ry="4.11" transform="translate(58.42 642.43) rotate(-34.51)"/></g><path class="cls-22" d="M1152.52,204c-33.2-3.28-68.55-2.48-100-10.52,32.09,6,88.63,2.76,99,7.18,4.14,1.78,7.09,3.7,8.73,5.79A20,20,0,0,0,1152.52,204Z"/><path class="cls-55" d="M971.72,241.19c4-3.74,11.11-7.55,26.28.94,0,0,20.33,17.47,59,15,2.62-.17,5.28-.43,8-.75a3.24,3.24,0,0,1,.13-1.5c.76-2.26,3.72-3.65,6.63-3.12a4.84,4.84,0,0,1,3.93,3c3.62-.63,7.25-1.35,10.87-2.12a5.41,5.41,0,0,1,.29-1.65c1.11-3.34,5-5.5,8.74-4.82a6.05,6.05,0,0,1,4.55,3.39c24.69-5.86,47.06-11.91,58.5-5.81,7.43,4,12.07,19.12,5.84,34.85,2.77,1.42,3.62,4.65,1.83,7.61a8.7,8.7,0,0,1-8.53,4c-7.69,9.79-20.6,18.75-40.82,24.13a5.65,5.65,0,0,1-.21,2.81c-1.31,3.93-6.48,6.36-11.55,5.43a8.67,8.67,0,0,1-6.61-4.66c-13.9,1.83-30.35,2.25-49.74.76-36.48-2.8-58.63-10.37-71.57-19.75a7.33,7.33,0,0,1-5.31,1c-3.15-.58-5-3-4.22-5.46a4.66,4.66,0,0,1,1.93-2.38C951.15,271.33,966.86,245.73,971.72,241.19Z"/><path class="cls-22" d="M988.21,243.83s18,15.86,49.17,18.06,95.14-17.69,108-15.63c13.23,2.11,17.71,7.5,10.91,17.31s-88.48,21.55-136.06,8.74S978.43,245.53,988.21,243.83Z"/><g class="cls-23"><ellipse class="cls-56" cx="1094.2" cy="291.6" rx="6.34" ry="5.46" transform="translate(-32.27 407.2) rotate(-20.78)"/><ellipse class="cls-57" cx="1055.42" cy="274.51" rx="7.67" ry="6.49" transform="translate(-35.11 276.37) rotate(-14.68)"/><ellipse class="cls-58" cx="987.87" cy="292.19" rx="6.34" ry="5.46" transform="translate(-39.4 369.51) rotate(-20.78)"/><ellipse class="cls-59" cx="1021.55" cy="302.35" rx="5.45" ry="4.57" transform="translate(-41.36 230.15) rotate(-12.6)"/><ellipse class="cls-60" cx="1142.99" cy="271.57" rx="7.47" ry="6.47" transform="translate(-6.03 516.39) rotate(-25.39)"/><ellipse class="cls-61" cx="1064.74" cy="284.76" rx="5.01" ry="4.31" transform="translate(-32.22 391.74) rotate(-20.54)"/></g><path class="cls-22" d="M1146.09,248.69c-33.19,4.44-66.87,13.24-100.21,12.76,33.17-1.56,86.29-17.53,97.91-15.68,4.66.74,8.23,1.9,10.61,3.5A22.41,22.41,0,0,0,1146.09,248.69Z"/><path class="cls-62" d="M965.42,154.35c2.82-4.34,8.65-9.27,26-3.69,0,0,25,13.37,62.1,4.21,2.52-.62,5-1.33,7.57-2.11a3.25,3.25,0,0,1-.3-1.48c.07-2.32,2.56-4.19,5.56-4.18a5.59,5.59,0,0,1,4.74,2.25c3.36-1.25,6.7-2.58,10-4a5.66,5.66,0,0,1-.2-1.65c.11-3.44,3.3-6.21,7.13-6.2a7,7,0,0,1,5.45,2.48c22.45-10,42.55-19.78,55.54-15.87,8.44,2.55,17.45,16.43,16,32.76a5.63,5.63,0,0,1,4,7.05,7.6,7.6,0,0,1-7.18,5.33c-4.64,10.84-14.64,21.78-32.84,30.54a5.79,5.79,0,0,1,.62,2.76c-.13,4-4.47,7.29-9.71,7.28a10.08,10.08,0,0,1-7.84-3.36c-13.06,4.2-29,7.49-48.45,9.44-36.53,3.67-60.43.21-75.86-6.62a6.71,6.71,0,0,1-4.89,1.94c-3.25,0-5.82-2.05-5.74-4.55a4,4,0,0,1,1.2-2.65C954.16,187.16,962,159.59,965.42,154.35Z"/><path class="cls-22" d="M982.33,154s22.34,12.22,53.44,8.91,87.9-33.8,101.12-34.07c13.58-.27,19.54,4.17,15.78,14.88s-80.24,36.36-130.58,32.27S973.26,157.37,982.33,154Z"/><g class="cls-23"><ellipse class="cls-63" cx="1100.12" cy="181.76" rx="6.17" ry="5.61" transform="translate(-14.49 151.09) rotate(-7.81)"/><ellipse class="cls-64" cx="1057.13" cy="171.99" rx="7.54" ry="6.61" transform="translate(-11.44 99.39) rotate(-5.35)"/><ellipse class="cls-65" cx="996.24" cy="200.95" rx="6.17" ry="5.61" transform="matrix(0.99, -0.14, 0.14, 0.99, -18.06, 137.16)"/><ellipse class="cls-66" cx="1032.19" cy="204.9" rx="5.37" ry="4.64" transform="translate(-13.35 85.58) rotate(-4.72)"/><ellipse class="cls-67" cx="1141.97" cy="153.81" rx="7.2" ry="6.7" transform="translate(-8.68 215.16) rotate(-10.72)"/><ellipse class="cls-68" cx="1069.27" cy="180.29" rx="4.88" ry="4.43" transform="translate(-14.51 144.65) rotate(-7.69)"/></g><path class="cls-22" d="M1138.27,131.09c-31.17,10.12-61.55,24.54-94.31,29.91,32-7.32,79.28-32.09,91.2-32.33,4.78-.1,8.61.39,11.41,1.54A22.58,22.58,0,0,0,1138.27,131.09Z"/><path class="cls-44" d="M1091.7,99.88l72.91,6.29s-113.8,60.18-133.36,65.45l-73.44-40.13S1054.68,117.94,1091.7,99.88Z"/><polygon class="cls-45" points="1164.61 106.17 1031.25 171.62 957.81 131.49 961.12 142.9 1031.33 181.37 1165.13 119.26 1164.61 106.17"/><path class="cls-46" d="M1169,58.35s1.81,30.34.15,32.14-102.3,43.69-118.15,48.44c0,0-2.09,12.87-17.84,14.57s-71.2-3-103.18-17.17c0,0-14.86-33.51-12.27-38.12S1169,58.35,1169,58.35Z"/><path class="cls-18" d="M1061.4,46S1169.92,52,1169,58.35s-109,53-129.41,57.19c0,0,1,9.86-9.77,13.64S906.68,112.5,918.61,95.7c9.8-13.8,37.25-13.49,37.25-13.49S1042.49,41.58,1061.4,46Z"/><path class="cls-14" d="M959,87.81s82.72-38,92.76-38.84,111.17,7.1,111,9.06-76.4,37-94.23,43.15-35.59,12-35.59,12,1,9.94-7.35,11.57-72.38-11-79.39-12.9-26.4-10-21.23-16.41S938.09,84.16,959,87.81Z"/><path class="cls-47" d="M1048.31,323.09s6.61-1,6.63-.26-1,17.76-3.08,18.28l-2.07.51Z"/><ellipse class="cls-69" cx="363.58" cy="106.04" rx="9.96" ry="23.12" transform="translate(193.42 444.39) rotate(-79.56)"/><path class="cls-70" d="M362.1,53.68c-2,.19-3.94.27-6,.31v54.76l9.4-.87"/><ellipse class="cls-69" cx="1032.16" cy="81.25" rx="23.12" ry="9.96" transform="translate(-3.12 68.8) rotate(-3.81)"/><path class="cls-70" d="M1012.12,32.64l13.48,53.07,8.9-3.15-16.67-51.69C1016,31.53,1014.09,32.1,1012.12,32.64Z"/><ellipse class="cls-71" cx="1021.01" cy="44.84" rx="28.96" ry="20.11" transform="translate(20.38 252.71) rotate(-14.25)"/><ellipse class="cls-19" cx="1037.63" cy="40.62" rx="7.38" ry="13.16" transform="translate(21.93 256.67) rotate(-14.25)"/><path class="cls-70" d="M1007.88,0l-3.81,1,8,31.67c2-.54,3.87-1.11,5.71-1.77Z"/></g></g></svg>