<svg xmlns="http://www.w3.org/2000/svg" xmlns:xlink="http://www.w3.org/1999/xlink" width="4294.64" height="2400.58" viewBox="0 0 4294.64 2400.58"><defs><style>.cls-1{fill:#8e7661;}.cls-2{fill:#6d5a47;}.cls-3{fill:#b3dbe1;}.cls-4{fill:#6d2a13;}.cls-5{fill:#782f18;}.cls-21,.cls-53,.cls-6{fill:none;stroke-miterlimit:10;}.cls-6{stroke:#984c3b;stroke-width:3.29px;}.cls-7{fill:#4b1c10;}.cls-8{fill:#80a6a9;}.cls-132,.cls-9{fill:#7f6858;}.cls-10{fill:#62513b;}.cls-11{fill:#ef9021;}.cls-12{fill:#443525;}.cls-13{fill:#0a0505;}.cls-14{fill:#030202;opacity:0.39;}.cls-15,.cls-16,.cls-49,.cls-58,.cls-85{fill:#fff;}.cls-16,.cls-36{opacity:0.18;}.cls-17{fill:#6d5849;}.cls-18{fill:#594839;}.cls-19{fill:#4c231d;}.cls-20,.cls-24{fill:#240f0e;}.cls-21{stroke:#2d1a10;stroke-width:1.6px;}.cls-22{fill:#6d3732;}.cls-23{fill:#60493a;}.cls-24{opacity:0.57;}.cls-25{fill:#8e504d;}.cls-26{fill:#a3836d;}.cls-27{fill:#321713;}.cls-28{fill:#703e39;}.cls-29{fill:#e2d3ba;}.cls-30{fill:#f4f1ef;}.cls-31{fill:#0f0a08;opacity:0.33;}.cls-32{fill:#c6c4c4;}.cls-33{fill:#3d1a14;}.cls-34{fill:#120b0a;opacity:0.78;}.cls-35{fill:#a36340;}.cls-36,.cls-37{fill:#f8f7f7;}.cls-37{opacity:0.29;}.cls-38{fill:#845a34;}.cls-39{fill:#56371f;}.cls-40,.cls-59{fill:#331e11;}.cls-40{opacity:0.26;}.cls-41{fill:#777676;}.cls-42{fill:#77502c;}.cls-43{fill:#a0703f;}.cls-44{fill:#ad7b4e;}.cls-45{fill:#301d11;}.cls-46{fill:#3a1b1b;}.cls-47{fill:#f47621;}.cls-48{fill:#3e2112;}.cls-49{opacity:0.09;}.cls-50{fill:#cb6328;}.cls-51{fill:#0b0907;opacity:0.2;}.cls-52{fill:#3f99ad;}.cls-53{stroke:#9cdbee;stroke-width:3.29px;}.cls-54{fill:#f7f7f6;}.cls-55{fill:#cecdcc;}.cls-56{fill:#7c532c;}.cls-57{fill:#28190f;}.cls-58{opacity:0.06;}.cls-59{opacity:0.61;}.cls-60{fill:#203133;}.cls-61{fill:#554339;}.cls-62{fill:#53757d;}.cls-63{fill:#f37332;}.cls-64{fill:#f6ba2f;}.cls-65{fill:#fdfeff;}.cls-66{fill:#73a3b2;}.cls-67{fill:#b29786;}.cls-68{fill:#381815;}.cls-69{fill:#e5e4e3;}.cls-70{fill:#565656;}.cls-71{fill:#232120;}.cls-72{fill:#abaaaa;}.cls-73{fill:#686867;}.cls-74{fill:#992220;}.cls-75{fill:#ca5051;}.cls-76{fill:#771b1b;}.cls-77{fill:#cc9265;}.cls-78{fill:#e3cdbf;}.cls-79{fill:#c9b1a3;}.cls-80{fill:#5f2b7b;}.cls-81{fill:#1e3d1c;}.cls-82{fill:#ba805a;}.cls-83{fill:#aa3636;}.cls-84{fill:url(#linear-gradient);}.cls-132,.cls-85{opacity:0.11;}.cls-86{opacity:0.45;}.cls-87{fill:url(#linear-gradient-2);}.cls-88{fill:url(#linear-gradient-3);}.cls-89{fill:url(#linear-gradient-4);}.cls-90{fill:url(#linear-gradient-5);}.cls-91{fill:url(#linear-gradient-6);}.cls-92{fill:url(#linear-gradient-7);}.cls-93{fill:url(#linear-gradient-8);}.cls-94{fill:url(#linear-gradient-9);}.cls-95{fill:url(#linear-gradient-10);}.cls-96{fill:url(#linear-gradient-11);}.cls-97{fill:url(#linear-gradient-12);}.cls-98{fill:url(#linear-gradient-13);}.cls-99{fill:url(#linear-gradient-14);}.cls-100{fill:url(#linear-gradient-15);}.cls-101{fill:url(#linear-gradient-16);}.cls-102{fill:url(#linear-gradient-17);}.cls-103{fill:url(#linear-gradient-18);}.cls-104{fill:url(#linear-gradient-19);}.cls-105{fill:url(#linear-gradient-20);}.cls-106{fill:url(#linear-gradient-21);}.cls-107{fill:#c3972d;}.cls-108{fill:#b27230;}.cls-109{fill:#8d593c;}.cls-110{fill:#d66b6b;}.cls-111{fill:url(#linear-gradient-22);}.cls-112{fill:url(#linear-gradient-23);}.cls-113{fill:url(#linear-gradient-24);}.cls-114{fill:url(#linear-gradient-25);}.cls-115{fill:url(#linear-gradient-26);}.cls-116{fill:url(#linear-gradient-27);}.cls-117{fill:url(#linear-gradient-28);}.cls-118{fill:url(#linear-gradient-29);}.cls-119{fill:url(#linear-gradient-30);}.cls-120{fill:url(#linear-gradient-31);}.cls-121{fill:url(#linear-gradient-32);}.cls-122{fill:url(#linear-gradient-33);}.cls-123{fill:url(#linear-gradient-34);}.cls-124{fill:url(#linear-gradient-35);}.cls-125{fill:url(#linear-gradient-36);}.cls-126{fill:url(#linear-gradient-37);}.cls-127{fill:url(#linear-gradient-38);}.cls-128{fill:url(#linear-gradient-39);}.cls-129{fill:url(#linear-gradient-40);}.cls-130{fill:url(#linear-gradient-41);}.cls-131{fill:url(#linear-gradient-42);}.cls-133{fill:#ccae7f;}.cls-134{fill:#6fa942;}</style><linearGradient id="linear-gradient" x1="-1019.76" y1="-2945.97" x2="-1007.02" y2="-2781.19" gradientTransform="translate(3567.6 3733.37) rotate(-19.99)" gradientUnits="userSpaceOnUse"><stop offset="0" stop-color="#a1bb4b"/><stop offset="1" stop-color="#005d33"/></linearGradient><linearGradient id="linear-gradient-2" x1="-1045.73" y1="-2867.68" x2="-1041.35" y2="-2852.67" gradientTransform="matrix(0.79, 0.61, -0.61, 0.79, 697.32, 4310.24)" gradientUnits="userSpaceOnUse"><stop offset="0" stop-color="#a1bb4b"/><stop offset="1" stop-color="#548239"/></linearGradient><linearGradient id="linear-gradient-3" x1="-1007.24" y1="-2875.33" x2="-1002.07" y2="-2857.58" gradientTransform="translate(480.85 4186.13) rotate(41.86)" xlink:href="#linear-gradient-2"/><linearGradient id="linear-gradient-4" x1="-948.16" y1="-2829.26" x2="-943.78" y2="-2814.25" gradientTransform="translate(743.2 4217.62) rotate(37.6)" xlink:href="#linear-gradient-2"/><linearGradient id="linear-gradient-5" x1="-980.76" y1="-2827.31" x2="-977.12" y2="-2814.82" gradientTransform="translate(447.15 4134.46) rotate(43.62)" xlink:href="#linear-gradient-2"/><linearGradient id="linear-gradient-6" x1="-1089.47" y1="-2898.06" x2="-1084.26" y2="-2880.17" gradientTransform="translate(793.47 4379.66) rotate(35)" xlink:href="#linear-gradient-2"/><linearGradient id="linear-gradient-7" x1="-1017.83" y1="-2857.67" x2="-1014.38" y2="-2845.82" gradientTransform="translate(696.59 4277.63) rotate(37.75)" xlink:href="#linear-gradient-2"/><linearGradient id="linear-gradient-8" x1="-18.57" y1="-677.64" x2="-7.06" y2="-528.82" gradientTransform="translate(1820.1 2022.46) rotate(-16.25)" xlink:href="#linear-gradient"/><linearGradient id="linear-gradient-9" x1="-48.85" y1="-599.96" x2="-44.8" y2="-586.07" gradientTransform="matrix(0.57, 0.82, -0.82, 0.57, 1150.81, 1842.99)" xlink:href="#linear-gradient-2"/><linearGradient id="linear-gradient-10" x1="-7.54" y1="-608.74" x2="-2.75" y2="-592.31" gradientTransform="translate(1125.23 1740.22) rotate(61.33)" xlink:href="#linear-gradient-2"/><linearGradient id="linear-gradient-11" x1="54.18" y1="-573.68" x2="58.24" y2="-559.78" gradientTransform="translate(1219.92 1739.76) rotate(55.23)" xlink:href="#linear-gradient-2"/><linearGradient id="linear-gradient-12" x1="19.47" y1="-570.52" x2="22.84" y2="-558.96" gradientTransform="translate(1169.75 1708.44) rotate(63.41)" xlink:href="#linear-gradient-2"/><linearGradient id="linear-gradient-13" x1="-91.83" y1="-632.84" x2="-87" y2="-616.28" gradientTransform="matrix(0.63, 0.77, -0.77, 0.63, 1135.77, 1913.28)" xlink:href="#linear-gradient-2"/><linearGradient id="linear-gradient-14" x1="-18.08" y1="-597.66" x2="-14.88" y2="-586.69" gradientTransform="translate(1161.69 1807.89) rotate(55.47)" xlink:href="#linear-gradient-2"/><linearGradient id="linear-gradient-15" x1="1174.88" y1="922" x2="1185.51" y2="1059.52" gradientTransform="translate(401.84 418.77) rotate(-3.13)" xlink:href="#linear-gradient"/><linearGradient id="linear-gradient-16" x1="1142.63" y1="995.21" x2="1146.48" y2="1008.42" gradientTransform="translate(2419.08 74.87) rotate(81.32)" xlink:href="#linear-gradient-2"/><linearGradient id="linear-gradient-17" x1="1185.32" y1="984.61" x2="1189.88" y2="1000.22" gradientTransform="translate(2502.04 57.73) rotate(83.77)" xlink:href="#linear-gradient-2"/><linearGradient id="linear-gradient-18" x1="1246.21" y1="1015.98" x2="1250.06" y2="1029.19" gradientTransform="translate(2528.54 -15.58) rotate(81.32)" xlink:href="#linear-gradient-2"/><linearGradient id="linear-gradient-19" x1="1210.6" y1="1020.77" x2="1213.81" y2="1031.74" gradientTransform="matrix(0.1, 1, -1, 0.1, 2573.3, 71.71)" xlink:href="#linear-gradient-2"/><linearGradient id="linear-gradient-20" x1="1100.75" y1="965.06" x2="1105.34" y2="980.81" gradientTransform="translate(2290.11 54.88) rotate(78.41)" xlink:href="#linear-gradient-2"/><linearGradient id="linear-gradient-21" x1="1173.99" y1="995.93" x2="1177.04" y2="1006.37" gradientTransform="translate(2446.92 43.51) rotate(81.44)" xlink:href="#linear-gradient-2"/><linearGradient id="linear-gradient-22" x1="-733.16" y1="-2865.41" x2="-720.42" y2="-2700.63" gradientTransform="matrix(-0.95, -0.3, -0.3, 0.95, 807.5, 3796.28)" xlink:href="#linear-gradient"/><linearGradient id="linear-gradient-23" x1="-785.61" y1="-2722.88" x2="-781.23" y2="-2707.87" gradientTransform="matrix(-0.61, -0.79, -0.79, 0.61, -258.27, 2422.09)" xlink:href="#linear-gradient-2"/><linearGradient id="linear-gradient-24" x1="-747.12" y1="-2730.53" x2="-741.94" y2="-2712.78" gradientTransform="matrix(-0.67, -0.74, -0.74, 0.67, -182.88, 2621.96)" xlink:href="#linear-gradient-2"/><linearGradient id="linear-gradient-25" x1="-661.56" y1="-2748.7" x2="-657.18" y2="-2733.69" gradientTransform="matrix(-0.61, -0.79, -0.79, 0.61, -302.79, 2537.41)" xlink:href="#linear-gradient-2"/><linearGradient id="linear-gradient-26" x1="-694.16" y1="-2746.75" x2="-690.52" y2="-2734.26" gradientTransform="matrix(-0.69, -0.72, -0.72, 0.69, -159.25, 2786.97)" xlink:href="#linear-gradient-2"/><linearGradient id="linear-gradient-27" x1="-802.87" y1="-2817.5" x2="-797.65" y2="-2799.61" gradientTransform="matrix(-0.57, -0.82, -0.82, 0.57, -333.46, 2321.63)" xlink:href="#linear-gradient-2"/><linearGradient id="linear-gradient-28" x1="-731.23" y1="-2777.11" x2="-727.77" y2="-2765.26" gradientTransform="matrix(-0.61, -0.79, -0.79, 0.61, -290.71, 2499.49)" xlink:href="#linear-gradient-2"/><linearGradient id="linear-gradient-29" x1="272.69" y1="-615.98" x2="284.19" y2="-467.16" gradientTransform="matrix(-0.97, -0.24, -0.24, 0.97, 2486.24, 2017.85)" xlink:href="#linear-gradient"/><linearGradient id="linear-gradient-30" x1="242.4" y1="-538.3" x2="246.46" y2="-524.41" gradientTransform="matrix(-0.82, -0.57, -0.57, 0.82, 2275.74, 2019.45)" xlink:href="#linear-gradient-2"/><linearGradient id="linear-gradient-31" x1="283.71" y1="-547.08" x2="288.5" y2="-530.65" gradientTransform="matrix(-0.88, -0.48, -0.48, 0.88, 2331.84, 2036.19)" xlink:href="#linear-gradient-2"/><linearGradient id="linear-gradient-32" x1="345.44" y1="-512.02" x2="349.49" y2="-498.13" gradientTransform="matrix(-0.82, -0.57, -0.57, 0.82, 2269.03, 2057.22)" xlink:href="#linear-gradient-2"/><linearGradient id="linear-gradient-33" x1="310.72" y1="-508.86" x2="314.09" y2="-497.3" gradientTransform="matrix(-0.89, -0.45, -0.45, 0.89, 2359.15, 2044.07)" xlink:href="#linear-gradient-2"/><linearGradient id="linear-gradient-34" x1="199.42" y1="-571.18" x2="204.25" y2="-554.62" gradientTransform="matrix(-0.77, -0.63, -0.63, 0.77, 2225.97, 1986.62)" xlink:href="#linear-gradient-2"/><linearGradient id="linear-gradient-35" x1="273.17" y1="-536" x2="276.37" y2="-525.03" gradientTransform="matrix(-0.82, -0.57, -0.57, 0.82, 2273.86, 2029.77)" xlink:href="#linear-gradient-2"/><linearGradient id="linear-gradient-36" x1="1472.53" y1="915.95" x2="1483.16" y2="1053.47" gradientTransform="matrix(-1, -0.02, -0.02, 1, 3840.22, 359.54)" xlink:href="#linear-gradient"/><linearGradient id="linear-gradient-37" x1="1440.28" y1="989.17" x2="1444.13" y2="1002.38" gradientTransform="matrix(-0.99, -0.15, -0.15, 0.99, 3959.17, 566.54)" xlink:href="#linear-gradient-2"/><linearGradient id="linear-gradient-38" x1="1482.97" y1="978.56" x2="1487.53" y2="994.17" gradientTransform="matrix(-0.99, -0.11, -0.11, 0.99, 3923.76, 503.77)" xlink:href="#linear-gradient-2"/><linearGradient id="linear-gradient-39" x1="1543.86" y1="1009.93" x2="1547.71" y2="1023.14" gradientTransform="matrix(-0.99, -0.15, -0.15, 0.99, 3960.81, 580.82)" xlink:href="#linear-gradient-2"/><linearGradient id="linear-gradient-40" x1="1508.25" y1="1014.72" x2="1511.45" y2="1025.7" gradientTransform="matrix(-1, -0.1, -0.1, 1, 3917.16, 488.38)" xlink:href="#linear-gradient-2"/><linearGradient id="linear-gradient-41" x1="1398.4" y1="959.01" x2="1402.99" y2="974.77" gradientTransform="matrix(-0.98, -0.2, -0.2, 0.98, 3991.76, 639.51)" xlink:href="#linear-gradient-2"/><linearGradient id="linear-gradient-42" x1="1471.64" y1="989.89" x2="1474.69" y2="1000.32" gradientTransform="matrix(-0.99, -0.15, -0.15, 0.99, 3957.1, 567.39)" xlink:href="#linear-gradient-2"/></defs><g id="Layer_2" data-name="Layer 2"><g id="Layer_1-2" data-name="Layer 1"><polygon class="cls-1" points="4294.64 2329.57 21.96 2271.97 21.96 0 4294.64 0 4294.64 2329.57"/><path class="cls-2" d="M4294.64,2392.08l-776.76-534.64s-45-1336.34-81.76-1793.34h858.52Z"/><path class="cls-3" d="M3878.55,1116.88c.55,2.8,1.12,5.6,1.66,8.41C3880.17,1121.6,3880.11,1117.93,3878.55,1116.88Z"/><path class="cls-3" d="M3928.94,1101.57c-5.75-.78-11.5-1.52-17.25-2.28q.27,11.87.56,23.72Q3920.62,1112.44,3928.94,1101.57Z"/><path class="cls-3" d="M3905.07,1132.06l-1.81-.24a7,7,0,0,0-.7,3.38C3903.4,1134.16,3904.23,1133.1,3905.07,1132.06Z"/><path class="cls-1" d="M3575.26,1750.47l-12.47,224.37,698.69,425.74-6.66-258.1C4025.4,1957.06,3797.69,1852.67,3575.26,1750.47Z"/><path class="cls-1" d="M3604.3,1051l-1.5,30.92c80.91,2.37,162.72,5,245.27,10.28C3804.77,959.48,3767.4,827,3716,720.73,3648.81,813.07,3604.68,933.08,3604.3,1051Z"/><path class="cls-1" d="M3884.57,586.76c-52.71,15.36-102,52.32-144,102.46,48.5,122.84,100.6,251.81,133.51,405.64,8.81,1,17.62,2,26.45,3.05C3890.11,927.33,3902,755.14,3884.57,586.76Z"/><path class="cls-1" d="M4127.81,741.81c-54.68-107.53-135.06-168.95-222.3-159.44,3.89,171.17,2.37,345.92,6.18,516.92,5.75.76,11.5,1.5,17.25,2.28C4002.79,1003,4072.94,886.47,4127.81,741.81Z"/><path class="cls-1" d="M4199.54,1054.89c-2.43-101.16-23.06-197.71-56-278.33-44.57,151.1-115.71,246.65-191.31,328.38,83.86,15.45,168.35,34.08,253.44,58.72Z"/><path class="cls-1" d="M4207.49,1195.91c-101.36-26.55-202.26-46.45-302.42-63.85-.84,1-1.67,2.1-2.51,3.14a7,7,0,0,1,.7-3.38c-101.64-9.56-202.39-15.5-301.86-21.07l-14.46,420.78c157.75,27.62,314.67,32.26,473.22,70.64,56.22,13.28,112,44.42,168.3,78.91Z"/><path class="cls-1" d="M3585.88,1551.86l-9.21,172.61c220.81,109.5,445.69,225.48,676.39,387.19L4231,1725.36C4012.79,1632.17,3797.81,1576.76,3585.88,1551.86Z"/><path class="cls-4" d="M4179.49,2290.6l-27.14-1223.88c-5.22-232.46-121.94-417.52-255.7-401-132.44,30-241.71,211.65-241.73,392l-.46,948.72Z"/><path class="cls-4" d="M3901.25,1857.13c52.55-255.51,58.07-734.92-26.66-1007.5-17.77-55.11-7.33-124.46,15.09-182.38-26.17,6.12-51.31,18.77-74.75,36.65-24.17,138.61-37.71,277.52-20.91,416,31.28,268.54,100.83,732.38,50.54,969.6l36,18.3C3876.81,2018.57,3886.9,1933.86,3901.25,1857.13Z"/><path class="cls-5" d="M3961,1068.59c3.36-103.15,1.71-211.23-4.77-314.47-1.34-28.53-3-57.63-4.56-86.88a141.32,141.32,0,0,0-55-1.47c-2.33.41-4.65,1-7,1.48-22.42,57.92-32.86,127.27-15.09,182.38,84.73,272.58,79.21,752,26.66,1007.5-14.35,76.73-24.44,161.44-20.71,250.7l81.76,44.58C3939.46,1845.1,3951.49,1371.79,3961,1068.59Z"/><path class="cls-4" d="M4039.92,1183.5c8.15-166.84-7.88-332.39-34.92-491.38-16.94-11.84-34.79-20.3-53.33-24.88,1.52,29.25,3.22,58.35,4.56,86.88,6.48,103.24,8.13,211.32,4.77,314.47-9.51,303.2-21.54,776.51,1.3,1083.82l73,43.28C3980.35,1912.23,4026.14,1453.63,4039.92,1183.5Z"/><path class="cls-5" d="M4046.67,1698.63c35.84-254.55,28.84-728.74-21.33-989.85A210.15,210.15,0,0,0,4005,692.12c27,159,43.07,324.54,34.92,491.38C4026.14,1453.63,3973.09,1940,4028,2223l50.9,35c-12.49-51.09-18.63-132.87-23-182.34C4045.94,1946.34,4030.86,1815.61,4046.67,1698.63Z"/><path class="cls-4" d="M4093.77,1674c16-201.08,44.76-596.15,9-802.94-20.89-48.47-47.33-88.84-77.44-118,50.25,261.89,57.22,735.77,21.28,989.36-15.84,116.56-.75,247.47,9.26,376.79,4.33,49.51,15.36,99.77,27.87,151l95.91,66.23-4.23-192.19C4120.54,1988.75,4082.42,1826.23,4093.77,1674Z"/><path class="cls-4" d="M4116.17,1861.15c12.86,61.17,33.11,114.37,57.46,163.37l-20.77-934.84c-8.21,103.27-21.86,392.85-40,485.59C4094.23,1657.64,4096.28,1762,4116.17,1861.15Z"/><path class="cls-5" d="M4116.17,1861.15c-19.89-99.17-21.94-203.51-3.27-285.88,18.1-92.74,31.75-382.32,40-485.59l-.51-23c-2-88.38-20.37-172.27-49.72-241.44,35.66,206.26,7,602.3-9,803.89-11.3,152.64,26.75,314.55,81.59,469.14l-1.63-73.79C4149.28,1975.52,4129,1922.32,4116.17,1861.15Z"/><path class="cls-4" d="M3654.81,1434.22l-.18,337.75C3695.33,1684.78,3684.68,1546.2,3654.81,1434.22Z"/><path class="cls-4" d="M3679.19,1107.74c-18.57-56.12-14.5-115.37-6.6-175.78a466.14,466.14,0,0,0-17.67,125.81l-.11,376.45c29.87,112,40.52,250.56-.18,337.75l-.1,142.93C3776,1793,3748.26,1314.75,3679.19,1107.74Z"/><path class="cls-5" d="M3698.58,1082.19c-25.53-80.91,6.09-169.11,19-260.09a501.73,501.73,0,0,0-45,109.86c-7.9,60.41-12,119.66,6.6,175.78,69.07,207,96.82,685.25-24.66,807.16l0,28.5a89.75,89.75,0,0,0,33.09-20.46C3806.35,1775.78,3760.73,1302.76,3698.58,1082.19Z"/><path class="cls-4" d="M3766.72,1063.91c-16.84-102.94-10-217.13,13.25-328.31-23.44,24.63-44.49,54-62.37,86.5-12.93,91-44.55,179.18-19,260.09,62.15,220.57,107.77,693.59-11,840.75a89.75,89.75,0,0,1-33.09,20.46l-.05,63.09,80.93,32.52C3828.16,1818.93,3814.42,1354,3766.72,1063.91Z"/><path class="cls-5" d="M3794,1119.93c-16.8-138.51-3.26-277.42,20.91-416a300.64,300.64,0,0,0-35,31.7c-23.23,111.18-30.09,225.37-13.25,328.31,47.7,290.1,61.44,755-31.33,975.1l109.17,50.52C3894.85,1852.31,3825.3,1388.47,3794,1119.93Z"/><path class="cls-6" d="M3850,674.77s-45.53,124-37.17,350.58c8.5,227.88,83.22,835.38,35.05,1047.77"/><path class="cls-6" d="M3780,735.6s-37.91,153.56-19,284c19.22,133.32,56.17,566.89,41,706.57-15.38,137.3-87,304.23-87,304.23"/><path class="cls-6" d="M3989.51,685.21s72.58,275.57,52.4,453.07c-20.54,173.78-58.75,731-46.76,844,12.1,114.11,40.32,222.59,40.32,222.59"/><polygon class="cls-7" points="3904.31 2120.37 3914.71 2125.96 3896.68 668.47 3887.03 670.19 3904.31 2120.37"/><path class="cls-7" d="M3958.38,1790.47c-20.76-8.32-38-43.27-38.43-78.17s16-57.8,36.59-50.76c20.66,7.33,38,43,38.53,79.14S3979.17,1799.08,3958.38,1790.47Zm-1.58-111.14c-15-5.28-27,11.2-26.65,36.61s12.87,50.79,28,56.75,27.1-10,26.7-36.09S3971.84,1684.76,3956.8,1679.33Z"/><path class="cls-7" d="M3944.36,1634.34s-3,38.09,3.84,62.51l19.75,7.24s7.42-13.58,5.47-58.89Z"/><path class="cls-3" d="M3958.13,1772.69c-20.75-8.14-38-43-38.4-77.85s15.94-57.95,36.56-51.09c20.64,7.15,37.92,42.64,38.49,78.83S3978.9,1781.12,3958.13,1772.69Zm-1.59-111.15c-15-5.15-27,11.44-26.62,36.85s12.86,50.69,27.95,56.52,27.08-10.25,26.68-36.33S3971.58,1666.84,3956.54,1661.54Z"/><path class="cls-8" d="M3944.11,1616.65s-3,38.12,3.84,62.49l19.74,7.07s7.41-13.64,5.46-59Z"/><path class="cls-7" d="M3838.42,1746.27c-20.6-6.63-37.52-38.54-37.75-71.39s16.19-55.46,36.65-50.11c20.5,5.65,37.49,38.23,37.85,72.37S3859,1753.2,3838.42,1746.27Zm-1-104.73c-14.91-4.06-26.88,12.22-26.69,36.15s12.51,47.1,27.49,51.83c15,4.88,27-11,26.74-35.63S3852.4,1645.74,3837.47,1641.54Z"/><path class="cls-7" d="M3825.37,1599.89s-3.22,36.1,3.46,58.7l19.59,5.63s7.45-13.26,5.77-55.91Z"/><path class="cls-3" d="M3838.27,1729.52c-20.58-6.46-37.49-38.22-37.72-71.08s16.18-55.61,36.62-50.43c20.48,5.46,37.45,37.91,37.82,72S3858.87,1736.27,3838.27,1729.52Zm-.95-104.75c-14.89-3.92-26.85,12.46-26.67,36.39s12.5,47,27.47,51.61c15,4.75,27-11.28,26.72-35.87S3852.24,1628.85,3837.32,1624.77Z"/><path class="cls-8" d="M3825.23,1583.22s-3.22,36.14,3.46,58.68l19.57,5.46s7.44-13.32,5.76-56Z"/><path class="cls-9" d="M21.6,1902.32l3496.28-44.88S3106.27,191.62,1904.62,173.32C1056.36,160.4,689.15,140.05,22,618.53Z"/><polygon class="cls-10" points="21.96 2392.07 23.81 1894.41 3517.89 1857.44 4294.64 2392.07 21.96 2392.07"/><path class="cls-11" d="M2547.68,474.41a3.21,3.21,0,0,0,.06-.63Z"/><polygon class="cls-12" points="268.24 2068.23 25.17 2053.22 25.17 2111.02 94 2094.15 385.34 2096.88 331.44 2070.96 268.24 2068.23"/><polygon class="cls-13" points="25.52 2090.12 370.52 2089.75 385.34 2096.88 94 2109.35 25.17 2134.72 25.52 2090.12"/><path class="cls-12" d="M360.55,2074.69l3425.39-54.84s-1626.88,48.57-1775.85,51.64S360.55,2074.69,360.55,2074.69Z"/><polygon class="cls-12" points="0 1972.97 2357.24 1959.37 3632.34 1936 3626.23 1932.3 2358.28 1954.72 1.89 1968.82 0 1972.97"/><polygon class="cls-12" points="13.07 2195.94 2610.47 2158.88 3955.31 2155.43 3965.66 2160.6 12.63 2204.57 13.07 2195.94"/><polygon class="cls-14" points="1282.44 2138.29 1588.69 1932.3 2794.32 1932.3 3019.78 2116.45 1282.44 2138.29"/><path class="cls-15" d="M3436.12,104.1s27.64,432.69,32.26,529.11,25.23,573,25.23,573Z"/><polygon class="cls-16" points="3559.59 287.81 3449.05 280.93 3290.83 284.37 3293.52 385.53 3455.34 385.53 3562.78 405.61 3559.59 287.81"/><rect class="cls-17" x="1457.06" y="844.33" width="247.09" height="85.89"/><polygon class="cls-17" points="1736.21 837.15 1736.21 936.11 1947.79 935.32 1947.79 844.33 1736.21 837.15"/><polygon class="cls-17" points="1593.32 956.61 1819.51 956.61 1819.51 1037.52 1589.86 1037.52 1593.32 956.61"/><polygon class="cls-17" points="1327.84 686.99 1515.85 696.6 1515.85 784.38 1324.29 791.67 1327.84 686.99"/><polygon class="cls-18" points="3768.5 258.56 3948.18 269.82 3948.18 350.48 3770.35 339.33 3768.5 258.56"/><polygon class="cls-18" points="3865.21 363.56 4027.73 373.75 4033.97 464.14 3865.21 451.54 3865.21 363.56"/><polygon class="cls-14" points="2778.32 2001.06 3146.45 1986.27 3417.56 2056.92 2950.88 2103.8 2778.32 2001.06"/><polygon class="cls-19" points="3261.01 2062.96 3288.32 1242.56 3039.09 1226.39 3065.03 2019.13 3261.01 2062.96"/><polygon class="cls-20" points="3288.32 1242.56 3347.89 1239.17 3304.7 2053.19 3261.01 2062.96 3288.32 1242.56"/><line class="cls-21" x1="3226.22" y1="1238.53" x2="3200.46" y2="2049.42"/><line class="cls-21" x1="3127.04" y1="1232.1" x2="3104.73" y2="2028.01"/><polygon class="cls-22" points="3347.89 1239.17 3288.32 1242.56 3039.09 1226.39 3143.23 1222.08 3347.89 1239.17"/><polygon class="cls-20" points="3250.46 1751.64 2976.57 1767.2 2979.84 1824.76 3245.96 1798.09 3250.46 1751.64"/><polygon class="cls-19" points="2976.57 1767.2 2820.03 1732.57 2828.16 1781.86 2979.84 1824.76 2976.57 1767.2"/><polygon class="cls-22" points="2820.03 1732.57 3088.47 1719.6 3250.46 1751.64 2976.57 1767.2 2820.03 1732.57"/><polygon class="cls-20" points="3005.02 2080.18 2995.83 1823.16 3039.6 1818.77 3048.89 2070.47 3005.02 2080.18"/><polygon class="cls-19" points="3005.02 2080.18 2852.93 2030.08 2843.8 1786.28 2995.83 1823.16 3005.02 2080.18"/><polygon class="cls-20" points="2910.62 1740.06 2987.61 1762.37 2999.98 1758.74 2921.87 1736.76 2910.62 1740.06"/><polygon class="cls-23" points="2999.98 1758.74 2999.88 1756.96 2987.9 1753.76 2987.99 1755.37 2999.98 1758.74"/><path class="cls-9" d="M2989,1756.62s4.19-26.68-9.8-30.83-46.27-10.88-52.35-7c-8.39,5.38-5.13,21.36-5.13,21.36Z"/><polygon class="cls-9" points="2984.54 1758.71 2988.96 1756.62 2988.47 1748.15 2981.8 1748.52 2984.54 1758.71"/><path class="cls-9" d="M2921,1722s3.44-3.5,7.73-3.92,6,9.3,6,9.3Z"/><path class="cls-20" d="M2984.54,1758.71s4.19-26.68-9.8-30.84-46.27-10.87-52.35-7c-8.39,5.38-5.13,21.36-5.13,21.36Z"/><line class="cls-21" x1="2914.03" y1="1800.06" x2="2915.26" y2="2048.36"/><polygon class="cls-24" points="3245.96 1798.09 3058.15 1808.76 3061.92 1875.16 3245.96 1798.09"/><polygon class="cls-24" points="2997.91 1821.14 2843.8 1786.28 2848.38 1866.92 2996.84 1840.88 2997.91 1821.14"/><path class="cls-20" d="M3171.46,1371.42s43.63-42.1,41.63-63.36-32.83-20.31-41.83,2.37c0,0-1.89-33.15-26-24.65S3150.31,1361.54,3171.46,1371.42Z"/><polygon class="cls-14" points="750.38 2086.26 1040.65 2012.63 1370.36 2021.6 1174.04 2131.49 750.38 2086.26"/><polygon class="cls-19" points="891.42 2086.66 817.62 1269.13 1065.53 1238.85 1084.61 2031.78 891.42 2086.66"/><polygon class="cls-20" points="817.62 1269.13 757.95 1269.13 847.25 2079.38 891.42 2086.66 817.62 1269.13"/><line class="cls-21" x1="879.39" y1="1261.58" x2="951.11" y2="2069.7"/><line class="cls-21" x1="978.05" y1="1249.53" x2="1045.48" y2="2042.89"/><polygon class="cls-22" points="757.95 1269.13 817.62 1269.13 1065.53 1238.85 961.31 1240.45 757.95 1269.13"/><polygon class="cls-20" points="884.3 1775.24 1158.63 1775.24 1158.63 1832.89 891.42 1821.36 884.3 1775.24"/><polygon class="cls-19" points="1158.63 1775.24 1312.96 1731.78 1307.63 1781.45 1158.63 1832.89 1158.63 1775.24"/><polygon class="cls-22" points="1312.96 1731.78 1044.21 1734.06 884.3 1775.24 1158.63 1775.24 1312.96 1731.78"/><polygon class="cls-20" points="1147.98 2089.32 1142.58 1832.2 1098.63 1830.3 1103.64 2082.12 1147.98 2089.32"/><polygon class="cls-19" points="1147.98 2089.32 1296.99 2030.68 1292.28 1786.75 1142.58 1832.2 1147.98 2089.32"/><polygon class="cls-20" points="1222.93 1744.39 1147.34 1771.04 1134.78 1768.12 1211.52 1741.74 1222.93 1744.39"/><polygon class="cls-23" points="1134.78 1768.12 1134.78 1766.34 1146.56 1762.46 1146.56 1764.08 1134.78 1768.12"/><path class="cls-9" d="M1145.66,1765.38s-5.7-26.4,8-31.34,45.57-13.49,51.86-9.94c8.69,4.9,6.34,21,6.34,21Z"/><polygon class="cls-9" points="1150.19 1767.21 1145.66 1765.38 1145.67 1756.9 1152.35 1756.88 1150.19 1767.21"/><path class="cls-9" d="M1211.53,1726.92s-3.62-3.3-7.93-3.46-5.45,9.61-5.45,9.61Z"/><path class="cls-20" d="M1150.19,1767.21s-5.7-26.4,8-31.34,45.57-13.48,51.87-9.94c8.68,4.9,6.34,21,6.34,21Z"/><line class="cls-21" x1="1222.93" y1="1804.49" x2="1235.79" y2="2052.47"/><polygon class="cls-24" points="891.42 1821.36 1079.55 1821.36 1079.55 1887.87 891.42 1821.36"/><polygon class="cls-24" points="1140.38 1830.3 1292.28 1786.75 1292.28 1867.53 1142.58 1849.94 1140.38 1830.3"/><path class="cls-20" d="M941.6,1391.16s-46-39.56-45.16-60.91,31.63-22.14,41.91,0c0,0,0-33.2,24.5-26.09S962.16,1380.09,941.6,1391.16Z"/><path class="cls-25" d="M1425.09,1677.46s-13.61,1-17.35,7.47,1.72,57.43,4.78,61.51,10.14,4.45,19.18,3.42Z"/><path class="cls-19" d="M1425.89,1680.89s-16,1-19.75,7.47,1.72,57.43,4.78,61.51,10.14,4.45,21.58,3.42Z"/><path class="cls-26" d="M2771.26,1652.13s13.65-.28,18,5.8,3.73,57.33,1.07,61.68-9.67,5.4-18.76,5.22Z"/><path class="cls-19" d="M2773.18,1655.39s13.64-.27,18,5.8,3.73,57.33,1.07,61.68-9.67,5.4-18.76,5.22Z"/><polygon class="cls-26" points="2773.32 1639.95 2481.27 1645.51 2768.84 1637.15 2773.32 1639.95"/><polygon class="cls-20" points="2559.17 1558.94 2635.86 1602.48 2648.6 1602.48 2570.76 1558.94 2559.17 1558.94"/><polygon class="cls-23" points="2648.6 1602.48 2648.6 1600.72 2636.66 1594.21 2636.66 1595.8 2648.6 1602.48"/><path class="cls-9" d="M2637.57,1597.29s5.8-24.71-8.13-32.72-46.23-23.71-52.62-21.65c-8.82,2.84-6.45,19.28-6.45,19.28Z"/><polygon class="cls-9" points="2632.97 1598.06 2637.57 1597.29 2637.57 1588.93 2630.78 1587.39 2632.97 1598.06"/><path class="cls-9" d="M2570.76,1544.34a12.06,12.06,0,0,1,8.06-1.6c4.37.82,5.51,10.72,5.51,10.72Z"/><path class="cls-20" d="M2633,1598.06s5.8-24.71-8.13-32.72-46.23-23.7-52.62-21.65c-8.82,2.84-6.45,19.28-6.45,19.28Z"/><rect class="cls-17" x="96.48" y="714.26" width="220.24" height="89.96"/><polygon class="cls-17" points="345.3 706.74 345.3 810.39 533.88 809.56 533.88 714.26 345.3 706.74"/><polygon class="cls-17" points="217.94 831.87 419.54 831.87 419.54 916.61 214.85 916.61 217.94 831.87"/><rect class="cls-17" x="453.42" y="835.06" width="220.24" height="89.96"/><polygon class="cls-17" points="702.24 827.54 702.24 931.2 890.83 930.37 890.83 835.06 702.24 827.54"/><polygon class="cls-17" points="574.88 952.67 776.48 952.67 776.48 1037.41 571.8 1037.41 574.88 952.67"/><rect class="cls-17" x="2521.13" y="957.51" width="220.24" height="89.96"/><polygon class="cls-17" points="2642.59 1075.12 2844.19 1075.12 2844.19 1159.86 2639.51 1159.86 2642.59 1075.12"/><path class="cls-27" d="M1764.45,652.24l4.93,52,535.15-3.28V659.49s-136.25-37.89-273.6-32.42S1774.85,641.84,1764.45,652.24Z"/><path class="cls-19" d="M2314.49,658.51s-428.89,19.44-574.79,0l5.37,90.76s291.73,65.91,564,0Z"/><path class="cls-28" d="M2023.69,620.34c-135.21,4.82-285,20.61-284,38.17,0,0,170.16,19.28,292.27,17.9s282.52-17.9,282.52-17.9S2158.9,615.51,2023.69,620.34Zm-234.55,33.8c297.33-49.67,476,4.37,476,4.37C2118.2,674.6,1789.14,654.14,1789.14,654.14Z"/><polygon class="cls-29" points="1780.32 687.81 1755.15 542.8 1831.76 537.33 1837.78 694.92 1780.32 687.81"/><path class="cls-30" d="M1776.68,488c0,11.2,3.2,21.6,5.6,32-5.6-8-12-15.2-14.4-24.8-3.2,16.8.8,32.8,13.6,45.6.94.62,1.26,1.87,1.31,3.38l18.25-.8C1801.79,522.08,1794.64,501.42,1776.68,488Z"/><path class="cls-11" d="M1820.81,511.07c-3.28-17-48.7-36.67-48.7-62.38,0,0-20.24,35-17,60.19s20.79,35.56,20.79,35.56l6.85-.3c0-1.51-.37-2.76-1.31-3.38-12.8-12.8-16.8-28.8-13.6-45.6,2.4,9.6,8.8,16.8,14.4,24.8-2.4-10.4-5.6-20.8-5.6-32,18,13.46,25.11,34.12,24.36,55.38l6.49-.28S1824.1,528,1820.81,511.07Z"/><polygon class="cls-29" points="2005.54 724.78 1999.74 502.31 2059.39 502.31 2049.08 728.07 2005.54 724.78"/><path class="cls-30" d="M2036.68,450.36c0,12,.8,23.2-1.6,35.2-6.4-7.2-11.2-14.4-12.8-24-8.41,13-4.39,29.65,1.57,43l18.48,3.94C2050.32,490.22,2046.87,467.14,2036.68,450.36Z"/><path class="cls-11" d="M2039.69,425.16l-3.07,12.58L2027.14,412c-1.06,20.8-13.17,36.12-19.74,56.36a35.55,35.55,0,0,0,6,33.93l10.43,2.22c-6-13.32-10-30-1.57-43,1.6,9.6,6.4,16.8,12.8,24,2.4-12,1.6-23.2,1.6-35.2,10.19,16.78,13.64,39.86,5.65,58.11l4.47.95s9.85-22.43,12.59-38.85S2039.69,425.16,2039.69,425.16Z"/><polygon class="cls-29" points="2201.36 702.96 2208.22 525.84 2267.86 530.76 2254.98 704.6 2201.36 702.96"/><path class="cls-30" d="M2253.48,490.36c-3.2,8.8-1.6,22.4-12.8,26.4a185.81,185.81,0,0,1,.74-20.17c-.37,2.05-2.41,3.44-3.14,4.17-9,9.62-10.76,22.32-10.28,34.4l17.32,1.38C2252.71,522.42,2255.92,506,2253.48,490.36Z"/><path class="cls-11" d="M2256.37,448.69V470l-14.22-21.34c1.64,26.81-18.61,35.56-27.36,55.81s6,30.09,6,30.09l7.19.57c-.48-12.08,1.3-24.78,10.28-34.4.73-.73,2.77-2.12,3.14-4.17l.06-.63a3.21,3.21,0,0,1-.06.63,185.81,185.81,0,0,0-.74,20.17c11.2-4,9.6-17.6,12.8-26.4,2.44,15.59-.77,32.06-8.16,46.18l10,.79s13.13-20.79,17.51-37.76S2256.37,448.69,2256.37,448.69Z"/><polygon class="cls-27" points="1992.44 153.48 1821.24 704.22 1837.78 712.06 2005.51 159 1992.44 153.48"/><polygon class="cls-27" points="2018.93 153.48 2235.85 718.53 2219.84 726.41 2005.51 159 2018.93 153.48"/><polygon class="cls-16" points="1803.9 642.67 1764.45 694.92 1830.11 747.31 1883.34 704.22 1803.9 642.67"/><polygon class="cls-16" points="1952.4 689.76 2109.94 694.92 2096.99 757.38 1959.6 757.38 1952.4 689.76"/><polygon class="cls-16" points="2167.49 689.76 2289.06 676.48 2281.15 733.64 2167.49 747.31 2167.49 689.76"/><path class="cls-28" d="M1914.79,531.08l13.2-.35c-3.38-3.42-8.49-9.94-7.78-17.63,1-11.36,29.19-27.25,27.56-44.16,0,0,15.33,21.73,14.8,38.49a34.24,34.24,0,0,1-8.93,22.61l11.08-.3-7.09,97-36.73,8.39Z"/><path class="cls-28" d="M2073.51,532.05l13.18-.86c-3.51-3.28-8.87-9.6-8.45-17.32.62-11.39,28.14-28.34,25.86-45.18,0,0,16.14,21.13,16.25,37.91a34.24,34.24,0,0,1-8.06,22.93l11.06-.72L2120,626l-36.39,9.77Z"/><ellipse class="cls-27" cx="2007.5" cy="144.65" rx="42.78" ry="36.67"/><rect class="cls-27" x="1994.76" y="64.1" width="22.72" height="52.74"/><polygon class="cls-31" points="2414.39 878.61 3236.99 1038.57 3323.2 852.98 2414.39 878.61"/><path class="cls-32" d="M2505.91,878.61s-10.19,78.53,65.36,117.45h5.32l-7.72-117.45Z"/><path class="cls-33" d="M2511.23,878.61s-10.19,78.53,65.36,117.45l-2.4-117.45Z"/><polygon class="cls-34" points="2574.19 878.61 2574.91 913.95 2510.77 887.36 2505.45 888.79 2505.91 878.61 2574.19 878.61"/><path class="cls-32" d="M3272.1,881s10.19,78.53-65.37,117.45h-5.32L3209.13,881Z"/><path class="cls-33" d="M3266.77,881s10.2,78.53-65.36,117.45l2.4-117.45Z"/><polygon class="cls-34" points="3203.81 881.02 3203.09 916.35 3267.24 889.77 3272.56 891.2 3272.1 881.02 3203.81 881.02"/><polygon class="cls-35" points="2408.41 834.34 2457.97 798.5 3339.16 798.5 3344.69 834.34 2408.41 834.34"/><path class="cls-33" d="M2408.4,834.34l6,44.27s798,4.23,930.3,13.41V834.34Z"/><path class="cls-32" d="M2408.4,834.34h936.29s-367.63-4-556.05-4S2413.44,825.87,2408.4,834.34Z"/><path class="cls-32" d="M2408.4,834.34s-3.75,20.3,6,44.27C2414.39,878.61,2407,842.12,2408.4,834.34Z"/><polygon class="cls-36" points="2524.55 805.37 2446.79 806.58 2422.09 824.44 2512.48 821.09 2524.55 805.37"/><polygon class="cls-37" points="2936.18 814.56 2936.18 859.72 3207.05 859.72 3207.05 834.34 3179.76 815.83 2936.18 814.56"/><polygon class="cls-31" points="2541.02 793.89 2493.01 816.42 2742.73 821.51 2803.19 798.5 2541.02 793.89"/><path class="cls-38" d="M2508.22,698.06l2.68,111.35,219.12,3V698.06S2516.16,695.24,2508.22,698.06Z"/><path class="cls-39" d="M2569.71,699s-5.28,111.12-3.39,111.15S2569.71,699,2569.71,699Z"/><path class="cls-39" d="M2629.12,700.88s-3.88,42.56-3.88,55.09V812.4S2632.1,704.3,2629.12,700.88Z"/><path class="cls-39" d="M2686.14,700.88s.59,76.89,0,82.86,0,26.43,0,26.43S2688.53,703.41,2686.14,700.88Z"/><path class="cls-40" d="M2508.22,698.06l221.8,2.76v8.58s-35.52-1.49-76.72-1.49-145.08,9-145.08,9Z"/><circle class="cls-41" cx="2518.22" cy="726.57" r="2.84"/><circle class="cls-41" cx="2521.38" cy="797.05" r="3.16"/><circle class="cls-41" cx="2720.69" cy="720.97" r="4.1"/><circle class="cls-41" cx="2720.39" cy="797.69" r="3.81"/><polygon class="cls-42" points="2734.76 635.33 2767.22 637.35 2765.73 694.2 2733.49 700.88 2711.25 670.98 2734.76 635.33"/><path class="cls-43" d="M2736.94,646.93c-29.61,1.72-59.54-.69-88.19-9.58l-82.43,2c-9.8,3.58-19.69,7.31-29.79,10-12,2.66-24.55,1.44-36.74.5l.4,17.86c29.83-6,59.27-14.85,89.94-12.76,49.45,3.85,97.86,18,143.59,37.11l.41-15.73-12.61-3.78,13.24-3.78S2736.59,656.57,2736.94,646.93Z"/><path class="cls-43" d="M2602.93,669.32c-33.3-5.55-60,12.35-85.77,29.73,7.14-.7,14.91-1.32,19.67-1.32,1.69,0,7.74.08,16.72.21,20.72-17.48,47.52-13.55,68.37,1.08l39.56.66A114,114,0,0,0,2602.93,669.32Z"/><path class="cls-44" d="M2553.55,697.94c16.08.24,41.57.64,68.37,1.08C2601.07,684.39,2574.27,680.46,2553.55,697.94Z"/><path class="cls-44" d="M2590.13,654.92c-30.67-2.09-60.11,6.74-89.94,12.76l.08,3.58v29.62s8-1,16.89-1.83c25.79-17.38,52.47-35.28,85.77-29.73a114,114,0,0,1,58.55,30.36l72,1.2.22-8.85C2688,672.94,2639.58,658.77,2590.13,654.92Z"/><path class="cls-44" d="M2736.94,646.93c.23-6.35-.18-11.6-2.18-11.6s-40.65.92-86,2C2677.4,646.24,2707.33,648.65,2736.94,646.93Z"/><path class="cls-44" d="M2536.53,649.32c10.1-2.65,20-6.38,29.79-10L2499.6,641l.19,8.82C2512,650.76,2524.53,652,2536.53,649.32Z"/><path class="cls-39" d="M2755,696.81s-2.68,45.31-2.68,56.33V798.5L2730,812.4V700.82Z"/><polygon class="cls-39" points="2734.76 668.74 2763.94 670.38 2734.13 676.3 2721.52 672.52 2734.76 668.74"/><polygon class="cls-39" points="2766.72 656.12 2742.73 652.82 2766.72 652.82 2766.72 656.12"/><polygon class="cls-45" points="2730.02 709.4 2754.49 705.83 2755.01 696.81 2730.02 700.82 2730.02 709.4"/><polygon class="cls-46" points="2842.48 440.64 3144.19 440.64 3137.86 818.75 2832.42 818.75 2842.48 440.64"/><polygon class="cls-47" points="2866.48 476.69 3117.9 476.69 3107.55 787.76 2861.68 787.76 2866.48 476.69"/><polygon class="cls-20" points="2866.48 476.69 2842.48 440.64 3144.19 440.64 3117.9 476.69 2866.48 476.69"/><path class="cls-48" d="M2865.26,426.8c7-6.18,3.58-19.72-5.49-21.94-5.46-1.33-10.83,1.42-14.34,5.52A27.78,27.78,0,0,0,2839,426c-.51,5.69,1.15,11.95,6.47,14.88a21.44,21.44,0,0,0,9,2.18c3.63.26,7.28.39,10.91.45a75.43,75.43,0,0,0,20.31-2.15,84.51,84.51,0,0,0,16.75-6.48c10.81-5.44,20.66-12.53,30.76-19.12,10.67-7,22-13.82,34.52-16.66,11.83-2.68,25.29-.82,33.46,8.94a19.57,19.57,0,0,1,4.56,14.37,17.92,17.92,0,0,1-6.31,12.33c-10,8-24.42-.83-31.79-8.45-1.82-1.88-3.93-4.48-3.86-7.25.07-2.92,3.39-4.44,5.71-5.4,4.45-1.84,11.76-2.16,12.55,4.07a3.8,3.8,0,0,1-1.87,4.14c-2.29,1.17-.27,4.62,2,3.46,4.71-2.39,4.78-8.92,2-12.79-4-5.61-11.87-4.6-17.37-2-2.92,1.37-5.92,3.35-6.77,6.65-.79,3.08.43,6.27,2.17,8.8a32.75,32.75,0,0,0,6.83,6.93,49.74,49.74,0,0,0,8.4,5.53c5.7,2.89,12.36,4.51,18.62,2.54a19.22,19.22,0,0,0,11.64-10.6,23.74,23.74,0,0,0,1.33-15.9,26.63,26.63,0,0,0-10.17-14c-11.12-8.19-25.77-7.71-38.33-3.49-12.26,4.13-23.24,11.26-33.93,18.37-10.26,6.81-20.51,14-31.91,18.75a68,68,0,0,1-17.51,4.89c-7.48,1-15.2.61-22.7.08-2.9-.2-6.15-.63-8.42-2.63a10,10,0,0,1-3.06-6.85,23.33,23.33,0,0,1,4.74-15.69c2.77-3.6,7.91-7.06,12.52-4.62,3.44,1.81,5.2,6.12,4.76,9.87a7.56,7.56,0,0,1-2.54,4.84c-1.94,1.7.9,4.52,2.83,2.82Z"/><path class="cls-48" d="M3027.72,421.18a5,5,0,0,1,2.44-5.64c2.23-1.34,5-.69,7,.77,4,2.9,4.55,8.33,2.55,12.58a11.79,11.79,0,0,1-11.37,7,15.21,15.21,0,0,1-12.43-7.85,18.68,18.68,0,0,1-.11-16.36,23.93,23.93,0,0,1,12.47-11.55c10.86-4.66,24.26-2.24,33.05,5.58s12.88,19.07,21,27.29c8.86,9,21.82,12,34.1,11.33,6.17-.33,12.53-2,16.46-7.09,3.53-4.6,4.67-10.76,3.89-16.42a22.16,22.16,0,0,0-7.48-14.11,18.14,18.14,0,0,0-14.28-3.91,16.8,16.8,0,0,0-12.13,7.7,13.81,13.81,0,0,0,1,15.58,10.85,10.85,0,0,0,13.92,2c4.6-3.09,4.9-9.22,1.34-13.26a7.61,7.61,0,0,0-6.21-2.63c-2.54.22-2.57,4.22,0,4,4.07-.34,6.25,5.46,3.28,8.1a6.64,6.64,0,0,1-5.7,1.3,6.85,6.85,0,0,1-4.88-4.23,10.4,10.4,0,0,1,4-12.34,14.78,14.78,0,0,1,12.87-1.72c10,3.37,13.15,17.38,8.26,25.94-3,5.33-9,6.82-14.71,7.08a49.77,49.77,0,0,1-18-2.26,32.91,32.91,0,0,1-14.39-9.57c-3.76-4.24-6.66-9.14-9.8-13.84s-6.64-9.48-11.17-13.06a36.31,36.31,0,0,0-16.39-7.31c-11.72-2-24.53,1.86-31.73,11.69-7,9.61-6,24.5,4.65,31,4.51,2.79,10.39,3.79,15.42,1.86a16.28,16.28,0,0,0,9.72-11,13.77,13.77,0,0,0-4.14-14.26c-4.6-3.78-11.26-3.81-15,1.22a8.4,8.4,0,0,0-1.34,7.41c.77,2.45,4.63,1.4,3.86-1.06Z"/><polygon class="cls-49" points="3115.1 629.51 2865.39 536.36 2865.51 489.31 3115.22 582.46 3115.1 629.51"/><polygon class="cls-49" points="3114.98 676.4 2865.27 583.24 2865.33 561.11 3115.04 654.26 3114.98 676.4"/><polygon class="cls-50" points="723.59 308.05 1264.2 308.05 1255.36 337.97 723.59 337.62 723.59 308.05"/><path class="cls-50" d="M731.18,324.66c0,21.84-15.54,39.55-34.7,39.55s-34.69-17.71-34.69-39.55,15.53-39.55,34.69-39.55S731.18,302.82,731.18,324.66Z"/><path class="cls-50" d="M1320.28,324.66c0,21.84-14.74,39.55-32.93,39.55s-32.92-17.71-32.92-39.55,14.74-39.55,32.92-39.55S1320.28,302.82,1320.28,324.66Z"/><polygon class="cls-51" points="774.08 380.05 774.08 750.83 997.63 690.24 1231.89 748.54 1221.79 379.05 774.08 380.05"/><polygon class="cls-52" points="763.98 354.29 763.98 725.07 987.53 664.48 1221.79 722.78 1221.79 353.29 763.98 354.29"/><polyline class="cls-53" points="786.79 354.74 788.85 692.97 991.8 636.99 1198.56 689.26 1196.37 356.59"/><polygon class="cls-54" points="1014.44 559.48 1029.14 549.12 1050.09 555.4 1031.66 570.5 1014.44 559.48"/><polygon class="cls-55" points="1029.14 549.12 1020.25 533.63 1038.88 536.34 1050.09 555.4 1029.14 549.12"/><path class="cls-15" d="M1047.56,410.22c-9.86-14.05-25.5-22.12-45.21-23.34-2.42-.15-4.83-.22-7.16-.22-47.23,0-63.13,29.8-64.8,37.78-.56,2.66,0,4.26,1.51,4.75a6.46,6.46,0,0,0,2,.31c4.41,0,9-3.86,9.64-4.38.23-.23,23.33-22.92,48.92-22.92a41.35,41.35,0,0,1,4.18.2c25.2,2.51,26.59,24.59,25.83,49-.5,15.86-13.75,48.86-43.41,59.7,9-44.19,28.13-84.05,30.29-86.91,3.59-4.78,1.85-7.87,1.1-9.2-1.17-2.06-15.11-7.79-20.08-8.85a13.19,13.19,0,0,0-2.8-.3,14.74,14.74,0,0,0-8.36,2.68c-7.86,6-17.13,21.47-24.8,41.3-7.82,20.2-13,42.41-14.28,61.34-20.38-10.17-8.57-39.87-8.44-40.18l.1-.24v-.26c-.06-7.56-3.37-9.15-6.13-9.15-3.75,0-7.62,3.22-8.05,3.58l-.22.24c-6.24,8.17-11.22,27.52-4.32,42.61,4.66,10.21,13.75,16.94,27,20a91.79,91.79,0,0,0,5.11,24.07c6,21.8,18.67,42.1,26.54,42.59l.78,0c8.36,0,12.72-8.16,12.91-8.51l.32-.63-.34-.62c-7.2-13-10.58-29.57-10.07-49.18.22-2.2.48-4.49.78-6.84,40.27-5.3,66.51-30.3,77.7-52.1C1061,462.65,1062.76,431.86,1047.56,410.22Z"/><ellipse class="cls-14" cx="451.92" cy="1952.63" rx="224.88" ry="20.34"/><path class="cls-39" d="M253.57,1574.82S193.16,1792.21,276.39,1922c0,0,142.3,29.6,316.81,4.2,0,0,76.51-118.47,9.5-362.59Z"/><path class="cls-56" d="M245.57,1544s195.94-41.43,361.05-16.57L617.36,1563s-321.79,14.21-381,20.13Z"/><path class="cls-56" d="M248.2,1901.53s231.16,28.91,369.16,0l-15.12,36.83s-93.16,8.34-170.94,8.76-167.18-8.76-167.18-8.76Z"/><path class="cls-43" d="M248.2,1901.53l14.74-3.7s12.63,5.23,50.61,6.92,172.35,5.35,207.78,3.38,84.51-8.56,84.51-8.56l1.85-4.9,9.67,6.86s-114.48,23-235.51,12.23S248.2,1901.53,248.2,1901.53Z"/><path class="cls-57" d="M301.2,1578.59s-10.61,112.78-8.68,161.8,21,164.36,21,164.36S277.1,1667,301.2,1578.59Z"/><path class="cls-57" d="M387.81,1573.89s4,142.58,4,187.84-4,143-4,143S407.91,1652.47,387.81,1573.89Z"/><path class="cls-57" d="M492.89,1568.71s36.77,128.48-6.61,336.94C486.28,1905.65,543.84,1695.68,492.89,1568.71Z"/><path class="cls-57" d="M561.47,1568.71s31.19,111.42,29.88,168.47-24.1,168.47-24.1,168.47S610.63,1682.93,561.47,1568.71Z"/><path class="cls-41" d="M243.55,1620.86s270.29-23.82,369.77-14.34l7.51,38.56s-138.41,2.38-228.06,5.78-155.92,15.32-155.92,15.32Z"/><path class="cls-41" d="M236.85,1797.32s172.32,26.82,392.1-8.82l-8.12,46s-176.42,39-379.13,0Z"/><path class="cls-58" d="M426.84,1578.59s1.05,98.33,0,149.27-4.72,166.81-4.72,166.81,14.1-1.41,24.91,0,28.66-110,28.66-171.94-11.55-144.14-11.55-144.14Z"/><path class="cls-59" d="M251.45,1583.11l351.25-19.47,6.84,26.52s-182-20.66-361.34,10.68Z"/><path class="cls-39" d="M610.63,1178.34s60.41,217.39-22.82,347.22c0,0-142.3,29.59-316.81,4.2,0,0-76.52-118.47-9.5-362.6Z"/><path class="cls-56" d="M618.63,1147.57s-195.94-41.43-361-16.57l-10.74,35.51s321.79,14.2,381,20.12Z"/><path class="cls-56" d="M616,1505.05s-231.16,28.91-369.16,0L262,1541.89s93.16,8.33,170.94,8.75,167.18-8.75,167.18-8.75Z"/><path class="cls-43" d="M616,1505.05l-14.74-3.7s-12.63,5.24-50.61,6.93-172.35,5.34-207.78,3.37-84.51-8.56-84.51-8.56l-1.85-4.89-9.67,6.85s114.48,23,235.51,12.23S616,1505.05,616,1505.05Z"/><path class="cls-57" d="M563,1182.12s10.61,112.77,8.68,161.79-21,164.37-21,164.37S587.1,1270.51,563,1182.12Z"/><path class="cls-57" d="M476.39,1177.41s-4,142.58-4,187.84,4,143,4,143S456.29,1256,476.39,1177.41Z"/><path class="cls-57" d="M371.31,1172.24s-36.77,128.47,6.61,336.94C377.92,1509.18,320.36,1299.2,371.31,1172.24Z"/><path class="cls-57" d="M302.73,1172.24s-31.19,111.41-29.88,168.47S297,1509.18,297,1509.18,253.57,1286.45,302.73,1172.24Z"/><path class="cls-41" d="M620.65,1224.39s-270.29-23.83-369.78-14.34l-7.5,38.56s138.41,2.37,228.05,5.77,155.93,15.32,155.93,15.32Z"/><path class="cls-41" d="M627.35,1400.84S455,1427.66,235.25,1392l8.12,46s176.41,39,379.12,0Z"/><path class="cls-58" d="M437.36,1182.12s-1.05,98.32,0,149.27,4.72,166.81,4.72,166.81-14.11-1.42-24.91,0-28.67-110-28.67-172,11.56-144.13,11.56-144.13Z"/><path class="cls-59" d="M612.74,1186.63,261.5,1167.16l-6.85,26.52s182-20.66,361.35,10.69Z"/><path class="cls-60" d="M373.73,387.57,366,419.92C382.64,419.92,373.73,387.57,373.73,387.57Z"/><path class="cls-61" d="M523.82,549.72l1.33-22.59-21.21-.37c34-66.65-19.45-152.34-19.45-152.34,0,20-26.72,48.52-26.72,48.52L448.87,343c-37.4,22.83-53.43,97.05-53.43,97.05l-8.91-22.84s-12.47,21.41-17.81,54.24c-3.75,23,7.4,43.22,14.39,53.23L358,524.27l3.57,30.93,49.73-1.68,3.11,11.19.52.1L422.27,612c-11.77,5.33-19.71,14.92-19.71,26,0,16.82,18.21,30.45,40.67,30.45s40.66-13.63,40.66-30.45c0-11.89-9.19-22.07-22.46-27.09l10.41-59.4Z"/><path class="cls-62" d="M469.4,612.41c0,16.82-18.21,30.45-40.67,30.45s-40.67-13.63-40.67-30.45S406.27,582,428.73,582,469.4,595.6,469.4,612.41Z"/><path class="cls-63" d="M373.81,505.85s-24.93-27.12-19.59-59.94S372,391.67,372,391.67l8.91,22.84s16-74.22,53.43-97.05l8.9,79.92S470,368.84,470,348.86c0,0,55.21,88.48,17.81,155.56C487.8,504.42,418.34,518.69,373.81,505.85Z"/><path class="cls-64" d="M386.28,508.7s-8.9-57.08-7.12-64.22,8.9,5.71,8.9,5.71,21.37-57.09,30.28-79.92l24.93,69.93s19.6-22.84,21.38-45.67c0,0,20.78,65.65,3,112.75C467.62,507.28,437.93,517.27,386.28,508.7Z"/><path class="cls-65" d="M407.65,510.84s10.69-42.1,10.69-57.8V438.77s17.81,20,19.59,32.83l19.59-14.28s3.56,38.54-10.68,51.38Z"/><path class="cls-65" d="M399.94,487.77s-4.75-26.16,1.78-46.14C401.72,441.63,413,480.16,399.94,487.77Z"/><path class="cls-63" d="M375,376l7.72-32.35S391.63,376,375,376Z"/><polygon class="cls-66" points="343.54 498.71 510.65 501.57 509.32 524.17 347.1 529.64 343.54 498.71"/><path class="cls-66" d="M398.16,524.4l12.46,80.4s13.06,4.28,32.65,1.43l14.25-81.35Z"/><polygon class="cls-62" points="396.38 526.31 457.52 524.88 452.77 549.14 399.94 539.15 396.38 526.31"/><path class="cls-62" d="M420.72,606.71l-.6-58.52S426.06,605.75,420.72,606.71Z"/><path class="cls-62" d="M431.4,595.76s1.19-70.4,2.38-65.17S436.15,596.24,431.4,595.76Z"/><path class="cls-62" d="M411.81,571s-4.16-38.06-7.12-38.54S411.81,571,411.81,571Z"/><path class="cls-62" d="M374.41,512c0,3.68-3.32,6.66-7.42,6.66s-7.42-3-7.42-6.66,3.32-6.66,7.42-6.66S374.41,508.36,374.41,512Z"/><path class="cls-62" d="M500.86,512.27a6,6,0,1,1-5.94-5.47A5.72,5.72,0,0,1,500.86,512.27Z"/><polygon class="cls-19" points="1424.29 1665.63 1650.1 1537.82 2606.69 1535.81 2773.32 1639.95 1424.29 1665.63"/><path class="cls-67" d="M1634.89,1949.65l-160,168.19s-2.06-161,10.25-190.19c9-21.22,43.15-53.71,43.15-53.71l3-170.42,61.06-21.44-.59,154.51s23.82-25.66,33.06-23.82c5.49,1.1,10.94,10.82,11.35,32C1636.4,1859,1634.89,1949.65,1634.89,1949.65Z"/><path class="cls-67" d="M1483.8,2121.93l-8.93-4.09v-25.2S1487.68,2095.18,1483.8,2121.93Z"/><path class="cls-67" d="M1624.77,1812.77a32.55,32.55,0,0,1,12.09,5.73l-12.09,9.14Z"/><path class="cls-68" d="M1601.23,1686.17l-61,21.44-2.34,134.16a665.65,665.65,0,0,0,63-46Z"/><path class="cls-19" d="M1645.06,1848.81c-.41-21.14-5.86-30.85-11.36-32-9.24-1.85-33,23.82-33,23.82l.17-44.89a665.65,665.65,0,0,1-63,46l-.64,36.25s-34.19,32.5-43.15,53.72c-12.3,29.17-10.25,190.19-10.25,190.19l160-168.19S1645.34,1863.09,1645.06,1848.81Z"/><polygon class="cls-26" points="1528.27 1873.93 1537.2 1878.02 1540.18 1707.61 1531.24 1703.52 1528.27 1873.93"/><path class="cls-67" d="M2540.15,1966l160,168.19s2.05-161-10.25-190.19c-9-21.23-43.15-53.72-43.15-53.72l-3-170.42-61.05-21.44.58,154.51s-23.81-25.66-33-23.81c-5.5,1.1-11,10.81-11.36,31.95C2538.64,1875.36,2540.15,1966,2540.15,1966Z"/><path class="cls-67" d="M2691.25,2138.29l8.93-4.09V2109S2687.37,2111.53,2691.25,2138.29Z"/><path class="cls-67" d="M2550.28,1829.13a32.48,32.48,0,0,0-12.09,5.73l12.09,9.14Z"/><path class="cls-68" d="M2634.87,1724l-61.06-21.44.36,93.41c20.59-4.84,41.14-9.92,61.68-15.48Z"/><path class="cls-19" d="M2681,1948.1c-9-21.23-43.15-53.72-43.15-53.72l-2-113.93c-20.54,5.56-41.09,10.64-61.68,15.48l.23,61.1s-23.82-25.66-33.06-23.81c-5.49,1.1-10.94,10.81-11.35,32-.28,14.27,1.23,104.93,1.23,104.93l160,168.19S2693.3,1977.26,2681,1948.1Z"/><polygon class="cls-26" points="2646.78 1890.29 2637.84 1894.38 2634.87 1723.96 2643.8 1719.87 2646.78 1890.29"/><polygon class="cls-20" points="1424.29 1665.63 2773.32 1639.95 2773.32 1736.09 1433.09 1765.76 1424.29 1665.63"/><path class="cls-69" d="M1949.4,1447.08l310.61-9.17s-25.17,121-166.62,129.43S1949.4,1447.08,1949.4,1447.08Z"/><path class="cls-69" d="M2026.43,1590.7S2036.89,1552,2094,1550s73.31,40.35,73.31,40.35Z"/><path class="cls-70" d="M1949.41,1450.83l310.61-9.18s-25.17,121-166.62,129.44S1949.41,1450.83,1949.41,1450.83Z"/><path class="cls-70" d="M2026.44,1594.44s10.46-38.74,67.54-40.73,73.31,40.36,73.31,40.36Z"/><path class="cls-71" d="M1968.31,1456.44l267.74-4.42s-89.53,21.22-143.58,22.85S1968.31,1456.44,1968.31,1456.44Z"/><polygon class="cls-72" points="1943.72 1633.58 1954.79 1627.24 1953.86 1604.51 1942.8 1610.94 1943.72 1633.58"/><path class="cls-72" d="M1954.79,1627.24s-6.6-186-17.83-189-26.43-5.55-26.43-5.55l-.89-62-63.17-2.26,2.34,76.35s-14.6,1.67-23.93,5.21h0c-11.68,3.84-17.28,9.83-17.28,9.83l9.64-3c-1.15,15.32-9.8,173.78-9.8,173.78Z"/><path class="cls-69" d="M1796.58,1630.81l147.14,2.77s-6.6-186-17.83-189-26.43-5.55-26.43-5.55l-.89-62-63.16-2.26,2.34,76.35s-30.74,3.51-31.5,11.16S1796.58,1630.81,1796.58,1630.81Z"/><path class="cls-73" d="M1826.53,1374.44s48.52,18.82,89.55-1.81l.74-22.49s-66.94,4.58-90.54,0Z"/><path class="cls-72" d="M1826.28,1350.15s11.63-6.22,47.89-6.35c30.21-.11,42.65,6.34,42.65,6.34S1848.14,1355.16,1826.28,1350.15Z"/><polygon class="cls-74" points="1945.94 1482.1 1934.88 1488.57 1821.43 1492.4 1814.53 1593.77 1942.07 1594.88 1953.18 1589.45 1945.94 1482.1"/><ellipse class="cls-75" cx="1879.22" cy="1541.35" rx="40.04" ry="34.96" transform="translate(277.04 3368.99) rotate(-88.12)"/><path class="cls-69" d="M1832.07,1547.51c-.84,3.43-1.37,5.78-1.63,7.1.12,3.85.21,5.83.21,5.83-4.07,0-5.77.13-5.77.13-.42-23.3-.86-40.12-.86-40.12,3.78,0,5.73,0,5.73,0,.11,8.89.26,16,.39,22,2.81-16.13,4.09-24.14,4.09-24.14,3.7.26,5.86.23,5.86.23-2,9.75-3.45,17.16-4.24,21.14,3,13.66,5.21,22.4,5.21,22.4-3.27.22-6.09.56-6.09.56C1833.7,1555.59,1832.72,1550.68,1832.07,1547.51Z"/><path class="cls-69" d="M1841,1519.4s3.36-.1,11.74-.39c0,0,0,3.3.21,8,0,0-3.4.1-6.18.26,0,0,0,3.66.25,9.73.33,0,2.16,0,5.31-.13,0,0,.07,3.18.21,7.62,0,0-2.29,0-5.27,0,.09,2.7.2,5.64.35,8.77,0,0,2.41.21,6,.28,0,0,0,2.59.08,7.57,0,0-5.27-.17-11.5-.22C1842.25,1560.89,1841.8,1543.6,1841,1519.4Z"/><path class="cls-69" d="M1853.67,1520.08s4.07,0,13.9-.41c0,0-.06,3,.09,8,0,0-1.91,0-4.11,0,.12,5.64.32,14.89.86,32.37,0,0-1.87,0-5.65.13,0,0-.17-11.9-.77-32.43l-4.11.11S1853.88,1525.67,1853.67,1520.08Z"/><path class="cls-69" d="M1868.26,1540c-.32-14.83,1.81-22.07,7.83-22.14,5.6-.07,7.54,7,7.59,17.2-3.69,0-6-.16-6-.16-.12-7.57-.51-10.2-1.71-10.19-1.46,0-1.83,4-1.51,15.15.25,11.6.78,15,2.19,15,1,0,1.7-2,1.29-11.55,3.28-.23,6.1-.26,6.1-.26.47,14.35-2.67,18.65-7.32,18.65C1871.05,1561.73,1868.6,1555.7,1868.26,1540Z"/><path class="cls-69" d="M1894.52,1546.42c-.7,0-1.66,0-3.23.1l.4,12.91s-2.41-.09-5.65.14c0,0-.34-15.86-1-39.82,0,0,1.37,0,5.52-.13,0,0,.21,8,.55,19.88.49,0,1.53,0,3.23,0-.13-6.3-.37-13.69-.58-21.79,0,0,2,0,5.72-.13,0,0,.37,19.33,1.06,44a38.86,38.86,0,0,0-5.68,0S1894.8,1555.43,1894.52,1546.42Z"/><path class="cls-69" d="M1901.62,1538.1c-.14-6.54,0-13,.47-18.93,0,0,1.62.4,5.46,1-.36,6.73-.5,11.54-.41,16,.28,13.15,1.36,16.93,2.56,16.91s1.87-1.89,1.61-14c-.13-6.42-.71-13.93-1.53-21.06a45.05,45.05,0,0,0,5.68-.74,210.35,210.35,0,0,1,1.74,21.37c.33,15.67-1.68,22.31-7.29,22.38C1904.1,1561.14,1902,1553.59,1901.62,1538.1Z"/><path class="cls-69" d="M1918.4,1518.67a22.48,22.48,0,0,1,3.4-.34c8-.1,11.36,5.32,11.59,15.83.21,9.79-3.08,15.42-8.72,15.79l.38,9.72s-2.41-.08-5.81.14C1919.24,1559.81,1919.07,1544,1918.4,1518.67Zm6,24.73c2.07-.32,3.31-2.32,3.17-8.93-.12-6-1.31-9.11-3.59-8.9C1924.14,1531,1924.18,1534.45,1924.45,1543.4Z"/><path class="cls-76" d="M1934.88,1488.57l7.18,106.31,11.12-5.43s-4.09-93.17-7.24-107.35Z"/><polygon class="cls-74" points="1836.28 1403.4 1898.93 1402.06 1899.19 1420.01 1836.93 1424.6 1836.28 1403.4"/><polygon class="cls-76" points="1898.93 1402.06 1910.02 1397.38 1910.33 1418.47 1899.19 1420.01 1898.93 1402.06"/><ellipse class="cls-70" cx="1651.98" cy="1617.94" rx="150.56" ry="30.14" transform="translate(-74.17 79.38) rotate(-2.69)"/><path class="cls-77" d="M1759.38,1557.3v46.93s-49.14,25.09-99.2,20.73c0,0-87.15,8.55-108,4.28s-31.52-7-31.52-7l-2.78-54s20.39,14.14,57,15.78,91.32-6,91.32-6S1706.53,1581.31,1759.38,1557.3Z"/><path class="cls-78" d="M1759.38,1557.3s-9.74-19.64-81.59-15.82-160.57,14.26-159.92,26.78,27.35,22,62.11,21.61S1666.2,1578,1666.2,1578,1742.69,1578,1759.38,1557.3Z"/><path class="cls-79" d="M1542,1565.43s8.35,17,59.34,14.24,123.76-10.91,117.28-17.46S1542,1565.43,1542,1565.43Z"/><path class="cls-80" d="M1542,1530v35.41s83,14.79,176.62-3.22v-42S1608.72,1545.85,1542,1530Z"/><path class="cls-81" d="M1532.24,1513.65s-19-.21-9.74,13.26,67.68,4.86,72.32,14.08,34,16.86,36.94,9.77,7.09-10.26,13.58-9.77-.92,9.22,8.81,10.31,57.48-3.27,48.67-9.82,8.35-7,12.06-7.88,36.62-6.23,31-13.36-33.37-26.57-71.85-22.31S1536.41,1490.74,1532.24,1513.65Z"/><path class="cls-82" d="M1664.31,1625.25l1.89-47.21s31-1.25,40.92-2.67L1717,1574l1.56,45.11S1689.77,1629.91,1664.31,1625.25Z"/><path class="cls-74" d="M1557.27,1484.51v30.24s53.77,18.55,149.73,0v-30.24S1601.77,1497.38,1557.27,1484.51Z"/><path class="cls-83" d="M1666.32,1495.19c-.88,0-24.64.57-24.86,2.14s1.09,21,1.09,21l24.86-1.78Z"/><path class="cls-83" d="M1557.27,1484.51s4.61-4.8,22-5.23,126.27.66,127.68,5.23S1575.77,1497.16,1557.27,1484.51Z"/><path class="cls-84" d="M1721,1354.07c-4.63-3.66-12.27-7.25-25.46,2,0,0-16.52,18.58-54.66,17.6-2.59-.07-5.23-.22-7.9-.44a3.82,3.82,0,0,0-.42-1.53,6.5,6.5,0,0,0-7.06-2.91,4,4,0,0,0-3.26,3.24c-3.65-.5-7.33-1.09-11-1.73a6.89,6.89,0,0,0-.59-1.66,8.9,8.9,0,0,0-9.44-4.56,4.87,4.87,0,0,0-3.8,3.62c-25.2-5-48.16-10.25-58.16-3.59-6.5,4.33-8.16,19.93.9,35.69-2.44,1.55-2.65,4.88-.35,7.81s6.09,4.36,9.07,3.69c9.36,9.66,23.65,18.27,44.39,23a6.54,6.54,0,0,0,.74,2.85c2,3.94,7.53,6.21,12.3,5.06,3-.73,5-2.67,5.56-5,13.9,1.31,30,1.09,48.67-1.19,35-4.3,55.23-12.87,66.07-22.93a7.42,7.42,0,0,0,5.37.84c3-.71,4.35-3.27,3.09-5.72a5.79,5.79,0,0,0-2.34-2.34C1746.81,1383.92,1726.63,1358.49,1721,1354.07Z"/><path class="cls-85" d="M1705.45,1357.4s-14.6,16.86-44.54,20.33-96.16-14.23-108.35-11.63c-12.51,2.67-15.85,8.33-7.36,18.05s90.39,18.42,134.37,3.5S1715.32,1358.75,1705.45,1357.4Z"/><g class="cls-86"><ellipse class="cls-87" cx="1615.21" cy="1409.24" rx="5.2" ry="6.67" transform="translate(-243.1 2477.68) rotate(-71)"/><ellipse class="cls-88" cx="1644.48" cy="1382.82" rx="6.25" ry="7.97" transform="translate(-111.32 2621.23) rotate(-75.26)"/><ellipse class="cls-89" cx="1714.95" cy="1406.6" rx="5.2" ry="6.67" transform="translate(-391.62 2100.81) rotate(-57.6)"/><ellipse class="cls-90" cx="1684.02" cy="1418.27" rx="4.43" ry="5.63" transform="translate(-334.89 2296.59) rotate(-63.62)"/><ellipse class="cls-91" cx="1559.72" cy="1391.76" rx="6.11" ry="7.9" transform="translate(-474.99 1870.99) rotate(-55)"/><ellipse class="cls-92" cx="1638.56" cy="1402.08" rx="4.11" ry="5.27" transform="translate(-421.65 2039.47) rotate(-57.74)"/></g><path class="cls-85" d="M1548.43,1382.39c33-4.58,68.4-5.17,99.53-14.44-31.83,7.29-88.46,6.25-98.6,11.07-4.07,1.94-6.94,4-8.5,6.12A20.43,20.43,0,0,1,1548.43,1382.39Z"/><path class="cls-93" d="M1730.56,1412.48c-4.16-3.59-11.4-7.12-26.22,2,0,0-19.63,18.26-58.31,17.31-2.63-.07-5.3-.22-8-.43a3.26,3.26,0,0,0-.19-1.5c-.84-2.22-3.86-3.5-6.75-2.85a4.82,4.82,0,0,0-3.8,3.18q-5.47-.73-11-1.69a5.42,5.42,0,0,0-.35-1.64,7.86,7.86,0,0,0-8.92-4.47,6,6,0,0,0-4.41,3.56c-24.91-4.87-47.5-10.05-58.69-3.5-7.27,4.26-11.31,19.59-4.47,35.06-2.71,1.52-3.43,4.79-1.52,7.67a8.68,8.68,0,0,0,8.67,3.62c8.07,9.48,21.33,17.93,41.74,22.51a5.67,5.67,0,0,0,.33,2.8c1.46,3.87,6.72,6.1,11.75,5a8.67,8.67,0,0,0,6.42-4.92c14,1.28,30.41,1,49.74-1.2,36.34-4.24,58.17-12.67,70.73-22.56a7.29,7.29,0,0,0,5.35.83c3.12-.7,4.91-3.22,4-5.62a4.65,4.65,0,0,0-2-2.3C1752.3,1441.79,1735.59,1416.82,1730.56,1412.48Z"/><path class="cls-85" d="M1714.18,1415.76s-17.41,16.56-48.41,20-95.77-13.93-108.57-11.37c-13.15,2.63-17.41,8.19-10.22,17.74s89.25,18,136.29,3.36S1724,1417.07,1714.18,1415.76Z"/><g class="cls-86"><ellipse class="cls-94" cx="1610.16" cy="1467.67" rx="5.46" ry="6.34" transform="translate(-293.01 2528.14) rotate(-71.48)"/><ellipse class="cls-95" cx="1648.24" cy="1449.06" rx="6.49" ry="7.67" transform="translate(-121.4 2747.09) rotate(-77.58)"/><ellipse class="cls-96" cx="1716.43" cy="1464.08" rx="5.46" ry="6.34" transform="translate(-217.1 2626.45) rotate(-71.48)"/><ellipse class="cls-97" cx="1683.18" cy="1475.55" rx="4.57" ry="5.45" transform="translate(-70.61 2866.45) rotate(-79.66)"/><ellipse class="cls-98" cx="1560.62" cy="1449.58" rx="6.47" ry="7.47" transform="translate(-385.56 2315.14) rotate(-66.86)"/><ellipse class="cls-99" cx="1639.33" cy="1459.68" rx="4.31" ry="5.01" transform="translate(-260.98 2558.26) rotate(-71.71)"/></g><path class="cls-85" d="M1556.62,1426.84c33.34,3.13,67.34,10.6,100.63,8.81-33.2-.26-86.91-14.12-98.45-11.82-4.63.93-8.15,2.22-10.46,3.92A22.26,22.26,0,0,1,1556.62,1426.84Z"/><path class="cls-100" d="M1733.44,1325.45c-3-4.22-9-8.92-26.12-2.66,0,0-24.49,14.35-61.89,6.66-2.54-.53-5.1-1.14-7.65-1.82a3.28,3.28,0,0,0,.25-1.49c-.16-2.31-2.73-4.08-5.73-4a5.61,5.61,0,0,0-4.64,2.44c-3.41-1.12-6.8-2.32-10.16-3.56a5.74,5.74,0,0,0,.14-1.66c-.25-3.43-3.55-6.07-7.38-5.91a7,7,0,0,0-5.34,2.69c-22.82-9.1-43.3-18.09-56.13-13.66-8.33,2.87-16.78,17.09-14.67,33.36a5.62,5.62,0,0,0-3.75,7.2,7.61,7.61,0,0,0,7.38,5c5.07,10.65,15.49,21.19,34,29.22a5.87,5.87,0,0,0-.51,2.78c.29,4,4.76,7.12,10,6.9a10.05,10.05,0,0,0,7.7-3.67c13.22,3.69,29.31,6.34,48.79,7.53,36.64,2.23,60.39-2.17,75.54-9.61a6.71,6.71,0,0,0,5,1.75c3.24-.14,5.73-2.28,5.55-4.78a4,4,0,0,0-1.3-2.59C1746,1357.79,1737.06,1330.55,1733.44,1325.45Z"/><path class="cls-85" d="M1716.52,1325.78s-21.83,13.09-53,11-89.17-30.31-102.39-30.06c-13.57.26-19.36,4.94-15.18,15.49s81.62,33.17,131.75,27.1S1725.72,1328.78,1716.52,1325.78Z"/><g class="cls-86"><ellipse class="cls-101" cx="1599.92" cy="1358.15" rx="5.61" ry="6.17" transform="translate(93.46 2819.28) rotate(-84.45)"/><ellipse class="cls-102" cx="1642.49" cy="1346.69" rx="6.61" ry="7.54" transform="translate(209.05 2914.04) rotate(-86.9)"/><ellipse class="cls-103" cx="1704.48" cy="1373.23" rx="5.61" ry="6.17" transform="translate(172.9 2936.97) rotate(-84.45)"/><ellipse class="cls-104" cx="1668.71" cy="1378.6" rx="4.64" ry="5.37" transform="translate(219.78 2986.62) rotate(-87.54)"/><ellipse class="cls-105" cx="1557" cy="1331.87" rx="6.7" ry="7.2" transform="translate(10.43 2675.84) rotate(-81.53)"/><ellipse class="cls-106" cx="1630.68" cy="1355.47" rx="4.43" ry="4.88" transform="translate(127.01 2850.59) rotate(-84.57)"/></g><path class="cls-85" d="M1559.8,1309c31.55,8.87,62.47,22.09,95.42,26.17-32.26-6.06-80.49-29-92.4-28.72-4.78.09-8.6.73-11.35,2A22.69,22.69,0,0,1,1559.8,1309Z"/><path class="cls-107" d="M1605.1,1276l-72.6,9.16s116.08,55.65,135.84,60.14l71.8-43S1642.81,1292.59,1605.1,1276Z"/><polygon class="cls-108" points="1532.5 1285.15 1668.34 1345.3 1740.14 1302.32 1737.28 1313.84 1668.64 1355.05 1532.5 1298.26 1532.5 1285.15"/><path class="cls-109" d="M1526.21,1237.55s-.61,30.39,1.12,32.12,103.94,39.63,120,43.75c0,0,2.6,12.77,18.41,13.85s71-5.84,102.42-21.22c0,0,13.52-34.07,10.75-38.57S1526.21,1237.55,1526.21,1237.55Z"/><path class="cls-82" d="M1633.26,1221s-108.2,10.29-107,16.59,111,48.62,131.56,52c0,0-.57,9.89,10.3,13.24s122.41-21.52,109.83-37.84c-10.34-13.4-37.76-12-37.76-12S1652,1215.81,1633.26,1221Z"/><path class="cls-78" d="M1737.28,1258.71s-84.16-34.72-94.22-35.16S1532.26,1235,1532.5,1237s77.8,34,95.86,39.41,36,10.59,36,10.59-.65,10,7.79,11.28,71.89-13.86,78.82-16,26-11.08,20.57-17.23S1758,1254.24,1737.28,1258.71Z"/><path class="cls-110" d="M1657.25,1497.33s-6.63-.7-6.63,0,1.72,17.7,3.8,18.14l2.09.44Z"/><ellipse class="cls-70" cx="2340.77" cy="1596.45" rx="30.14" ry="150.56" transform="translate(726.62 3925.05) rotate(-89.57)"/><path class="cls-77" d="M2231.07,1540.1l1.85,46.89s50.08,23.14,99.94,16.8c0,0,87.41,5.12,108.09,0s31.22-8.24,31.22-8.24l.65-54s-19.82,14.94-56.35,18-91.48-2.4-91.48-2.4S2284.82,1562,2231.07,1540.1Z"/><path class="cls-78" d="M2231.07,1540.1s8.95-20,80.9-19,161,7.92,160.85,20.46-26.46,23-61.21,24-86.62-8.43-86.62-8.43S2248.56,1560.16,2231.07,1540.1Z"/><path class="cls-79" d="M2448.62,1539.66s-7.66,17.28-58.72,16.56-124.11-6-117.88-12.82S2448.62,1539.66,2448.62,1539.66Z"/><path class="cls-80" d="M2447.23,1504.27l1.39,35.39s-82.32,18-176.6,3.74l-1.65-41.94S2381.15,1522.71,2447.23,1504.27Z"/><path class="cls-81" d="M2456.31,1487.53s19-1,10.25,12.87-67.43,7.51-71.7,16.91-33.33,18.19-36.53,11.22-7.5-10-14-9.23,1.29,9.18-8.39,10.66-57.57-1-49-7.9-8.61-6.7-12.35-7.4-36.84-4.78-31.56-12.13,32.3-27.86,70.92-25.12S2451.24,1464.8,2456.31,1487.53Z"/><path class="cls-82" d="M2328.73,1604.25l-3.74-47.11s-31,0-41-1.05l-10-1,.23,45.14S2303.48,1609.9,2328.73,1604.25Z"/><path class="cls-74" d="M2430.15,1459.4l1.19,30.21s-53,20.66-149.61,5.9l-1.19-30.21S2386.19,1474,2430.15,1459.4Z"/><path class="cls-83" d="M2321.61,1474.37c.87,0,24.64-.41,24.92,1.15s-.26,21-.26,21l-24.91-.8Z"/><path class="cls-83" d="M2430.15,1459.4s-4.79-4.61-22.24-4.36-126.15,5.63-127.37,10.26S2412.16,1472.77,2430.15,1459.4Z"/><path class="cls-111" d="M2261.37,1335.51c4.48-3.83,12-7.73,25.51,1,0,0,17.24,17.92,55.32,15.43,2.59-.17,5.22-.43,7.88-.75a3.54,3.54,0,0,1,.36-1.55,6.49,6.49,0,0,1,6.93-3.18,4,4,0,0,1,3.39,3.11c3.63-.65,7.28-1.38,10.92-2.16a6.72,6.72,0,0,1,.53-1.69,8.91,8.91,0,0,1,9.25-4.93,4.9,4.9,0,0,1,3.94,3.48c25-6,47.72-12.15,58-5.89,6.66,4.07,8.93,19.6.5,35.71,2.5,1.44,2.84,4.76.65,7.78s-5.91,4.59-8.91,4.05c-9,10-22.91,19.18-43.46,24.67a6.36,6.36,0,0,1-.62,2.88c-1.87,4-7.28,6.5-12.09,5.55-3.06-.62-5.14-2.48-5.76-4.79-13.84,1.86-30,2.28-48.67.73-35.2-2.91-55.69-10.69-66.93-20.32a7.36,7.36,0,0,1-5.33,1.06c-3-.59-4.47-3.1-3.31-5.59a5.85,5.85,0,0,1,2.25-2.44C2236.79,1366.36,2256,1340.15,2261.37,1335.51Z"/><path class="cls-85" d="M2277.08,1338.23s15.25,16.26,45.3,18.56,95.53-18,107.81-15.89c12.61,2.17,16.17,7.7,8.07,17.74s-89.59,22-134.14,8.79S2267.27,1340,2277.08,1338.23Z"/><g class="cls-86"><ellipse class="cls-112" cx="2369.29" cy="1386.47" rx="6.67" ry="5.2" transform="translate(-341.47 953.33) rotate(-21.26)"/><ellipse class="cls-113" cx="2339" cy="1361.22" rx="7.97" ry="6.25" transform="translate(-295.8 743.41) rotate(-17)"/><ellipse class="cls-114" cx="2269.53" cy="1387.76" rx="6.67" ry="5.2" transform="translate(-386.48 1536.96) rotate(-34.66)"/><ellipse class="cls-115" cx="2300.89" cy="1398.2" rx="5.63" ry="4.43" transform="translate(-388.65 1274.03) rotate(-28.64)"/><ellipse class="cls-116" cx="2424.04" cy="1366.82" rx="7.9" ry="6.11" transform="translate(-332.75 1746.66) rotate(-37.26)"/><ellipse class="cls-117" cx="2345.68" cy="1380.24" rx="5.27" ry="4.11" transform="translate(-369.19 1572.01) rotate(-34.51)"/></g><path class="cls-85" d="M2435,1357c-33.21-3.27-68.55-2.47-100-10.51,32.09,6,88.63,2.76,98.95,7.18,4.15,1.78,7.09,3.7,8.74,5.78A20.47,20.47,0,0,0,2435,1357Z"/><path class="cls-118" d="M2254.16,1394.25c4-3.75,11.11-7.56,26.28.94,0,0,20.32,17.47,58.94,15,2.63-.16,5.29-.42,8-.74a3.22,3.22,0,0,1,.14-1.5c.75-2.26,3.72-3.65,6.63-3.12a4.84,4.84,0,0,1,3.93,3c3.62-.63,7.25-1.35,10.86-2.12a6.1,6.1,0,0,1,.29-1.65,7.85,7.85,0,0,1,8.74-4.82,6,6,0,0,1,4.55,3.39c24.7-5.86,47.06-11.92,58.5-5.81,7.44,4,12.08,19.12,5.85,34.85,2.77,1.41,3.61,4.65,1.83,7.6a8.72,8.72,0,0,1-8.53,4c-7.69,9.79-20.6,18.75-40.82,24.13a5.66,5.66,0,0,1-.22,2.81c-1.31,3.93-6.48,6.36-11.54,5.43a8.7,8.7,0,0,1-6.62-4.66c-13.89,1.82-30.34,2.25-49.74.76-36.48-2.8-58.63-10.37-71.57-19.76a7.22,7.22,0,0,1-5.3,1c-3.15-.57-5-3-4.23-5.46a4.71,4.71,0,0,1,1.94-2.38C2233.59,1424.39,2249.3,1398.78,2254.16,1394.25Z"/><path class="cls-85" d="M2270.65,1396.89s18,15.86,49.17,18.06,95.14-17.69,108-15.64c13.24,2.11,17.72,7.5,10.91,17.32s-88.47,21.55-136.05,8.73S2260.86,1398.59,2270.65,1396.89Z"/><g class="cls-86"><ellipse class="cls-119" cx="2376.64" cy="1444.65" rx="6.34" ry="5.46" transform="translate(-357.95 937.23) rotate(-20.78)"/><ellipse class="cls-120" cx="2337.85" cy="1427.57" rx="7.67" ry="6.49" transform="translate(-285.42 638.93) rotate(-14.68)"/><ellipse class="cls-121" cx="2270.31" cy="1445.25" rx="6.34" ry="5.46" transform="translate(-365.08 899.54) rotate(-20.78)"/><ellipse class="cls-122" cx="2303.99" cy="1455.41" rx="5.45" ry="4.57" transform="translate(-262.02 537.71) rotate(-12.6)"/><ellipse class="cls-123" cx="2425.43" cy="1424.63" rx="7.47" ry="6.47" transform="translate(-376.59 1177.74) rotate(-25.39)"/><ellipse class="cls-124" cx="2347.17" cy="1437.82" rx="5.01" ry="4.31" transform="translate(-355.29 915.09) rotate(-20.54)"/></g><path class="cls-85" d="M2428.53,1401.75c-33.19,4.44-66.87,13.24-100.21,12.76,33.16-1.57,86.29-17.53,97.91-15.68,4.66.74,8.23,1.89,10.61,3.5A22.42,22.42,0,0,0,2428.53,1401.75Z"/><path class="cls-125" d="M2247.85,1307.4c2.83-4.33,8.65-9.27,26-3.69,0,0,25,13.38,62.1,4.22,2.52-.62,5.05-1.34,7.57-2.11a3.3,3.3,0,0,1-.31-1.49c.07-2.31,2.57-4.18,5.57-4.18a5.64,5.64,0,0,1,4.74,2.25c3.36-1.24,6.7-2.58,10-4a5.34,5.34,0,0,1-.2-1.65c.1-3.44,3.3-6.21,7.13-6.2a7,7,0,0,1,5.45,2.48c22.44-10,42.54-19.78,55.54-15.87,8.44,2.54,17.44,16.42,16,32.76a5.62,5.62,0,0,1,4,7,7.62,7.62,0,0,1-7.18,5.33c-4.65,10.84-14.64,21.78-32.84,30.54a5.78,5.78,0,0,1,.61,2.76c-.12,4-4.47,7.29-9.7,7.28a10.07,10.07,0,0,1-7.84-3.36c-13.06,4.2-29,7.49-48.46,9.44-36.52,3.67-60.43.21-75.85-6.62a6.75,6.75,0,0,1-4.89,1.94c-3.25,0-5.82-2-5.74-4.56a4,4,0,0,1,1.19-2.64C2236.6,1340.21,2244.44,1312.65,2247.85,1307.4Z"/><path class="cls-85" d="M2264.77,1307.07s22.33,12.21,53.43,8.9,87.91-33.79,101.13-34.06c13.57-.27,19.54,4.17,15.77,14.87s-80.24,36.37-130.58,32.28S2255.69,1310.43,2264.77,1307.07Z"/><g class="cls-86"><ellipse class="cls-126" cx="2382.56" cy="1334.82" rx="6.17" ry="5.61" transform="translate(-159.21 335.94) rotate(-7.81)"/><ellipse class="cls-127" cx="2339.57" cy="1325.04" rx="7.54" ry="6.61" transform="translate(-113.43 224.09) rotate(-5.35)"/><ellipse class="cls-128" cx="2278.67" cy="1354.01" rx="6.17" ry="5.61" transform="matrix(0.99, -0.14, 0.14, 0.99, -162.78, 322.01)"/><ellipse class="cls-129" cx="2314.62" cy="1357.96" rx="5.37" ry="4.64" transform="translate(-103.83 194.94) rotate(-4.72)"/><ellipse class="cls-130" cx="2424.41" cy="1306.87" rx="7.2" ry="6.7" transform="translate(-200.82 473.91) rotate(-10.72)"/><ellipse class="cls-131" cx="2351.71" cy="1333.35" rx="4.88" ry="4.43" transform="translate(-157.22 326.55) rotate(-7.69)"/></g><path class="cls-85" d="M2420.7,1284.15c-31.17,10.11-61.54,24.54-94.3,29.91,32-7.32,79.28-32.1,91.19-32.34,4.78-.09,8.62.4,11.42,1.54A22.66,22.66,0,0,0,2420.7,1284.15Z"/><path class="cls-107" d="M2374.14,1252.94l72.91,6.28s-113.8,60.19-133.36,65.45l-73.45-40.12S2337.11,1271,2374.14,1252.94Z"/><polygon class="cls-108" points="2447.05 1259.22 2313.69 1324.67 2240.24 1284.55 2243.55 1295.95 2313.77 1334.43 2447.56 1272.32 2447.05 1259.22"/><path class="cls-109" d="M2451.46,1211.4s1.81,30.35.14,32.15-102.29,43.69-118.14,48.43c0,0-2.1,12.87-17.85,14.58s-71.2-3-103.18-17.17c0,0-14.85-33.52-12.26-38.12S2451.46,1211.4,2451.46,1211.4Z"/><path class="cls-82" d="M2343.84,1199s108.51,6,107.62,12.36-109,53-129.41,57.2c0,0,1,9.86-9.77,13.63s-123.16-16.68-111.23-33.48c9.79-13.79,37.25-13.49,37.25-13.49S2324.92,1194.64,2343.84,1199Z"/><path class="cls-78" d="M2241.38,1240.87s82.73-38,92.76-38.85,111.17,7.11,111,9.06-76.4,37-94.24,43.16-35.59,12-35.59,12,1,10-7.34,11.58-72.38-11-79.39-12.91-26.4-10-21.24-16.41S2220.52,1237.22,2241.38,1240.87Z"/><path class="cls-110" d="M2330.75,1476.15s6.6-1,6.63-.26-1,17.75-3.09,18.27l-2.06.52Z"/><ellipse class="cls-132" cx="1646.01" cy="1259.1" rx="9.96" ry="23.12" transform="translate(109.52 2649.74) rotate(-79.56)"/><path class="cls-133" d="M1644.53,1206.74c-2,.18-3.93.27-6,.3v54.77l9.4-.87"/><ellipse class="cls-132" cx="2314.59" cy="1234.31" rx="23.12" ry="9.96" transform="translate(-76.93 156.6) rotate(-3.81)"/><path class="cls-133" d="M2294.55,1185.69l13.48,53.08,8.9-3.16-16.66-51.69C2298.43,1184.58,2296.52,1185.15,2294.55,1185.69Z"/><ellipse class="cls-134" cx="2303.45" cy="1197.9" rx="28.96" ry="20.11" transform="translate(-224 603.88) rotate(-14.25)"/><ellipse class="cls-74" cx="2320.07" cy="1193.68" rx="7.38" ry="13.16" transform="translate(-222.45 607.84) rotate(-14.25)"/><path class="cls-133" d="M2290.32,1153.06l-3.81,1,8,31.67c2-.54,3.88-1.11,5.72-1.77Z"/></g></g></svg>