<svg xmlns="http://www.w3.org/2000/svg" width="4068.46" height="2382.29" viewBox="0 0 4068.46 2382.29"><defs><style>.cls-1{fill:#6d5a47;}.cls-2{fill:#80a6a9;}.cls-3,.cls-9{fill:#304c4b;}.cls-4{fill:#071a1a;}.cls-11,.cls-5,.cls-8{fill:none;stroke-miterlimit:10;}.cls-5{stroke:#4e6666;stroke-width:5.82px;}.cls-6{fill:#b3dbe1;}.cls-7{fill:#769899;}.cls-8{stroke:#8da5a4;stroke-width:11.65px;}.cls-9{opacity:0.34;}.cls-10{fill:#fff;opacity:0.08;}.cls-11{stroke:#e7882e;stroke-linecap:round;stroke-width:15px;}.cls-12,.cls-13{fill:#1e140a;}.cls-12{opacity:0.54;}.cls-13{opacity:0.58;}.cls-14{fill:#21160e;}</style></defs><g id="Layer_2" data-name="Layer 2"><g id="Layer_1-2" data-name="Layer 1"><rect class="cls-1" y="0.5" width="4068.46" height="2381.79"/><path class="cls-2" d="M2089.06,2212.52s37.09-1988.83,766.35-1933.09,614.46,1947.79,614.46,1947.79Z"/><path class="cls-3" d="M2531.8,965.71s-4.44-383,277.67-385.9c214.51-2.19,160.18,390.24,160.18,390.24Z"/><path class="cls-4" d="M2579.21,964.19s28.28-386.43,242.8-384.78S3016.38,974,3016.38,974Z"/><path class="cls-5" d="M2479.74,1026l583,7.43s52.47-535.17-244.67-533.77C2469.31,501.32,2479.74,1026,2479.74,1026Z"/><ellipse class="cls-5" cx="3033.22" cy="998.2" rx="7.18" ry="7.46"/><ellipse class="cls-5" cx="2804.66" cy="549.39" rx="14.04" ry="14.59"/><ellipse class="cls-5" cx="2506.61" cy="983.02" rx="8.29" ry="8.62"/><ellipse class="cls-5" cx="2765.7" cy="991.86" rx="9.48" ry="9.86"/><ellipse class="cls-5" cx="3003.2" cy="679.1" rx="9.57" ry="9.95"/><ellipse class="cls-5" cx="2578.79" cy="661.72" rx="8.52" ry="8.86"/><polygon class="cls-2" points="2701.01 595.52 2663.34 972.7 2709.41 976.53 2749.3 577.05 2701.01 595.52"/><polygon class="cls-2" points="2852.62 573.74 2846.53 972.15 2904.62 972.13 2893.29 589.03 2852.62 573.74"/><path class="cls-3" d="M2332.74,1536.11c-58.5,1-106.88-44.6-107.85-101.66s45.84-104.3,104.35-105.3,106.88,44.6,107.85,101.66S2391.25,1535.11,2332.74,1536.11Zm-3-178.42c-42.58.73-76.66,34.94-76,76.26s35.92,74.35,78.5,73.62,76.66-34.94,76-76.27S2372.3,1357,2329.72,1357.69Z"/><path class="cls-6" d="M2332.26,1507.57c-58.5,1-106.88-44.61-107.85-101.67s45.84-104.3,104.34-105.3,106.89,44.6,107.85,101.66S2390.76,1506.56,2332.26,1507.57Zm-3-178.42c-42.58.73-76.66,34.93-76,76.26s35.91,74.34,78.5,73.61,76.66-34.94,76-76.26S2371.82,1328.41,2329.24,1329.15Z"/><path class="cls-7" d="M2294.48,1263.87s-9,63.64,10.16,99l55.87-1s21.21-26.54,16.39-97.85Z"/><ellipse class="cls-3" cx="2310.94" cy="1605.64" rx="32.13" ry="33.4"/><polygon class="cls-3" points="2298.14 1624.29 2278.71 1729.52 2324.88 1728.04 2321.78 1623.54 2298.14 1624.29"/><path class="cls-5" d="M2240.38,1228.78s-75.63,223.29-63.81,538.34l310.2-1.5,21.53-535.69Z"/><path class="cls-8" d="M3561.88,2305.25,1945.75,2276s54-2115.85,877.32-2096.79S3561.88,2305.25,3561.88,2305.25Z"/><polygon class="cls-8" points="1726.26 249.04 1988.24 240.66 1992.06 369.8 1715.94 374.37 1726.26 249.04"/><polygon class="cls-8" points="1856.06 441.6 2137.03 432.61 2141.12 571.02 1859.71 565.01 1856.06 441.6"/><polygon class="cls-8" points="1951.18 623.94 1677.93 629.87 1682.62 788.18 1955.78 779.44 1951.18 623.94"/><polygon class="cls-8" points="2055.23 230.97 2059.27 367.65 2284.41 360.45 2280.01 211.68 2055.23 230.97"/><path class="cls-9" d="M2157.72,2142.26l1226.83,4s17.72-586.17-24.15-816.31c0,0,11.8,638.88,2.87,790.59L2168.76,2129l2.95-143.3Z"/><polygon class="cls-8" points="3361.49 686.62 3441.08 665.8 3480.52 881.06 3430.11 902.15 3361.49 686.62"/><line class="cls-8" x1="3380.51" y1="742.52" x2="3452.06" y2="725.73"/><line class="cls-8" x1="3410.42" y1="829.5" x2="3468.46" y2="814.51"/><polygon class="cls-8" points="3561.12 1935.92 3618.59 1934.09 3619.62 2082.64 3564.07 2084.42 3561.12 1935.92"/><line class="cls-8" x1="3618.89" y1="1977.09" x2="3562.39" y2="1978.9"/><line class="cls-8" x1="3619.31" y1="2038.4" x2="3564.2" y2="2040.16"/><ellipse class="cls-10" cx="1510.05" cy="910.22" rx="328.02" ry="428.82" transform="translate(-100.5 192.67) rotate(-7.07)"/><path class="cls-11" d="M128.23,227.85s2,68.27,48.68,61.82S165.22,180,212,168.34s62.31,16.59,62.31,43.34"/><path class="cls-11" d="M539.05,390.3s-23.36-52.57-52.57-40.88,5.85,83.72-13.63,114.87-52.57,17.52-58.41,0"/><path class="cls-11" d="M173,482.89s11.68,18.39,28.23,10.61,26.29-38.94,8.77-52.57-40.89-19.47-60.36,0-44.78,62.3,0,93.45,87.61,5,107.08-32.56"/><path class="cls-11" d="M1677.93,179s-13.07-59.37-44.44-55.48-18,70.37-15,104.31,53.43,6.67,59.4,33.93,1.23,64.25-32.42,54.52-31.88-26.65-31.88-26.65"/><path class="cls-11" d="M2149.25,801.66s11.68,46.2-40.89,38.41,50.89-62.79,42-102.46-49.78-73.48-69.25-52.68-25.31,49.51,0,52.68,26.47-18.26,26.47-18.26"/><path class="cls-11" d="M79.55,1005.25s74,3.07,58.42,29.92-72,65.94-38.94,71.71,99.29-12.83,91.51,12-108.41,61.51-55.18,62.66"/><path class="cls-11" d="M328.77,715.46s-44.78-53.28-62.3-30.53,29.21,58.8,44.78,74.84,50.62,68.36,17.52,65.57S286,749,262.6,770.18s0,69.71,11.66,70.77"/><path class="cls-12" d="M0,0V2381.79H4068.46V0ZM1176.91,1912.64c-397.66,0-720-363.9-720-812.8S779.25,287,1176.91,287s720,363.91,720,812.8S1574.57,1912.64,1176.91,1912.64Z"/><path class="cls-13" d="M1998.59,16s646.23,449,625.94,1207.14-471.44,1085.51-678.78,1158.61H4068.46V0Z"/><ellipse class="cls-14" cx="892.62" cy="2274.23" rx="757.26" ry="55.84"/></g></g></svg>