<svg xmlns="http://www.w3.org/2000/svg" width="4272.68" height="2335.97" viewBox="0 0 4272.68 2335.97"><defs><style>.cls-1,.cls-35,.cls-68{fill:#fff;}.cls-1{opacity:0.69;}.cls-2{fill:#030302;opacity:0.32;}.cls-3{fill:#a86a28;}.cls-4{fill:#eda754;}.cls-5{fill:#d39249;}.cls-6{fill:#4b1c10;}.cls-7{fill:#e33b26;}.cls-23,.cls-8{opacity:0.3;}.cls-9{fill:#ef5248;}.cls-10{fill:#cb2b27;}.cls-11{fill:#e06126;}.cls-12{fill:#f2706d;}.cls-13{fill:#0c3f48;}.cls-14{fill:#f37d7b;}.cls-15{fill:#216067;}.cls-16{fill:#0b0907;opacity:0.2;}.cls-17{fill:#721612;}.cls-18{fill:#6fcde1;}.cls-19{fill:#8ad4e2;}.cls-20{fill:#61c8d4;}.cls-21{fill:#5ac7d6;}.cls-22{fill:#41c4de;}.cls-23{fill:#34575a;}.cls-24{fill:#05292e;}.cls-25{fill:#acdfe7;}.cls-26{fill:#f47621;}.cls-27{fill:#f68c46;}.cls-28{fill:#f99f3e;}.cls-29{fill:#e36925;}.cls-30{fill:#f6873d;}.cls-31{fill:#f7b273;}.cls-32{fill:#f89a5b;}.cls-33{fill:#030404;}.cls-34{fill:#cb6328;}.cls-36{fill:#b3dbe1;}.cls-37{fill:#f9a56c;}.cls-38{fill:#6d2a13;}.cls-39{fill:#782f18;}.cls-40,.cls-43,.cls-49,.cls-51,.cls-54,.cls-55,.cls-56,.cls-57,.cls-58,.cls-66{fill:none;stroke-miterlimit:10;}.cls-40{stroke:#984c3b;}.cls-40,.cls-43{stroke-width:0.76px;}.cls-41{fill:#80a6a9;}.cls-42{fill:#3f99ad;}.cls-43{stroke:#9cdbee;}.cls-44{fill:#f7f7f6;}.cls-45{fill:#cecdcc;}.cls-46{fill:#f4f4f5;opacity:0.27;}.cls-47,.cls-67{fill:#304c4b;}.cls-48{fill:#071a1a;}.cls-49,.cls-51,.cls-66{stroke:#4e6666;}.cls-50{fill:#769899;}.cls-51{stroke-width:4px;}.cls-52{fill:#355051;}.cls-53{fill:#a6c8c9;}.cls-54,.cls-55,.cls-56,.cls-57,.cls-58{stroke:#97afae;stroke-linecap:round;stroke-width:3px;}.cls-55{stroke-dasharray:5.83 11.66;}.cls-56{stroke-dasharray:5.91 11.82;}.cls-57{stroke-dasharray:5.93 11.87;}.cls-58{stroke-dasharray:5.92 11.85;}.cls-59{fill:#abaaaa;}.cls-60{fill:#e5e4e3;}.cls-61{fill:#686867;}.cls-62{fill:#992220;}.cls-63{fill:#ca5051;}.cls-64{fill:#771b1b;}.cls-65{fill:#200f0c;}.cls-66{stroke-width:2px;}.cls-67{opacity:0.34;}.cls-68{opacity:0.37;}</style></defs><g id="Layer_2" data-name="Layer 2"><g id="Layer_1-2" data-name="Layer 1"><rect class="cls-1" width="4272.68" height="2335.97"/><path class="cls-2" d="M2975.39,2036.05c-2.63-33.11-38.23-532.74-44-611.51s19.06-378.44,19.06-378.44l-83.71-1.35,83-28.71.71-37.62c.71-37.62,13.16-273.6,16-411.31s-2.8-362.13-6.17-421.22-57.66-66.61-93.5-75.24-404.27,8.63-556.43,10.75-567.74-2.12-653.25-8.86-434.82,6.74-434.82,6.74-55.34,11.84-44.16,91.12h78c3.43,26.11,5.49,54.19,7.34,79.27,4.93,66.7-4.92,637.48-5,728.75s0,532.25,0,532.25l127.23,23.91-127.23,21.74S1249,1956,1252.21,2057.2c1.51,47.77-5.08,100.09-12.47,142l-66.2,5.12c0,47.16,48.7,75.69,48.7,75.69,33,12.81,372.58-19.1,573.37-25.39s1085,44,1131.93,17.11S2978,2069.17,2975.39,2036.05Z"/><path class="cls-3" d="M1238.37,58.61s-55.33,11.85-44.15,91.12H1375.1S1321.62,58.65,1238.37,58.61Z"/><path class="cls-3" d="M1238.37,2259.36s-48.72-28.53-48.69-75.68l203.1-15.72S1343.63,2265.89,1238.37,2259.36Z"/><path class="cls-4" d="M1238.37,58.61s349.31-13.48,434.83-6.74,501.09,11,653.25,8.87S2847,41.36,2882.88,50s90.13,16.14,93.5,75.23,9,283.52,6.17,421.23-15.26,373.68-16,411.3l-.71,37.62-83,28.71,83.7,1.36s-24.82,299.67-19,378.43,41.36,578.4,44,611.52-.88,208.79-47.85,235.7-931.14-23.4-1131.93-17.11-540.43,38.2-573.38,25.38c0,0,33.18-121.62,30-222.83s6.14-500.87,6.14-500.87l127.23-21.75L1274.49,1490s-.1-441,0-532.25,9.94-662,5-728.74S1268.18,74.37,1238.37,58.61Z"/><path class="cls-5" d="M1355.89,988.64s-11-56.86,0-79.33,42.28-21.22,56.28-19.57,62.93-5.63,62.93-5.63-42.75-15.5-24.56-16.27,76.09-12.91,95.77,0,73,19,73,19-13.94-3.66,15.78-7.91,134.25,0,134.25,0h102.77s530.39-18.35,553.66-18.9-7.77-18.47,26-17.11,19.82,3.13,55.67,3S2635,832.51,2635,832.51l83.35,2.41,73,.29s26-3.83,37.1-2.7l11.13,1.13v16.54l19.33,29.87s1.1,36.33,0,45.87,1.59,90.32,1.59,90.32,35.4,222.62,18.56,297.85,2.5,229.93,2,262.29,55.82,374.75,48.19,449S2898.8,2206,2879.08,2206h-50.61s-4.85,18.24,16.82,18.24-7.76,6.07-34.84,0-54.42-16.72-88.63-16.72-192.1-16.72-334.28-16.72-270.69,7.6-270.69,7.6-546.3-4.56-605.57-1.52-115.91-3-115.91-3-20-20.66-15.86-35.4-5.63-29.6,0-41.93,5.63-30,5.63-55.36-13.71-89.08-16.74-95.22,31.63-411.66,31-486.27-5.78-257.69-19.91-277.09S1355.89,988.64,1355.89,988.64Z"/><path class="cls-6" d="M1406.4,971.55S2637,913.22,2801.79,915.49c0,0,61,194.29,48.68,343.6s11.14,550.68,23.84,637.7-3,175.81-12.07,221.68l-9.07,45.86s-951.81-15.78-1080-11.28-317.51,40-336.47,11.28-11.74-774.49-12.2-878S1373.7,1019.83,1406.4,971.55Z"/><polygon class="cls-7" points="1869.53 577.19 1763.43 536.88 1772.12 301.12 1868.95 298.16 1869.53 577.19"/><polygon class="cls-7" points="1869.53 577.19 1763.43 536.88 1772.12 301.12 1868.95 298.16 1869.53 577.19"/><g class="cls-8"><polygon class="cls-7" points="1763.43 536.88 1869.36 495.31 1869.53 577.19 1763.43 536.88"/><polygon class="cls-9" points="1819.17 515.01 1766.61 450.79 1763.43 536.88 1819.17 515.01"/><polygon class="cls-10" points="1766.26 450.92 1869.25 424.91 1869.02 495.56 1819.17 515.01 1766.26 450.92"/><polygon class="cls-11" points="1766.26 450.92 1770.81 336.8 1869.21 424.91 1766.26 450.92"/><polygon class="cls-12" points="1808.92 371.46 1849.92 299.46 1772.14 301.84 1770.81 337.07 1808.92 371.46"/><polygon class="cls-10" points="1825.8 341.55 1869.06 349.43 1868.95 298.16 1849.91 299.1 1825.8 341.55"/></g><polygon class="cls-13" points="1755.59 305.98 1885.75 302 1814.34 96.98 1755.59 305.98"/><path class="cls-14" d="M1793.88,365.79l-.28,14.5,50-1.53-1-12.46C1826.4,366.1,1810.3,365.78,1793.88,365.79Z"/><path class="cls-14" d="M1794.15,351.56l-.23,12c16.36-.92,32.26,1.21,48.53.82L1841.13,348C1825.44,349.3,1810,349.79,1794.15,351.56Z"/><path class="cls-14" d="M1819.93,335.85h0v0Z"/><path class="cls-14" d="M1819.89,335.89V336a1.53,1.53,0,0,1,.16-.11v0h-.12Z"/><path class="cls-14" d="M1840.14,335.59l-16.59.21a34.12,34.12,0,0,0-2.64,2.29,34.12,34.12,0,0,1,2.64-2.29l-3.5.05v0a1.53,1.53,0,0,0-.16.11c0,1.19.13,2.38.28,3.56,0,0,4.78.58,0,.73,4.76-.15,0-.73,0-.73-.15-1.18-.23-2.37-.28-3.56-.15.12-.3.23-.42.34-.33.35-.65.72-1,1.1l0-.73,0,.73a8.79,8.79,0,0,1,1-1.1l.42-.45,0,0h.12l-2.38,0,0,1.58,0-1.58-3,0c.24.53.47,1.07.67,1.61-.2-.54-.43-1.08-.67-1.61l-3.48,0,.13.24-.13-.24c-5.58.07-11.16.12-16.75.12L1794.2,349c15.77-1.09,31.11-2.51,46.78-3Z"/><path class="cls-14" d="M1819.47,336.34c.12-.11.27-.22.42-.34v-.11Z"/><path class="cls-14" d="M1794.52,332.18l0,2.46c5.35.24,10.76.35,16.19.39-2.79-5-5.15-10.37-8.5-15.32C1797.41,322.82,1794.37,327.29,1794.52,332.18Z"/><path class="cls-14" d="M1816.64,315.32a28.82,28.82,0,0,0-12.62,3.3c2.47,5.84,7.38,10.71,10.23,16.41l3.39,0-.6-19.7Z"/><path class="cls-14" d="M1835.58,322c-3.94-3.89-10.27-6.45-17.16-6.65,2,6.51,1.28,13.1,1.44,19.67l.94,0C1825.55,330.48,1831.89,327.36,1835.58,322Z"/><path class="cls-14" d="M1839.76,330.8a12.5,12.5,0,0,0-3-7.58c-2.48,5.21-7.48,8.26-12,11.69,5.14-.07,10.27-.17,15.36-.32Z"/><path class="cls-14" d="M1810.66,335c.17.31.35.63.53.93l3.48,0-.42-.89Z"/><path class="cls-14" d="M1814.25,335l.42.89,3,0,0-.87Z"/><path class="cls-14" d="M1819.86,335l-2.22,0,0,.87,2.21,0C1819.87,335.56,1819.86,335.27,1819.86,335Z"/><path class="cls-14" d="M1820.8,335l-.94,0c0,.28,0,.57,0,.86h0C1820.21,335.55,1820.5,335.26,1820.8,335Z"/><path class="cls-14" d="M1820.8,335c-.3.29-.59.58-.87.88l3.62-.05,1.15-.89Z"/><path class="cls-15" d="M1806.28,248.54c.15,5.81-3.23,10.47-7.56,10.6s-8-4.32-8.19-10.11l-1.44,0c.21,5.8,4.56,11.85,9.68,11.69s9.1-6.46,9-12.26Z"/><path class="cls-15" d="M1817.74,262.71c.15,5.8-3.23,10.46-7.56,10.59s-8-4.31-8.19-10.11l-1.44,0c.23,6.53,4.56,11.85,9.68,11.69s9.12-5.73,9-12.25Z"/><path class="cls-15" d="M1796.44,263.36c.15,5.8-3.23,10.46-7.56,10.59s-8-4.31-8.19-10.11l-1.44,0c.23,6.53,4.56,11.85,9.68,11.7s9.12-5.74,9-12.26Z"/><path class="cls-15" d="M1840.37,233.71c.13,5.08-3.23,10.47-7.55,10.6s-8-5-8.19-10.12l-1.44.05c.2,5.8,4.56,11.85,9.68,11.69s9.09-6.46,8.94-12.26Z"/><path class="cls-15" d="M1851.83,247.88c.13,5.07-3.23,10.46-7.55,10.59s-8-5-8.19-10.11l-1.44,0c.2,5.8,4.56,11.85,9.68,11.69s9.09-6.45,8.94-12.26Z"/><path class="cls-15" d="M1830.54,248.53c.12,5.08-3.24,10.46-7.56,10.59s-8-5-8.19-10.11l-1.44,0c.21,5.8,4.56,11.85,9.68,11.69s9.09-6.45,9-12.26Z"/><path class="cls-16" d="M1869.08,302.51l-96.83,3-1,18.93s40-8,97.72-12.44Z"/><polygon class="cls-16" points="1843.45 373.69 1843.61 378.76 1793.6 380.29 1793.78 386.09 1844.6 385.26 1843.45 373.69"/><path class="cls-17" d="M1834.72,374l-1.18-38.79c-.22-7.19-8.14-12.78-16.67-12.52s-16.1,6.32-15.88,13.51l1.19,38.8Z"/><polygon class="cls-7" points="2222.72 566.4 2326.16 519.69 2303.1 284.89 2206.27 287.85 2222.72 566.4"/><polygon class="cls-7" points="2222.72 566.4 2326.16 519.69 2303.1 284.89 2206.27 287.85 2222.72 566.4"/><g class="cls-8"><polygon class="cls-7" points="2326.16 519.69 2217.89 484.66 2222.72 566.4 2326.16 519.69"/><polygon class="cls-9" points="2269.19 501.26 2317.74 433.95 2326.16 519.69 2269.19 501.26"/><polygon class="cls-10" points="2318.08 434.06 2213.71 414.39 2218.24 484.89 2269.19 501.26 2318.08 434.06"/><polygon class="cls-11" points="2318.08 434.06 2306.59 320.44 2213.74 414.39 2318.08 434.06"/><polygon class="cls-12" points="2270.66 357.35 2225.34 288 2303.12 285.62 2306.59 320.71 2270.66 357.35"/><polygon class="cls-10" points="2251.98 328.53 2209.29 339.04 2206.27 287.85 2225.33 287.63 2251.98 328.53"/></g><polygon class="cls-13" points="2319.9 288.74 2189.73 292.71 2248.49 83.72 2319.9 288.74"/><path class="cls-14" d="M2285.32,350.78l1.16,14.45-50,1.53.24-12.5C2252.89,353.07,2268.93,351.77,2285.32,350.78Z"/><path class="cls-14" d="M2284.19,336.59l.95,12c-16.38.09-32.11,3.18-48.38,3.78l.31-16.46C2252.82,336.24,2268.31,335.78,2284.19,336.59Z"/><path class="cls-14" d="M2257.5,322.48h0v0Z"/><path class="cls-14" d="M2257.54,322.52v.11l-.17-.11v0h.13Z"/><path class="cls-14" d="M2237.3,323.46q8.29-.42,16.58-.8a33.79,33.79,0,0,1,2.77,2.12,33.79,33.79,0,0,0-2.77-2.12l3.49-.17v0l.17.11c0,1.19,0,2.38-.05,3.57,0,0-4.74.87,0,.73-4.76.14,0-.73,0-.73.07-1.19.08-2.38.05-3.57l.44.31c.36.34.7.68,1,1l0-.73,0,.73a8.41,8.41,0,0,0-1-1l-.44-.42,0,0h-.13l2.38-.11.05,1.59-.05-1.59,3-.14q-.32.81-.57,1.65.26-.84.57-1.65l3.48-.17-.12.25.12-.25c5.57-.28,11.15-.57,16.72-.9l1,12.83c-15.81-.13-31.21-.6-46.87-.1Z"/><path class="cls-14" d="M2258,322.94l-.44-.31v-.11Z"/><path class="cls-14" d="M2282.64,317.27l.19,2.46c-5.32.56-10.71,1-16.13,1.37,2.48-5.12,4.5-10.67,7.54-15.82C2279.18,308.1,2282.49,312.38,2282.64,317.27Z"/><path class="cls-14" d="M2259.52,301.79a28.76,28.76,0,0,1,12.8,2.52c-2.11,6-6.71,11.15-9.2,17l-3.39.19-.61-19.69Z"/><path class="cls-14" d="M2241,309.58c3.7-4.12,9.85-7.06,16.72-7.68-1.64,6.62-.47,13.15-.23,19.72l-.95,0C2251.56,317.47,2245,314.74,2241,309.58Z"/><path class="cls-14" d="M2237.4,318.65a12.39,12.39,0,0,1,2.57-7.74c2.79,5,8,7.78,12.71,10.93-5.14.24-10.27.45-15.36.62Z"/><path class="cls-14" d="M2266.7,321.1l-.47,1-3.48.17c.12-.31.24-.61.37-.92C2264.31,321.24,2265.51,321.18,2266.7,321.1Z"/><path class="cls-14" d="M2263.12,321.31c-.13.31-.25.61-.37.92l-3,.14,0-.87Z"/><path class="cls-14" d="M2257.52,321.62l2.21-.12,0,.87-2.21.11C2257.53,322.19,2257.53,321.9,2257.52,321.62Z"/><path class="cls-14" d="M2256.57,321.66l.95,0c0,.28,0,.57,0,.86h0C2257.19,322.2,2256.89,321.93,2256.57,321.66Z"/><path class="cls-14" d="M2256.57,321.66c.32.27.62.54.93.82l-3.62.18-1.2-.82Z"/><path class="cls-17" d="M2245.06,361.42,2243.88,323c-.22-7.18,7.34-13.25,15.88-13.51s16.44,5.33,16.66,12.52l1.18,38.43Z"/><path class="cls-15" d="M2265.79,234.51c.21,5.8,3.87,10.24,8.19,10.11s7.71-4.79,7.56-10.6l1.44,0c.15,5.8-3.83,12.1-8.95,12.26s-9.47-5.89-9.68-11.69Z"/><path class="cls-15" d="M2255.22,249.34c.2,5.8,3.86,10.25,8.19,10.12s7.71-4.8,7.56-10.6l1.43,0c.18,6.53-3.82,12.1-8.94,12.26s-9.45-5.17-9.68-11.69Z"/><path class="cls-15" d="M2276.52,248.69c.2,5.8,3.86,10.25,8.19,10.12s7.7-4.8,7.55-10.6l1.44,0c.18,6.52-3.82,12.1-8.94,12.26s-9.45-5.17-9.68-11.69Z"/><path class="cls-15" d="M2230.85,221.78c.18,5.08,3.87,10.25,8.19,10.12s7.69-5.52,7.56-10.6l1.44,0c.15,5.8-3.83,12.1-8.95,12.26s-9.47-5.89-9.68-11.69Z"/><path class="cls-15" d="M2220.28,236.62c.18,5.08,3.86,10.25,8.19,10.12s7.68-5.52,7.56-10.6l1.43,0c.15,5.8-3.82,12.1-8.94,12.26s-9.48-5.89-9.68-11.69Z"/><path class="cls-15" d="M2241.58,236c.18,5.08,3.86,10.25,8.19,10.11s7.68-5.51,7.55-10.59l1.44,0c.15,5.8-3.82,12.1-8.94,12.26s-9.48-5.89-9.68-11.69Z"/><path class="cls-16" d="M2206.4,292.2l96.83-3,2.14,18.84s-40.41-5.54-98.29-6.45Z"/><polygon class="cls-16" points="2236.33 361.69 2236.48 366.76 2286.48 365.23 2286.66 371.03 2235.89 373.31 2236.33 361.69"/><polygon class="cls-18" points="2190.81 432.02 1886.04 441.33 1907.7 256.33 2157.89 248.69 2190.81 432.02"/><polygon class="cls-19" points="1886.04 441.36 2024.81 378.66 2093.68 400.67 2105.41 434.99 1886.04 441.36"/><polygon class="cls-20" points="2024.86 378.66 2092.29 353.77 2093.73 400.67 2024.86 378.66"/><polygon class="cls-19" points="2092.35 353.77 2177.11 355.82 2091.7 400 2092.35 353.77"/><polygon class="cls-19" points="2024.91 378.66 1905.17 277.84 2092.35 353.77 2024.91 378.66"/><polygon class="cls-21" points="1966.04 329.09 1961.85 407.11 2024.91 378.66 1966.04 329.09"/><polygon class="cls-22" points="1966.04 329.09 1905.17 277.84 1891.47 395.03 1963.67 373.23 1966.04 329.09"/><polygon class="cls-22" points="2092.34 353.57 2117.79 270.96 2161.71 269.62 2177.1 355.53 2092.34 353.57"/><polygon class="cls-21" points="2023.31 325.52 2087.78 271.88 2118.05 270.95 2092.34 353.48 2023.31 325.52"/><polygon class="cls-13" points="2179.45 269.08 1888.33 277.97 1904.09 197.74 2158.82 189.96 2179.45 269.08"/><path class="cls-15" d="M1948.47,234c.15,5.8-3.75,10.55-8.71,10.7s-9.13-4.35-9.34-10.15l-1.65,0c.21,5.8,5.18,11.91,11,11.73s10.46-6.58,10.31-12.38Z"/><path class="cls-15" d="M1961.54,248.16c.15,5.8-3.75,10.54-8.7,10.69s-9.14-4.34-9.35-10.14l-1.65,0c.23,6.52,5.18,11.91,11.05,11.73s10.47-5.86,10.3-12.39Z"/><path class="cls-15" d="M1937.13,248.9c.15,5.8-3.75,10.55-8.71,10.7s-9.13-4.35-9.34-10.15l-1.65.05c.23,6.53,5.17,11.91,11,11.73s10.48-5.85,10.31-12.38Z"/><path class="cls-15" d="M1987.62,219.05c.12,5.08-3.75,10.55-8.71,10.7s-9.16-5.07-9.34-10.14l-1.65,0c.21,5.8,5.17,11.91,11,11.73s10.45-6.58,10.31-12.39Z"/><path class="cls-15" d="M2000.69,233.17c.12,5.08-3.75,10.55-8.71,10.7s-9.16-5.07-9.34-10.15l-1.65.05c.21,5.8,5.17,11.91,11,11.73s10.45-6.58,10.31-12.38Z"/><path class="cls-15" d="M1976.27,233.92c.13,5.07-3.74,10.54-8.7,10.7s-9.16-5.08-9.35-10.15l-1.64.05c.2,5.8,5.17,11.91,11,11.73s10.45-6.58,10.3-12.38Z"/><path class="cls-15" d="M2047.19,238.28c.15,5.8-3.75,10.55-8.71,10.7s-9.13-4.35-9.34-10.15l-1.65,0c.23,6.53,5.18,11.91,11,11.73s10.48-5.85,10.31-12.38Z"/><path class="cls-15" d="M2060.26,252.4c.15,5.8-3.75,10.54-8.71,10.7s-9.13-4.35-9.34-10.15l-1.65.05c.23,6.52,5.18,11.91,11,11.73s10.48-5.86,10.31-12.38Z"/><path class="cls-15" d="M2035.85,253.14c.14,5.8-3.75,10.55-8.71,10.7s-9.14-4.35-9.34-10.15l-1.65.05c.23,6.53,5.17,11.91,11,11.73s10.47-5.85,10.3-12.38Z"/><path class="cls-15" d="M2084.63,222.62c.13,5.08-3.75,10.55-8.71,10.7s-9.15-5.07-9.34-10.15l-1.65.05c.21,5.8,5.18,11.91,11,11.73s10.46-6.58,10.31-12.38Z"/><path class="cls-15" d="M2097.7,236.74c.15,5.8-3.75,10.55-8.71,10.7s-9.13-4.35-9.34-10.15l-1.65.05c.23,6.52,5.18,11.91,11,11.73s10.48-5.86,10.31-12.38Z"/><path class="cls-15" d="M2073.29,237.48c.14,5.81-3.75,10.55-8.71,10.7s-9.14-4.34-9.34-10.14l-1.65.05c.23,6.52,5.17,11.9,11,11.72s10.48-5.85,10.31-12.38Z"/><path class="cls-15" d="M2123.8,235.94c.15,5.8-3.75,10.55-8.71,10.7s-9.13-4.35-9.34-10.15l-1.65,0c.23,6.53,5.17,11.91,11,11.73s10.47-5.85,10.31-12.38Z"/><path class="cls-15" d="M2136.87,250.06c.15,5.8-3.75,10.54-8.71,10.7s-9.13-4.35-9.34-10.15l-1.65,0c.23,6.52,5.18,11.91,11,11.73s10.48-5.86,10.31-12.38Z"/><path class="cls-15" d="M2112.45,250.8c.15,5.8-3.74,10.55-8.7,10.7s-9.14-4.35-9.34-10.15l-1.65.05c.23,6.53,5.17,11.91,11,11.73s10.47-5.85,10.3-12.38Z"/><polygon class="cls-23" points="2161.71 269.62 1905.16 277.46 1902.03 304.78 2163.84 281.77 2161.71 269.62"/><g class="cls-8"><polygon class="cls-24" points="1929.35 304.3 1932.36 358.8 1961.29 358.99 1964.23 303.23 1929.35 304.3"/><polygon class="cls-24" points="2012.14 301.77 2017.13 355.84 2048.41 356.33 2051.65 300.56 2012.14 301.77"/><polygon class="cls-24" points="2098.87 299.12 2105.68 353.14 2134.57 353.7 2135.87 297.99 2098.87 299.12"/></g><polygon class="cls-25" points="1927.42 300.73 1930.43 355.22 1959.36 355.41 1962.3 299.66 1927.42 300.73"/><polygon class="cls-25" points="2010.21 298.2 2015.2 352.26 2046.48 352.75 2049.72 296.99 2010.21 298.2"/><polygon class="cls-25" points="2096.94 295.55 2103.75 349.56 2132.64 350.12 2133.94 294.42 2096.94 295.55"/><rect class="cls-13" x="1935.77" y="303.86" width="16.68" height="46.43" transform="translate(-9.08 59.52) rotate(-1.75)"/><rect class="cls-13" x="2023.08" y="301.2" width="15.88" height="46.43" transform="translate(-8.96 62.17) rotate(-1.75)"/><rect class="cls-13" x="2110.38" y="298.52" width="16.68" height="46.43" transform="translate(-8.84 64.85) rotate(-1.75)"/><polygon class="cls-26" points="2270.43 970.99 1845.02 983.99 1867.78 454.95 2215.42 444.33 2270.43 970.99"/><polygon class="cls-27" points="2220.88 402.07 2221.54 423.82 2185.03 424.94 2184.37 403.19 2139.92 404.55 2140.59 426.3 2104.08 427.41 2103.41 405.66 2059.76 407 2060.42 428.75 2023.91 429.86 2023.25 408.11 1978.8 409.47 1979.47 431.22 1942.96 432.34 1942.29 410.58 1898.64 411.92 1899.31 433.67 1862.8 434.79 1862.13 413.03 1818.88 414.35 1828.12 456.89 2251.95 443.94 2258.58 400.92 2220.88 402.07"/><g class="cls-8"><polygon class="cls-28" points="1989.66 663.91 2012.27 979.01 1842.7 986.24 1857.74 636.82 1989.66 663.91"/><polygon class="cls-29" points="1995.16 750.61 1849.42 830.02 1857.74 636.82 1989.66 663.91 1995.16 750.61"/><polygon class="cls-28" points="1857.74 636.82 2240.4 715.42 2227.38 594.21 1857.74 636.82"/><polygon class="cls-30" points="2053.39 452.19 2015.97 618.58 2149.64 603.17 2227.38 594.21 2214.31 447.27 2053.39 452.19"/><polygon class="cls-29" points="2115.58 690.51 2157.82 602.23 2227.38 594.21 2240.4 715.42 2115.58 690.51"/><polygon class="cls-26" points="1995.16 750.61 2087.74 713.14 2138.13 692.75 1989.66 663.91 1995.16 750.61"/><polygon class="cls-28" points="2258.3 879.31 2241.18 714.67 2134.98 693.59 2074.4 718.54 2258.3 879.31"/><polygon class="cls-29" points="2268.12 973.24 2258.3 879.31 2172.74 977.61 2268.12 973.24"/><polygon class="cls-29" points="1953.05 626.73 1861.72 544.17 1857.74 636.82 1953.05 626.73"/><polygon class="cls-31" points="2074.4 718.54 2245.85 893.62 2258.3 879.31 2074.4 718.54"/><polygon class="cls-32" points="2015.97 618.58 2095.73 450.17 2053.39 452.19 2015.97 618.58"/></g><path class="cls-33" d="M2064.14,531.69c.33,13.78-12.28,24.71-28.17,25.2s-29.13-9.66-29.64-23.43l-5.29.16c.57,15.22,16.26,27.65,35,27.07s33.7-13.93,33.33-29.16Z"/><path class="cls-34" d="M1948.89,513.68c.42,13.88-11.56,25.51-26.75,26s-27.86-10.42-28.28-24.3,11.55-25.51,26.74-26S1948.46,499.8,1948.89,513.68Z"/><path class="cls-34" d="M2176.7,507.45c.42,13.88-11.55,25.51-26.75,26s-27.86-10.41-28.28-24.29,11.55-25.51,26.74-26S2176.27,493.56,2176.7,507.45Z"/><path class="cls-35" d="M1949,518c.42,13.88-11.55,25.51-26.75,26s-27.86-10.42-28.28-24.3,11.55-25.51,26.75-26S1948.59,504.15,1949,518Z"/><path class="cls-35" d="M2176.83,511.8c.42,13.88-11.55,25.51-26.75,26s-27.86-10.41-28.28-24.29,11.55-25.51,26.75-26S2176.41,497.91,2176.83,511.8Z"/><path class="cls-34" d="M1893.27,488.23A92.18,92.18,0,0,1,1940,477.39s2.16-5.8-1.2-7.54-31.25-.45-47.72,14.65Z"/><path class="cls-34" d="M2179.37,480.19a92.2,92.2,0,0,0-47.31-7.92s-2.51-5.65.73-7.59,31.17-2.39,48.54,11.66Z"/><polyline class="cls-16" points="1867.41 455.69 2216.63 445.02 2217.12 460.97 1867.65 463.67 1867.67 457.61"/><path class="cls-36" d="M2044.57,810.29l.54,1.39C2045.09,811.06,2045.07,810.44,2044.57,810.29Z"/><path class="cls-36" d="M2060.73,806.8l-5.54,0c.07,1.31.13,2.62.2,3.93Q2058.07,808.75,2060.73,806.8Z"/><path class="cls-36" d="M2053.1,812.34h-.58a.74.74,0,0,0-.22.57Z"/><path class="cls-37" d="M1950.72,935.72l-2.11,45.83L2163.7,975l-3-29.56C2091.08,939.94,2020.77,941.24,1950.72,935.72Z"/><path class="cls-37" d="M1954.89,796.8l-.28,6c26.65,2.16,53.35,3.21,80.1,3.7-14.37-22.87-27-46.86-44.52-67.89C1968.17,752.6,1954.18,773.66,1954.89,796.8Z"/><path class="cls-37" d="M2045.86,721.47A118.22,118.22,0,0,0,1998.27,734c16.5,23.53,33.89,46.61,44.82,72.61l8.51.09C2048.05,778.36,2051.76,749.77,2045.86,721.47Z"/><path class="cls-37" d="M2125,746.9c-17.43-15.68-43.54-25.56-72.2-25.61,1.4,28.29,1,57.18,2.42,85.47l5.54,0C2084.41,789.32,2107,769.74,2125,746.9Z"/><path class="cls-37" d="M2147,790.93c-.45-14.63-6.72-28.06-17-39.15-14.63,23.64-37.52,40.16-61.74,55.05,26.76.09,53.55-.17,80.36-.34Z"/><path class="cls-37" d="M2149,811.1c-31.91.75-63.91,1.4-95.92,1.24l-.8.57a.74.74,0,0,1,.22-.57c-32.74-.18-65.49-1.21-98.17-3.89l-1.6,83.2c50.34,0,99.77-7,149.3-10.58,17.45-1.87,34.69-1.28,52-.58Z"/><path class="cls-37" d="M1952.56,895.71l-1.6,34.75c69.68,7.48,139.19,8.61,209.28,10.65l-5.56-54.36C2087.28,889,2019.92,892.34,1952.56,895.71Z"/><path class="cls-38" d="M2137.51,975.78,2132,794.57c-1.05-34.32-38.34-61-82.06-59.69s-79.32,30.27-78.27,64.59l5.54,181.21Z"/><path class="cls-38" d="M2052.82,934.1c16.07-46.22,17.65-124.64-9.92-168.8-5.89-9.49-2.58-21,4.73-30.31a100,100,0,0,0-24.6,4.39c-7.6,23.58-11.62,47.92-5.72,72.43,10.77,46.36,33.53,122,18.57,167.07l11-.33C2045.59,963.62,2048.52,948.28,2052.82,934.1Z"/><path class="cls-39" d="M2071,800.73a270.69,270.69,0,0,0-1.55-50.75c-.44-4.61-1-9.31-1.49-14.05a101.05,101.05,0,0,0-18-1l-2.29.11c-7.31,9.27-10.62,20.82-4.73,30.31,27.57,44.16,26,122.58,9.92,168.8-4.3,14.18-7.23,29.52-5.92,44.45l25-.76C2064.61,929.05,2068.05,850.37,2071,800.73Z"/><path class="cls-38" d="M2096.11,816.66c2.78-26.27-2.17-51.71-10.77-76.44a96.33,96.33,0,0,0-17.39-4.29c.5,4.74,1.05,9.44,1.49,14.05a270.69,270.69,0,0,1,1.55,50.75c-2.94,49.64-6.38,128.32.87,177.06l22.17-.68C2077.25,936.69,2091.54,859.8,2096.11,816.66Z"/><path class="cls-39" d="M2097.77,897.16c11.44-42.07,9.95-114.7-5.84-154.34-2.14-.94-4.34-1.82-6.59-2.6,8.6,24.73,13.55,50.17,10.77,76.44-4.57,43.14-18.86,120-2.08,160.45l14.66-.45c-3.74-6.67-7.05-13.41-8.33-20.79C2097.38,936.36,2092.81,916.91,2097.77,897.16Z"/><path class="cls-38" d="M2112.43,882.93c5.29-32,15.17-93.08,4.25-123.07a76.81,76.81,0,0,0-24.75-17c15.79,39.64,17.28,112.27,5.84,154.34-5,19.75-.39,39.2,2.59,58.71,1.28,7.38,4.59,14.12,8.33,20.79l28.82-.88-.87-28.53C2120.2,929.13,2108.73,907.42,2112.43,882.93Z"/><path class="cls-38" d="M2119,916.83c3.84,8.22,9.94,14.44,17.28,19.48L2132.08,798c-2.85,15.75-7.78,60-13.59,75.35A55.23,55.23,0,0,0,2119,916.83Z"/><path class="cls-39" d="M2119,916.83a55.23,55.23,0,0,1-.54-43.52c5.81-15.3,10.74-59.6,13.59-75.35l-.1-3.39c-.4-13.05-6.05-25-15.3-34.71,10.92,30,1,91.11-4.25,123.07-3.7,24.49,7.77,46.2,24.21,64.32l-.33-10.94C2129,931.27,2122.87,925.05,2119,916.83Z"/><path class="cls-38" d="M1973.84,871.23l2,64.54C1988.11,917.09,1984,891.59,1973.84,871.23Z"/><path class="cls-38" d="M1979.9,809.32c-6.41-10.9-5.4-22-3.12-33.19a49.55,49.55,0,0,0-5.13,23.34l2.19,71.76c10.17,20.36,14.27,45.86,2,64.54l.83,27.36C2013.83,932.12,2003.24,847.18,1979.9,809.32Z"/><path class="cls-39" d="M1986.11,804.78c-8.8-15.59,1.19-31.19,5.06-47.51a62.72,62.72,0,0,0-14.39,18.86c-2.28,11.16-3.29,22.29,3.12,33.19,23.34,37.86,33.93,122.8-3.25,153.81l.17,5.46a44.15,44.15,0,0,0,10.13-6.35C2023.21,927,2007.2,844.77,1986.11,804.78Z"/><path class="cls-38" d="M2008.27,801.92c-5.88-18.61-4-39,3.27-58.08a81.65,81.65,0,0,0-20.37,13.43c-3.87,16.32-13.86,31.92-5.06,47.51,21.09,40,37.1,122.24.84,157.46a44.15,44.15,0,0,1-10.13,6.35l.37,12.09,25.08-.77C2030.12,933.07,2024.53,852.51,2008.27,801.92Z"/><path class="cls-39" d="M2017.31,811.81c-5.9-24.51-1.88-48.85,5.72-72.43a94.05,94.05,0,0,0-11.49,4.46c-7.31,19.1-9.15,39.47-3.27,58.08,16.26,50.59,21.85,131.15-6,178l33.61-1C2050.84,933.79,2028.08,858.17,2017.31,811.81Z"/><path class="cls-40" d="M2034.57,735.35s-14.74,20.25-11.41,59.83,28.07,139.93,13.71,180.53"/><path class="cls-40" d="M2011.54,743.84s-12,26.36-5.29,50.13,19.79,99.12,15.46,124.57S1996,980.1,1996,980.1"/><path class="cls-40" d="M2080.3,739.08s23.14,42.31,16.49,70.44-18.69,119.93-15,137.24a120,120,0,0,0,12.27,31.8"/><rect class="cls-6" x="2050.46" y="735.32" width="3.18" height="243.01" transform="translate(-25.21 63.06) rotate(-1.75)"/><path class="cls-6" d="M2070.42,918.56c-6.44.2-11.81-4.36-12-10.16s4.91-10.67,11.35-10.87,11.81,4.36,12,10.16S2076.85,918.36,2070.42,918.56Zm-.56-18.13c-4.68.15-8.38,3.68-8.26,7.88s4.05,7.49,8.73,7.35,8.39-3.67,8.26-7.87S2074.55,900.29,2069.86,900.43Z"/><path class="cls-6" d="M2066,893.86s-.91,6.48,1.24,10l6.15-.19s2.29-2.73,1.68-10Z"/><path class="cls-36" d="M2070.33,915.66c-6.43.2-11.81-4.36-12-10.16s4.91-10.67,11.35-10.87,11.81,4.36,12,10.16S2076.76,915.46,2070.33,915.66Zm-.55-18.13c-4.69.15-8.39,3.68-8.26,7.88s4,7.49,8.72,7.35,8.39-3.67,8.26-7.87S2074.46,897.39,2069.78,897.53Z"/><path class="cls-41" d="M2065.87,891s-.91,6.48,1.24,10l6.15-.19s2.3-2.73,1.68-10Z"/><path class="cls-6" d="M2033.12,919.7c-6.44.2-11.82-4.36-12-10.16s4.91-10.67,11.34-10.87,11.81,4.36,12,10.16S2039.55,919.5,2033.12,919.7Zm-.56-18.13c-4.68.15-8.39,3.68-8.26,7.88s4,7.49,8.73,7.35,8.39-3.67,8.26-7.87S2037.24,901.43,2032.56,901.57Z"/><path class="cls-6" d="M2028.66,895s-.92,6.48,1.24,10l6.14-.19s2.3-2.73,1.68-10Z"/><path class="cls-36" d="M2033,916.8c-6.44.2-11.82-4.36-12-10.16s4.91-10.67,11.34-10.87,11.82,4.36,12,10.16S2039.46,916.6,2033,916.8Zm-.56-18.13c-4.68.15-8.39,3.68-8.26,7.88s4,7.49,8.73,7.35,8.39-3.67,8.26-7.87S2037.16,898.53,2032.47,898.67Z"/><path class="cls-41" d="M2028.57,892.1s-.92,6.48,1.24,10L2036,902s2.3-2.73,1.68-10Z"/><polygon class="cls-34" points="1977.49 626.51 2104.95 622.61 2103.08 629.41 1977.69 633.16 1977.49 626.51"/><path class="cls-34" d="M1979.39,630.19c.15,4.92-3.39,9-7.91,9.16s-8.3-3.74-8.45-8.66,3.39-9,7.91-9.15S1979.24,625.27,1979.39,630.19Z"/><path class="cls-34" d="M2118.29,626c.15,4.92-3.2,9-7.49,9.14s-7.89-3.75-8-8.67,3.21-9,7.5-9.14S2118.14,621,2118.29,626Z"/><polygon class="cls-16" points="1989.89 642.36 1992.44 725.85 2044.73 710.6 2100.37 722.04 2095.44 638.91 1989.89 642.36"/><polygon class="cls-42" points="1987.33 636.63 1989.88 720.12 2042.17 704.87 2097.81 716.31 2095.27 633.11 1987.33 636.63"/><polyline class="cls-43" points="1992.71 636.56 1995.53 712.71 2042.99 698.64 2092.1 708.93 2089.3 634.03"/><polygon class="cls-44" points="2047.8 681.03 2051.19 678.59 2056.17 679.86 2051.93 683.39 2047.8 681.03"/><polygon class="cls-45" points="2051.19 678.59 2048.99 675.17 2053.4 675.64 2056.17 679.86 2051.19 678.59"/><path class="cls-35" d="M2054.58,647.18c-2.42-3.09-6.17-4.8-10.82-4.93-.57,0-1.14,0-1.69,0-11.14.34-14.68,7.17-15,9-.11.61,0,1,.39,1.07a1.86,1.86,0,0,0,.48.05,4.13,4.13,0,0,0,2.24-1.06c.06,0,5.35-5.33,11.38-5.51a8.18,8.18,0,0,1,1,0c6,.38,6.44,5.34,6.43,10.83,0,3.58-2.91,11.11-9.83,13.76a77.19,77.19,0,0,1,6.54-19.79,1.62,1.62,0,0,0,.2-2.08c-.29-.45-3.61-1.64-4.8-1.85a3.6,3.6,0,0,0-.66,0,3.52,3.52,0,0,0-2,.66c-1.81,1.41-3.89,5-5.56,9.48a47.4,47.4,0,0,0-3,13.92c-4.87-2.15-2.29-8.92-2.26-9l0-.06v-.06c-.07-1.7-.86-2-1.51-2a3.56,3.56,0,0,0-1.88.86l0,.06a10.1,10.1,0,0,0-.72,9.62c1.17,2.27,3.36,3.72,6.51,4.32a20.22,20.22,0,0,0,1.36,5.39c1.57,4.86,4.7,9.34,6.56,9.39h.18a3.75,3.75,0,0,0,3-2l.08-.14-.09-.14a20.77,20.77,0,0,1-2.71-11c0-.5.08-1,.14-1.55,9.46-1.48,15.47-7.3,18-12.29C2058.1,658.89,2058.31,651.94,2054.58,647.18Z"/><polygon class="cls-46" points="1882.08 520.46 1857.04 550.52 1813.87 511.09 1838.91 481.02 1882.08 520.46"/><circle class="cls-33" cx="1923.77" cy="531.72" r="11.09"/><circle class="cls-33" cx="2150.26" cy="524.8" r="11.09"/><path class="cls-41" d="M2347.24,2082.28S2364,1747.72,2491.36,1761s97.44,331.16,97.44,331.16Z"/><path class="cls-47" d="M2431.18,1874.8s1.2-64.5,50.59-63.46c37.55.78,26,66.54,26,66.54Z"/><path class="cls-48" d="M2439.48,1874.8s6.95-64.9,44.48-63.46,32,67.46,32,67.46Z"/><path class="cls-49" d="M2421.76,1884.67l102,4.38s12-89.79-40-91.16C2422.65,1796.29,2421.76,1884.67,2421.76,1884.67Z"/><circle class="cls-49" cx="2518.76" cy="1882.96" r="1.26"/><circle class="cls-49" cx="2481.08" cy="1806.19" r="2.46"/><circle class="cls-49" cx="2426.68" cy="1877.57" r="1.45"/><circle class="cls-49" cx="2471.97" cy="1880.46" r="1.66"/><circle class="cls-49" cx="2515.15" cy="1829.09" r="1.68"/><circle class="cls-49" cx="2440.97" cy="1823.88" r="1.49"/><polygon class="cls-41" points="2462.71 1813.4 2454.16 1876.68 2462.2 1877.57 2471.25 1810.55 2462.71 1813.4"/><polygon class="cls-41" points="2489.35 1810.55 2486.22 1877.57 2496.39 1877.88 2496.39 1813.34 2489.35 1810.55"/><path class="cls-47" d="M2393.39,1969.74c-10.24-.15-18.47-8.09-18.35-17.7s8.57-17.31,18.81-17.16,18.47,8.08,18.35,17.69S2403.63,1969.88,2393.39,1969.74Zm.4-30c-7.46-.11-13.6,5.47-13.69,12.42s5.9,12.71,13.35,12.82,13.6-5.47,13.69-12.43S2401.24,1939.79,2393.79,1939.69Z"/><path class="cls-36" d="M2393.45,1964.93c-10.24-.15-18.47-8.09-18.34-17.69s8.56-17.31,18.8-17.17,18.48,8.08,18.35,17.69S2403.7,1965.07,2393.45,1964.93Zm.4-30c-7.46-.11-13.6,5.47-13.69,12.43s5.9,12.7,13.36,12.81,13.59-5.47,13.68-12.43S2401.3,1935,2393.85,1934.88Z"/><path class="cls-50" d="M2388.1,1923.71s-1.91,10.66,1.27,16.71l9.78.14s3.85-4.35,3.38-16.38Z"/><circle class="cls-47" cx="2389.21" cy="1981.32" r="5.62"/><polygon class="cls-47" points="2386.88 1984.39 2382.93 2002 2391.02 2002 2391.02 1984.39 2386.88 1984.39"/><path class="cls-49" d="M2378.82,1917.51s-14.39,37.17-14,90.27l54.3,1.42,6.54-90.06Z"/><path class="cls-49" d="M2604.5,2105.81l-282.66-13.63s20.4-355.85,164.38-348.21S2604.5,2105.81,2604.5,2105.81Z"/><polygon class="cls-51" points="2845.29 1699.18 2274.94 1721.34 2212.34 2132.27 2836.85 2148.23 2845.29 1699.18"/><polygon class="cls-51" points="1533.9 1071.39 2577.22 1030.19 2617.86 1463.61 1531.72 1479.71 1533.9 1071.39"/><polygon class="cls-51" points="2219.4 1523.37 2185.53 1950.13 1572.77 1973.75 1558.22 1524.68 2219.4 1523.37"/><polygon class="cls-52" points="1989.31 1433.68 1593.65 1441.16 1593.65 1070.5 1638.55 1067.25 2049.29 1408.29 1989.31 1433.68"/><path class="cls-41" d="M1677,1144.42c37.54-5.12,73.64-16.06,110.76-17.29l-10-67-139.24,7.16,9.66,77.21C1657.81,1144.64,1667.42,1145.3,1677,1144.42Z"/><path class="cls-53" d="M1841.94,1128.08h-54.15v-.95c-37.12,1.23-73.22,12.17-110.76,17.29-9.61.88-19.22.22-28.82,0l.26,2.1h55.86l.25,1a264,264,0,0,0,59.45-4.15c7-1,14-4,21-4,19.92-1.59,37.94-7,57.1-10.64Z"/><path class="cls-53" d="M1783,1214.42c50.57,1.88,101.14-5,150.89-16.58l-70.4-.74C1838,1208.68,1811.47,1215.4,1783,1214.42Z"/><path class="cls-41" d="M1872.47,1292.55c22.53-6.23,46.63-10,66.13-23l-3-71.74h-1.65c-49.75,11.56-100.32,18.46-150.89,16.58,28.44,1,55-5.74,80.49-17.32l-3.47,0-17.92-68.28c-19.16,3.65-37.18,9-57.1,10.64-7,0-14,3-21,4a264,264,0,0,1-59.45,4.15l16.71,67.36h66.5l6.49,76.35h77.8Z"/><path class="cls-41" d="M2024.71,1333.55,2012,1270.83c-46.25,9.35-87.86,33.3-134.78,37.1l16.64,53.69,15.11,1.74c39.56-3.41,78.49-17.15,116.4-29.75Z"/><path class="cls-53" d="M2139.06,1345l-.51-2.86-113.16-8.5c-37.91,12.6-76.84,26.34-116.4,29.75l69.29,8a89.48,89.48,0,0,1,11.75-3.93C2041.16,1356.27,2090.57,1355.48,2139.06,1345Z"/><path class="cls-41" d="M2139.06,1345c-48.49,10.51-97.9,11.3-149,22.45a89.48,89.48,0,0,0-11.75,3.93l1.38.15,9.65,62.18,160.93-25.39Z"/><path class="cls-53" d="M2011.81,1269.82h-73.2v-.23c-19.5,13-43.6,16.73-66.13,23l4.77,15.38c46.92-3.8,88.53-27.75,134.78-37.1Z"/><path class="cls-54" d="M1977,992.24s-.13,1-.36,3"/><path class="cls-55" d="M1975.22,1006.79c-5.25,45.41-20.28,185.68-14.48,255.88"/><path class="cls-54" d="M1961.29,1268.48c.11,1,.22,2,.34,3,0,0,.82-.66,2.37-1.83"/><path class="cls-56" d="M1973.59,1262.73c33.26-22.91,129.8-80.07,211.73-36.89,86.91,45.8,100.76,178.05,102.93,213.61"/><path class="cls-54" d="M2288.55,1445.36c.08,2,.09,3,.09,3s.5-.94,1.44-2.63"/><path class="cls-57" d="M2296.16,1435.53c15.87-25.28,54.74-78,95.72-64C2443.19,1389,2483,1587,2486,1664.84"/><path class="cls-54" d="M2486.2,1670.77c0,1,0,2,0,3,0,0,.64-.84,1.85-2.36"/><path class="cls-58" d="M2495.7,1662.35c26.17-29.75,102.06-104.12,170.94-56.39,78.53,54.42,51.77,415.37,45.73,477.37"/><path class="cls-54" d="M2711.76,2089.21c-.18,1.57-.31,2.57-.38,3"/><polygon class="cls-59" points="2780.38 1824.14 2782.14 1817.82 2773.59 1809.84 2771.86 1816.19 2780.38 1824.14"/><path class="cls-59" d="M2782.14,1817.82s-69.63-65.74-74.81-62.76-11.68,7.51-11.68,7.51l-22.72-22.37-23.94,22,28.44,27.11s-4.75,5.89-6.88,10.55h0a22.48,22.48,0,0,0-2.78,9.85l2.46-4.57c5.12,6,59.2,67.18,59.2,67.18Z"/><path class="cls-60" d="M2725.49,1876.29l54.89-52.15s-69.63-65.74-74.81-62.76-11.68,7.51-11.68,7.51l-22.72-22.37-23.94,22,28.44,27.11s-10,12.39-7.5,15.46S2725.49,1876.29,2725.49,1876.29Z"/><path class="cls-61" d="M2643.84,1771.59s24.57-10.64,32.14-33l-7.85-8.5s-22.86,25.86-33.15,32.71Z"/><path class="cls-59" d="M2635,1762.78s2-6.48,15.24-19.62c11-11,17.91-13.09,17.91-13.09S2644.79,1756.72,2635,1762.78Z"/><polygon class="cls-62" points="2726.47 1767.87 2724.75 1774.23 2684.59 1816.63 2718.68 1856.24 2765.79 1810.57 2767.9 1804.57 2726.47 1767.87"/><ellipse class="cls-63" cx="2723.44" cy="1813.67" rx="17.98" ry="20.6" transform="translate(-507.72 2329.54) rotate(-42.73)"/><path class="cls-60" d="M2708.4,1833c.93,1.56,1.58,2.61,2,3.19l2.18,2.06c-1.5,1.47-2.07,2.13-2.07,2.13-8.57-8.38-14.8-14.38-14.8-14.38l2.09-2.07c3.25,3.21,5.89,5.78,8.1,7.93-4.8-6.92-7.22-10.32-7.22-10.32,1.45-1.24,2.23-2,2.23-2,2.79,4.29,4.94,7.53,6.08,9.27,6.05,3.91,10,6.32,10,6.32-1.12,1.26-2,2.4-2,2.4C2711.91,1835.33,2709.78,1833.89,2708.4,1833Z"/><path class="cls-60" d="M2701.52,1819.43s1.2-1.25,4.16-4.38c0,0,1.21,1.2,3,2.84,0,0-1.21,1.27-2.17,2.33,0,0,1.33,1.33,3.6,3.48.12-.13.8-.77,1.9-2l2.83,2.72s-.85.81-1.93,1.91c1,1,2.12,2,3.3,3.08,0,0,1-.8,2.31-2.08,0,0,.92,1,2.76,2.75,0,0-2,1.84-4.29,4.07C2717,1834.18,2710.55,1828,2701.52,1819.43Z"/><path class="cls-60" d="M2706.4,1815.11s1.49-1.46,4.94-5.17c0,0,1.06,1.12,2.92,2.89,0,0-.71.68-1.49,1.51,2.08,2,5.5,5.34,12,11.54,0,0-.7.66-2,2.09,0,0-4.36-4.3-12-11.6l-1.46,1.53S2708.49,1817.08,2706.4,1815.11Z"/><path class="cls-60" d="M2718.92,1817.12c-5.47-5.31-7.31-8.73-5.13-10.94,2-2,5.31-.14,9,3.56-1.36,1.33-2.27,2.12-2.27,2.12-2.78-2.73-3.87-3.55-4.31-3.11s.8,2.14,4.93,6.09c4.28,4.15,5.71,5.21,6.22,4.7s-.08-1.33-3.7-4.7c1.11-1.26,2.14-2.29,2.14-2.29,5.35,5.08,5.76,7.79,4,9.47C2727.81,1824.09,2724.73,1822.76,2718.92,1817.12Z"/><path class="cls-60" d="M2730.87,1810c-.25.26-.6.61-1.14,1.21l4.81,4.58s-.92.84-2,2.09c0,0-5.86-5.69-14.76-14.22,0,0,.52-.48,2-2,0,0,3,2.87,7.38,7.08.18-.18.57-.54,1.19-1.16-2.33-2.26-5.08-4.88-8.09-7.77,0,0,.76-.72,2.05-2.12,0,0,7.12,6.95,16.27,15.72a20.22,20.22,0,0,0-2.08,2.05S2734.23,1813.2,2730.87,1810Z"/><path class="cls-60" d="M2730.47,1804.39c-2.42-2.35-4.69-4.76-6.67-7.1,0,0,.74-.44,2.36-1.6,2.31,2.59,4,4.4,5.63,6,4.86,4.71,6.61,5.71,7.05,5.27s0-1.37-4.45-5.7c-2.38-2.3-5.3-4.84-8.17-7.16a24.19,24.19,0,0,0,1.81-2.32,109,109,0,0,1,8.36,7.2c5.78,5.62,7.44,8.77,5.41,10.82S2736.19,1809.94,2730.47,1804.39Z"/><path class="cls-60" d="M2729.59,1791.21a13.38,13.38,0,0,1,1.12-1.35c2.9-2.93,6.09-2.16,10,1.61,3.61,3.51,4.44,6.76,2.51,8.93l3.65,3.43s-.91.83-2.08,2.14C2744.76,1806,2739,1800.25,2729.59,1791.21Zm11.15,6.87c.64-.86.38-2-2.06-4.41-2.22-2.16-3.78-2.86-4.53-2C2736.16,1793.66,2737.41,1794.91,2740.74,1798.08Z"/><path class="cls-64" d="M2724.75,1774.23l41,36.34,2.11-6s-35.16-32.64-41.44-36.7Z"/><polygon class="cls-62" points="2657.88 1778.67 2680.33 1755.54 2686.92 1762.03 2665.77 1786.2 2657.88 1778.67"/><polygon class="cls-64" points="2680.33 1755.54 2682.7 1749.82 2690.43 1757.44 2686.92 1762.03 2680.33 1755.54"/><polygon class="cls-59" points="2220.45 1308.61 2226.78 1306.87 2229.24 1295.43 2222.9 1297.21 2220.45 1308.61"/><path class="cls-59" d="M2226.78,1306.87s20.58-93.52,15.37-96.44-12.45-6.15-12.45-6.15l7.5-31-31.17-9.23-8.63,38.34s-7.49-1.05-12.59-.48h0a22.35,22.35,0,0,0-9.87,2.68l5.18-.23c-2.54,7.48-27.18,85.3-27.18,85.3Z"/><path class="cls-60" d="M2147.51,1288.34l72.94,20.27s20.59-93.52,15.37-96.44-12.45-6.15-12.45-6.15l7.51-31-31.18-9.23-8.63,38.34s-15.76-2.2-17.12,1.52S2147.51,1288.34,2147.51,1288.34Z"/><path class="cls-61" d="M2195.33,1164.48s21.75,15.6,44.84,10.59l3.25-11.11s-33.93-6.31-45.1-11.61Z"/><path class="cls-59" d="M2198.32,1152.35s6.59-1.61,24.67,3c15.07,3.82,20.43,8.63,20.43,8.63S2208.57,1157.65,2198.32,1152.35Z"/><polygon class="cls-62" points="2241 1233.43 2234.66 1235.23 2177.65 1222.59 2161.2 1272.19 2224.59 1289.11 2230.83 1287.84 2241 1233.43"/><ellipse class="cls-63" cx="2200.16" cy="1254.39" rx="20.6" ry="17.98" transform="translate(377.91 3013.24) rotate(-73.67)"/><path class="cls-60" d="M2175.88,1251.4c-.86,1.6-1.42,2.71-1.72,3.33-.44,1.93-.65,2.93-.65,2.93-2-.53-2.89-.67-2.89-.67,2.79-11.66,4.72-20.1,4.72-20.1,1.88.49,2.86.73,2.86.73-1.09,4.45-1.93,8-2.64,11,3.47-7.67,5.14-11.5,5.14-11.5,1.81.6,2.89.87,2.89.87-2.25,4.6-3.92,8.1-4.83,10-.24,7.2-.27,11.83-.27,11.83-1.66-.31-3.11-.5-3.11-.5C2175.65,1255.64,2175.8,1253.07,2175.88,1251.4Z"/><path class="cls-60" d="M2184,1238.55l5.9,1.31s-.41,1.65-.92,4c0,0-1.71-.39-3.11-.66,0,0-.45,1.82-1.13,4.87.17,0,1.08.3,2.67.62,0,0-.38,1.6-.88,3.83,0,0-1.13-.31-2.63-.68-.3,1.36-.62,2.84-.95,4.42,0,0,1.18.41,3,.91,0,0-.35,1.28-.93,3.78,0,0-2.61-.76-5.71-1.58C2179.23,1259.38,2181.23,1250.7,2184,1238.55Z"/><path class="cls-60" d="M2190.16,1240.51s2,.53,7,1.58c0,0-.42,1.49-1,4,0,0-.95-.26-2.06-.5-.66,2.83-1.75,7.46-3.72,16.23,0,0-.93-.26-2.83-.66,0,0,1.44-5.94,3.77-16.25l-2.06-.47S2189.55,1243.32,2190.16,1240.51Z"/><path class="cls-60" d="M2194.88,1252.29c1.74-7.43,3.73-10.76,6.74-10,2.8.68,2.85,4.48,1.57,9.55-1.84-.48-3-.86-3-.86.91-3.78,1.06-5.15.46-5.29s-1.43,1.78-2.69,7.35c-1.37,5.81-1.54,7.58-.84,7.75.52.13,1.1-.75,2.13-5.59,1.66.31,3.07.66,3.07.66-1.61,7.21-3.73,9-6.05,8.35C2193.47,1263.49,2193,1260.17,2194.88,1252.29Z"/><path class="cls-60" d="M2207.13,1258.87c-.35-.08-.83-.2-1.62-.36l-1.46,6.48s-1.19-.35-2.83-.66c0,0,1.87-7.94,4.6-20,0,0,.68.2,2.77.64,0,0-.93,4-2.28,10,.25.06.76.21,1.61.42.74-3.16,1.57-6.87,2.51-10.93,0,0,1,.27,2.87.67,0,0-2.3,9.68-5.12,22a19.69,19.69,0,0,0-2.83-.73S2206.11,1263.4,2207.13,1258.87Z"/><path class="cls-60" d="M2211.73,1255.64c.77-3.28,1.67-6.46,2.66-9.37,0,0,.76.41,2.59,1.21-1,3.31-1.73,5.68-2.25,7.91-1.55,6.59-1.49,8.6-.89,8.75s1.17-.7,2.59-6.75c.76-3.22,1.43-7,1.94-10.69a22.38,22.38,0,0,0,2.92.37,106.43,106.43,0,0,1-1.87,10.86c-1.85,7.85-3.7,10.9-6.5,10.22S2209.91,1263.4,2211.73,1255.64Z"/><path class="cls-60" d="M2222.59,1248.11a12.08,12.08,0,0,1,1.73.27c4,1,5,4.11,3.74,9.37-1.15,4.91-3.51,7.29-6.36,6.75l-1.07,4.89s-1.18-.35-2.91-.67C2217.72,1268.72,2219.67,1260.82,2222.59,1248.11Zm-.16,13.1c1.07.11,2-.73,2.72-4,.71-3,.52-4.71-.65-4.9C2223.86,1255,2223.44,1256.72,2222.43,1261.21Z"/><path class="cls-64" d="M2234.66,1235.23l-10.06,53.88,6.23-1.27s9.91-46.94,10.17-54.41Z"/><polygon class="cls-62" points="2196.47 1180.16 2227.85 1187.53 2225.68 1196.51 2194.07 1190.8 2196.47 1180.16"/><polygon class="cls-64" points="2227.85 1187.53 2233.98 1186.62 2231.42 1197.16 2225.68 1196.51 2227.85 1187.53"/><path class="cls-65" d="M1614.72,1830.28s-7.71-230.71,56.45-242.84,83.09,246.77,83.09,246.77Z"/><ellipse class="cls-65" cx="2439.98" cy="1444.16" rx="74.94" ry="8.11"/><polygon class="cls-66" points="2293.92 1749.83 2339.81 1749.83 2339.81 1771.59 2291.47 1770.87 2293.92 1749.83"/><polygon class="cls-66" points="2315.64 1782.94 2364.86 1782.94 2364.86 1806.26 2315.64 1803.73 2315.64 1782.94"/><polygon class="cls-66" points="2331.34 1814.14 2283.49 1813.67 2283.49 1840.34 2331.34 1840.34 2331.34 1814.14"/><polygon class="cls-66" points="2351.58 1748.56 2351.58 1771.59 2391.02 1771.59 2391.02 1746.52 2351.58 1748.56"/><polygon class="cls-52" points="1892.16 1936.68 2161.2 1909.91 2197.41 1609.84 2100.19 1604.72 1888.81 1850.37 1892.16 1936.68"/><path class="cls-41" d="M2168.78,1613.14c-37.89-.73-75-7.41-112-4.33l3.87-69.57L2198,1532l-.63,77.81C2187.88,1611.13,2178.42,1612.89,2168.78,1613.14Z"/><path class="cls-53" d="M2003.08,1616l53.79-6.28-.11-1c37-3.08,74.13,3.6,112,4.33,9.64-.25,19.1-2,28.63-3.3l0,2.11-55.49,6.48-.13,1a264.48,264.48,0,0,1-59.52,2.78c-7.07-.18-14.37-2.35-21.33-1.54-20,.73-38.5-2.54-57.94-3.94Z"/><path class="cls-53" d="M2071.61,1695c-50,7.73-101,6.75-151.79,1l69.83-8.91C2016.36,1695.63,2043.48,1699.24,2071.61,1695Z"/><path class="cls-41" d="M1991.84,1782.94c-23.1-3.57-47.48-4.48-68.35-15.13l-5.31-71.6,1.64-.21c50.75,5.71,101.78,6.69,151.79-1-28.13,4.28-55.25.67-82-7.87l3.45-.44,9.88-69.89c19.44,1.4,38,4.67,57.94,3.94,7-.81,14.26,1.36,21.33,1.54a264.48,264.48,0,0,0,59.52-2.78L2133,1688.3l-66,7.72,2.41,76.59-77.27,9Z"/><path class="cls-41" d="M1845.39,1841.33l5.32-63.77c47,3.92,91.13,22.88,138.18,21.21l-10.3,55.26-14.81,3.48c-39.69,1.2-80-7.92-119.06-16Z"/><path class="cls-53" d="M1733.13,1865.94l.17-2.9,111.42-21.58c39.11,8.13,79.37,17.25,119.06,16l-67.9,16a89.76,89.76,0,0,0-12.12-2.53C1831.68,1865.8,1782.51,1870.75,1733.13,1865.94Z"/><path class="cls-41" d="M1733.13,1865.94c49.38,4.81,98.55-.14,150.63,5a89.76,89.76,0,0,1,12.12,2.53l-1.34.32-2.38,62.88-162.79-6.55Z"/><path class="cls-53" d="M1850.8,1776.53l72.7-8.49v-.23c20.87,10.65,45.25,11.56,68.35,15.13l-2.95,15.83c-47.05,1.67-91.16-17.29-138.18-21.21Z"/><polygon class="cls-66" points="2430.01 1070.16 2475.89 1070.16 2475.89 1091.91 2427.55 1091.19 2430.01 1070.16"/><polygon class="cls-66" points="2451.72 1103.27 2500.94 1103.27 2500.94 1126.59 2451.72 1124.06 2451.72 1103.27"/><polygon class="cls-66" points="2467.42 1134.47 2419.58 1134 2419.58 1160.67 2467.42 1160.67 2467.42 1134.47"/><polygon class="cls-66" points="2487.67 1068.89 2487.67 1091.91 2527.1 1091.91 2527.1 1066.85 2487.67 1068.89"/><path class="cls-6" d="M1411.75,1345.65s2.65-44.09-5.35-86.9-24.22-58.21-26.89-56.15S1399,1351.1,1411.75,1345.65Z"/><path class="cls-6" d="M1399.42,1185.64s-4.1-51.52-10.26-48.09S1389.16,1185.12,1399.42,1185.64Z"/><path class="cls-6" d="M2862.24,1389.33s-2.55-126.25,10.8-118.5S2877.48,1412.78,2862.24,1389.33Z"/><path class="cls-6" d="M2862.24,1241.37s-.86-55.33,8.56-54.75S2872.6,1249.39,2862.24,1241.37Z"/><path class="cls-6" d="M2872.6,1249.39s1.47-36.64,12.76-35S2883,1257.41,2872.6,1249.39Z"/><path class="cls-6" d="M2091.29,2168s-205.51-17.71-232.82-9.49S2070.93,2181.93,2091.29,2168Z"/><path class="cls-5" d="M1773.2,650a25.06,25.06,0,0,0-4.14-.08c-14.87-.93-25.31,11.07-29.72,17.35-5.32-22.23-37.82-137.38-140.9-136.21-3.64,0-7.36.06-11.18.32C1466.44,539.58,1483,691.94,1483,691.94h99.89L1557.14,906h101l-35.06-178,22.72-36.06h149.1S1793.86,652.06,1773.2,650ZM1627,691.94l-8.77,10.69-3.19-10.69Z"/><path class="cls-5" d="M2771.85,544.32c-1.22-87.77-34.13-230.32-144.28-246.82a80.74,80.74,0,0,0-13.18-.91c-86.25-1.29-95.09,146.85-95.93,185.12-4.8-15.16-19.18-44.65-58.78-48.13a33.39,33.39,0,0,0-4.23-.11c-52.17-1.71-72.86,114.39-72.86,114.39l2.28,0v0l60.21-.55h0l85.25-.78,45.49,76.37-22.44,242.19,5,0-.41,4.48,114.91.65-24.07-324.79Zm-216,2,31.71-.29-4.24,27.69Z"/><line class="cls-51" x1="2243.25" y1="2088.09" x2="2808.08" y2="2117.81"/><path class="cls-67" d="M2359.62,2070.82l214.67,7.27s6.14-98.56,0-137.53c0,0-1.24,107.6-3.59,133.09l-209.08-5,1.26-24.1Z"/><polygon class="cls-49" points="2577.82 1832.29 2591.86 1829.09 2597.64 1865.54 2588.71 1868.93 2577.82 1832.29"/><line class="cls-49" x1="2580.86" y1="1841.68" x2="2593.47" y2="1839.24"/><line class="cls-49" x1="2585.64" y1="1856.6" x2="2595.87" y2="1854.39"/><polygon class="cls-49" points="2606.28 2043.64 2616.35 2043.64 2615.76 2068.66 2606.03 2068.66 2606.28 2043.64"/><line class="cls-49" x1="2616.18" y1="2050.88" x2="2606.28" y2="2050.88"/><line class="cls-49" x1="2615.93" y1="2061.21" x2="2606.28" y2="2061.21"/><ellipse class="cls-65" cx="1964.12" cy="1005.77" rx="73.71" ry="7.17"/><polygon class="cls-5" points="1280.76 371.46 1450 374.95 1280.76 379.89 1280.76 371.46"/><polygon class="cls-5" points="1280.49 417.17 1403.31 417.17 1280.76 428.91 1280.49 417.17"/><path class="cls-5" d="M1302.33,456.89l191.57-2.55S1334.29,465,1302.33,456.89Z"/><polygon class="cls-5" points="2977.36 145.5 2708.06 152.24 2977.36 152.24 2977.36 145.5"/><polygon class="cls-5" points="2978.9 188.22 2825.79 189.96 2978.9 198.53 2978.9 188.22"/><polygon class="cls-5" points="2980.27 236.69 2708.06 240.11 2980.27 246.24 2980.27 236.69"/><path class="cls-5" d="M2955.41,304.78H2782S2907.44,294,2955.41,304.78Z"/><polygon class="cls-5" points="2982.36 341.44 2860.74 345.01 2982.48 350.12 2982.36 341.44"/><path class="cls-68" d="M1265.4,60.74s146.21-9,241.63-9.86,379,7.47,379,7.47,463,5.51,514.09,2.39,294.5-4.49,294.5-4.49-96.17,10.3-176.41,12-358,13.63-358,13.63l-361.83-4.24L1493.9,71.49S1292.42,62.86,1265.4,60.74Z"/><path class="cls-68" d="M1351,88.55,1694.54,97S1436.6,116.36,1351,88.55Z"/></g></g></svg>