<svg id="Layer_1" data-name="Layer 1" xmlns="http://www.w3.org/2000/svg" width="9273.99" height="653.73" viewBox="0 0 9273.99 653.73"><defs><style>.cls-1{fill:#cbeaee;}.cls-2{fill:#97c6c9;opacity:0.44;}.cls-3{fill:#fff;}.cls-4{fill:#9dc3c6;}</style></defs><polygon class="cls-1" points="9273.99 653.48 0 653.73 4.91 0 9273.97 4 9273.99 653.48"/><path class="cls-2" d="M1695.5,388.36l12.3-19.22h0l4.81-7.5,37.81.05h1.67s-3-45.71-14.24-45.43a8.09,8.09,0,0,0-.85.06,3.73,3.73,0,0,0-.82-.06c-8.44.21-14.91,11.86-17.6,17.67-1.46-14.22-9.07-70.75-37.84-69.66a23.27,23.27,0,0,0-3.1.09c-29.88,3.05-40.17,60.56-42.28,74.93-1.14-1.46-3.37-2.8-7.66-2.6a19.14,19.14,0,0,0-3.21.13c-10.45,1.27-13.15,24.67-13.15,24.67l37.83.06.09.21.83,2.11,17.62,44.84L1656.91,510l56.33.14,0-.07h1.13l-19.14-122.93v0Zm-36.74-26.8,14,0-.45,4.25L1669.91,388Zm33.41,6.05h0l-.92-5.92-8.46-.1,23.06,0-1.88,2.3-3.32,4.06-7.07,8.66Z"/><path class="cls-3" d="M69.9,299.49l653.2,12.43S589.44,42.19,442.85,53s-207,183.24-207,183.24-19.4-84.78-51.74-73.65S126,269.91,126,269.91s-10.78-43.32-34.5-37.43S69.9,299.49,69.9,299.49Z"/><polygon class="cls-2" points="1170.07 514.84 1227.32 157.02 1358 514.39 1170.07 514.84"/><polygon class="cls-2" points="830.09 513.23 897.5 133.45 943.55 323.51 1012 71.22 1056.81 203.15 1035.65 215.75 1056.81 215.75 1147.66 508.69 830.09 513.23"/><path class="cls-3" d="M3761.78,301.46l-559.25,6.63s14-208,103.72-204,116.05,119,116.05,119,21.75-103.51,105.13-98.78c62,3.52,89.68,129.69,89.68,129.69S3709.21,170.44,3761.78,301.46Z"/><polygon class="cls-4" points="4283.47 403.22 4354.13 121.41 4411.72 322.68 4463.08 178.77 4550.85 393.51 4283.47 403.22"/><path class="cls-3" d="M1611.34,144.9l302.35-4.54s-12.51-92-59.86-87-48.63,63.92-48.63,63.92,14.3-101.9-44.73-95.57-54,94.93-60.33,95.57S1643,66.24,1611.34,144.9Z"/><path class="cls-2" d="M2875.53,296.21s-22.08-87.29-53-75.16S2785,274.29,2785,274.29s-10.88-34.79-26.75-28.49-16.63,48.92-16.63,48.92l30.85.34,20.81,24.05-6.21,82.66-.26,3.55,51.3-17.13-22-92.64Zm-79.18,11-14.41-12,16.72.18Z"/><path class="cls-2" d="M6868,243.86s-37.55-150.3-90.11-129.42-63.83,91.67-63.83,91.67-18.5-59.9-45.47-49-28.28,84.23-28.28,84.23l52.45.59,35.38,41.4-10.55,142.33-.45,6.12,87.22-29.5L6767,242.72ZM6733.38,262.8l-24.49-20.73,28.42.32Z"/><polygon class="cls-2" points="5831.39 527.32 5888.64 169.5 6019.33 526.87 5831.39 527.32"/><polygon class="cls-2" points="5491.41 525.71 5558.83 145.94 5604.88 336 5673.33 83.7 5718.14 215.63 5696.98 228.23 5718.14 228.23 5808.99 521.18 5491.41 525.71"/><path class="cls-3" d="M4703.14,330.54,5356.34,343S5222.68,73.24,5076.09,84s-206.95,183.25-206.95,183.25-19.41-84.79-51.74-73.66S4759.19,301,4759.19,301s-10.78-43.32-34.49-37.43S4703.14,330.54,4703.14,330.54Z"/><path class="cls-3" d="M8169.71,258.58l-559.25,6.63s14-208,103.73-204,116.05,119,116.05,119S7852,76.7,7935.37,81.43c62,3.52,89.68,129.68,89.68,129.68S8117.15,127.56,8169.71,258.58Z"/><path class="cls-3" d="M6248.33,148.19l302.35-4.54s-12.51-92-59.85-87-48.64,63.92-48.64,63.92S6456.5,18.71,6397.46,25s-54,94.92-60.33,95.56S6280,69.54,6248.33,148.19Z"/><path class="cls-3" d="M8482.34,166.34l331.59-2.5s-30.46-107.07-91.54-100.79S8641,132.52,8641,132.52s2.56-59.85-36.17-51.19-42.29,57.5-42.29,57.5-14-51.14-43.82-44.6S8482.34,166.34,8482.34,166.34Z"/><path class="cls-3" d="M9062.19,321.75l-302.35-4.55s12.51-92,59.85-87,48.63,63.92,48.63,63.92-14.3-101.9,44.74-95.57,54,94.93,60.33,95.57S9053.54,275.8,9062.19,321.75Z"/><path class="cls-2" d="M8553.72,263.81s-26.5-104.75-63.6-90.2-45,63.89-45,63.89S8432,195.75,8413,203.32,8393,262,8393,262l37,.41,25,28.85-7.44,99.19-.32,4.27,61.56-20.56L8482.42,263Zm-95,13.2-17.29-14.45,20.06.22Z"/></svg>