<svg id="Layer_1" data-name="Layer 1" xmlns="http://www.w3.org/2000/svg" xmlns:xlink="http://www.w3.org/1999/xlink" width="13924.34" height="681.15" viewBox="0 0 13924.34 681.15"><defs><style>.cls-1{fill:url(#linear-gradient);}.cls-2{fill:url(#linear-gradient-2);}.cls-3{fill:url(#linear-gradient-3);}.cls-4{fill:#6b9e41;}.cls-5{fill:#97c6c9;opacity:0.44;}.cls-6{fill:url(#linear-gradient-4);}.cls-7{fill:#465224;}.cls-8{fill:#6d321f;}.cls-9{fill:#ef89a6;}.cls-10{fill:#f4f4f5;}.cls-11{fill:#adacaf;}.cls-12{fill:#602e25;}.cls-13{fill:#2b110e;opacity:0.51;}.cls-14{fill:#859e3c;}.cls-15{fill:#5a7232;}.cls-16{fill:#758938;}.cls-17{fill:#495525;}.cls-18{fill:url(#linear-gradient-5);}.cls-19{fill:url(#linear-gradient-6);}.cls-20{fill:url(#linear-gradient-7);}.cls-21{fill:url(#linear-gradient-8);}</style><linearGradient id="linear-gradient" y1="584.58" x2="841.46" y2="584.58" gradientUnits="userSpaceOnUse"><stop offset="0" stop-color="#2c4f25"/><stop offset="1" stop-color="#6fa942"/></linearGradient><linearGradient id="linear-gradient-2" x1="1661.64" y1="848.36" x2="1668.69" y2="996.4" xlink:href="#linear-gradient"/><linearGradient id="linear-gradient-3" x1="4717.8" y1="445.81" x2="6203.73" y2="445.81" xlink:href="#linear-gradient"/><linearGradient id="linear-gradient-4" x1="3429.19" y1="731.91" x2="3373.44" y2="470.03" xlink:href="#linear-gradient"/><linearGradient id="linear-gradient-5" x1="11096.47" y1="829.02" x2="11103.68" y2="980.43" xlink:href="#linear-gradient"/><linearGradient id="linear-gradient-6" x1="-2212.92" y1="448.25" x2="-693.15" y2="448.25" gradientTransform="matrix(-1, 0, 0, 1, 6885.44, 0)" xlink:href="#linear-gradient"/><linearGradient id="linear-gradient-7" x1="1477.38" y1="718.2" x2="1420.36" y2="450.36" gradientTransform="matrix(-1, 0, 0, 1, 11237.02, 0)" xlink:href="#linear-gradient"/><linearGradient id="linear-gradient-8" x1="13148.45" y1="704.01" x2="13187.85" y2="434.44" xlink:href="#linear-gradient"/></defs><path class="cls-1" d="M577.86,594.24S275.12,439.56,0,445.16l.69,279L841.46,706Z" transform="translate(0 -43)"/><path class="cls-2" d="M2601.75,679.67s-345.42-371-493.45-368.78-401.82,334-521.66,305.59-260.83-218.59-430-190.46S705.47,679.81,705.47,679.81Z" transform="translate(0 -43)"/><path class="cls-3" d="M4717.8,674.34s369.33-488.85,483-469.09,202.57,365.31,279.15,338.29,132.19-286.45,279.43-270.71S6203.73,687,6203.73,687Z" transform="translate(0 -43)"/><path class="cls-4" d="M6325.63,408.36s214.76-157.25,389.7-102.6,391.95,273.8,473.45,206.14c82.8-68.73,223.52-93.53,601.26-35.75l-.2,244.12L6052.67,683.79Z" transform="translate(0 -43)"/><path class="cls-5" d="M3236.67,447.36s-.63-28.06-12.19-32.31-16.39,16.29-16.39,16.29-2-48.91-21.42-51.37-21.24,46.12-21.24,46.12-5.63-21.79-23.08-20.39-13.17,41.66-13.17,41.66h54.11l-4.07,29.13-26.92-23.75-6.25,1.31,26.88,42.12-7.5,57.67,61.86-33.4-26.58-73.08Z" transform="translate(0 -43)"/><path class="cls-6" d="M2768.74,680.54,4066,672.32S3584.32,366.26,3443.93,393s-142.06,172.72-302.5,129.83S2768.74,680.54,2768.74,680.54Z" transform="translate(0 -43)"/><polygon class="cls-7" points="3327.46 406.55 3395.15 28.74 3478.01 407.7 3327.46 406.55"/><polygon class="cls-8" points="3386.14 509.77 3395.68 127.32 3417.13 509.83 3386.14 509.77"/><path class="cls-9" d="M3461.48,496.61c1.76,0,2.73,1.22,2.73,3.07a8.39,8.39,0,0,1-2.09,5.17c4.44-.67,7.77,2.07,7.77,5.64a4.91,4.91,0,0,1-5.08,5.22,8.94,8.94,0,0,1-3.26-.71,10.33,10.33,0,0,1,1.61,5.3c0,2.78-1.57,5.09-4.3,5.09s-5-3-5-8.37c-1.65,2.57-3.89,3.79-5.72,3.79a3.39,3.39,0,0,1-3.4-3.67,6.45,6.45,0,0,1,2.84-5.13,3.68,3.68,0,0,1-3.78-3.75c0-2.94,3-4.79,6-3.91a8,8,0,0,1-.86-3.62c0-2.57,1.13-4.59,3-4.59s3.26,2,3.63,4.84C3457.14,498,3459.61,496.61,3461.48,496.61Zm-6.65,18.14c3.44,0,5.94-2.32,5.94-5.48a4.68,4.68,0,0,0-4.45-4.84,5.85,5.85,0,0,0-5.64,5.9C3450.68,513,3452.29,514.75,3454.83,514.75Z" transform="translate(0 -43)"/><path class="cls-9" d="M3492.31,537c1.13,1.35.82,2.88-.6,4.07a8.45,8.45,0,0,1-5.31,1.72c3.37,3,3.41,7.28.67,9.58a4.9,4.9,0,0,1-7.26-.54,8.89,8.89,0,0,1-1.54-3,10.42,10.42,0,0,1-3,4.64c-2.13,1.79-4.92,2.07-6.67,0s-.93-5.76,3.18-9.25c-3,.39-5.4-.54-6.58-2a3.38,3.38,0,0,1,.62-5,6.47,6.47,0,0,1,5.76-1.13,3.67,3.67,0,0,1,.45-5.3c2.26-1.89,5.57-.82,6.84,2.07a8,8,0,0,1,2.22-3c2-1.65,4.24-2.09,5.44-.66s.57,3.77-1.38,5.89C3488.5,534.49,3491.11,535.52,3492.31,537Zm-18.17,6.56c2.21,2.63,5.59,3.06,8,1A4.67,4.67,0,0,0,3483,538a5.84,5.84,0,0,0-8.14-.54C3472.8,539.22,3472.51,541.56,3474.14,543.51Z" transform="translate(0 -43)"/><path class="cls-9" d="M3441.21,527a2.22,2.22,0,0,1,3.14.06,5.54,5.54,0,0,1,1.81,3.47c1.94-2.54,5.2-2.94,7.2-1.26a3.15,3.15,0,0,1,.27,5,6.9,6.9,0,0,1-2.09,1.29,8.49,8.49,0,0,1,3.8,1.67c1.55,1.3,2,3.17.61,4.54s-4.28,1.12-7.31-1.38a4.58,4.58,0,0,1-.86,4.64,2.78,2.78,0,0,1-3.82,0,4.19,4.19,0,0,1-1.39-3.83,3,3,0,0,1-4.06.15c-1.64-1.38-1.14-3.72.93-4.83a6.26,6.26,0,0,1-2.48-1.26c-1.43-1.2-2-2.71-1-3.65s2.79-.7,4.59.45C3439.71,529.82,3440.24,528,3441.21,527Zm6.68,11.81c1.79-1.72,1.8-4.06,0-5.54a3.86,3.86,0,0,0-5,0,3.73,3.73,0,0,0,.35,5.59A3.29,3.29,0,0,0,3447.89,538.83Z" transform="translate(0 -43)"/><path class="cls-10" d="M7518.15,339.61l220.32,2s-12.08-67.75-42.6-65.06-34.72,32.49-34.72,32.49,1.86-119.36-60.86-110S7518.84,289.64,7518.15,339.61Z" transform="translate(0 -43)"/><polygon class="cls-11" points="7654.94 297.84 7644.14 296.61 7625.09 315.61 7622.33 297.54 7590.13 296.61 7576.38 425.23 7641.8 424.85 7629.03 341.34 7654.94 297.84"/><polygon class="cls-12" points="7657.14 297.84 7646.35 296.61 7627.3 315.61 7624.53 297.54 7592.34 296.61 7578.59 425.23 7644.01 424.85 7631.23 341.34 7657.14 297.84"/><polygon class="cls-13" points="7589.48 302.76 7625.06 300.95 7624.53 297.54 7590.13 296.61 7589.48 302.76"/><polygon class="cls-13" points="7657.14 297.84 7642.9 297.84 7639.91 300.82 7654.52 302.24 7657.14 297.84"/><path class="cls-14" d="M7522.26,339.61l220.32,2s-12.08-67.75-42.59-65.06-34.73,32.49-34.73,32.49,1.86-119.36-60.86-110S7523,289.64,7522.26,339.61Z" transform="translate(0 -43)"/><path class="cls-10" d="M7413.93,198.56s-39.68,64.8-73.09,332.53h21.38c.4-59.48-4.28-120.07,17.05-176,.69,3.61-.7,7.22,2.08,10.1,6.27-35.34,15.32-70.68,35.5-101,30.46,84.17,39.4,176.32,40,266.86h67.76S7489.11,263.36,7413.93,198.56Z" transform="translate(0 -43)"/><path class="cls-15" d="M7383.77,366c-2.78-2.89-1.39-6.49-2.09-10.1-21.33,55.91-16.65,116.51-17,176h94.63c-.61-90.54-9.54-182.69-40-266.87C7399.08,295.36,7390,330.7,7383.77,366Z" transform="translate(0 -43)"/><path class="cls-16" d="M7416.35,199.4s-39.68,64.8-73.09,332.53h21.38c.39-59.48-4.29-120.08,17-176,.7,3.61-.69,7.21,2.09,10.1,6.27-35.34,15.31-70.68,35.5-101,30.46,84.18,39.39,176.33,40,266.87H7527S7491.52,264.2,7416.35,199.4Z" transform="translate(0 -43)"/><path class="cls-15" d="M7461.49,484.57c-2.45-.51-1.39-39.43-.93-36.07S7463.81,485.05,7461.49,484.57Z" transform="translate(0 -43)"/><path class="cls-15" d="M7457.78,435c-1.86.48-.46-27.41.93-23.08S7459.64,434.56,7457.78,435Z" transform="translate(0 -43)"/><path class="cls-15" d="M7467.52,444.18c-1.81-1.57-1.39-19.24.47-15.87S7470.31,446.58,7467.52,444.18Z" transform="translate(0 -43)"/><path class="cls-15" d="M7453.6,393.69c-.6-1.88-2.78-18.76-.46-13.95S7454.07,395.13,7453.6,393.69Z" transform="translate(0 -43)"/><path class="cls-15" d="M7465.2,412c-1.43.3-2.78-19.23-.92-15.39S7467.52,411.48,7465.2,412Z" transform="translate(0 -43)"/><path class="cls-15" d="M7448,361s-3.72-21.64-1.86-18.75S7449.89,361,7448,361Z" transform="translate(0 -43)"/><path class="cls-15" d="M7471.24,494.18s-2.32-25,.46-21.15S7473.09,495.14,7471.24,494.18Z" transform="translate(0 -43)"/><path class="cls-15" d="M7464.28,505.72s-.93-21.15.92-17.31S7464.28,505.72,7464.28,505.72Z" transform="translate(0 -43)"/><path class="cls-15" d="M7478.66,503.8c-.46-1.44-1.86-17.31.46-13.94S7478.66,503.8,7478.66,503.8Z" transform="translate(0 -43)"/><path class="cls-15" d="M7482.37,508.61s-2.78-12.5-.93-10.1S7484.23,508.13,7482.37,508.61Z" transform="translate(0 -43)"/><path class="cls-15" d="M7466.13,520.63s-1.85-16.83,1.39-14.91S7466.13,520.63,7466.13,520.63Z" transform="translate(0 -43)"/><path class="cls-16" d="M7455,522.55s0-12,1.39-9.13S7455,522.55,7455,522.55Z" transform="translate(0 -43)"/><path class="cls-16" d="M7447.11,500c-1.31-.68-1.4-21.64.93-17.31S7449,500.91,7447.11,500Z" transform="translate(0 -43)"/><path class="cls-16" d="M7450.82,468.7c-1.91,0-3.25-18.27-1.39-14.43S7455.92,468.7,7450.82,468.7Z" transform="translate(0 -43)"/><path class="cls-16" d="M7438.29,460c-1.31-1.36-1.39-24,0-20.67S7440.15,462,7438.29,460Z" transform="translate(0 -43)"/><path class="cls-16" d="M7446.18,441.77c-.93-1.92-2.78-22.12-.46-19.23S7446.18,441.77,7446.18,441.77Z" transform="translate(0 -43)"/><path class="cls-16" d="M7440.61,402.82s-2.32-20.19,0-16.83S7443.86,406.67,7440.61,402.82Z" transform="translate(0 -43)"/><path class="cls-16" d="M7434.58,366.76s-.93-15.39.93-12.5S7434.58,366.76,7434.58,366.76Z" transform="translate(0 -43)"/><path class="cls-16" d="M7423.91,504.28s-.47-21.64,1.85-17.31S7426.69,504.76,7423.91,504.28Z" transform="translate(0 -43)"/><path class="cls-16" d="M7429,325.89s-1.39-17.31,0-13.95S7431.8,326.85,7429,325.89Z" transform="translate(0 -43)"/><path class="cls-17" d="M7405.81,532.17l4.64-52.89-19.95-38.47,19.95,29.81s12.07-57.7,11.6-59.14S7410,362.91,7410,362.91l13.45,45.2,9.28-17.79-8.35,23.08-5.1,30.78,8.35-.48-9.74,3.84L7415.55,487l1.86,44.72Z" transform="translate(0 -43)"/><path class="cls-18" d="M12058,656.49S11704.71,277,11553.3,279.3s-411,341.6-533.53,312.56S10753,368.28,10580,397.06s-461.43,259.57-461.43,259.57Z" transform="translate(0 -43)"/><path class="cls-19" d="M9098.35,682s-377.73-500-494-479.77-207.18,373.63-285.51,346-135.2-293-285.78-276.88-454.51,423.56-454.51,423.56Z" transform="translate(0 -43)"/><path class="cls-5" d="M9956.55,432.37s.64-28.7,12.47-33S9985.78,416,9985.78,416s2.09-50,21.9-52.53,21.74,47.17,21.74,47.17,5.75-22.28,23.6-20.86,13.47,42.61,13.47,42.61h-55.34l4.16,29.79,27.53-24.29,6.39,1.34-27.48,43.08,7.67,59-63.28-34.16,27.19-74.75Z" transform="translate(0 -43)"/><path class="cls-20" d="M10435.14,665.66l-1326.83-8.41s492.68-313,636.26-285.65S9889.86,548.25,10054,504.39,10435.14,665.66,10435.14,665.66Z" transform="translate(0 -43)"/><polygon class="cls-7" points="9863.7 386.41 9794.47 0 9709.71 392.79 9863.7 386.41"/><polygon class="cls-8" points="9803.67 491.98 9793.91 100.82 9771.98 497.25 9803.67 491.98"/><path class="cls-9" d="M9732.74,487.22c.38-2.93,1.87-5,3.71-5s3,2.06,3,4.69a8,8,0,0,1-.88,3.7c3.1-.9,6.12,1,6.12,4a3.75,3.75,0,0,1-3.86,3.83,6.62,6.62,0,0,1,2.91,5.26,3.46,3.46,0,0,1-3.48,3.74c-1.88,0-4.17-1.25-5.85-3.87,0,5.51-2.33,8.56-5.16,8.56s-4.4-2.37-4.4-5.21a10.71,10.71,0,0,1,1.64-5.42,9.08,9.08,0,0,1-3.32.73,5,5,0,0,1-5.2-5.34c0-3.65,3.4-6.45,7.95-5.76a8.62,8.62,0,0,1-2.14-5.3c0-1.89,1-3.14,2.79-3.14S9731.06,484.12,9732.74,487.22Zm4.93,9.55a6,6,0,0,0-5.77-6,4.77,4.77,0,0,0-4.55,4.95c0,3.22,2.56,5.59,6.08,5.59C9736,501.29,9737.67,499.53,9737.67,496.77Z" transform="translate(0 -43)"/><path class="cls-9" d="M9702.45,522.19c-2-2.17-2.6-4.61-1.42-6s3.55-1,5.56.67a8.14,8.14,0,0,1,2.28,3c1.29-2.95,4.68-4,7-2.11a3.75,3.75,0,0,1,.46,5.42,6.6,6.6,0,0,1,5.89,1.14,3.46,3.46,0,0,1,.64,5.08c-1.21,1.43-3.64,2.39-6.73,2,4.2,3.57,5.07,7.29,3.25,9.46s-4.64,1.85-6.82,0a10.73,10.73,0,0,1-3.1-4.74,9.25,9.25,0,0,1-1.57,3,5,5,0,0,1-7.43.55c-2.81-2.35-2.77-6.75.68-9.8a8.57,8.57,0,0,1-5.43-1.76c-1.45-1.22-1.77-2.78-.61-4.16S9699,521.49,9702.45,522.19Zm10.49,2.36a6,6,0,0,0-8.33.55,4.78,4.78,0,0,0,.87,6.67c2.48,2.08,5.94,1.63,8.19-1.06C9715.34,528.72,9715.05,526.32,9712.94,524.55Z" transform="translate(0 -43)"/><path class="cls-9" d="M9748,519c1.83-1.18,3.74-1.38,4.7-.46s.43,2.51-1,3.73a6.28,6.28,0,0,1-2.52,1.29c2.11,1.13,2.63,3.53.94,4.94a3.09,3.09,0,0,1-4.15-.15,4.28,4.28,0,0,1-1.42,3.92,2.86,2.86,0,0,1-3.91,0,4.73,4.73,0,0,1-.88-4.75c-3.1,2.56-6,2.83-7.47,1.41s-1-3.31.62-4.64a8.57,8.57,0,0,1,3.89-1.71,7.11,7.11,0,0,1-2.14-1.32,3.23,3.23,0,0,1,.28-5.11c2-1.71,5.38-1.31,7.36,1.3a5.66,5.66,0,0,1,1.85-3.55,2.27,2.27,0,0,1,3.21-.07C9748.34,514.8,9748.89,516.71,9748,519Zm-2.78,6.94a3.82,3.82,0,0,0,.37-5.72,4,4,0,0,0-5.14,0c-1.8,1.51-1.79,3.9,0,5.67A3.37,3.37,0,0,0,9745.25,526Z" transform="translate(0 -43)"/><path class="cls-21" d="M12384.62,664.67s553-415.78,667.88-395.42,223.58,292.47,330.24,237.44,92.3-141.78,213.32-127.13c132.92,16.1,316.39,266,328.28,281.27Z" transform="translate(0 -43)"/></svg>