<svg xmlns="http://www.w3.org/2000/svg" width="158.21" height="289.78" viewBox="0 0 158.21 289.78"><defs><style>.cls-1{fill:#abaaaa;}.cls-2{fill:#e5e4e3;}.cls-3{fill:#686867;}.cls-4{fill:#992220;}.cls-5{fill:#ca5051;}.cls-6{fill:#771b1b;}</style></defs><g id="Layer_2" data-name="Layer 2"><g id="Layer_1-2" data-name="Layer 1"><polygon class="cls-1" points="147.14 289.78 158.21 283.44 157.28 260.71 146.22 267.14 147.14 289.78"/><path class="cls-1" d="M158.21,283.44s-6.6-186-17.83-189S114,88.89,114,88.89l-.89-62L49.89,24.67,52.24,101s-14.61,1.67-23.94,5.21h0C16.62,110.07,11,116.06,11,116.06l9.64-3c-1.15,15.32-9.8,173.78-9.8,173.78Z"/><path class="cls-2" d="M0,287l147.14,2.77s-6.6-186-17.83-189-26.42-5.55-26.42-5.55l-.9-62L38.83,31l2.34,76.35s-30.73,3.51-31.5,11.16S0,287,0,287Z"/><path class="cls-3" d="M30,30.64s48.52,18.82,89.55-1.81l.74-22.49s-66.94,4.58-90.54,0Z"/><path class="cls-1" d="M29.7,6.35S41.33.13,77.59,0c30.21-.11,42.65,6.34,42.65,6.34S51.56,11.36,29.7,6.35Z"/><polygon class="cls-4" points="149.36 138.3 138.3 144.76 24.85 148.6 17.95 249.97 145.49 251.07 156.6 245.65 149.36 138.3"/><ellipse class="cls-5" cx="82.64" cy="197.55" rx="40.04" ry="34.96" transform="translate(-117.51 273.67) rotate(-88.12)"/><path class="cls-2" d="M35.49,203.71c-.84,3.43-1.37,5.78-1.63,7.1.12,3.85.21,5.83.21,5.83-4.07,0-5.77.13-5.77.13-.41-23.3-.86-40.12-.86-40.12,3.78,0,5.73,0,5.73,0,.11,8.89.26,16,.39,22,2.81-16.13,4.09-24.14,4.09-24.14,3.7.26,5.86.23,5.86.23-2,9.75-3.45,17.16-4.24,21.14,3,13.66,5.21,22.4,5.21,22.4-3.27.22-6.09.56-6.09.56C37.12,211.79,36.14,206.88,35.49,203.71Z"/><path class="cls-2" d="M44.45,175.6s3.36-.1,11.74-.39c0,0,0,3.3.22,8,0,0-3.41.1-6.19.26,0,0,0,3.66.25,9.73.34,0,2.16,0,5.32-.13,0,0,.06,3.18.2,7.62,0,0-2.29,0-5.27,0,.1,2.7.2,5.64.35,8.77,0,0,2.41.21,6,.28,0,0,0,2.59.07,7.57,0,0-5.27-.17-11.5-.22C45.67,217.09,45.22,199.8,44.45,175.6Z"/><path class="cls-2" d="M57.1,176.28s4.06,0,13.89-.41c0,0,0,3,.09,8,0,0-1.91,0-4.11.06.12,5.64.32,14.89.86,32.37,0,0-1.87,0-5.64.13,0,0-.17-11.9-.78-32.43l-4.11.11S57.3,181.87,57.1,176.28Z"/><path class="cls-2" d="M71.68,196.16c-.31-14.83,1.82-22.07,7.83-22.14,5.61-.07,7.54,7,7.59,17.2-3.69,0-6-.16-6-.16-.12-7.57-.51-10.21-1.71-10.19-1.45,0-1.82,4-1.5,15.15.24,11.6.77,15,2.18,15,1,0,1.71-2,1.29-11.55,3.28-.23,6.1-.26,6.1-.26.47,14.35-2.67,18.65-7.32,18.65C74.47,217.93,72,211.89,71.68,196.16Z"/><path class="cls-2" d="M97.94,202.62c-.7,0-1.66,0-3.23.1l.4,12.91s-2.41-.09-5.65.14c0,0-.33-15.86-1-39.82,0,0,1.37,0,5.52-.13,0,0,.21,8,.55,19.88.49,0,1.53,0,3.24,0-.14-6.3-.38-13.69-.59-21.79,0,0,2,0,5.72-.13,0,0,.37,19.33,1.07,44a39,39,0,0,0-5.69,0S98.22,211.63,97.94,202.62Z"/><path class="cls-2" d="M105,194.3c-.14-6.55,0-13,.47-18.93,0,0,1.63.4,5.46,1-.36,6.74-.5,11.54-.41,16,.28,13.15,1.36,16.93,2.56,16.91s1.87-1.89,1.62-14c-.14-6.42-.72-13.93-1.53-21.06a45,45,0,0,0,5.67-.74,207.52,207.52,0,0,1,1.74,21.37c.34,15.67-1.68,22.31-7.28,22.38C107.52,217.34,105.37,209.79,105,194.3Z"/><path class="cls-2" d="M121.82,174.87a22.48,22.48,0,0,1,3.4-.34c8-.1,11.36,5.32,11.59,15.83.21,9.79-3.08,15.41-8.72,15.79l.38,9.72s-2.41-.08-5.81.14C122.66,216,122.49,200.21,121.82,174.87Zm6.05,24.73c2.07-.32,3.32-2.32,3.18-8.93-.13-6-1.32-9.11-3.6-8.9C127.57,187.23,127.6,190.65,127.87,199.6Z"/><path class="cls-6" d="M138.3,144.77l7.19,106.31,11.11-5.43s-4.09-93.17-7.24-107.35Z"/><polygon class="cls-4" points="39.7 59.6 102.35 58.26 102.61 76.21 40.35 80.8 39.7 59.6"/><polygon class="cls-6" points="102.35 58.26 113.44 53.58 113.75 74.67 102.61 76.21 102.35 58.26"/></g></g></svg>