<svg xmlns="http://www.w3.org/2000/svg" xmlns:xlink="http://www.w3.org/1999/xlink" viewBox="0 0 435.99 448.08"><defs><style>.cls-1{fill:#9aa13e;}.cls-2{fill:#7b8636;}.cls-3{fill:url(#linear-gradient);}.cls-4{fill:#868685;}.cls-5{fill:#babb6f;}.cls-6{fill:#6a7130;}.cls-7{fill:#303417;}.cls-13,.cls-8{fill:#fcfdfb;}.cls-9{fill:#e1e2e0;}.cls-10{fill:#b8ba5b;}.cls-11{fill:#ec9922;}.cls-12{fill:#984337;}.cls-13{opacity:0.35;}.cls-14,.cls-16{fill:#40451c;}.cls-15{fill:#fcfdff;opacity:0.22;}.cls-16{opacity:0.25;}.cls-17{fill:#231f20;}</style><linearGradient id="linear-gradient" x1="281.7" y1="214.09" x2="279.94" y2="184.89" gradientUnits="userSpaceOnUse"><stop offset="0" stop-color="#9aa13e"/><stop offset="1" stop-color="#5a6928"/></linearGradient></defs><g id="Layer_2" data-name="Layer 2"><g id="Layer_2-2" data-name="Layer 2"><path class="cls-1" d="M269,354s35.08-41.46,54.73-34.84,8.07,77.27,8.07,77.27,90.13-2.79,96.82,6,10.92,23.46,3.14,25.95-14.43-7.19-14.43-7.19-4.52,14.54-12.9,12.44-10.64-12.15-10.64-12.15,3.07,10.37-6.17,9.07S375,420.07,375,420.07l-116.16-7.81S262.83,381,269,354Z"/><path class="cls-2" d="M266.51,356.31s35.08-41.46,54.73-34.84,8.08,77.27,8.08,77.27,90.13-2.79,96.82,6,10.91,23.46,3.14,26-14.43-7.19-14.43-7.19-4.53,14.54-12.91,12.44-10.63-12.15-10.63-12.15,3.06,10.37-6.18,9.07-12.63-10.53-12.63-10.53l-116.15-7.81S260.3,383.25,266.51,356.31Z"/><path class="cls-1" d="M298.39,167.16s47.29,46.52,69.14,92.56,40.15,139,43.43,168.19l-72.63,9L221.06,170.36Z"/><polygon class="cls-3" points="326.84 199.93 297.16 166.94 233.12 171.1 262.82 217.82 326.84 199.93"/><path class="cls-4" d="M353.64,158.67s4.39,16.6,10.87,17,9.2-15.18,9.2-15.18,5.43,13.44,11.49,11.71,7.52-13.64,7.52-13.64Z"/><path class="cls-5" d="M136.09,342.76s8.2-15.87,0-17-15.3,6.8-15.3,6.8,11.47-28.06,1.91-28.34a50.37,50.37,0,0,0-17.21,2.55s19.12-23.53,7.65-25.23-18-.83-18-.83,20.5-16.43,14.21-23-20.17-6.93-20.17-6.93S103.3,234.21,95.38,230s-12.31-2.18-12.31-2.18S81.72,209.31,76,209.15a7.6,7.6,0,0,0-7.43,4.94s-5.69-16.44-12.79-13.89-10.69,9.12-10.69,9.12,30.09,15,33.91,21.49,11.53,61.5,13.42,68.59,14.18,28.91,14.18,28.91,6.83,11.05,9.56,12.75S136.09,342.76,136.09,342.76Z"/><path class="cls-1" d="M136.09,345.15s8.2-15.87,0-17-15.3,6.8-15.3,6.8,11.47-28.06,1.91-28.34a50.65,50.65,0,0,0-17.21,2.55s19.12-23.52,7.65-25.22-18-.83-18-.83,20.5-16.43,14.21-23-20.17-6.92-20.17-6.92,14.16-16.61,6.24-20.86-12.31-2.18-12.31-2.18S81.72,211.69,76,211.53a7.6,7.6,0,0,0-7.43,4.94S62.86,200,55.76,202.59s-10.69,9.12-10.69,9.12,30.09,15,33.91,21.49,11.53,61.5,13.42,68.58,14.18,28.91,14.18,28.91,6.83,11.06,9.56,12.76S136.09,345.15,136.09,345.15Z"/><path class="cls-2" d="M166.14,343.16s-28.41,4.25-45.08-3.12S90.46,268.34,88,244.53,57.13,201.74,27.07,217,.84,270.32,0,269.76s23.5-14.74,29.24-3.12-4.1,63.49-4.1,91.54,4.81,72,135.68,70.29Z"/><path class="cls-6" d="M0,272.19s.07,0,.09-.21C0,272.09,0,272.16,0,272.19Z"/><path class="cls-6" d="M40.11,356.6c21.82,46.56,74.43,51.14,122.52,45.61l3.51-56.61s-28.41,4.25-45.08-3.12S90.46,270.78,88,247s-30.87-42.8-60.93-27.49C-1.45,234,.54,268.93.11,272c1.68-1.82,23.72-13.9,29.15-2.9a18.53,18.53,0,0,1,1.43,5.77,11.85,11.85,0,0,1,1.85,4.22C37.27,305.54,29.7,333,40.11,356.6Z"/><path class="cls-2" d="M40.11,356.6C29.7,333,37.27,305.54,32.54,279.07a11.85,11.85,0,0,0-1.85-4.22c2.1,17.88-5.53,61.06-5.53,85.77,0,28.06,4.81,72,135.68,70.29l1.79-28.7C114.54,407.74,61.93,403.16,40.11,356.6Z"/><path class="cls-5" d="M159.29,222.45S136,193.75,119.58,194.6s20.22,22.67,14.48,23-35.52-4.93-32.51,4.9,41.8,9,40.43,9-18.85,21.86-7.92,25.39,20.77-16.32,20.77-16.32l6.83,5.44Z"/><path class="cls-1" d="M267,77.54s24.25-25.85,29.81-20.3-3.09,22.5-3.09,22.5,13.89-3.1,12.4,6.9-15,14.52-15,14.52,19.87,8.77,10.47,15.43-33-4.2-33-4.2Z"/><path class="cls-2" d="M268.62,80.32S292.87,54.47,298.43,60s-3.09,22.5-3.09,22.5,13.88-3.1,12.4,6.9-15,14.52-15,14.52,19.88,8.77,10.48,15.43-33-4.19-33-4.19Z"/><path class="cls-2" d="M233.05,171.35S328.52,293.51,338.33,437H160.79s8-95.32,0-178.61S143,98.24,143,98.24s127.58-49,209.65,25.91v46.28Z"/><path class="cls-6" d="M352.6,124.15s31.33-12.77,47.56-12.77l-2.37,48.36L352.6,170.43Z"/><path class="cls-1" d="M400.16,111.38S347.25,79.43,270,76.53s-105.56,11-105.56,11L143,98.24s58.46-21.46,119.48-14,90.17,39.94,90.17,39.94S390.65,110.8,400.16,111.38Z"/><path class="cls-6" d="M191.94,82.48S161.45,6.1,185.81,1.74s32.48,32,32.48,32-6.44-30.35,14-32.31,34.57,35.81,23.63,74.75c0,0-35.12,1.16-58.19,6.35C195.59,83,193.84,81.9,191.94,82.48Z"/><path class="cls-1" d="M197.73,82.48S165,4.79,189.33.43s32.48,32,32.48,32S215.37,2,235.81.07,270,37.29,259.06,76.22C259.06,76.22,220.12,75.6,197.73,82.48Z"/><path class="cls-7" d="M233.05,171.35s-18.54-1.66-25.44-14.45,8.15-23.2,8.15-23.2a15.71,15.71,0,0,1,4.81,3.47l2.09-.22s-6.27-8.67-13.17-7.59l2.72,2.82s-11.08,9.11-8.78,22.55,21.46,18.08,31.84,19.55Z"/><path class="cls-8" d="M205.73,160.52c-.19-.21-2.71,17.19,8.36,19.35s12.13-7.38,12.13-7.38S213.46,169.57,205.73,160.52Z"/><path class="cls-8" d="M234.36,171.32c-.63,0,4.18,17.66,15.26,18.74s17.56-19,15.89-19Z"/><path class="cls-9" d="M270.52,171.06s3.13,18.44,14.84,19.05,14.42-19.75,14.42-19.75Z"/><path class="cls-9" d="M304.59,170.43s4.38,16.6,10.86,17,9.2-15.17,9.2-15.17,5.43,13.44,11.49,11.7,7.53-13.63,7.53-13.63Z"/><path class="cls-10" d="M358.66,264.45c-8.64-16.66-18.3-28.27-29.4-28.42-16.81-.23-23.31,18.24-18.92,41.15C326.68,273.73,342.73,269.37,358.66,264.45Z"/><path class="cls-10" d="M376.32,307c-4.68-13.09-9.64-26-15-37.21a371.94,371.94,0,0,1-50.2,11.06,95.56,95.56,0,0,0,3.65,11.83c2.57,6.76,5.76,17.9,9.14,31.05C341.42,318,359.21,313.47,376.32,307Z"/><path class="cls-10" d="M388.44,350.87c-2.82-13.58-6.08-26.69-9.72-37.08l-1.53-4.32c-17.59,5-34.7,13.38-52.36,17.84,2.79,11,5.68,23.22,8.46,35.35C352,359.29,370.25,355.18,388.44,350.87Z"/><path class="cls-10" d="M360.64,394.42c11.53-2.88,22.36-7.87,33.55-12-1.53-9.52-3.33-19.73-5.37-29.74-18.11,4.12-36.61,7.77-54.57,14.17,2.55,11.24,5,22.28,7.1,32.09A138.9,138.9,0,0,0,360.64,394.42Z"/><path class="cls-10" d="M341.91,401.61c4.17,19.35,7,33.29,7,33.29l51.39-8.09s-2-18.14-5.6-41.1C376.7,389.92,360,397.62,341.91,401.61Z"/><path class="cls-11" d="M157.49,225.34s-23.31-28.7-39.71-27.85,20.22,22.67,14.48,22.95-35.52-4.94-32.51,4.9,41.8,9,40.44,9-18.86,21.86-7.93,25.39S153,243.4,153,243.4l6.83,5.44Z"/><ellipse class="cls-1" cx="366.36" cy="145.58" rx="7.75" ry="16.34" transform="translate(-22.38 80.06) rotate(-12.1)"/><ellipse class="cls-1" cx="386.84" cy="139.62" rx="16.36" ry="7.74" transform="translate(208.43 510.17) rotate(-84.13)"/><ellipse class="cls-12" cx="366.24" cy="142.48" rx="7.75" ry="16.34" transform="translate(-21.73 79.97) rotate(-12.1)"/><ellipse class="cls-12" cx="386.72" cy="136.52" rx="16.36" ry="7.74" transform="matrix(0.1, -0.99, 0.99, 0.1, 211.4, 507.26)"/><path class="cls-13" d="M143,98.24S187.82,80.64,250,82.61,352.6,124.15,352.6,124.15,292.84,56.46,143,98.24Z"/><path class="cls-6" d="M159,129.78s3.42,23.95-7.63,38.7l-4.19-30.38Z"/><path class="cls-2" d="M152.73,104.81s-23.68-15.06-42-7.13,11.46,18.23,11.46,18.23-19.87,11.09-13,18.23S133.63,131,133.63,131s-14.52,18.23-2.29,20.6,24.07-21.79,24.07-21.79Z"/><path class="cls-1" d="M156.28,104.81s-23.69-15.06-42-7.13,11.47,18.23,11.47,18.23-19.87,11.09-13,18.23S137.18,131,137.18,131s-14.52,18.23-2.3,20.6S159,129.78,159,129.78Z"/><path class="cls-6" d="M236.58,239.59s15.88,68.08,1,79-11.6-.3-11.6-.3-12.8,14.47-17.91,9,8.74-17.72,8.74-17.72-21.55,10.78-23,1,15.82-13.45,15.82-13.45-9.08-12.51-8.25-56.24Z"/><path class="cls-5" d="M237,238.58s17.42,60.94,2.94,71.14-11.48,0-11.48,0S216.19,323,211,318.22s8.2-16.15,8.2-16.15-21,10.2-22.68,1.41S211.82,291,211.82,291s-9.29-11.05-9.56-50.45Z"/><path class="cls-1" d="M234.79,238.58s17.42,60.94,2.94,71.14-11.47,0-11.47,0S214,323,208.77,318.22s8.2-16.15,8.2-16.15-21,10.2-22.68,1.41S209.59,291,209.59,291,200.3,280,200,240.56Z"/><path class="cls-14" d="M239.05,238.58l-43.85,3.19s5.25-2.54,21.92-3.9S239.05,238.58,239.05,238.58Z"/><path class="cls-6" d="M348.07,90.38l-40.22,6.55s-4.75,20.69-1.59,39.59c0,0-5.36-32.41-2.73-41.15C303.53,95.37,344,89.77,348.07,90.38Z"/><path class="cls-6" d="M304.59,79.83s-32.35-.65-42.16,4.38c0,0,.72,20.6,1.6,29.21,0,0,1.42-24.71,1.74-26.79S283.06,80.67,304.59,79.83Z"/><path class="cls-6" d="M369.77,97.2c-1.66-.64-33.12,4.36-32.24,6.11S369.77,97.2,369.77,97.2Z"/><path class="cls-6" d="M167.78,188s-.22,8.5,5.22,9.47,5.22-10.23,5.22-10.23-1.13,8.23-4.68,8.7c-4.24.56-4.75-8.15-5.26-8C167.34,188.23,167.78,188,167.78,188Z"/><path class="cls-6" d="M174.1,196.65s-.22,8.5,5.22,9.47,5.22-10.23,5.22-10.23-1.13,8.23-4.68,8.7c-4.24.55-4.75-8.15-5.26-8C173.66,196.88,174.1,196.65,174.1,196.65Z"/><path class="cls-6" d="M161.76,197.42s-.21,8.49,5.22,9.46,5.22-10.22,5.22-10.22-1.13,8.23-4.67,8.69c-4.25.56-4.76-8.14-5.27-8C161.32,197.65,161.76,197.42,161.76,197.42Z"/><path class="cls-6" d="M179.22,206s-.21,8.5,5.22,9.47,5.22-10.23,5.22-10.23-1.13,8.23-4.68,8.7c-4.24.56-4.75-8.15-5.26-8C178.78,206.25,179.22,206,179.22,206Z"/><path class="cls-6" d="M185.54,214.67s-.22,8.5,5.22,9.47S196,213.91,196,213.91s-1.13,8.23-4.68,8.7c-4.24.56-4.75-8.15-5.26-8C185.1,214.9,185.54,214.67,185.54,214.67Z"/><path class="cls-6" d="M173.2,215.44s-.21,8.5,5.22,9.47,5.22-10.23,5.22-10.23-1.13,8.23-4.67,8.7c-4.25.56-4.76-8.15-5.27-8C172.76,215.67,173.2,215.44,173.2,215.44Z"/><path class="cls-6" d="M259.49,268.42s-.22,8.49,5.21,9.46,5.22-10.22,5.22-10.22-1.13,8.23-4.67,8.69c-4.25.56-4.76-8.14-5.27-8C259,268.65,259.49,268.42,259.49,268.42Z"/><path class="cls-6" d="M265.81,277.07s-.22,8.49,5.21,9.46,5.22-10.23,5.22-10.23-1.13,8.24-4.67,8.7c-4.25.56-4.76-8.14-5.27-8C265.36,277.3,265.81,277.07,265.81,277.07Z"/><path class="cls-6" d="M253.47,277.83s-.22,8.5,5.22,9.47,5.21-10.23,5.21-10.23-1.13,8.24-4.67,8.7c-4.25.56-4.76-8.15-5.26-8C253,278.07,253.47,277.83,253.47,277.83Z"/><path class="cls-6" d="M270.93,286.44s-.22,8.5,5.22,9.47,5.21-10.23,5.21-10.23-1.13,8.23-4.67,8.7c-4.25.55-4.76-8.15-5.26-8C270.48,286.67,270.93,286.44,270.93,286.44Z"/><path class="cls-6" d="M277.25,295.09s-.22,8.5,5.21,9.47,5.22-10.23,5.22-10.23-1.13,8.23-4.67,8.7c-4.25.55-4.76-8.15-5.27-8C276.8,295.32,277.25,295.09,277.25,295.09Z"/><path class="cls-6" d="M264.91,295.86s-.22,8.49,5.22,9.46,5.21-10.22,5.21-10.22-1.13,8.23-4.67,8.69c-4.25.56-4.76-8.14-5.26-8C264.46,296.09,264.91,295.86,264.91,295.86Z"/><path class="cls-6" d="M258.89,304.36s-.22,8.5,5.22,9.47,5.21-10.23,5.21-10.23-1.13,8.23-4.67,8.7c-4.25.55-4.76-8.15-5.26-8C258.44,304.59,258.89,304.36,258.89,304.36Z"/><path class="cls-6" d="M265.21,313s-.22,8.49,5.21,9.47,5.22-10.23,5.22-10.23-1.13,8.23-4.67,8.7c-4.25.55-4.76-8.15-5.26-8C264.76,313.24,265.21,313,265.21,313Z"/><path class="cls-6" d="M252.87,313.78s-.22,8.49,5.22,9.46S263.31,313,263.31,313s-1.14,8.23-4.68,8.69c-4.25.56-4.76-8.14-5.26-8C252.42,314,252.87,313.78,252.87,313.78Z"/><path class="cls-6" d="M270.33,322.38s-.22,8.5,5.22,9.47,5.21-10.23,5.21-10.23-1.13,8.23-4.67,8.7c-4.25.56-4.76-8.15-5.26-8C269.88,322.61,270.33,322.38,270.33,322.38Z"/><path class="cls-6" d="M276.65,331s-.22,8.5,5.22,9.47,5.21-10.23,5.21-10.23-1.13,8.23-4.67,8.7c-4.25.56-4.76-8.15-5.26-8C276.2,331.26,276.65,331,276.65,331Z"/><path class="cls-6" d="M264.31,331.8s-.22,8.5,5.22,9.47S274.75,331,274.75,331s-1.14,8.23-4.68,8.7c-4.24.55-4.76-8.15-5.26-8C263.87,332,264.31,331.8,264.31,331.8Z"/><path class="cls-10" d="M200,372.4S233,329.32,253,335s11.75,76.81,11.75,76.81,89.9-7.09,97,1.41,12,22.91,4.37,25.77-14.75-6.49-14.75-6.49-3.83,14.73-12.3,13-11.2-11.62-11.2-11.62,3.55,10.21-5.74,9.36S309,433.34,309,433.34l-116.4-2.27S195,399.61,200,372.4Z"/><path class="cls-1" d="M197.54,374.82s33.07-43.08,53-37.41,11.75,76.8,11.75,76.8,89.89-7.08,97,1.42,12,22.91,4.37,25.77-14.76-6.5-14.76-6.5-3.82,14.74-12.29,13-11.2-11.62-11.2-11.62,3.55,10.2-5.74,9.35-13.12-9.92-13.12-9.92l-116.39-2.26S192.63,402,197.54,374.82Z"/><path class="cls-14" d="M198.78,367s-6.24,11.27-9.93,70C188.85,437,200.2,369.34,198.78,367Z"/><polygon class="cls-15" points="218.83 395.51 174.66 375.85 167.29 404.3 191.69 415.94 212.12 426.15 218.83 395.51"/><path class="cls-16" d="M166.14,345.6l-5.3,85.31-21.11,0a136.94,136.94,0,0,0,16.21-48.22c4-28.38,3.92-36.45,3.92-36.45Z"/><ellipse class="cls-17" cx="204.9" cy="43.56" rx="11.5" ry="22.18" transform="translate(-4.57 41.42) rotate(-11.42)"/><ellipse class="cls-17" cx="241.53" cy="40.95" rx="21.78" ry="11.34" transform="translate(196.44 281.74) rotate(-89.02)"/><ellipse class="cls-8" cx="206.55" cy="43.56" rx="11.5" ry="22.18" transform="translate(-4.54 41.75) rotate(-11.42)"/><ellipse class="cls-8" cx="239.59" cy="40.95" rx="21.78" ry="11.34" transform="translate(194.53 279.79) rotate(-89.02)"/><ellipse class="cls-17" cx="202.13" cy="44.45" rx="5.46" ry="9.32" transform="translate(-3.14 18.03) rotate(-5.07)"/><ellipse class="cls-17" cx="235.14" cy="43.28" rx="5.54" ry="8.31" transform="translate(-0.78 4.49) rotate(-1.09)"/><path class="cls-17" d="M193.89,29.6s-1.7-.09-5-2.47-3.86-1.76-4,0,2,4.79,8.5,4.52Z"/><path class="cls-17" d="M193.89,35.25s-5.29-1.11-7.36,0,3.54,3.17,7.36,1.65Z"/><path class="cls-17" d="M246,20.68a62.75,62.75,0,0,0,5.27-4.88c1.1-1.38,3.73,1.24,1.1,3.17a29.55,29.55,0,0,1-5,3Z"/><path class="cls-17" d="M248.6,25.57s7-3.7,7.59-1.77-6.49,3.33-6.49,3.33Z"/></g></g></svg>