<svg xmlns="http://www.w3.org/2000/svg" viewBox="0 0 859.41 1340.92"><defs><style>.cls-1{fill:#e23a26;}.cls-2,.cls-9{opacity:0.3;}.cls-3{fill:#0b3e47;}.cls-4{fill:#f27c7a;}.cls-5{fill:#206067;}.cls-6{fill:#0a0706;opacity:0.2;}.cls-7{fill:#721512;}.cls-8{fill:#40c3dd;}.cls-9{fill:#345659;}.cls-10{fill:#03292d;}.cls-11{fill:#aadee6;}.cls-12{fill:#f37621;}.cls-13{fill:#f58b45;}.cls-14{fill:#e26925;}.cls-15{fill:#020303;}.cls-16{fill:#ca6228;}.cls-17{fill:#fff;}.cls-18{fill:#b2dae0;}.cls-19{fill:#f8a46b;}.cls-20{fill:#6c2a13;}.cls-21{fill:#782e17;}.cls-22,.cls-26{fill:none;stroke-miterlimit:10;stroke-width:1.16px;}.cls-22{stroke:#974c3a;}.cls-23{fill:#4a1c10;}.cls-24{fill:#7fa5a8;}.cls-25{fill:#3e98ab;}.cls-26{stroke:#9bd9ed;}.cls-27{fill:#f6f6f5;}.cls-28{fill:#cdcccb;}.cls-29{fill:#f3f4f5;opacity:0.27;}.cls-30{fill:#dc6b26;}</style></defs><g id="Layer_2" data-name="Layer 2"><g id="Layer_2-2" data-name="Layer 2"><path class="cls-1" d="M153.39,712.5,5.15,650.94A8.34,8.34,0,0,1,0,642.67L23.58,293.38a4.77,4.77,0,0,1,4.76-4.45H167a4.76,4.76,0,0,1,4.76,4.9L160,708.23A4.77,4.77,0,0,1,153.39,712.5Z"/><g class="cls-2"><path class="cls-1" d="M166.46,482.55h-.05l5.27-185.09a8.3,8.3,0,0,0-8.3-8.54H31.65a8.32,8.32,0,0,0-8.29,7.75l-3.15,46.71L8,517.47l.52-.12h0l-.52.12.47.61L.23,639.53a12.74,12.74,0,0,0,7.82,12.62l140.6,58.38a8.3,8.3,0,0,0,11.48-7.43l3.22-113h0l2.78-97.69Z"/><polygon class="cls-1" points="76.81 398.09 142.8 290.04 23.88 290.04 20.21 343.8 76.81 398.09"/><polygon class="cls-1" points="103.99 353.2 169.69 367.25 171.92 288.93 142.8 289.49 103.99 353.2"/></g><path class="cls-3" d="M10.6,295.58H185.2a9,9,0,0,0,8.55-11.64L106.45,6.27a9,9,0,0,0-17.09,0L2.06,283.94A9,9,0,0,0,10.6,295.58Z"/><path class="cls-4" d="M54.1,388.73,53,410.87h76.44l-.94-19.09C103.76,390.72,79.19,389.49,54.1,388.73Z"/><path class="cls-4" d="M55.18,367l-.91,18.3c25-.64,49.21,3.35,74.09,3.52l-1.25-25.13C103.08,365,79.4,365,55.18,367Z"/><path class="cls-4" d="M95.29,344.22h-.07v.07Z"/><path class="cls-4" d="M95.22,344.28c0,.05,0,.11,0,.17a1.56,1.56,0,0,1,.25-.17v-.06h-.19Z"/><path class="cls-4" d="M126.18,344.77q-12.68-.25-25.36-.46c-1.43,1.07-2.83,2.18-4.13,3.37,1.3-1.19,2.7-2.3,4.13-3.37l-5.34-.09v.06a1.56,1.56,0,0,0-.25.17c0,1.82.08,3.63.25,5.45,0,0,7.28,1.11,0,1.11,7.28,0,0-1.11,0-1.11-.17-1.82-.23-3.63-.25-5.45a6.29,6.29,0,0,0-.66.49c-.53.53-1,1.07-1.52,1.63v0a13.49,13.49,0,0,1,1.52-1.63c.21-.22.43-.45.65-.66l.07-.06h.19l-3.64,0v0l-4.59-.08c.35.82.67,1.65,1,2.49-.28-.84-.6-1.67-1-2.49l-5.32-.1.2.38-.2-.38q-12.78-.24-25.58-.6l-1,19.64c24.14-.93,47.63-2.37,71.59-2.33Z"/><path class="cls-4" d="M94.57,344.94a6.29,6.29,0,0,1,.66-.49c0-.06,0-.12,0-.17C95,344.49,94.78,344.72,94.57,344.94Z"/><path class="cls-4" d="M56.65,337.42l-.19,3.77c8.16.61,16.42,1,24.71,1.34-4-7.7-7.38-16.09-12.26-23.8C61.5,323.26,56.65,330,56.65,337.42Z"/><path class="cls-4" d="M91.23,312.7a43.92,43.92,0,0,0-19.43,4.45c3.5,9,10.76,16.71,14.85,25.54l5.19.13V312.71Z"/><path class="cls-4" d="M119.84,323.75c-5.84-6.13-15.38-10.33-25.9-11,2.81,10,1.34,20.07,1.28,30.1l1.45,0C104.12,336.28,114,331.81,119.84,323.75Z"/><path class="cls-4" d="M125.81,337.42a19,19,0,0,0-4.29-11.71c-4,7.84-11.81,12.26-18.9,17.3,7.85.13,15.7.21,23.48.23Z"/><path class="cls-4" d="M81.17,342.53c.25.48.5,1,.76,1.45l5.32.1c-.19-.47-.39-.93-.6-1.39Z"/><path class="cls-4" d="M86.65,342.69c.21.46.41.92.6,1.39l4.59.08v-1.34Z"/><path class="cls-4" d="M95.22,342.89l-3.38-.07v1.34l3.38,0Z"/><path class="cls-4" d="M96.67,342.92l-1.45,0v1.32h.07C95.74,343.78,96.19,343.34,96.67,342.92Z"/><path class="cls-4" d="M96.67,342.92c-.48.42-.93.86-1.38,1.3l5.53.09c.59-.44,1.19-.87,1.8-1.3C100.63,343,98.65,343,96.67,342.92Z"/><path class="cls-5" d="M78.51,210.23c0,8.86-5.42,15.82-12,15.82s-12-7-12-15.82h-2.2c0,8.86,6.41,18.3,14.23,18.3s14.2-9.44,14.24-18.3Z"/><path class="cls-5" d="M95.35,232.4c0,8.86-5.42,15.83-12,15.83s-12-7-12-15.83h-2.2c0,10,6.41,18.3,14.24,18.3s14.19-8.33,14.24-18.3Z"/><path class="cls-5" d="M62.79,232.4c0,8.86-5.42,15.83-12,15.83s-12-7-12-15.83h-2.2c0,10,6.41,18.3,14.24,18.3S65,242.37,65,232.4Z"/><path class="cls-5" d="M131.28,189.16c0,7.76-5.42,15.83-12,15.83s-12-8.07-12-15.83H105c0,8.87,6.41,18.31,14.24,18.31s14.19-9.44,14.24-18.31Z"/><path class="cls-5" d="M148.13,211.33c0,7.76-5.43,15.83-12,15.83s-12-8.07-12-15.83h-2.2c.05,8.87,6.42,18.31,14.24,18.31s14.2-9.44,14.24-18.31Z"/><path class="cls-5" d="M115.56,211.33c0,7.76-5.42,15.83-12,15.83s-12-8.07-12-15.83h-2.2c0,8.87,6.41,18.31,14.24,18.31s14.19-9.44,14.24-18.31Z"/><path class="cls-6" d="M171.92,295.58h-148l-2.39,28.87S83,314.1,171.32,310Z"/><polygon class="cls-6" points="129.45 403.11 129.45 410.87 53.01 410.87 53.01 419.74 130.67 420.85 129.45 403.11"/><path class="cls-7" d="M116.11,403.11V343.79c0-11-11.83-19.9-24.88-19.9s-24.88,8.91-24.88,19.9v59.32Z"/><path class="cls-1" d="M716.11,708.37,851.87,652a12.19,12.19,0,0,0,7.48-12.07L836.44,300.29a12.19,12.19,0,0,0-12.16-11.36H700.16A12.18,12.18,0,0,0,688,301.46l11.27,396A12.18,12.18,0,0,0,716.11,708.37Z"/><g class="cls-2"><path class="cls-1" d="M851.13,518.08l.47-.61-.52-.12h0l.52.12-12.25-174-3-43.87A11.39,11.39,0,0,0,825,288.93H699.34A11.39,11.39,0,0,0,688,300.64l5.18,181.92h0l.33,9.83,2.78,97.7h0l3.09,108.55A11.4,11.4,0,0,0,715,708.82l137.36-57a11.4,11.4,0,0,0,7-11.28Z"/><polygon class="cls-1" points="782.74 398.09 716.75 290.04 835.67 290.04 839.34 343.8 782.74 398.09"/><polygon class="cls-1" points="755.56 353.2 689.86 367.25 687.63 288.93 716.75 289.49 755.56 353.2"/></g><path class="cls-3" d="M845.19,295.58H678.11a11.71,11.71,0,0,1-11.17-15.22L750.48,14.64c3.43-10.93,18.91-10.93,22.34,0l83.54,265.72A11.71,11.71,0,0,1,845.19,295.58Z"/><path class="cls-4" d="M805.45,388.73l1.1,22.14H730.1l.95-19.09C755.8,390.72,780.36,389.49,805.45,388.73Z"/><path class="cls-4" d="M804.37,367l.91,18.3c-25-.64-49.21,3.35-74.09,3.52l1.25-25.13C756.47,365,780.16,365,804.37,367Z"/><path class="cls-4" d="M764.27,344.22h.06v.07Z"/><path class="cls-4" d="M764.33,344.28v.17c-.09-.06-.16-.12-.25-.17v-.06h.19Z"/><path class="cls-4" d="M733.38,344.77q12.68-.25,25.35-.46c1.44,1.08,2.83,2.18,4.13,3.37-1.3-1.19-2.69-2.29-4.13-3.37l5.35-.09v.06c.09.05.16.11.25.17,0,1.82-.09,3.63-.25,5.45,0,0-7.28,1.11,0,1.11-7.28,0,0-1.11,0-1.11.16-1.82.23-3.63.25-5.45a7.55,7.55,0,0,1,.66.49c.52.53,1,1.07,1.51,1.63v0a13.38,13.38,0,0,0-1.51-1.63l-.66-.66-.06-.06h-.19l3.64,0v0l4.58-.08c-.34.82-.67,1.65-.94,2.49.27-.84.6-1.67.94-2.49l5.32-.1c-.06.13-.13.25-.2.38.07-.13.14-.25.2-.38q12.79-.24,25.58-.6l1,19.64c-24.13-.93-47.63-2.37-71.58-2.33Z"/><path class="cls-4" d="M765,344.94a7.55,7.55,0,0,0-.66-.49v-.17Z"/><path class="cls-4" d="M802.91,337.42l.18,3.77c-8.16.61-16.41,1-24.71,1.34,4-7.7,7.38-16.08,12.27-23.8C798.05,323.26,802.91,330,802.91,337.42Z"/><path class="cls-4" d="M768.33,312.7a44,44,0,0,1,19.43,4.45c-3.5,9-10.77,16.71-14.85,25.54l-5.19.13V312.71Z"/><path class="cls-4" d="M739.71,323.75c5.84-6.13,15.38-10.33,25.9-11-2.81,10-1.34,20.07-1.27,30.1l-1.45,0C755.43,336.28,745.6,331.81,739.71,323.75Z"/><path class="cls-4" d="M733.74,337.42a19,19,0,0,1,4.29-11.7c4,7.83,11.81,12.25,18.91,17.29q-11.79.19-23.49.23Z"/><path class="cls-4" d="M778.38,342.53c-.25.48-.5,1-.76,1.45l-5.32.1c.2-.47.39-.93.61-1.39Z"/><path class="cls-4" d="M772.91,342.69c-.22.46-.41.92-.61,1.39l-4.58.08v-1.34Z"/><path class="cls-4" d="M764.34,342.89l3.38-.07v1.34l-3.39,0C764.34,343.77,764.34,343.33,764.34,342.89Z"/><path class="cls-4" d="M762.89,342.92l1.45,0c0,.44,0,.88,0,1.32h-.06C763.82,343.78,763.36,343.34,762.89,342.92Z"/><path class="cls-4" d="M762.89,342.92c.47.42.93.86,1.38,1.3l-5.54.09c-.59-.44-1.19-.87-1.79-1.3Z"/><path class="cls-7" d="M743.45,403.11V344.35c0-11,11.83-19.9,24.88-19.9s24.87,8.91,24.87,19.9v58.76Z"/><path class="cls-5" d="M781,210.23c0,8.86,5.43,15.82,12,15.82s12-7,12-15.82h2.19c0,8.86-6.4,18.3-14.23,18.3s-14.2-9.44-14.24-18.3Z"/><path class="cls-5" d="M764.2,232.4c0,8.86,5.42,15.83,12,15.83s12-7,12-15.83h2.2c0,10-6.41,18.3-14.23,18.3S762,242.37,762,232.4Z"/><path class="cls-5" d="M796.76,232.4c0,8.86,5.43,15.83,12,15.83s12-7,12-15.83H823c0,10-6.4,18.3-14.23,18.3s-14.2-8.33-14.24-18.3Z"/><path class="cls-5" d="M728.27,189.16c0,7.76,5.42,15.83,12,15.83s12-8.07,12-15.83h2.2c0,8.87-6.41,18.31-14.23,18.31s-14.2-9.44-14.24-18.31Z"/><path class="cls-5" d="M711.43,211.33c0,7.76,5.42,15.83,12,15.83s12-8.07,12-15.83h2.2c0,8.87-6.41,18.31-14.24,18.31s-14.19-9.44-14.23-18.31Z"/><path class="cls-5" d="M744,211.33c0,7.76,5.42,15.83,12,15.83s12-8.07,12-15.83h2.2c0,8.87-6.41,18.31-14.23,18.31s-14.2-9.44-14.24-18.31Z"/><path class="cls-6" d="M687.63,295.58h148l2.4,28.87S776.6,314.1,688.23,310Z"/><polygon class="cls-6" points="730.1 403.11 730.1 410.87 806.55 410.87 806.55 419.74 728.89 420.85 730.1 403.11"/><polygon class="cls-8" points="657.29 508.42 191.34 508.42 233.07 226.85 615.56 226.85 657.29 508.42"/><polygon class="cls-8" points="191.34 508.45 406.23 419.17 510.39 456 526.71 508.97 191.34 508.45"/><polygon class="cls-8" points="406.31 419.17 510.47 384.29 510.47 456 406.31 419.17"/><polygon class="cls-8" points="510.55 384.29 639.92 391.38 507.41 454.89 510.55 384.29"/><polygon class="cls-8" points="406.39 419.17 228.2 259.58 510.55 384.29 406.39 419.17"/><polygon class="cls-8" points="318.78 340.71 308.74 459.68 406.39 419.17 318.78 340.71"/><polygon class="cls-8" points="318.78 340.71 228.2 259.58 201.8 437.94 313.1 408.01 318.78 340.71"/><polygon class="cls-8" points="510.55 384 553.28 259 620.43 259 639.92 390.94 510.55 384"/><polygon class="cls-8" points="406.43 337.93 507.41 259 553.67 259 510.55 383.86 406.43 337.93"/><path class="cls-3" d="M638,259H212.06a7.65,7.65,0,0,1-7.46-9.35l24.33-106.51a7.64,7.64,0,0,1,7.45-5.94H613.64a7.63,7.63,0,0,1,7.45,5.94l24.33,106.51A7.65,7.65,0,0,1,638,259Z"/><path class="cls-5" d="M296.38,194.71c-.05,8.86-6.22,15.93-13.8,15.93s-13.75-7.07-13.8-15.93h-2.52c.05,8.86,7.35,18.43,16.32,18.43s16.27-9.57,16.32-18.43Z"/><path class="cls-5" d="M315.68,216.88c0,8.87-6.21,15.93-13.79,15.93s-13.75-7.06-13.8-15.93h-2.52c.05,10,7.35,18.43,16.32,18.43s16.27-8.46,16.32-18.43Z"/><path class="cls-5" d="M278.36,216.88c-.05,8.87-6.22,15.93-13.8,15.93s-13.75-7.06-13.8-15.93h-2.52c0,10,7.35,18.43,16.32,18.43s16.27-8.46,16.32-18.43Z"/><path class="cls-5" d="M356.87,173.64c0,7.76-6.22,15.94-13.8,15.94s-13.75-8.18-13.79-15.94h-2.53c.05,8.87,7.35,18.44,16.32,18.44s16.28-9.57,16.32-18.44Z"/><path class="cls-5" d="M376.18,195.82c-.05,7.75-6.22,15.93-13.8,15.93s-13.75-8.18-13.8-15.93h-2.52c.05,8.86,7.35,18.43,16.32,18.43s16.27-9.57,16.32-18.43Z"/><path class="cls-5" d="M338.85,195.82c0,7.75-6.22,15.93-13.8,15.93s-13.75-8.18-13.79-15.93h-2.52c0,8.86,7.34,18.43,16.31,18.43s16.28-9.57,16.32-18.43Z"/><path class="cls-5" d="M447,205.79c-.05,8.87-6.22,15.94-13.8,15.94s-13.75-7.07-13.8-15.94h-2.52c0,10,7.35,18.43,16.32,18.43s16.27-8.45,16.32-18.43Z"/><path class="cls-5" d="M466.27,228c0,8.87-6.22,15.94-13.8,15.94s-13.75-7.07-13.79-15.94h-2.52c0,10,7.34,18.43,16.31,18.43s16.27-8.45,16.32-18.43Z"/><path class="cls-5" d="M429,228c-.05,8.87-6.22,15.94-13.8,15.94s-13.75-7.07-13.8-15.94h-2.52c.05,10,7.35,18.43,16.32,18.43s16.27-8.45,16.32-18.43Z"/><path class="cls-5" d="M504.88,183.62c0,7.76-6.21,15.94-13.79,15.94s-13.75-8.18-13.8-15.94h-2.52c0,8.87,7.35,18.43,16.32,18.43s16.27-9.56,16.32-18.43Z"/><path class="cls-5" d="M524.19,205.79c-.05,8.87-6.22,15.94-13.8,15.94s-13.75-7.07-13.79-15.94h-2.53c.05,10,7.35,18.43,16.32,18.43s16.27-8.45,16.32-18.43Z"/><path class="cls-5" d="M486.87,205.79c-.05,8.87-6.22,15.94-13.8,15.94s-13.75-7.07-13.8-15.94h-2.52c.05,10,7.35,18.43,16.32,18.43s16.27-8.45,16.32-18.43Z"/><path class="cls-5" d="M564.09,205.79c-.05,8.87-6.22,15.94-13.8,15.94s-13.75-7.07-13.8-15.94H534c0,10,7.35,18.43,16.32,18.43s16.27-8.45,16.32-18.43Z"/><path class="cls-5" d="M583.4,228c0,8.87-6.22,15.94-13.8,15.94s-13.75-7.07-13.8-15.94h-2.52c.05,10,7.35,18.43,16.32,18.43s16.27-8.45,16.32-18.43Z"/><path class="cls-5" d="M546.07,228c-.05,8.87-6.22,15.94-13.8,15.94s-13.75-7.07-13.79-15.94H516c0,10,7.35,18.43,16.32,18.43s16.28-8.45,16.32-18.43Z"/><polygon class="cls-9" points="620.43 259 228.2 259 222.14 300.59 623.11 277.67 620.43 259"/><g class="cls-2"><polygon class="cls-10" points="263.9 301.13 265.95 384.51 310.13 386.16 317.22 301.13 263.9 301.13"/><polygon class="cls-10" points="390.47 301.13 395.57 383.96 443.32 386.16 450.88 301.13 390.47 301.13"/><polygon class="cls-10" points="523.07 301.13 530.95 383.96 575.05 386.16 579.63 301.13 523.07 301.13"/></g><polygon class="cls-11" points="261.12 295.58 263.17 378.95 307.35 380.61 314.43 295.58 261.12 295.58"/><polygon class="cls-11" points="387.69 295.58 392.79 378.39 440.54 380.61 448.1 295.58 387.69 295.58"/><polygon class="cls-11" points="520.29 295.58 528.17 378.39 572.27 380.61 576.85 295.58 520.29 295.58"/><rect class="cls-3" x="272.64" y="301.12" width="25.48" height="70.95"/><rect class="cls-3" x="406.12" y="301.12" width="24.27" height="70.95"/><rect class="cls-3" x="539.59" y="301.12" width="25.48" height="70.95"/><polygon class="cls-12" points="753.76 1335.37 103.36 1335.37 162.82 528.37 694.3 528.37 753.76 1335.37"/><path class="cls-13" d="M704.62,470.9v19.61a6.82,6.82,0,0,1-6.82,6.82H655.62a6.82,6.82,0,0,1-6.82-6.82V470.9a6.82,6.82,0,0,0-6.82-6.82H587.67a6.82,6.82,0,0,0-6.82,6.82v19.61a6.82,6.82,0,0,1-6.82,6.82H531.85a6.82,6.82,0,0,1-6.82-6.82V470.9a6.82,6.82,0,0,0-6.82-6.82H465.12a6.82,6.82,0,0,0-6.83,6.82v19.61a6.82,6.82,0,0,1-6.82,6.82H409.3a6.82,6.82,0,0,1-6.83-6.82V470.9a6.82,6.82,0,0,0-6.82-6.82h-54.3a6.82,6.82,0,0,0-6.83,6.82v19.61a6.82,6.82,0,0,1-6.82,6.82H285.53a6.82,6.82,0,0,1-6.83-6.82V470.9a6.82,6.82,0,0,0-6.82-6.82H218.79A6.82,6.82,0,0,0,212,470.9v19.61a6.82,6.82,0,0,1-6.83,6.82H163a6.82,6.82,0,0,1-6.82-6.82V470.9a6.82,6.82,0,0,0-6.82-6.82H98.22a6.82,6.82,0,0,0-6.71,8.06l9.61,51.76a6.83,6.83,0,0,0,6.7,5.58H744.45a6.83,6.83,0,0,0,6.71-5.58l9.6-51.76a6.82,6.82,0,0,0-6.71-8.06H711.44A6.82,6.82,0,0,0,704.62,470.9Z"/><g class="cls-2"><polygon class="cls-12" points="343.58 985.9 486.75 933 564.66 904.2 339.23 853.23 343.58 985.9"/><polygon class="cls-14" points="750.12 1338.7 739.52 1194.76 604.24 1340.91 750.12 1338.7"/></g><path class="cls-15" d="M459.16,654.74C459,675.8,439.25,691.92,415,691.92s-44.05-16.12-44.19-37.18H362.7c.15,23.28,23.54,43,52.27,43s52.12-19.71,52.27-43Z"/><path class="cls-16" d="M284,621.86c0,21.22-18.83,38.42-42.06,38.42s-42.07-17.2-42.07-38.42,18.84-38.43,42.07-38.43S284,600.63,284,621.86Z"/><path class="cls-16" d="M632.22,623c0,21.22-18.84,38.42-42.07,38.42s-42.06-17.2-42.06-38.42,18.83-38.43,42.06-38.43S632.22,601.74,632.22,623Z"/><path class="cls-17" d="M284,628.51c0,21.22-18.83,38.43-42.06,38.43s-42.07-17.21-42.07-38.43,18.84-38.43,42.07-38.43S284,607.28,284,628.51Z"/><path class="cls-17" d="M632.22,629.62c0,21.22-18.84,38.42-42.07,38.42s-42.06-17.2-42.06-38.42,18.83-38.43,42.06-38.43S632.22,608.39,632.22,629.62Z"/><path class="cls-16" d="M200.21,580.39s31-17.26,71.86-14.39c0,0,3.56-8.75-1.48-11.56S222.87,552.3,197,574.59Z"/><path class="cls-16" d="M637.57,581.47s-31-17.24-71.88-14.32c0,0-3.58-8.75,1.46-11.56s47.72-2.2,73.6,20.07Z"/><polyline class="cls-6" points="162.22 529.48 696.13 529.48 696.13 553.87 162.22 541.67 162.52 532.43"/><path class="cls-18" d="M416.27,1079.38c.25.71.52,1.42.77,2.14C417,1080.57,417,1079.63,416.27,1079.38Z"/><path class="cls-18" d="M441.12,1074.79l-8.46-.31q.06,3,.13,6Q437,1077.66,441.12,1074.79Z"/><path class="cls-18" d="M429.21,1082.9l-.89,0a1.19,1.19,0,0,0-.36.87Z"/><path class="cls-19" d="M267.07,1266.58l-5.35,69.9H590.56l-3.24-45.28C481.27,1279.56,373.81,1278.28,267.07,1266.58Z"/><path class="cls-19" d="M279.92,1054.58l-.71,9.19c40.6,4.54,81.34,7.41,122.17,9.39-20.87-35.6-39.09-72.82-64.83-105.76C302.28,987.7,279.92,1019.2,279.92,1054.58Z"/><path class="cls-19" d="M422.38,943.77a180.51,180.51,0,0,0-73.27,17c24.11,36.71,49.59,72.77,65.07,113q6.49.29,13,.53C423.08,1030.77,430.08,987.27,422.38,943.77Z"/><path class="cls-19" d="M542,986.3c-25.89-24.76-65.31-41.07-109.09-42.49.82,43.28-1.07,87.38-.28,130.67l8.46.31C478.1,1049.2,513.58,1020.34,542,986.3Z"/><path class="cls-19" d="M573.57,1054.58c0-22.37-9-43.18-24.18-60.59-23.45,35.42-59.19,59.58-96.87,81.19,40.86,1.39,81.8,2.24,122.75,3.24Z"/><path class="cls-19" d="M575.78,1085.48c-48.79-.35-97.69-.84-146.57-2.58l-1.25.84a1.19,1.19,0,0,1,.36-.87c-50-1.8-100-4.9-149.76-10.51l-6.34,127c76.9,2.32,152.72-6,228.54-9.19,26.75-2,53-.33,79.44,1.55Z"/><path class="cls-19" d="M271.75,1205.55l-4.06,53c106.08,14.68,212.2,19.66,319.16,26l-6-83.29C477.84,1201.6,374.8,1203.55,271.75,1205.55Z"/><path class="cls-20" d="M550.51,1336.48v-277c0-52.47-55.7-95-122.55-95s-122.56,42.53-122.56,95v277Z"/><path class="cls-20" d="M423.1,1268.86c26.7-69.84,32.77-189.56-7.28-258.28-8.56-14.77-2.95-32.27,8.64-46.08a152.68,152.68,0,0,0-37.78,5.56c-12.71,35.66-20,72.64-12.11,110.35,14.29,71.32,45.52,187.88,20.56,256.07H412C410.67,1313.62,415.87,1290.32,423.1,1268.86Z"/><path class="cls-21" d="M457.08,1066a413.82,413.82,0,0,0,0-77.59c-.45-7.06-1.08-14.27-1.62-21.52a154.81,154.81,0,0,0-27.5-2.45c-1.18,0-2.34,0-3.5.06-11.59,13.81-17.2,31.31-8.64,46.08,40.05,68.72,34,188.44,7.28,258.28-7.23,21.46-12.43,44.76-11.11,67.62h38.15C441.34,1261.71,450.27,1141.68,457.08,1066Z"/><path class="cls-20" d="M494.7,1091.5c5.47-40-.91-79.07-12.89-117.26a145.93,145.93,0,0,0-26.35-7.35c.54,7.25,1.17,14.46,1.62,21.52a413.82,413.82,0,0,1,0,77.59c-6.81,75.68-15.74,195.71-6.94,270.48H484C460.29,1274,485.71,1157.18,494.7,1091.5Z"/><path class="cls-21" d="M493.48,1214.54c19.44-63.72,20.55-174.73-1.73-236-3.22-1.53-6.53-3-9.94-4.28,12,38.19,18.36,77.27,12.89,117.26-9,65.68-34.41,182.46-10.66,245h22.41c-5.4-10.36-10.14-20.81-11.75-32.15C491.06,1274.4,485,1244.47,493.48,1214.54Z"/><path class="cls-20" d="M516.54,1193.48c9.56-48.56,27.51-141.45,12.23-187.78a117.45,117.45,0,0,0-37-27.18c22.28,61.29,21.17,172.3,1.73,236-8.49,29.93-2.42,59.86,1.22,89.79,1.61,11.34,6.35,21.79,11.75,32.15h44.06v-43.62C526.25,1264.41,509.74,1230.72,516.54,1193.48Z"/><path class="cls-20" d="M525,1245.58c5.49,12.74,14.52,22.51,25.48,30.55V1064.62c-5.09,23.92-14.68,91.36-24.27,114.45C516.54,1200.13,516.54,1224.52,525,1245.58Z"/><path class="cls-21" d="M525,1245.58c-8.49-21.06-8.49-45.45,1.21-66.51,9.59-23.09,19.18-90.53,24.27-114.45v-5.18c0-20-8.07-38.46-21.74-53.74,15.28,46.33-2.67,139.22-12.23,187.78-6.8,37.24,9.71,70.93,34,99.38v-16.73C539.55,1268.09,530.52,1258.32,525,1245.58Z"/><path class="cls-20" d="M305.4,1169.15v98.68C325.05,1239.87,320,1200.73,305.4,1169.15Z"/><path class="cls-20" d="M317.53,1074.87c-9.27-16.95-7.22-33.9-3.21-50.84a75.79,75.79,0,0,0-8.92,35.41v109.71c14.58,31.58,19.65,70.72,0,98.68v41.82C363.63,1264,351.42,1133.79,317.53,1074.87Z"/><path class="cls-21" d="M327.24,1068.22c-12.72-24.21,3.27-47.58,9.94-72.32A96.06,96.06,0,0,0,314.32,1024c-4,16.94-6.06,33.89,3.21,50.84,33.89,58.92,46.1,189.15-12.13,234.78V1318a67.55,67.55,0,0,0,15.77-9.23C378.21,1256.67,357.58,1130.3,327.24,1068.22Z"/><path class="cls-20" d="M361.22,1064.89c-8.11-28.7-4.36-59.73,7.7-88.55a124.47,124.47,0,0,0-31.74,19.56c-6.67,24.74-22.66,48.11-9.94,72.32,30.34,62.08,51,188.45-6.07,240.55A67.55,67.55,0,0,1,305.4,1318v18.48h38.34C388.47,1266.24,383.69,1142.92,361.22,1064.89Z"/><path class="cls-21" d="M374.57,1080.41c-7.87-37.71-.6-74.69,12.11-110.35a142.76,142.76,0,0,0-17.76,6.28c-12.06,28.82-15.81,59.85-7.7,88.55,22.47,78,27.25,201.35-17.48,271.59h51.39C420.09,1268.29,388.86,1151.73,374.57,1080.41Z"/><path class="cls-22" d="M404.5,964.44s-23.46,30.25-20.23,90.85,36.36,215,12.52,276.39"/><path class="cls-22" d="M368.92,976.34s-19.55,39.69-10.42,76.32,25.61,152.32,17.81,191-42.19,92.83-42.19,92.83"/><path class="cls-22" d="M474.17,972.28s33.38,65.7,21.9,108.35S461.93,1263,466.79,1289.55,484,1338.7,484,1338.7"/><rect class="cls-23" x="423.1" y="965.13" width="4.85" height="371.35"/><path class="cls-23" d="M450.7,1246c-9.83,0-17.84-7.21-17.84-16.07s8-16.07,17.84-16.07,17.84,7.21,17.84,16.07S460.54,1246,450.7,1246Zm0-27.71c-7.16,0-13,5.22-13,11.64s5.82,11.64,13,11.64,13-5.22,13-11.64S457.86,1218.24,450.7,1218.24Z"/><path class="cls-23" d="M445.05,1208s-1.7,9.86,1.42,15.4h9.4s3.64-4.06,3-15.15Z"/><path class="cls-18" d="M450.7,1241.52c-9.83,0-17.84-7.21-17.84-16.07s8-16.08,17.84-16.08,17.84,7.21,17.84,16.08S460.54,1241.52,450.7,1241.52Zm0-27.71c-7.16,0-13,5.22-13,11.64s5.82,11.63,13,11.63,13-5.22,13-11.63S457.86,1213.81,450.7,1213.81Z"/><path class="cls-24" d="M445.05,1203.58s-1.7,9.86,1.42,15.4h9.4s3.64-4.07,3-15.15Z"/><path class="cls-23" d="M393.67,1246c-9.84,0-17.84-7.21-17.84-16.07s8-16.07,17.84-16.07,17.84,7.21,17.84,16.07S403.51,1246,393.67,1246Zm0-27.71c-7.16,0-13,5.22-13,11.64s5.82,11.64,13,11.64,13-5.22,13-11.64S400.83,1218.24,393.67,1218.24Z"/><path class="cls-23" d="M388,1208s-1.7,9.86,1.42,15.4h9.39s3.64-4.06,3-15.15Z"/><path class="cls-18" d="M393.67,1241.52c-9.84,0-17.84-7.21-17.84-16.07s8-16.08,17.84-16.08,17.84,7.21,17.84,16.08S403.51,1241.52,393.67,1241.52Zm0-27.71c-7.16,0-13,5.22-13,11.64s5.82,11.63,13,11.63,13-5.22,13-11.63S400.83,1213.81,393.67,1213.81Z"/><path class="cls-24" d="M388,1203.58s-1.7,9.86,1.42,15.4h9.39s3.64-4.07,3-15.15Z"/><polygon class="cls-16" points="322.39 795.52 517.26 795.52 514.08 805.83 322.39 805.7 322.39 795.52"/><path class="cls-16" d="M325.12,801.24c0,7.52-5.6,13.62-12.5,13.62s-12.51-6.1-12.51-13.62,5.6-13.61,12.51-13.61S325.12,793.72,325.12,801.24Z"/><path class="cls-16" d="M537.48,801.24c0,7.52-5.31,13.62-11.87,13.62s-11.87-6.1-11.87-13.62,5.32-13.61,11.87-13.61S537.48,793.72,537.48,801.24Z"/><polygon class="cls-6" points="340.59 820.31 340.59 947.96 421.17 927.1 505.62 947.17 501.98 819.97 340.59 820.31"/><polygon class="cls-25" points="336.95 811.44 336.95 939.1 417.53 918.23 501.98 938.3 501.98 811.1 336.95 811.44"/><polyline class="cls-26" points="345.17 811.6 345.92 928.04 419.07 908.77 493.6 926.77 492.81 812.24"/><polygon class="cls-27" points="427.23 882.09 432.53 878.52 440.08 880.68 433.44 885.88 427.23 882.09"/><polygon class="cls-28" points="432.53 878.52 429.32 873.18 436.04 874.12 440.08 880.68 432.53 878.52"/><path class="cls-17" d="M439.17,830.7c-3.55-4.84-9.19-7.62-16.3-8-.87,0-1.74-.07-2.58-.07-17,0-22.75,10.26-23.35,13-.21.92,0,1.47.54,1.64a2.48,2.48,0,0,0,.73.11,6.53,6.53,0,0,0,3.48-1.51c.08-.08,8.41-7.89,17.64-7.89a14.92,14.92,0,0,1,1.5.07c9.08.86,9.59,8.46,9.31,16.85-.18,5.46-5,16.82-15.65,20.56,3.23-15.22,10.14-28.94,10.92-29.93,1.3-1.64.67-2.71.4-3.16-.42-.71-5.45-2.68-7.24-3.05a4.87,4.87,0,0,0-1-.1,5.43,5.43,0,0,0-3,.92c-2.83,2.08-6.18,7.39-8.94,14.22a72.55,72.55,0,0,0-5.15,21.12c-7.35-3.5-3.09-13.73-3-13.84l0-.08v-.09c0-2.6-1.21-3.15-2.21-3.15a5.51,5.51,0,0,0-2.9,1.23l-.08.09c-2.25,2.81-4,9.47-1.55,14.67,1.68,3.51,5,5.83,9.73,6.89a30.92,30.92,0,0,0,1.84,8.29c2.17,7.51,6.74,14.5,9.57,14.66h.28a5.74,5.74,0,0,0,4.65-2.93l.12-.22-.12-.21c-2.6-4.47-3.82-10.18-3.63-16.93.08-.76.17-1.55.28-2.36,14.52-1.82,24-10.43,28-17.93C444,848.75,444.65,838.15,439.17,830.7Z"/><polygon class="cls-29" points="181.6 629.09 141.96 673.84 77.86 611.6 117.5 566.85 181.6 629.09"/><polygon class="cls-30" points="218.32 861.28 168.26 861.28 166.73 838.11 218.32 838.11 218.32 861.28"/><polygon class="cls-30" points="256.33 892.49 206.58 892.49 206.58 865.92 257.86 865.92 256.33 892.49"/><polygon class="cls-30" points="279.06 859.74 225.12 859.74 225.12 837.8 281.36 837.8 279.06 859.74"/><polygon class="cls-30" points="197.62 983.65 142.61 983.65 142.61 959.24 199.15 959.24 197.62 983.65"/><polygon class="cls-30" points="657.53 1089.41 607.48 1089.41 605.95 1066.24 657.53 1066.24 657.53 1089.41"/><polygon class="cls-30" points="695.54 1120.62 645.79 1120.62 645.79 1094.05 697.07 1094.05 695.54 1120.62"/><polygon class="cls-30" points="718.28 1087.87 664.33 1087.87 664.33 1065.93 720.57 1065.93 718.28 1087.87"/><polygon class="cls-30" points="686.78 1058.1 631.77 1058.1 631.77 1033.68 688.31 1033.68 686.78 1058.1"/><circle class="cls-15" cx="260.07" cy="647.21" r="16.95"/><circle class="cls-15" cx="606.34" cy="647.21" r="16.95"/></g></g></svg>