<svg id="Layer_1" data-name="Layer 1" xmlns="http://www.w3.org/2000/svg" width="2604.13" height="651.91" viewBox="0 0 2604.13 651.91"><defs><style>.cls-1{fill:#caeaee;}.cls-2,.cls-3{fill:#96c5c9;}.cls-2{opacity:0.44;}.cls-3{opacity:0.21;}.cls-4{fill:#fff;}</style></defs><polygon class="cls-1" points="2603.65 0.16 2.14 0 0 632.94 2604.13 629.76 2603.65 0.16"/><polygon class="cls-2" points="2322.86 650.35 2417.91 242.15 2528.8 649.86 2322.86 650.35"/><polygon class="cls-3" points="1948.62 647.1 2022.93 240.72 2073.39 448.99 2148.41 172.53 2197.5 317.1 2174.32 330.9 2197.5 330.9 2297.06 651.91 1948.62 647.1"/><path class="cls-2" d="M653,432.48s.56-22.9-8.71-26.81-14,12.66-14,12.66.2-39.95-15.5-42.69-19.08,36.79-19.08,36.79-3.75-18-18-17.5-12.32,33.46-12.32,33.46l44.1,2.06L605.09,454l-21-20.39-5.14.83,20.3,35.36-8.3,46.73,51.7-24.87-18.89-60.59Z"/><polygon class="cls-2" points="1425.9 647.81 1466.37 398.11 1494.01 523.08 1535.1 357.2 1562 443.94 1549.3 452.22 1562 452.22 1616.54 644.83 1425.9 647.81"/><path class="cls-4" d="M882.8,323.93l425.49,8.34s-87.06-181.09-182.55-173.85-134.81,123-134.81,123-12.64-56.92-33.7-49.45-37.92,72.07-37.92,72.07-7-29.08-22.47-25.12S882.8,323.93,882.8,323.93Z"/><path class="cls-4" d="M1793.05,129.78l-345-2.45s31.69-104.61,95.24-98.47S1628,96.73,1628,96.73s-2.66-58.47,37.63-50,44,56.17,44,56.17,14.52-50,45.59-43.57S1793.05,129.78,1793.05,129.78Z"/></svg>