<svg id="Layer_1" data-name="Layer 1" xmlns="http://www.w3.org/2000/svg" xmlns:xlink="http://www.w3.org/1999/xlink" width="2261.48" height="651.5" viewBox="0 0 2261.48 651.5"><defs><style>.cls-1{fill:#6fa943;}.cls-2,.cls-8{fill:#f3f4f5;}.cls-3{fill:#adacaf;}.cls-4{fill:#612f26;}.cls-5{fill:#849d3c;}.cls-6{fill:url(#linear-gradient);}.cls-7{fill:#728336;}.cls-8{opacity:0.22;}.cls-9{fill:#9db34f;}.cls-10,.cls-17{fill:#fff;}.cls-11{fill:#465325;}.cls-12{fill:url(#linear-gradient-2);}.cls-13{fill:url(#linear-gradient-3);}.cls-14{fill:url(#linear-gradient-4);}.cls-15{fill:#6d321f;}.cls-16{fill:url(#linear-gradient-5);}.cls-17{opacity:0.25;}</style><linearGradient id="linear-gradient" x1="2608.99" y1="556.79" x2="2607.68" y2="535.85" gradientTransform="matrix(-1, 0, 0, 1, 4113.17, 0)" gradientUnits="userSpaceOnUse"><stop offset="0" stop-color="#6fa943"/><stop offset="1" stop-color="#3f863f"/></linearGradient><linearGradient id="linear-gradient-2" x1="666.68" y1="491.43" x2="666.68" y2="472.57" gradientTransform="matrix(1, 0, 0, 1, 0, 0)" xlink:href="#linear-gradient"/><linearGradient id="linear-gradient-3" x1="2057.84" y1="574.34" x2="2059.17" y2="553.04" gradientTransform="matrix(1, 0, 0, 1, 0, 0)" xlink:href="#linear-gradient"/><linearGradient id="linear-gradient-4" x1="2202.53" y1="526.5" x2="2203.53" y2="510.48" gradientTransform="matrix(1, 0, 0, 1, 0, 0)" xlink:href="#linear-gradient"/><linearGradient id="linear-gradient-5" x1="252.16" y1="575.5" x2="254.31" y2="541.04" gradientTransform="matrix(1, 0, 0, 1, 0, 0)" xlink:href="#linear-gradient"/></defs><polygon class="cls-1" points="2261.48 650.93 2261.14 458.87 0 458.57 0 651.5 2261.48 650.93"/><path class="cls-2" d="M1387.67,347l223.11,2s-12.23-68.6-43.13-65.88-35.16,32.9-35.16,32.9,1.87-120.87-61.64-111.36S1388.37,296.43,1387.67,347Z"/><polygon class="cls-3" points="1525.61 348.28 1514.68 347.04 1495.39 366.28 1492.59 347.98 1459.99 347.04 1446.06 532.34 1512.31 531.97 1499.38 392.34 1525.61 348.28"/><polygon class="cls-4" points="1522.95 348.28 1512.02 347.04 1492.72 366.28 1489.92 347.98 1457.32 347.04 1443.4 534.94 1509.64 534.56 1496.71 392.34 1522.95 348.28"/><path class="cls-5" d="M1386.36,347l223.11,2s-12.23-68.6-43.14-65.88-35.16,32.9-35.16,32.9,1.88-120.87-61.63-111.36S1387.06,296.43,1386.36,347Z"/><polygon class="cls-6" points="1509.64 534.56 1565.45 570.82 1492.22 575.4 1443.4 534.94 1509.64 534.56"/><path class="cls-7" d="M1414.82,347.19s23.7-96.38,68.35-92.15c30.9,2.93,46.08,84.06,46.08,84.06s7.36-37.28,20.44-37.29,25.06,46.95,25.06,46.95Z"/><rect class="cls-8" x="1462.09" y="318.78" width="22.55" height="47.81" transform="translate(2984.65 408.07) rotate(169.38)"/><rect class="cls-8" x="1477.32" y="310.7" width="22.55" height="47.81" transform="translate(1742.19 1839.11) rotate(-112.24)"/><path class="cls-9" d="M713.07,569.29a4.64,4.64,0,0,0-.87.07A4.42,4.42,0,0,0,713.07,569.29Z"/><polygon class="cls-9" points="714.97 569.8 714.64 569.82 715.45 569.84 714.97 569.8"/><path class="cls-9" d="M715,570.49c1.35-.22-.25-.22.22-.4l.3-.06-1.1.07C714.65,570.23,715.4,570.34,715,570.49Z"/><path class="cls-9" d="M712.14,571.2c.53-.09.47,0,.16-.11l-.13,0S712.18,571.16,712.14,571.2Z"/><path class="cls-9" d="M712.17,571.12c0-.06-.44.1,0,0Z"/><path class="cls-9" d="M712.51,571.42l-.49,0c-.31,0-.37.14-.6.14A2.49,2.49,0,0,0,712.51,571.42Z"/><path class="cls-9" d="M713.51,571.4l-.21,0C713.17,571.39,713.13,571.41,713.51,571.4Z"/><path class="cls-9" d="M712.87,571.31l.43.06c.22,0,.66-.09-.16,0C713.55,571.3,713.16,571.33,712.87,571.31Z"/><path class="cls-9" d="M713.07,571.23a1.86,1.86,0,0,1,.95-.13C713.81,570.93,712.86,571.07,713.07,571.23Z"/><path class="cls-9" d="M716.45,570.36l.38-.12h-.46C716.6,570.24,716,570.42,716.45,570.36Z"/><path class="cls-9" d="M711.87,572.08c.29,0,.76-.11,1.13-.16l-.34,0A3.93,3.93,0,0,1,711.87,572.08Z"/><path class="cls-9" d="M713,571.92l.51.05C713.56,571.87,713.32,571.88,713,571.92Z"/><polygon class="cls-9" points="715.02 571.24 713.96 571.19 715.04 571.28 715.02 571.24"/><polygon class="cls-9" points="711.87 572.48 711.2 572.5 712.22 572.49 711.87 572.48"/><path class="cls-9" d="M712,572.73c-.56,0-.93.16-1.28.15a4.43,4.43,0,0,0,1,.08C711.52,572.93,711.57,572.86,712,572.73Z"/><path class="cls-9" d="M712.4,573l-.64,0A4.61,4.61,0,0,0,712.4,573Z"/><path class="cls-9" d="M713.39,572.16a5,5,0,0,0-.82.18l.81-.13Z"/><path class="cls-9" d="M713.4,572.2h0a.26.26,0,0,1,0,.09Z"/><path class="cls-9" d="M713.39,572.15h0C713.47,572.15,713.49,572.15,713.39,572.15Z"/><path class="cls-9" d="M714.31,571.6a4.66,4.66,0,0,0,1.65-.11C715.39,571.51,715,571.62,714.31,571.6Z"/><path class="cls-9" d="M714.4,572l.18-.13a4.77,4.77,0,0,1-.76.07Z"/><polygon class="cls-9" points="714.67 572.02 714.4 571.99 714.34 572.04 714.67 572.02"/><path class="cls-9" d="M713.14,572.72c.36,0,.39.06.46.12s.23-.16.22-.22C713.56,572.64,713.1,572.66,713.14,572.72Z"/><path class="cls-9" d="M713.34,572.46h0C713.46,572.45,713.48,572.45,713.34,572.46Z"/><path class="cls-9" d="M713.65,573.42l.15,0h-.15Z"/><path class="cls-9" d="M714,572.59c.15-.06-.05-.07-.3-.07.08,0,.14.06.15.1S714,572.6,714,572.59Z"/><path class="cls-9" d="M712.8,573.11l.44-.12C713,573,712.58,573.13,712.8,573.11Z"/><path class="cls-9" d="M713.16,572.51h0C713,572.54,713,572.53,713.16,572.51Z"/><path class="cls-9" d="M713.16,572.51h.51a1.43,1.43,0,0,0-.28,0Z"/><path class="cls-9" d="M718.9,573.09c-.76.06-1.47,0-.67-.19a34.5,34.5,0,0,0-4.43.5,4,4,0,0,1,1.09,0,5.64,5.64,0,0,1,1.63-.32c.4.11-.25.15-.65.26.94-.16,1.39,0,2.77-.11l-.5-.09A6.16,6.16,0,0,0,718.9,573.09Z"/><path class="cls-9" d="M713.85,573.18l-.09,0a6.48,6.48,0,0,1-1,.25,4.67,4.67,0,0,0,.91,0l.08-.23Z"/><path class="cls-9" d="M713.73,572.94a13.46,13.46,0,0,0,2.07-.13c-.07-.13-.69,0-1.06-.07.23.2-.46,0-.91.19a.47.47,0,0,1-.23-.09l-.36.15h.18l.31,0c-.16.08-.21,0-.31,0h-.13l.47.17C713.87,573.09,713.84,573,713.73,572.94Z"/><path class="cls-9" d="M717.73,571.41l-.19,0C717.65,571.44,717.71,571.44,717.73,571.41Z"/><path class="cls-9" d="M717.25,571.56c-.12,0-.45,0-.37,0a3.42,3.42,0,0,1,.66-.07,2.3,2.3,0,0,0-1,.1h.12a8.71,8.71,0,0,1-1.4.34C716,571.77,716.53,571.69,717.25,571.56Z"/><path class="cls-9" d="M715.7,572.24l.42.14.7-.17-.42,0C716.55,572.14,716,572.22,715.7,572.24Z"/><polygon class="cls-9" points="713.24 573.48 712.37 573.55 713.61 573.53 713.24 573.48"/><polygon class="cls-9" points="713.37 573.71 712.62 573.77 713.08 573.79 713.37 573.71"/><path class="cls-9" d="M723.52,586.72l.21,0A.72.72,0,0,0,723.52,586.72Z"/><path class="cls-9" d="M723.56,586.31h-.37A1.28,1.28,0,0,0,723.56,586.31Z"/><path class="cls-9" d="M713.91,579.42c-.7.12-1.79.27-.94.21l.83-.08C713.65,579.51,713.74,579.46,713.91,579.42Z"/><path class="cls-9" d="M719.06,583.16l.26,0-.8,0Z"/><path class="cls-9" d="M722.5,583.09l-.53.12A3.77,3.77,0,0,0,722.5,583.09Z"/><path class="cls-9" d="M724.42,588.92l.84.07C725.26,588.89,724.83,588.93,724.42,588.92Z"/><path class="cls-9" d="M713.89,576.06c-.32.1-.45.16-.48.21C713.87,576.15,714.58,576,713.89,576.06Z"/><path class="cls-9" d="M714.7,586.7a2.6,2.6,0,0,0,.5,0A1.53,1.53,0,0,0,714.7,586.7Z"/><path class="cls-9" d="M713.42,576.46l.2-.05c-.15,0-.26-.08-.21-.14C713.06,576.36,712.84,576.44,713.42,576.46Z"/><path class="cls-9" d="M723.56,597h-.1C723.57,597,723.57,597,723.56,597Z"/><path class="cls-9" d="M715.06,598.79s0-.06-.06-.1S715,598.73,715.06,598.79Z"/><path class="cls-9" d="M713.1,574.67c-.06,0-.09,0,0,0Z"/><path class="cls-9" d="M716.35,574.13a3.44,3.44,0,0,0,.4,0Z"/><path class="cls-9" d="M718.62,576.55h0C718.78,576.53,718.75,576.53,718.62,576.55Z"/><path class="cls-9" d="M713.47,574.57a1,1,0,0,0-.24.08Z"/><path class="cls-9" d="M713.08,574.61l.07-.05C713,574.57,712.93,574.58,713.08,574.61Z"/><path class="cls-9" d="M713.15,574.74s0-.06.08-.09a.37.37,0,0,1-.13,0Z"/><path class="cls-9" d="M721.47,592.61h-.08C721.74,592.68,721.68,592.65,721.47,592.61Z"/><path class="cls-9" d="M722.61,580.24h0Z"/><path class="cls-9" d="M723.23,580.4c-1,0-.91-.08-.69-.15l-2.39.19Z"/><path class="cls-9" d="M723.77,587.68l.75-.14c1.23.15.8.27,1.85.14-2.6,0-.27-.52-2.87-.51l.55-.09s.12,0,.1,0c1.24-.19-1.88-.1-1.52-.32a1.91,1.91,0,0,1,.89-.09l-.65-.16s.5,0,.46,0l-.22-.25h.08c-.41,0-1-.11-1.31-.14.37-.07.28,0,.6,0l-.63-.13c.67-.07,1.33,0,1.23.14,2.6-.18-.65-.11.86-.43l.33.13a6.66,6.66,0,0,0,1.85-.38,15.33,15.33,0,0,1-3,.21c.2-.05.29-.11-.24-.18.93,0,.7-.1.64-.2l1.23,0a11.85,11.85,0,0,0-1.54-.13,6.81,6.81,0,0,1,1.87-.23c.19-.2-1.52.18-1.76-.05.47-.18,0-.28-.77-.45a5.32,5.32,0,0,1,1.1-.06l-1-.07a1.86,1.86,0,0,1,.47,0,15.59,15.59,0,0,1-1.56-.09c-1.35,0,2-.34.43-.46.34,0,.75,0,1.22,0a14.74,14.74,0,0,0-2.1-.31l.8-.19a11.8,11.8,0,0,1-2.91-.05l-1,.13-.66-.18a9.55,9.55,0,0,1,1.13,0l-.3,0a9,9,0,0,1,1.85-.05l-.75.1c.74,0,1.57,0,2.28,0a1.15,1.15,0,0,1-.33-.06h.51c.12,0-.15,0-.46-.05l1.36-.1h-.54l.84-.3a22.69,22.69,0,0,1-4-.51c1,0,1.63-.06,2.82-.1-1.25.14.54.21.29.39a2.37,2.37,0,0,1,.9-.08l-1.16-.24a2.68,2.68,0,0,0,1.13-.19c-1.92.14-1.29-.16-1.89-.25.65,0,1.31,0,1.16.11,1.43-.22-2.26-.1-1-.3,0,0-.08,0,.24,0-.57,0-.13-.27.43-.25l0,0c.21-.24,0-.7-1.65-.65l2.29-.08-5.49-.11c1.4,0,4.72-.36,5.52-.21.19-.07.42-.15-.08-.24a16.13,16.13,0,0,1-2.14.16c1.54-.22.82-.14,2.14-.39a11.88,11.88,0,0,1-2.43,0c.33,0,2.16-.13,2.39-.11l-2.16-.09a21.09,21.09,0,0,0,2.43-.18c-.42,0,0-.2-.19-.25l-.49.13c.31-.27-3-.06-2.94-.31a19.72,19.72,0,0,0,3-.24c-1.11,0-5.32.08-6.18-.08l.63-.08-.73-.11c1.67,0,5.17,0,6.54.12.49-.12.74-.07.67-.21a1.6,1.6,0,0,1,.94.06l.36-.35c-1.29.1-1.3-.17-2.38-.08l1.36.26c-1.28.1-3.66,0-3.45-.2.51-.1,2.29-.12,2.72-.15-.45,0-.86-.16-.55-.2l.69,0c.48-.16-1.71-.09-.5-.33.08-.06,1.64-.28.88-.24-1.46.2-6,.53-7.09.56.09,0,1.38-.38,2.1-.49,1.14-.17,2.74-.07,3.73-.21a8.69,8.69,0,0,1-.93,0c.29-.08,1.09-.05.92-.16-1.3.07.09-.26-1.11,0-.38-.09.26-.15.2-.28a18.61,18.61,0,0,1-3.26,0c.34,0,.76-.08,1-.11.1-.25.68-.42.67-.65a7.08,7.08,0,0,1,1.25-.18c-.23,0-.67,0-.71-.08,1.11-.22.19.14,1.53-.07a5.77,5.77,0,0,1-1.54-.15c-1.16.13-.2.24.28.3a17.39,17.39,0,0,1-4.08-.06c-.42-.15,1-.17.8-.18.25-.37-2.84-.05-1.7-.43,1-.21,2-.19,2.78-.28.4.12-.63.29-.58.39l.47-.17c.35,0,.62.09.32.17.92-.17.13-.6,1-.94a4.22,4.22,0,0,0-1.12,0l.15.07c-.82.15-1.16,0-1.54.09-.59-.06-1.51-.1-1.06-.3l1.16-.14c-.34,0-.68.17-.32.18-.53,0,1.56-.39,0-.32l-.8.19c-.6-.06-1.85-.08-1.5-.25-1.15.17.14,0-1.2.25,1.67-.25,0,.36,1.71,0-1.56.25-.65.24-2,.49.39,0,.73-.11.55,0h.36c.06,0,.07,0,0,0l.58-.11a5.61,5.61,0,0,1,1.35.18c-.18.09-.45,0-.86.09l.7,0a7,7,0,0,1-1.93.19l0,.15c-.48.13-.66.27-.29.31-.18.08,1,.09.29.09l.55.18-.22,0c-.09.23,1.46.34-.06.73.22.06.49.11.26.26l-.74.08c.26.08-.72.35.05.33-2,.26-.4.51-.74.7l1-.06c0,.12.24.21.64.33l.85-.07c.71.08-.58.37-.48.57-.33,0-.25,0,0-.1-1.92.36,1.44.41,0,.72.32,0,.21.08,0,.13h0v0l-.45.11.46-.09s.13.09.35.14l-.92.08,0,0c-.33.08.44,0,1.13-.06a4.15,4.15,0,0,0,.56,0c-1.48.14.52.14-1.07.3a10.8,10.8,0,0,0,2.23.22c-.21,0-.31,0-.32,0-.18.08-.37.16.1.2l-1.17.1,1.58.06a7.49,7.49,0,0,1-2,.15c1.4.15.53.15,1.92.27l-.76,0c0,.06,1,.12.43.19-1.44.23-.17.76-1.48,1.21,2.22-.17-1,.22.73.16a6.33,6.33,0,0,1-1.28.07c.52.17-.83.33.64.4-.53.05-.78,0-1.09,0,.11,0,.46,0,.15.07a2.85,2.85,0,0,1-.68,0,11.37,11.37,0,0,0,3.25.11c-.72.13-.61.18.39.21a2.67,2.67,0,0,1-1.2,0c-.07.07-.72.45.51.42-.31,0-.09.1,0,.11-.07.17-.18.18,0,.33l.19,0c1.48,0,.34.12.52.24h-.15c-1.06.32.51.11-.7.43l.92,0c2,0-1.16.28-.4.42l.52-.07c.68.08-2.68.32-2.92.41a1.06,1.06,0,0,1-.41,0c-1.16.26,1.21,0,1.49.17a8.87,8.87,0,0,0-1.77.11c-.52.07,2.12.3.88.48a5.25,5.25,0,0,1,1.37,0c.18.12-1.88.37-.31.46l-.39,0a5.86,5.86,0,0,0,1.54.34c-3.17.13,1.55.58-1.38.61l.16.29h-.29c-.2.19.5.25,1.21.31a2.24,2.24,0,0,1-.63,0c-.59.28-.46.31,1,.53l-.94,0c.55.06-1.49.4-.39.67a3.31,3.31,0,0,1-.42,0c1.12.31-2.64.71.82.84l.85.2c.27-.25,1.5.06,2.08,0,.2.11-1,.26-1.23.13l.18,0c-1.81-.06-.65.32-1.87.3.08.52-.92,1-1,1.47l1.4,0-.08.17c-.33,0-1.1,0-1-.08-.79,0,.66.21,1,.22-.58.22-1.63-.13-1.67,0l.1.09h.17c.57.09,1.17.11,1.1.25-.28.08-.86,0-.92.06s-.14,0,0,0l-.12.21,1.1-.06c.55.11-.06.2,1.2.13-1.94.1-.72.77-1.32.84.8.15.78.28.68.44.23,0,1.48,0,1.32.12-2.56-.14-1.12.21-3,.26,1.22-.06.29.4,2,.31a13.76,13.76,0,0,1-1.57,0c1,.32-.67.58-.35.93a8.54,8.54,0,0,1,1.35.08l-1.69.1c.17.07,1.94.15.77.22a3.23,3.23,0,0,1,.82,0c-1.67.57,1.27,1.43-1.85,1.92.66-.05.72,0,.74.08s.83,0,1.29.07L715,599c1.26.12.07.3,1.27.41l-.21-.11c1.42.21,3.18,0,5,.16-1.61-.23,2.43-.22.12-.58.37,0,.59.08,1,.07-.78-.1-.94-.18-.58-.29l.19,0c-.17-.37.62-.48,1.15-.86l-.9,0a2.06,2.06,0,0,1,.64-.11c-1.37-.17-.09.24-1.6.07,1.84,0,0-.61,2.15-.59,0-.13-1,0-1-.14h.57l-.73-.07a4.64,4.64,0,0,1,1.31-.07s.14.06.18.09c.67-.09-.22-.33,0-.36l-.35.11c-.52-.39.25-.81-.89-1.21h-.43c-.79-.29.47-.19.12-.5h.1c-.43-.07-.64-.16-.59-.24.5.09,1-.11,1.53,0a7.75,7.75,0,0,0-2.24-.41l.71,0c-.64-.08-1-.1-1.16-.25.61.14,1.09-.06,1.89.09,1.56-.26-1.56-.5.72-.58-2-.19-1.1.24-1.52.15-.64,0-1.47-.16-1.27-.25s2.52-.1,2.49-.35c0,0,.14,0,.13.05.5-.08-.68-.2.14-.29-1.19-.09.07-.15-1.44-.2l.34.23c-.39-.13-2.16-.29-1.3-.48a6.82,6.82,0,0,1,.93.14c.45-.06-.29-.13.17-.18,1.52,0,.32.28,1.48.44.64,0-1.1-.28.55-.18-2.09-.14.26-.24-1.33-.44l.91,0c-.14,0-.57-.1-.54-.15l1.17.11c-1-.15.89-.25.34-.39,0,.28-1.09,0-1.76.15-1.21-.36,2.38-.16,1.95-.55.13.06-.55.19-1,.1a4.07,4.07,0,0,1,1-.2c-.19-.25-.94,0-1.5-.08,1.11-.08-.45-.13-.8-.25h.92c.6-.28-1.92-.09-1.2-.34l1.28.12-.33-.14,1,0c-.78-.16-.58-.2-.28-.34a4.26,4.26,0,0,1-1.71-.16c.55-.08.88,0,.75-.13.58,0,1.31.09.45.17l.88,0c.63-.09.15-.23.14-.3a.37.37,0,0,1-.22.07l-1.28-.27a3.72,3.72,0,0,1,.9,0c-.1-.05-.52-.09-.6-.17a9.93,9.93,0,0,1,1.88.13l-.84-.25a10.25,10.25,0,0,1,1.18-.1c.44-.14-1.46-.34-.88-.52a1.51,1.51,0,0,1-.39-.07c.17-.17,1.09-.33.06-.53l1.35-.13c-.31-.15-1.7.17-2.21-.09s1.15-.08,1.52-.15c-.68-.09-2.06-.24-1-.42C723.87,587.58,723.67,587.63,723.77,587.68Zm-.63-2c.2,0,.8.09.25.13C722.33,585.83,722.84,585.79,723.14,585.72Zm-2.31-2.92c.31,0,.16.07-.19.13C720.56,582.9,720.59,582.86,720.83,582.8Zm-6.93-7.65h0C713.59,575.26,713.73,575.22,713.9,575.15Zm.38-.21a2.43,2.43,0,0,0-.38,0c.23,0,.25,0,.19.08C714.33,575,714.49,575,714.28,574.94Zm1,18.07.24,0C715.75,593.07,715.51,593,715.24,593Z"/><path class="cls-9" d="M722.11,583.09l-.51,0A1.79,1.79,0,0,0,722.11,583.09Z"/><path class="cls-9" d="M724.26,588.91h0Z"/><path class="cls-9" d="M722.31,577a2.71,2.71,0,0,1-.47.11A1,1,0,0,0,722.31,577Z"/><path class="cls-9" d="M712.63,574.21l.25.08s.15-.09.3-.13A2.26,2.26,0,0,1,712.63,574.21Z"/><path class="cls-9" d="M718.24,572.71c-.12,0,0,0-.14,0l-.42.05A.71.71,0,0,0,718.24,572.71Z"/><path class="cls-9" d="M715.68,573.81c.78-.08.51-.12.36-.18,0,0,0,0,0,0C715,573.72,715.32,573.77,715.68,573.81Z"/><path class="cls-9" d="M716,573.61s-.06,0,0-.07C715.55,573.58,715.89,573.58,716,573.61Z"/><path class="cls-9" d="M713.75,574.78c.2-.06-1,.07-.68,0C712.08,574.85,714.29,574.93,713.75,574.78Z"/><polygon class="cls-9" points="718.23 573.51 717.27 573.63 718.05 573.6 718.23 573.51"/><path class="cls-9" d="M717.58,574.18l.26-.15a1.17,1.17,0,0,1-.33,0C717.48,574.11,717.3,574.21,717.58,574.18Z"/><path class="cls-9" d="M717.51,574s0-.08-.17-.08C717.35,574,717.39,574,717.51,574Z"/><polygon class="cls-9" points="718.53 573.65 718.33 573.7 718.27 573.8 718.53 573.65"/><path class="cls-9" d="M717.51,575.52l.29.11c.33,0,.53-.07.39-.11A2.56,2.56,0,0,0,717.51,575.52Z"/><path class="cls-9" d="M720.1,574.88a6,6,0,0,1-.72.13l1.18-.1Z"/><path class="cls-9" d="M720.41,575.26c.33,0,1,.12.87,0C721,575.22,720.67,575.11,720.41,575.26Z"/><polygon class="cls-9" points="719.07 577.42 719.05 577.39 717.11 577.53 719.07 577.42"/><path class="cls-9" d="M723.85,578.93c.45-.19-1.21,0-.63-.15-.47,0-.47.15-.87.14A3.47,3.47,0,0,0,723.85,578.93Z"/><path class="cls-9" d="M722.35,578.92l-.3,0Z"/><polygon class="cls-9" points="714 599.09 713.58 599.16 714.24 599.14 714 599.09"/><path class="cls-9" d="M715.43,599.37l-1.24,0,1.12.13C715.25,599.42,715.15,599.37,715.43,599.37Z"/><path class="cls-9" d="M725.64,585.37h-.3c-.32,0-.35,0-.39.1Z"/><polygon class="cls-9" points="724.74 586.83 724.76 586.81 723.64 586.87 724.74 586.83"/><path class="cls-9" d="M726.19,588s-.21-.1-.16-.15C726.23,588,724.78,588.06,726.19,588Z"/><path class="cls-9" d="M739.09,562.73c.18.07.15-.73.18-.87C738.92,562,739.11,562.94,739.09,562.73Z"/><path class="cls-9" d="M736.91,565l-.1-.31a7.9,7.9,0,0,0,.07.85A4.89,4.89,0,0,1,736.91,565Z"/><path class="cls-9" d="M735.41,566c.52.46.56.34.59.11s0-.57.28-.46l.21.24c-.16-.33-.31-.67-.45-1C735.72,565.25,735.83,566.11,735.41,566Z"/><path class="cls-9" d="M732.6,564.63c.45.3.19.48.3-.08l-.14,0A.38.38,0,0,1,732.6,564.63Z"/><path class="cls-9" d="M732.76,564.5c.13-.2-.43-.19,0,0Z"/><path class="cls-9" d="M732.4,565.41c-.07-.16-.15-.32-.21-.49-.29-.15-.49,0-.62-.21C731.62,565.08,731.91,565.21,732.4,565.41Z"/><path class="cls-9" d="M733.08,566.18,733,566C732.87,565.91,732.81,565.91,733.08,566.18Z"/><path class="cls-9" d="M732.8,565.51c.05.16.12.31.18.46s.55.37-.05-.18C733.24,566,733,565.77,732.8,565.51Z"/><path class="cls-9" d="M733.06,565.52c.32.07.57.07.79.55C734,565.62,733.22,565,733.06,565.52Z"/><path class="cls-9" d="M736.31,567.07l.36.21q-.1-.19-.21-.42C736.57,567.07,736,566.76,736.31,567.07Z"/><path class="cls-9" d="M731,566.22c.25.16.71.34,1,.51l-.21-.3A1.94,1.94,0,0,1,731,566.22Z"/><path class="cls-9" d="M732.05,566.73l.31.45C732.51,567,732.33,566.89,732.05,566.73Z"/><path class="cls-9" d="M734.29,567.1c-.22-.3-.43-.6-.63-.92.19.34.39.66.6,1Z"/><path class="cls-9" d="M730.56,567l-.54-.42.8.66Z"/><path class="cls-9" d="M730.42,567.52c-.46-.32-.9-.3-1.17-.53,0,.18.4.5.75.77C729.83,567.56,729.94,567.46,730.42,567.52Z"/><path class="cls-9" d="M730.51,568.17a6.32,6.32,0,0,0-.51-.41A2.31,2.31,0,0,0,730.51,568.17Z"/><path class="cls-9" d="M732.07,567.42a2.62,2.62,0,0,0-.82-.25l.77.31Z"/><path class="cls-9" d="M732,567.49h0a.84.84,0,0,1-.12.13Z"/><path class="cls-9" d="M732.08,567.4v0C732.14,567.45,732.17,567.46,732.08,567.4Z"/><path class="cls-9" d="M733.37,567.14a2.54,2.54,0,0,0,1.32,1A9.92,9.92,0,0,1,733.37,567.14Z"/><path class="cls-9" d="M733,567.81l.27-.09a3.3,3.3,0,0,1-.65-.39Z"/><polygon class="cls-9" points="733.21 568.02 733.02 567.81 732.93 567.84 733.21 568.02"/><path class="cls-9" d="M731.35,568.17c.28.23.27.33.28.44a.47.47,0,0,0,.37-.2C731.77,568.29,731.37,568.05,731.35,568.17Z"/><path class="cls-9" d="M731.74,567.88l0,0C731.84,567.93,731.87,567.94,731.74,567.88Z"/><path class="cls-9" d="M731.3,569.38l.14,0-.13,0Z"/><path class="cls-9" d="M732.14,568.46c.18,0,0-.14-.18-.29a.36.36,0,0,1,0,.24C732.1,568.47,732.17,568.5,732.14,568.46Z"/><path class="cls-9" d="M730.75,568.57c.17,0,.32.06.46.07C731,568.58,730.56,568.47,730.75,568.57Z"/><path class="cls-9" d="M731.56,567.84l0,0C731.36,567.76,731.44,567.8,731.56,567.84Z"/><path class="cls-9" d="M731.56,567.84a2.42,2.42,0,0,0,.4.33,1.2,1.2,0,0,0-.19-.26Z"/><path class="cls-9" d="M736,571.67c-.7-.31-1.28-.74-.47-.55a25.79,25.79,0,0,0-4.13-1.7,3.52,3.52,0,0,1,.94.57,4.43,4.43,0,0,1,1.6.47c.28.33-.31,0-.72,0,.9.3,1.17.77,2.47,1.27l-.39-.34A5.35,5.35,0,0,0,736,571.67Z"/><path class="cls-9" d="M731.62,569.2l-.06-.1a4.67,4.67,0,0,1-1-.21,3.75,3.75,0,0,0,.78.48l.22-.24Z"/><path class="cls-9" d="M731.66,568.85a11.11,11.11,0,0,0,1.86.92c0-.19-.58-.4-.85-.66,0,.41-.38-.28-.92-.23a.44.44,0,0,1-.12-.27,1.8,1.8,0,0,1-.42,0h.06c.1,0,.16,0,.1,0h0l.28.14c-.19,0-.2-.07-.28-.14l-.11-.05h0l.3.45C731.69,569.09,731.7,569,731.66,568.85Z"/><path class="cls-9" d="M736.12,569.19l-.17-.09C736,569.17,736.09,569.21,736.12,569.19Z"/><path class="cls-9" d="M735.63,569c-.09-.07-.37-.26-.25-.28a2.26,2.26,0,0,1,.57.34,1.67,1.67,0,0,0-.84-.53l.08.08a5.87,5.87,0,0,1-1.38-.45C734.48,568.53,735,568.75,735.63,569Z"/><path class="cls-9" d="M733.85,569l.24.43.71.18-.39-.18C734.62,569.33,734.13,569.13,733.85,569Z"/><polygon class="cls-9" points="730.91 569.24 730.12 568.87 731.2 569.48 730.91 569.24"/><polygon class="cls-9" points="730.88 569.57 730.19 569.26 730.58 569.52 730.88 569.57"/><path class="cls-9" d="M733.88,589l.19.12A.76.76,0,0,0,733.88,589Z"/><path class="cls-9" d="M734,588.51l-.35-.11A1.52,1.52,0,0,0,734,588.51Z"/><path class="cls-9" d="M728,576.79c-.7-.16-1.77-.43-1-.14l.79.26C727.75,576.79,727.86,576.77,728,576.79Z"/><path class="cls-9" d="M731,583.41l.25.05-.73-.31Z"/><path class="cls-9" d="M734.21,584.54l-.54,0A2.5,2.5,0,0,0,734.21,584.54Z"/><path class="cls-9" d="M734.13,591.63l.81.26C735,591.77,734.54,591.73,734.13,591.63Z"/><path class="cls-9" d="M729.92,572.65c-.34,0-.49,0-.55,0C729.85,572.75,730.55,572.94,729.92,572.65Z"/><path class="cls-9" d="M725.4,586.51a1.84,1.84,0,0,0,.47.19A1.36,1.36,0,0,0,725.4,586.51Z"/><path class="cls-9" d="M729.27,572.91l.2,0c-.1-.12-.18-.22-.1-.27C729,572.6,728.77,572.61,729.27,572.91Z"/><path class="cls-9" d="M732.31,600.46l-.09,0C732.33,600.49,732.33,600.48,732.31,600.46Z"/><path class="cls-9" d="M724,603.4a.17.17,0,0,1-.07-.12C723.83,603.3,723.84,603.34,724,603.4Z"/><path class="cls-9" d="M730.05,570.59c0-.09-.08-.05,0,0Z"/><path class="cls-9" d="M733.21,571.57a2,2,0,0,0,.36.18Z"/><path class="cls-9" d="M733.82,575.47h0C734,575.51,733.94,575.51,733.82,575.47Z"/><path class="cls-9" d="M730.44,570.64a1.28,1.28,0,0,0-.26,0A1,1,0,0,0,730.44,570.64Z"/><path class="cls-9" d="M730.07,570.5l.1,0C730.05,570.42,730,570.39,730.07,570.5Z"/><path class="cls-9" d="M730.06,570.69s.05-.06.12-.07l-.13,0A.25.25,0,0,1,730.06,570.69Z"/><path class="cls-9" d="M730.51,595.36h-.08C730.76,595.47,730.71,595.44,730.51,595.36Z"/><path class="cls-9" d="M735.54,581.39l0,0h0Z"/><path class="cls-9" d="M736.05,581.81c-.94-.44-.8-.45-.57-.45l-2.28-.74Z"/><path class="cls-9" d="M733.83,590.1l.76,0c1.15.47.7.49,1.76.61-2.52-.64-.12-.62-2.63-1.28l.55,0s.12.06.09.08c1.25.12-1.79-.61-1.36-.77a1.72,1.72,0,0,1,.88.14l-.58-.36c.07,0,.5.09.44.13l-.13-.34.08,0c-.39-.15-1-.41-1.22-.53.38,0,.26.11.58.18l-.57-.33c.67.11,1.26.42,1.14.51,2.55.53-.59-.31,1-.23l.28.24a7,7,0,0,0,1.9.12,13.23,13.23,0,0,1-2.9-.64c.2,0,.31,0-.17-.27.89.25.7.09.68,0l1.18.35a11.33,11.33,0,0,0-1.42-.61,5.84,5.84,0,0,1,1.86.32c.25-.16-1.51-.27-1.65-.6.5,0,.06-.32-.58-.76.44,0,.71.24,1.06.3l-.9-.4a1.53,1.53,0,0,1,.46.12,13.56,13.56,0,0,1-1.44-.62c-1.28-.44,2,.27.58-.38.35.06.71.25,1.17.38a13.72,13.72,0,0,0-1.85-1.07l.83.06a9.23,9.23,0,0,1-2.71-1.09l-1-.19-.55-.46a7.17,7.17,0,0,1,1.07.39l-.27-.13a6.92,6.92,0,0,1,1.75.59l-.75-.15a19.41,19.41,0,0,0,2.14.81.8.8,0,0,1-.28-.18,3.31,3.31,0,0,0,.47.18c.13,0-.12-.08-.41-.22l1.32.37-.52-.18.92,0c-1.24-.65-3.08-1.49-3.49-2,.92.41,1.54.54,2.66.93-1.22-.3.41.45.11.55a2,2,0,0,1,.86.24l-1-.7a2.15,2.15,0,0,0,1.13.21c-1.84-.55-1.13-.66-1.64-1,.61.21,1.22.45,1,.57,1.43.29-2-1-.83-.75,0,0-.1,0,.21.16-.51-.29,0-.37.51-.13v0c.3-.19.29-.8-1.22-1.4l2.14.83-5-2.34a49.83,49.83,0,0,1,5.15,2c.21,0,.46,0,0-.3a13.19,13.19,0,0,1-2-.69c1.52.37.83.17,2.15.43a9.53,9.53,0,0,1-2.24-.94c.3.13,2,.74,2.24.85l-1.93-1a15.24,15.24,0,0,0,2.3.8c-.41-.12.11-.2-.06-.34l-.51-.07c.41-.17-2.73-1.35-2.51-1.6a15.47,15.47,0,0,0,2.84,1,53,53,0,0,1-5.54-2.76l.61.18-.59-.46c1.5.73,4.62,2.33,5.82,3,.51.07.71.24.72.06a1.38,1.38,0,0,1,.82.46l.49-.22c-1.21-.45-1.09-.75-2.1-1.13l1.09.89c-1.2-.45-3.32-1.55-3-1.74.5.12,2.11.88,2.52,1-.4-.19-.7-.55-.39-.46l.59.36c.51,0-1.49-.86-.28-.59.1,0,1.61.43.91.14-1.41-.45-5.64-2.09-6.64-2.57a21.66,21.66,0,0,1,2.14.39c1.11.32,2.49,1.17,3.44,1.45a7,7,0,0,1-.82-.43c.3,0,1,.43.91.23-1.21-.5.21-.24-1-.47-.29-.28.31,0,.32-.23a13.77,13.77,0,0,1-2.9-1.49c.31.13.72.26.91.32.22-.24.83-.17.95-.43a5.69,5.69,0,0,1,1.21.38c-.2-.12-.6-.33-.59-.42,1.11.28.08.25,1.39.65a4.48,4.48,0,0,1-1.27-.91c-1.1-.41-.32.18.07.48a13.12,13.12,0,0,1-3.55-2c-.28-.38,1,.3.8.17.44-.3-2.45-1.43-1.23-1.33a23.12,23.12,0,0,1,2.59,1c.28.33-.72,0-.73.16l.51,0c.29.19.48.4.18.35.9.25.45-.62,1.37-.61a3.66,3.66,0,0,0-1-.54l.09.16c-.81-.23-1-.64-1.39-.66-.48-.36-1.26-.87-.75-.88l1.1.42c-.32-.13-.7-.15-.39.05-.45-.29,1.59.33.21-.36l-.81-.19c-.48-.36-1.56-1-1.15-1-1.09-.37.11.1-1.19-.32,1.6.56-.25.41,1.45.94-1.5-.49-.7-.05-2-.41.36.14.71.23.47.3l.3.16h0s.06,0,0,0c.17,0,.37.09.58.16.79.42.66.63,1.06.89-.21,0-.4-.21-.8-.32l.59.38c-.8-.32-1.41-.33-1.79-.72l-.12.16c-.49-.08-.72,0-.43.23-.21,0,.79.58.2.25l.37.49-.2-.08c-.21.24,1.08,1.11-.49.85.17.18.37.37.08.44l-.7-.25c.19.22-.84.09-.14.44-1.91-.62-.65.43-1.07.52l.9.36c-.11.13.09.38.38.7l.81.31c.59.41-.73.18-.75.47-.3-.14-.19-.17,0-.14-1.93-.4,1.07,1.14-.35.91.26.18.14.19-.08.16l0,0s0,0,0,0l-.47-.06a4,4,0,0,0,.46.08c0,.06.07.18.24.33l-.88-.29,0,0c-.35-.05.39.21,1,.42l.48.3c-1.41-.46.4.38-1.12-.09.7.32.4.6,1.91,1.2-.2-.07-.3-.08-.3-.13-.21,0-.41.05,0,.29l-1.11-.37,1.41.73a5.6,5.6,0,0,1-1.93-.64c1.2.75.41.4,1.62,1.1l-.71-.26c0,.09.9.57.29.41-1.43-.3-.51.87-2,.93,2.15.62-1-.09.61.48a4.8,4.8,0,0,1-1.23-.39c.41.42-.92.12.4.75-.51-.14-.71-.3-1-.37.1.06.41.23.1.16a1.93,1.93,0,0,1-.61-.3c0,.3,1.54.83,3,1.33-.73-.1-.65,0,.27.4-.49-.11-1-.19-1.13-.41-.1.07-.87.33.29.71-.3-.06-.13.1,0,.17-.13.18-.24.16-.2.4h.21c1.39.52.26.26.38.47l-.14,0c-1.13,0,.44.3-.83.31l.88.25c1.89.6-1.21,0-.54.42l.52.07c.62.3-2.67-.43-2.94-.38a.76.76,0,0,1-.37-.19c-1.21,0,1.15.38,1.35.68-.64-.13-1.57-.5-1.74-.38-.52-.06,1.9,1,.64.91a4,4,0,0,1,1.33.37c.13.21-2,0-.46.52l-.39-.07a4.4,4.4,0,0,0,1.36.87c-3.11-.67,1.29,1.15-1.55.44l.06.43-.29-.08c-.24.21.42.46,1.08.71a2.19,2.19,0,0,1-.61-.13c-.66.23-.55.3.81.92l-.94-.17c.53.2-1.57.22-.57.81a2.12,2.12,0,0,1-.41-.13c1,.63-2.77.5.6,1.3l.78.43c.33-.3,1.47.32,2.06.28.17.17-1.09.16-1.23,0h.17c-1.76-.39-.71.31-1.92.09,0,.7-1.11,1.23-1.29,1.88l1.4.12-.11.22c-.33,0-1.1-.07-1-.23-.8,0,.62.37.92.41-.61.24-1.6-.34-1.65-.25l.09.15h.16c.56.19,1.15.27,1.06.46a5.45,5.45,0,0,1-.92,0c-.1,0-.15,0,0,.07l-.15.28,1.11,0c.53.19-.09.26,1.17.27-1.94,0-.8,1-1.41,1,.79.26.75.43.64.64.23,0,1.47,0,1.31.21-2.56-.28-1.13.25-3,.27,1.23,0,.27.57,2,.46-.22.15-1-.05-1.57,0,1,.43-.7.81-.38,1.31a6,6,0,0,1,1.35.07l-1.69.2c.17.1,2,.14.77.28a2.59,2.59,0,0,1,.82,0c-.82.44-.49.93-.34,1.4s.15.93-1.37,1.47c.64-.16.71-.07.74,0a9.5,9.5,0,0,1,1.29-.07l-1.25.45c1.26,0,.1.42,1.31.4l-.22-.12c1.43.08,3.16-.39,5-.46-1.63-.09,2.39-.52.05-.69.37-.08.59,0,1,0-.79,0-1-.12-.61-.28h.19c-.2-.41.56-.61,1.09-1.06l-.91,0a1.9,1.9,0,0,1,.64-.17c-1.38-.12-.09.29-1.6.18,1.85-.13,0-.73,2.14-.78,0-.15-1,0-1-.13l.57,0-.73,0a3.92,3.92,0,0,1,1.31-.12c-.06,0,.13.07.17.09.67-.1-.22-.36,0-.4l-.35.13c-.53-.43.26-.9-.87-1.37h-.43c-.77-.37.48-.22.14-.59l.1,0c-.42-.1-.63-.21-.57-.31.49.13,1-.08,1.52.08-.81-.41-.65-.22-2.21-.59h.71c-.63-.14-1-.18-1.13-.37.59.2,1.09,0,1.88.23,1.58-.2-1.51-.7.77-.62-1.94-.39-1.12.19-1.53.05-.64,0-1.44-.3-1.23-.39,0-.12,2.52.08,2.51-.21,0,0,.13,0,.12.08.51-.05-.65-.3.18-.33-1.17-.22.09-.16-1.41-.38l.31.31c-.37-.2-2.11-.58-1.22-.72a7.15,7.15,0,0,1,.91.27c.45,0-.28-.18.19-.19,1.5.23.28.37,1.4.68.65,0-1-.45.57-.14-2-.41.31-.25-1.25-.67l.9.15c-.13-.05-.55-.18-.52-.23l1.15.27c-1-.3.92-.16.4-.39,0,.31-1.1-.1-1.77-.07-1.15-.58,2.38.14,2-.35.12.08-.57.13-1,0a3.51,3.51,0,0,1,1-.07c-.13-.31-.93-.11-1.46-.32,1.11.08-.41-.22-.74-.41l.91.16c.65-.23-1.88-.43-1.12-.6l1.24.35-.3-.21,1,.22c-.73-.31-.52-.32-.2-.43-.65-.08-1.65-.33-1.65-.49.56,0,.85.22.76,0,.56.16,1.26.35.41.28.3.06.56.15.85.21.64,0,.19-.23.2-.31s-.09,0-.23,0l-1.2-.55a3.44,3.44,0,0,1,.88.21c-.09-.08-.5-.21-.56-.31a9.18,9.18,0,0,1,1.82.51l-.77-.44a10.14,10.14,0,0,1,1.18.13c.46-.06-1.34-.68-.73-.76a1.09,1.09,0,0,1-.36-.16c.21-.16,1.14-.12.19-.58l1.34.18c-.26-.25-1.69-.21-2.12-.63s1.14.18,1.52.2c-.64-.26-1.94-.78-.82-.71C734,590,733.74,590,733.83,590.1Zm0-2.38c.17.1.72.34.19.23C733,587.61,733.52,587.71,733.84,587.72Zm-1.08-4.09c.28.12.12.13-.23.08C732.47,583.64,732.52,583.6,732.76,583.63Zm-2.29-12.08,0,0C730.13,571.54,730.28,571.56,730.47,571.55Zm.45,0a1.58,1.58,0,0,0-.35-.16c.21.11.21.16.12.19C730.92,571.6,731.09,571.64,730.92,571.5Zm-6.68,23.76.25,0C724.74,595.38,724.51,595.32,724.24,595.26Z"/><path class="cls-9" d="M733.84,584.41c-.15,0-.32-.08-.49-.14A1.38,1.38,0,0,0,733.84,584.41Z"/><path class="cls-9" d="M734,591.59h0l.16,0Z"/><path class="cls-9" d="M736.88,577.63a2.35,2.35,0,0,1-.48-.09A.82.82,0,0,0,736.88,577.63Z"/><path class="cls-9" d="M729.94,569.79l.17.23c0-.08.18,0,.32,0C730.23,569.93,729.94,569.84,729.94,569.79Z"/><path class="cls-9" d="M735.69,570.9c-.1-.06,0,0-.1-.11l-.39-.16C735.19,570.72,735.48,570.91,735.69,570.9Z"/><path class="cls-9" d="M732.82,570.87c.72.3.51.11.42,0,0,0,0,0,0,0C732.24,570.39,732.53,570.63,732.82,570.87Z"/><path class="cls-9" d="M733.22,570.8s0-.08,0-.09C732.84,570.53,733.14,570.71,733.22,570.8Z"/><path class="cls-9" d="M730.56,571c.2,0-.91-.42-.6-.32C729.06,570.29,730.94,571.48,730.56,571Z"/><polygon class="cls-9" points="735.21 571.8 734.31 571.46 735 571.81 735.21 571.8"/><path class="cls-9" d="M734.25,572.25l.31,0a1,1,0,0,1-.29-.16C734.2,572.11,734,572.14,734.25,572.25Z"/><path class="cls-9" d="M734.27,572s0-.1-.09-.18S734.18,572,734.27,572Z"/><polygon class="cls-9" points="735.39 572.11 735.18 572.08 735.08 572.15 735.39 572.11"/><path class="cls-9" d="M733.42,573.75l.19.27c.3.14.5.17.4.06A2,2,0,0,0,733.42,573.75Z"/><path class="cls-9" d="M736.05,574.28c-.2,0-.4-.12-.7-.21l1.09.46Z"/><path class="cls-9" d="M736.11,574.84c.3.15.78.59.8.37C736.61,575.07,736.43,574.8,736.11,574.84Z"/><polygon class="cls-9" points="733.75 576.67 733.75 576.63 731.93 575.91 733.75 576.67"/><path class="cls-9" d="M737.29,580.45c.51,0-1.11-.47-.5-.43-.42-.21-.5,0-.85-.22C736.35,580.09,736.07,580.05,737.29,580.45Z"/><path class="cls-9" d="M735.94,579.8l-.26-.16A1,1,0,0,0,735.94,579.8Z"/><polygon class="cls-9" points="722.93 603.98 722.53 604.15 723.18 604.02 722.93 603.98"/><path class="cls-9" d="M724.39,604.18l-1.24.11h1.12S724.11,604.22,724.39,604.18Z"/><path class="cls-9" d="M736.34,588.08l-.28-.1c-.32-.07-.35-.05-.41,0Z"/><polygon class="cls-9" points="735.01 589.41 735.05 589.39 733.95 589.15 735.01 589.41"/><path class="cls-9" d="M736.07,591.07c.06,0-.17-.16-.11-.2C736.13,591,734.71,590.76,736.07,591.07Z"/><path class="cls-9" d="M757.19,582.52a7.67,7.67,0,0,0,0-.88A3,3,0,0,0,757.19,582.52Z"/><polygon class="cls-9" points="756.55 584.39 756.54 584.06 756.49 584.87 756.55 584.39"/><path class="cls-9" d="M755.91,584.42c.18,1.36.21-.24.36.24l.05.31,0-1.1C756.15,584.05,756,584.79,755.91,584.42Z"/><path class="cls-9" d="M755.25,581.5c.08.53,0,.46.11.16l0-.13S755.29,581.54,755.25,581.5Z"/><path class="cls-9" d="M755.33,581.53c.07,0-.1-.44,0,0Z"/><path class="cls-9" d="M755,581.87l0-.49c-.06-.3-.16-.36-.15-.59A2.44,2.44,0,0,0,755,581.87Z"/><path class="cls-9" d="M755,582.88l0-.21C755,582.54,755,582.5,755,582.88Z"/><path class="cls-9" d="M755.12,582.23l0,.44c0,.22.09.66,0-.16C755.13,582.91,755.11,582.52,755.12,582.23Z"/><path class="cls-9" d="M755.21,582.43a2.08,2.08,0,0,1,.13,1C755.5,583.17,755.37,582.22,755.21,582.43Z"/><path class="cls-9" d="M756,585.83l.1.39v-.46C756.11,586,756,585.4,756,585.83Z"/><path class="cls-9" d="M754.3,581.26c0,.29.14.76.2,1.13l0-.34A3.38,3.38,0,0,1,754.3,581.26Z"/><path class="cls-9" d="M754.5,582.39l0,.51C754.57,582.94,754.55,582.71,754.5,582.39Z"/><polygon class="cls-9" points="755.21 584.38 755.25 583.32 755.18 584.4 755.21 584.38"/><polygon class="cls-9" points="753.87 581.29 753.83 580.61 753.87 581.63 753.87 581.29"/><path class="cls-9" d="M753.6,581.45c0-.56-.22-.92-.23-1.27a3.75,3.75,0,0,0,0,1C753.36,581,753.44,581,753.6,581.45Z"/><path class="cls-9" d="M753.35,581.84c0-.14,0-.38,0-.63A4.66,4.66,0,0,0,753.35,581.84Z"/><path class="cls-9" d="M754.27,582.78a5.38,5.38,0,0,0-.21-.81l.16.81Z"/><path class="cls-9" d="M754.23,582.8v0l-.09,0Z"/><path class="cls-9" d="M754.28,582.79h0C754.28,582.86,754.29,582.89,754.28,582.79Z"/><path class="cls-9" d="M754.85,583.69a4.8,4.8,0,0,0,.16,1.64C755,584.77,754.85,584.38,754.85,583.69Z"/><path class="cls-9" d="M754.48,583.79l.13.17c0-.21-.09-.52-.1-.75Z"/><polygon class="cls-9" points="754.47 584.05 754.48 583.79 754.43 583.73 754.47 584.05"/><path class="cls-9" d="M753.68,582.56c0,.36,0,.4-.08.46s.17.23.23.22C753.8,583,753.75,582.52,753.68,582.56Z"/><path class="cls-9" d="M754,582.75v0C754,582.86,754,582.89,754,582.75Z"/><path class="cls-9" d="M753,583.14l0,.14,0-.14Z"/><path class="cls-9" d="M753.87,583.38c.08.15.07,0,0-.3,0,.09,0,.14-.09.16S753.86,583.43,753.87,583.38Z"/><path class="cls-9" d="M753.25,582.24c.06.17.12.3.17.43C753.35,582.42,753.22,582,753.25,582.24Z"/><path class="cls-9" d="M753.91,582.58v0C753.86,582.37,753.88,582.45,753.91,582.58Z"/><path class="cls-9" d="M753.91,582.58a4.4,4.4,0,0,0,0,.5,1.55,1.55,0,0,0,0-.28Z"/><path class="cls-9" d="M754,588.31c-.15-.74-.19-1.45.06-.67a36.59,36.59,0,0,0-1-4.36,4.16,4.16,0,0,1,.12,1.09,6.36,6.36,0,0,1,.47,1.59c0,.41-.16-.24-.3-.62.24.91.12,1.38.45,2.73v-.5A7.43,7.43,0,0,0,754,588.31Z"/><path class="cls-9" d="M753.28,583.31l0-.1a6.25,6.25,0,0,1-.36-1,4.42,4.42,0,0,0,.09.91l.23.06Z"/><path class="cls-9" d="M753.51,583.16a12.73,12.73,0,0,0,.31,2.05c.11-.08-.05-.69,0-1.06-.16.24,0-.46-.25-.89a.39.39,0,0,1,.07-.24,2.25,2.25,0,0,1-.18-.35l0,.05h0c0,.1,0,.16,0,.1v0l0,.31c-.1-.16,0-.21,0-.31l0-.12h0l-.13.49C753.37,583.31,753.42,583.27,753.51,583.16Z"/><path class="cls-9" d="M755.16,587.1a1.62,1.62,0,0,1,0-.19C755.13,587,755.13,587.08,755.16,587.1Z"/><path class="cls-9" d="M755,586.62c0-.12,0-.45,0-.37a4.38,4.38,0,0,1,.09.66,2.74,2.74,0,0,0-.13-1V586a8.85,8.85,0,0,1-.37-1.39C754.76,585.38,754.86,585.9,755,586.62Z"/><path class="cls-9" d="M754.32,585.09l-.09.43.2.69-.07-.42C754.47,585.94,754.37,585.42,754.32,585.09Z"/><polygon class="cls-9" points="752.92 582.74 752.77 581.88 752.91 583.11 752.92 582.74"/><polygon class="cls-9" points="752.71 582.89 752.56 582.15 752.59 582.61 752.71 582.89"/><path class="cls-9" d="M747.24,595.88l.12.19A1.45,1.45,0,0,0,747.24,595.88Z"/><path class="cls-9" d="M747.46,595.76l-.24-.29A3.75,3.75,0,0,0,747.46,595.76Z"/><path class="cls-9" d="M747.29,584.83c-.37-.61-.92-1.56-.55-.8l.38.74C747.11,584.61,747.19,584.68,747.29,584.83Z"/><path class="cls-9" d="M746.64,590.88l.15.2-.4-.69Z"/><path class="cls-9" d="M748.51,593.76l-.36-.41A5,5,0,0,0,748.51,593.76Z"/><path class="cls-9" d="M746.89,597.42l.58.62S747.19,597.72,746.89,597.42Z"/><path class="cls-9" d="M750.47,583.81a1.28,1.28,0,0,0-.31-.43C750.38,583.81,750.66,584.48,750.47,583.81Z"/><path class="cls-9" d="M741.56,589.14a2.4,2.4,0,0,0,.29.41A2.24,2.24,0,0,0,741.56,589.14Z"/><path class="cls-9" d="M750,583.45l.1.17c0-.15,0-.27.09-.24C750,583.06,749.85,582.88,750,583.45Z"/><path class="cls-9" d="M743.61,600.78l-.09,0Z"/><path class="cls-9" d="M735.27,598.88a.11.11,0,0,1,0-.1C735.18,598.77,735.18,598.8,735.27,598.88Z"/><path class="cls-9" d="M751.69,582.76c0-.07,0-.09,0,0Z"/><path class="cls-9" d="M752.72,585.89c0,.09,0,.21.08.4C752.76,586.09,752.73,586,752.72,585.89Z"/><path class="cls-9" d="M751.24,588.48h0C751.3,588.62,751.29,588.6,751.24,588.48Z"/><path class="cls-9" d="M751.86,583.1a2,2,0,0,0-.12-.22A1,1,0,0,0,751.86,583.1Z"/><path class="cls-9" d="M751.75,582.73l.07.06C751.79,582.66,751.76,582.58,751.75,582.73Z"/><path class="cls-9" d="M751.63,582.82s.07,0,.11.06a.78.78,0,0,1,0-.12Z"/><path class="cls-9" d="M743.17,597.3l-.07,0C743.36,597.5,743.32,597.45,743.17,597.3Z"/><path class="cls-9" d="M750.19,593l0,0,0,0Z"/><path class="cls-9" d="M750.38,593.62c-.45-.93-.36-.84-.23-.66l-1.16-2.1Z"/><path class="cls-9" d="M747,596.45l.57.5a8.06,8.06,0,0,0,1.2,1.41c-1.76-1.91,0-.37-1.71-2.31l.4.37s.08.11.05.1c.9.86-1.2-1.45-.85-1.27a3.09,3.09,0,0,1,.62.63l-.34-.55c.06,0,.34.36.29.34l0-.26.05.06-.76-1.07c.27.26.16.22.38.47l-.34-.55c.46.49.82,1,.71,1,1.73,1.94-.36-.55.75.51l.14.3a13.21,13.21,0,0,0,1.33,1.33,25.44,25.44,0,0,1-1.93-2.25c.14.13.23.19-.06-.26.58.73.48.52.5.44l.75,1c-.17-.31-.56-.8-.86-1.26a11.55,11.55,0,0,1,1.22,1.41c.21.09-1-1.15-1-1.42.37.31.11-.13-.22-.8a10.06,10.06,0,0,1,.66.88l-.53-.83a3.85,3.85,0,0,1,.29.38c-.18-.34-.72-1-.84-1.31-.77-1.12,1.29,1.49.5.19.22.27.42.62.7,1-.46-.9-.32-.66-1-1.85l.54.6a14.59,14.59,0,0,1-1.51-2.47l-.63-.81-.23-.64a10.24,10.24,0,0,1,.61,1l-.14-.26a11.31,11.31,0,0,1,1,1.55l-.47-.6c.38.64.81,1.34,1.21,1.93a1.48,1.48,0,0,1-.14-.3,4.94,4.94,0,0,0,.27.43c.08.1-.06-.13-.21-.4l.77,1.12-.29-.46.62.62a21.51,21.51,0,0,1-1.72-3.62c.48.89.85,1.4,1.47,2.42-.71-1,.14.54-.08.38a3.54,3.54,0,0,1,.5.74l-.45-1.07a4.15,4.15,0,0,0,.67.92c-1-1.62-.54-1.16-.77-1.71.33.55.65,1.13.49,1,.83,1.19-1-2-.31-1,0,0-.08,0,.08.23-.24-.52.11-.2.36.31l0,0c.25.12.41-.22-.34-1.66.1.18.92,1.73,1.07,2q-1.2-2.47-2.32-5c.63,1.25,2.26,4.16,2.52,4.92.13.16.27.34.11-.13-.12-.17-1-1.77-1-1.9.8,1.34.45.71,1.15,1.85a16,16,0,0,1-1-2.19c.14.29,1,1.93,1.06,2.14l-.83-2c.14.36.81,1.64,1.11,2.17-.2-.37.12,0,.06-.22l-.27-.43c.29.23-1.16-2.8-.94-2.78.17.41,1.12,2.5,1.3,2.71-.43-1-2-4.9-2.21-5.76l.29.56-.15-.72c.56,1.56,1.78,4.86,2.26,6.13.26.43.32.67.38.58a2.47,2.47,0,0,1,.32.88l.32.27c-.53-1.18-.38-1.25-.81-2.23.1.43.22.88.33,1.32-.53-1.17-1.36-3.41-1.1-3.27.24.46.87,2.12,1,2.52-.16-.42-.2-.83-.07-.55l.21.66c.26.42-.53-1.63,0-.53.07.07.72,1.51.44.8-.6-1.35-2.32-5.56-2.69-6.6.06.09.75,1.22,1,1.88.48,1.05.91,2.59,1.32,3.5a8.56,8.56,0,0,1-.29-.88c.14.26.38,1,.39.84-.45-1.22.2,0-.35-1-.06-.38.17.21.24.13a21.22,21.22,0,0,1-.94-3.12c.11.31.27.71.35.9.22,0,.51.58.67.53a9.08,9.08,0,0,1,.45,1.18,3.49,3.49,0,0,1-.13-.69c.44,1-.05.19.44,1.46a6.74,6.74,0,0,1-.27-1.5c-.38-1.11-.24-.17-.16.3a18.11,18.11,0,0,1-.92-4c0-.43.38,1,.34.75.35.19-.55-2.78,0-1.74.38,1,.56,2,.78,2.68,0,.41-.35-.57-.43-.51l.24.44c.06.34.05.61-.07.34.33.87.49,0,.92.81a5.89,5.89,0,0,0-.21-1.1l0,.15c-.28-.78-.16-1.14-.35-1.49,0-.59-.16-1.51.1-1.08l.3,1.13c-.08-.33-.26-.66-.21-.3-.06-.52.58,1.5.28,0l-.28-.77c0-.6-.19-1.84,0-1.51-.31-1.12,0,.13-.4-1.17.46,1.63-.36,0,.18,1.71a17.65,17.65,0,0,0-.78-1.89c.1.38.23.71.07.55l0,.34v0l0,0c0,.05,0,.07,0,0,.07.16.14.35.21.56a6.58,6.58,0,0,1,0,1.35,8,8,0,0,1-.23-.83l.1.68a7.52,7.52,0,0,1-.53-1.86h-.15c-.21-.44-.38-.59-.35-.22-.13-.16.09,1,0,.3l-.07.58-.06-.2c-.26,0,0,1.49-.73.09,0,.23,0,.5-.19.31l-.27-.7c0,.28-.54-.59-.31.15-.79-1.84-.62-.23-.91-.5l.35.91c-.13,0-.14.29-.12.71l.33.79c.16.7-.53-.45-.68-.29-.12-.31,0-.25.08-.08-.5-.85-.48-.47-.41,0s.15.93-.24.33c.09.31,0,.22-.11,0a.1.1,0,0,0,0,0h0a3.62,3.62,0,0,0-.26-.38l.25.39a.66.66,0,0,0,0,.37l-.42-.82v0c-.2-.28.15.42.47,1,0,.15.1.32.17.53-.69-1.32.09.52-.67-.88a10.82,10.82,0,0,0,.7,2.12c-.1-.19-.16-.27-.14-.3-.14-.14-.28-.27-.12.16l-.56-1,.6,1.46a7.94,7.94,0,0,1-1-1.78c.47,1.33.09.55.6,1.84l-.36-.67c0,.06.37,1,0,.46-.82-1.19-.68.16-1.68-.81,1.23,1.87-.67-.76.23.72a6.68,6.68,0,0,1-.69-1.08c.12.54-.69-.55,0,.75-.3-.43-.38-.67-.57-.93.05.11.2.42,0,.17a2.15,2.15,0,0,1-.31-.6c-.13.19.75,1.56,1.58,2.84-.48-.55-.46-.44,0,.43-.3-.4-.64-.8-.64-1-.1,0-.75-.39-.06.63-.19-.25-.13,0-.06.1-.16,0-.23-.07-.28.1l.15.15c.81,1.23.1.33.11.54l-.09-.12c-.83-.71.22.47-.7-.35l.56.73c1.17,1.59-.88-.8-.54-.1l.36.38c.36.58-1.82-2-2-2.12a1.35,1.35,0,0,1-.21-.35c-.9-.77.73,1,.77,1.28-.43-.49-1-1.32-1.17-1.34-.38-.36,1.06,1.84.16,1a5.57,5.57,0,0,1,.87,1.06c0,.21-1.46-1.23-.51,0a2.46,2.46,0,0,1-.28-.28,5.71,5.71,0,0,0,.76,1.38c-1.08-1.16-.94-.78-.75-.39s.41.8-.59-.28l-.1.3-.2-.22c-.26,0,.18.54.63,1.08a2.61,2.61,0,0,1-.44-.44c-.59-.24-.53-.12.36,1l-.69-.65c.36.42-1.33-.77-.71.18a2.2,2.2,0,0,1-.29-.31c.31.48-.3.16-.67,0s-.52-.08.75,1.11l.52.7c.35,0,1.11,1,1.6,1.31.1.2-.93-.51-1-.71l.14.1c-1.34-1.21-.67-.2-1.6-1-.23.41-1.32.14-1.65.48l1.15.8-.15.07c-.29-.16-.92-.6-.8-.66-.68-.43.42.55.66.73-.58-.16-1.26-1-1.33-1l0,.14.14.08c.42.39.91.76.78.82a7.43,7.43,0,0,1-.8-.47c-.08-.06-.12-.07-.06,0l-.22.1,1,.57c.39.38-.16.11.92.76-.83-.51-1.08-.46-1.19-.32s0,.38-.32.25c.61.54.54.63.38.7.21.09,1.28.74,1.09.75-2.16-1.38-1.07-.39-2.7-1.25,1.1.55.06.47,1.64,1.22-.24,0-.83-.48-1.4-.71.72.71-.85.18-.71.64a9.92,9.92,0,0,1,1.19.65l-1.57-.63c.12.14,1.7,1,.61.51a3.91,3.91,0,0,1,.73.38c-.87-.1-.73.34-.72.69s-.12.62-1.67.34c.64.17.67.25.67.32.16,0,.77.31,1.2.48l-1.28-.23c1.16.51,0,.3,1.09.75l-.17-.15c1.3.6,3,1,4.72,1.69-.73-.34-.15-.18.36-.05s.92.23-.13-.29c.36.11.54.25.94.4-.71-.33-.85-.44-.49-.38l.18.08c-.09-.29.65-.08,1.23-.08l-.83-.37a2.56,2.56,0,0,1,.61.19c-1.21-.65-.14.1-1.48-.59,1.7.72.21-.36,2.11.53.05-.06-.95-.45-.9-.52l.52.24-.64-.35a6.62,6.62,0,0,1,1.2.52c-.06,0,.1.1.13.13.63.25-.11-.28.09-.2l-.34-.09c-.37-.45.4-.33-.47-1.09l-.38-.21c-.59-.55.48.12.26-.23l.09.06c-.35-.25-.5-.41-.43-.43.4.3.87.43,1.31.78A13.89,13.89,0,0,0,742,598l.61.36c-.51-.39-.8-.58-.89-.77.46.41.93.54,1.56,1.06,1.39.7-1.13-1.13.8.08-1.56-1.19-1-.48-1.32-.76-.56-.32-1.17-.89-1-.84a23.94,23.94,0,0,0,2.19,1.2s.11.09.09.1c.44.24-.48-.49.22-.07-.94-.74.11,0-1.1-1l.19.33c-.27-.29-1.65-1.42-.87-1,.24.19.54.47.7.62.38.24-.19-.24.2,0,1.21.92.16.35,1,1.11.54.34-.79-.79.51.22-1.64-1.3.29,0-.92-1l.72.56a3.3,3.3,0,0,1-.39-.4l.91.76c-.75-.68.78.41.4,0-.08.14-.89-.65-1.45-1-.82-.93,1.94,1.38,1.74.94.08.1-.5-.26-.79-.56a6,6,0,0,1,.86.55c0-.23-.73-.58-1.12-1,.88.66-.3-.35-.52-.63l.7.59c.57.25-1.43-1.28-.78-1l.93.89-.2-.28.79.7c-.54-.58-.36-.47-.09-.34a6.13,6.13,0,0,1-1.21-1.21c.44.33.63.61.61.44.41.4.93.91.27.38l.64.6c.5.38.19,0,.21,0a.5.5,0,0,1-.19-.12l-.83-1a6.59,6.59,0,0,1,.65.62,5.15,5.15,0,0,1-.37-.48,15.82,15.82,0,0,1,1.32,1.33l-.5-.67c.24.21.7.56.89.76.37.26-.92-1.14-.42-.81a3.05,3.05,0,0,1-.26-.31c.2,0,.91.64.27-.18l1,.92c-.15-.29-1.24-1.15-1.48-1.64s.82.8,1.11,1c-.43-.53-1.3-1.61-.47-.87C747.08,596.48,746.92,596.36,747,596.45Zm.52-1.24c.11.16.45.65.09.24C746.92,594.62,747.26,595,747.48,595.21Zm.31-3c.15.27,0,.16-.18-.11C747.59,592.05,747.63,592.06,747.79,592.24Zm3.57-8.61v0C751.19,583.35,751.26,583.47,751.36,583.63Zm.26.33a1.54,1.54,0,0,0-.09-.37c.05.23,0,.25,0,.2C751.57,584,751.63,584.18,751.62,584Zm-13.74,10,.22.12C738.27,594.33,738.09,594.17,737.88,594Z"/><path class="cls-9" d="M748.29,593.43,748,593A2.86,2.86,0,0,0,748.29,593.43Z"/><path class="cls-9" d="M746.79,597.31h0l.11.11Z"/><path class="cls-9" d="M752.05,592.07a3.27,3.27,0,0,1-.21-.42A1.4,1.4,0,0,0,752.05,592.07Z"/><path class="cls-9" d="M752.11,582.23l-.05.26c0-.06.1.13.16.27A2.27,2.27,0,0,1,752.11,582.23Z"/><path class="cls-9" d="M754.16,587.63c0-.12,0,0,0-.14l-.09-.42A.86.86,0,0,0,754.16,587.63Z"/><path class="cls-9" d="M752.9,585.2c.19.75.18.48.22.33h0C752.89,584.47,752.89,584.83,752.9,585.2Z"/><path class="cls-9" d="M753.13,585.5s0-.07.06,0C753.1,585,753.14,585.38,753.13,585.5Z"/><path class="cls-9" d="M751.69,583.41c.09.19-.23-1-.13-.66C751.35,581.78,751.63,584,751.69,583.41Z"/><polygon class="cls-9" points="753.53 587.68 753.29 586.75 753.43 587.51 753.53 587.68"/><path class="cls-9" d="M752.88,587.11l.17.23A2.31,2.31,0,0,1,753,587C752.93,587,752.81,586.83,752.88,587.11Z"/><path class="cls-9" d="M753,587s.07,0,0-.17C753,586.86,753,586.9,753,587Z"/><polygon class="cls-9" points="753.47 587.99 753.39 587.8 753.31 587.75 753.47 587.99"/><path class="cls-9" d="M751.78,587.23l0,.3c.09.32.17.5.17.36A3,3,0,0,0,751.78,587.23Z"/><path class="cls-9" d="M752.84,589.66c-.08-.19-.14-.39-.25-.69l.34,1.14Z"/><path class="cls-9" d="M752.65,590c.09.31.15.94.24.83A2.52,2.52,0,0,0,752.65,590Z"/><polygon class="cls-9" points="750.72 589.09 750.74 589.07 750.02 587.25 750.72 589.09"/><path class="cls-9" d="M751.46,593.86c.28.38-.5-1.1-.17-.61-.17-.43-.27-.4-.42-.77A5,5,0,0,0,751.46,593.86Z"/><path class="cls-9" d="M750.87,592.48l-.09-.28A2.34,2.34,0,0,0,750.87,592.48Z"/><polygon class="cls-9" points="734.15 598.84 733.73 598.79 734.37 598.96 734.15 598.84"/><path class="cls-9" d="M735.43,599.52l-1.17-.41,1,.45S735.16,599.44,735.43,599.52Z"/><path class="cls-9" d="M749.19,597.06l-.18-.24c-.21-.25-.24-.26-.29-.28Z"/><polygon class="cls-9" points="747.99 596.85 748.01 596.86 747.25 596.03 747.99 596.85"/><path class="cls-9" d="M748.47,598.34s-.1-.19-.05-.17C748.52,598.35,747.49,597.33,748.47,598.34Z"/><path class="cls-9" d="M633.1,557.53c0-.1-.57.46-.69.55C632.61,558,633.25,557.38,633.1,557.53Z"/><polygon class="cls-9" points="635.15 557.12 634.89 557.32 635.6 556.91 635.15 557.12"/><path class="cls-9" d="M635.8,557.88c1-1-.41-.13-.15-.58l.21-.22-.88.65C635.25,557.78,636,557.52,635.8,557.88Z"/><path class="cls-9" d="M633.88,560.18c.39-.36.42-.21,0-.2l-.09.11S633.88,560.12,633.88,560.18Z"/><path class="cls-9" d="M633.84,560.09c-.1-.05-.3.33,0,0Z"/><path class="cls-9" d="M634.37,560.26l-.45.19c-.23.23-.21.36-.41.47C633.79,560.87,634,560.65,634.37,560.26Z"/><path class="cls-9" d="M635.22,559.72l-.2.08C634.93,559.89,634.9,559.93,635.22,559.72Z"/><path class="cls-9" d="M634.6,560l.42-.15c.16-.16.5-.44-.16,0C635.18,559.59,634.86,559.82,634.6,560Z"/><path class="cls-9" d="M634.71,559.75a1.42,1.42,0,0,1,.71-.64C635.11,559,634.4,559.67,634.71,559.75Z"/><path class="cls-9" d="M636.91,557l.24-.34-.41.23C636.94,556.79,636.59,557.29,636.91,557Z"/><path class="cls-9" d="M634.34,561.35c.23-.17.57-.52.86-.76l-.32.13A2.57,2.57,0,0,1,634.34,561.35Z"/><path class="cls-9" d="M635.2,560.59l.48-.19C635.64,560.25,635.44,560.38,635.2,560.59Z"/><polygon class="cls-9" points="636.41 558.78 635.44 559.25 636.45 558.81 636.41 558.78"/><polygon class="cls-9" points="634.66 561.81 634.08 562.16 634.97 561.65 634.66 561.81"/><path class="cls-9" d="M635,562c-.48.29-.69.64-1,.8a3.33,3.33,0,0,0,1-.41C634.7,562.5,634.69,562.4,635,562Z"/><path class="cls-9" d="M635.52,562.14c-.13.05-.35.16-.58.28A3.08,3.08,0,0,0,635.52,562.14Z"/><path class="cls-9" d="M635.73,560.69a3.32,3.32,0,0,0-.58.6l.61-.55Z"/><path class="cls-9" d="M635.78,560.72l0,0a.79.79,0,0,1,0,.13S635.79,560.81,635.78,560.72Z"/><path class="cls-9" d="M635.72,560.67v0C635.79,560.63,635.81,560.61,635.72,560.67Z"/><path class="cls-9" d="M636.09,559.56a3.15,3.15,0,0,0,1.34-1A13.84,13.84,0,0,1,636.09,559.56Z"/><path class="cls-9" d="M636.48,560l0-.24a4.12,4.12,0,0,1-.6.46Z"/><polygon class="cls-9" points="636.73 559.88 636.48 559.98 636.46 560.07 636.73 559.88"/><path class="cls-9" d="M636,561.46c.32-.16.39-.12.49-.09.07-.17.08-.3,0-.37C636.26,561.15,635.87,561.4,636,561.46Z"/><path class="cls-9" d="M635.93,561.06l0,0S636,561,635.93,561.06Z"/><path class="cls-9" d="M637,562.05l.11-.1-.12.08Z"/><path class="cls-9" d="M636.59,560.9c.08-.15-.11-.06-.33.06a.29.29,0,0,1,.22,0C636.57,560.94,636.63,560.89,636.59,560.9Z"/><path class="cls-9" d="M636,562.09a3.82,3.82,0,0,0,.29-.36C636.06,561.91,635.78,562.21,636,562.09Z"/><path class="cls-9" d="M635.81,561.2h0C635.65,561.34,635.72,561.28,635.81,561.2Z"/><path class="cls-9" d="M635.81,561.2l.45-.24a1.07,1.07,0,0,0-.29.08Z"/><path class="cls-9" d="M641.32,559.13c-.62.44-1.29.7-.74.08a23.69,23.69,0,0,0-3.52,2.74,3,3,0,0,1,1-.52c.3-.29.56-.87,1.19-1.17.44,0-.11.31-.37.63.71-.63,1.27-.59,2.36-1.45l-.51.13A4.05,4.05,0,0,0,641.32,559.13Z"/><path class="cls-9" d="M636.94,561.66h-.11a4,4,0,0,1-.69.8,2.93,2.93,0,0,0,.8-.43l-.1-.32Z"/><path class="cls-9" d="M636.65,561.43a9.62,9.62,0,0,0,1.72-1.16c-.17-.13-.63.3-1,.43.35.13-.42.21-.65.67a.42.42,0,0,1-.28,0,2.31,2.31,0,0,1-.2.36l0,0h0c.08-.07.12-.11.09-.06h0l.26-.18c-.08.18-.16.14-.26.18l-.1.07h0l.54,0C636.88,561.54,636.81,561.49,636.65,561.43Z"/><path class="cls-9" d="M638.92,557.63l-.14.13C638.87,557.71,638.93,557.67,638.92,557.63Z"/><path class="cls-9" d="M638.61,558c-.1.06-.37.25-.35.13s.31-.24.52-.41a1.69,1.69,0,0,0-.79.6l.1-.05a5.82,5.82,0,0,1-.94,1.1C637.71,558.92,638.1,558.57,638.61,558Z"/><path class="cls-9" d="M637.82,559.63l.49,0,.47-.55-.33.27C638.49,559.09,638.09,559.44,637.82,559.63Z"/><polygon class="cls-9" points="636.63 562.32 635.92 562.81 636.99 562.2 636.63 562.32"/><polygon class="cls-9" points="636.92 562.52 636.3 562.97 636.72 562.76 636.92 562.52"/><path class="cls-9" d="M654.7,575.61h.23A.6.6,0,0,0,654.7,575.61Z"/><path class="cls-9" d="M654.52,575l-.35.12C654.37,575.09,654.52,575.05,654.52,575Z"/><path class="cls-9" d="M641.44,569.35c-.56.44-1.46,1.08-.72.65l.7-.43C641.26,569.57,641.31,569.48,641.44,569.35Z"/><path class="cls-9" d="M648.52,572.24l.21-.14-.75.27Z"/><path class="cls-9" d="M651.67,570.86l-.42.37A2.14,2.14,0,0,0,651.67,570.86Z"/><path class="cls-9" d="M656.69,578.49l.83-.18C657.47,578.17,657.09,578.37,656.69,578.49Z"/><path class="cls-9" d="M639.13,565.15c-.22.25-.29.39-.29.47C639.18,565.26,639.72,564.79,639.13,565.15Z"/><path class="cls-9" d="M646.4,578.6a1.53,1.53,0,0,0,.49-.12A1.4,1.4,0,0,0,646.4,578.6Z"/><path class="cls-9" d="M639,565.84l.13-.15c-.15,0-.29,0-.29-.07C638.59,565.88,638.46,566.08,639,565.84Z"/><path class="cls-9" d="M659.18,590.54l-.09.05C659.2,590.57,659.2,590.56,659.18,590.54Z"/><path class="cls-9" d="M651.48,595.29c-.05,0-.06-.07-.08-.12S651.36,595.24,651.48,595.29Z"/><path class="cls-9" d="M637.41,563.81c-.08,0-.08.05,0,0Z"/><path class="cls-9" d="M639.88,561.63l.35-.22A3.72,3.72,0,0,1,639.88,561.63Z"/><path class="cls-9" d="M643.73,563.66Z"/><path class="cls-9" d="M637.66,563.51a1.05,1.05,0,0,0-.15.21A1.7,1.7,0,0,0,637.66,563.51Z"/><path class="cls-9" d="M637.35,563.75a.44.44,0,0,0,0-.1C637.26,563.72,637.19,563.78,637.35,563.75Z"/><path class="cls-9" d="M637.51,563.86s0-.07,0-.14a.26.26,0,0,1-.1.09Z"/><path class="cls-9" d="M655.56,584.73l-.07,0C655.84,584.76,655.78,584.74,655.56,584.73Z"/><path class="cls-9" d="M650,566.9h0l0,0Z"/><path class="cls-9" d="M650.63,566.86c-1,.38-.89.26-.74.07l-2.07,1.21Z"/><path class="cls-9" d="M655.46,576.91l.62-.45c1.25-.2.91.12,1.83-.42-2.45.87-.54-.66-3,.23l.46-.32s.14,0,.13,0c1.06-.69-1.83.49-1.61,0a1.35,1.35,0,0,1,.79-.43H654c0-.09.44-.24.42-.15l-.33-.29.07,0c-.4.1-1,.22-1.3.26.31-.23.27-.06.56-.2l-.66,0c.59-.33,1.27-.41,1.23-.23,2.34-1.16-.67.08.58-.9l.38.07c1.32-.69.76-.64,1.52-1.21a9.63,9.63,0,0,1-2.66,1.35c.16-.14.21-.26-.32-.17.85-.36.59-.39.48-.51l1.14-.46a7.85,7.85,0,0,0-1.52.35c0-.22.9-.62,1.62-1,.06-.36-1.32.79-1.67.55.33-.41-.2-.38-1-.36.31-.33.7-.27,1-.47l-.95.25s.28-.15.42-.21c-.4,0-1.12.48-1.51.43-1.25.5,1.64-1.19.14-.79a11.54,11.54,0,0,1,1.12-.49,9.58,9.58,0,0,0-2.14.34l.62-.56a7.83,7.83,0,0,1-2.73,1c-.38.25-.71.46-.86.57h-.73a6.06,6.06,0,0,1,1.05-.44l-.29.07a6.16,6.16,0,0,1,1.68-.76l-.64.42a17.5,17.5,0,0,0,2.13-.85,1,1,0,0,1-.34,0,3.24,3.24,0,0,0,.46-.19c.12-.07-.14,0-.45.11l1.21-.65-.5.21.59-.74c-1.37.32-3.3,1-4,.82a24,24,0,0,0,2.55-1.22c-1.08.67.63.09.51.42.06-.17.58-.39.78-.45l-1.22.11c.88-.42.61-.4.92-.69-1.68.93-1.28.28-1.89.39.57-.3,1.18-.56,1.14-.3,1.18-.86-2.16.74-1.17,0,0,0,0,.1.27,0-.57.15-.3-.31.23-.51l0,0c0-.41-.49-1-2-.23.19-.11,1.76-.88,2.06-1q-2.57,1-5.12,2c1.26-.61,4.1-2.38,4.93-2.49.13-.17.29-.37-.23-.3a10.77,10.77,0,0,1-1.86,1.08,16.36,16.36,0,0,0,1.71-1.39,8.33,8.33,0,0,1-2.2,1c.3-.14,1.9-1.05,2.12-1.12l-2.05.75a13,13,0,0,0,2.1-1.23c-.35.23-.11-.27-.34-.25l-.37.37c.1-.49-2.82,1.16-2.9.79a12.44,12.44,0,0,0,2.57-1.56,56.3,56.3,0,0,1-5.67,2.48l.51-.37-.73.15c1.5-.72,4.73-2.1,6-2.56.36-.37.63-.41.47-.56.47-.37.84-.35.9-.31l.08-.64c-1.11.67-1.31.32-2.22.88l1.42-.2c-1.11.66-3.32,1.57-3.29,1.16.4-.33,2-1.11,2.37-1.33-.4.18-.89.14-.64,0l.67-.22c.31-.42-1.63.6-.7-.23,0-.11,1.28-1.07.63-.68-1.19.88-5.06,3.25-6,3.76a19.29,19.29,0,0,1,1.56-1.53c.91-.72,2.44-1.28,3.23-1.89a5,5,0,0,1-.85.39c.21-.23,1-.54.71-.61-1.12.66-.1-.38-1,.51-.41,0,.13-.31,0-.46a12.12,12.12,0,0,1-2.93,1.43,8.82,8.82,0,0,0,.78-.55c-.09-.37.32-.86.13-1.14a4.28,4.28,0,0,1,1-.79c-.22.08-.62.29-.7.22.83-.79.28.1,1.32-.78a4,4,0,0,1-1.5.49c-1,.69,0,.41.48.27a12.34,12.34,0,0,1-3.71,1.75c-.48,0,.8-.68.58-.59-.05-.58-2.57,1.24-1.84.24a21.33,21.33,0,0,1,2.28-1.62c.44,0-.35.65-.23.75l.3-.43c.32-.13.62-.15.41.08.69-.64-.34-.82.14-1.64a3.08,3.08,0,0,0-1,.53l.19,0c-.61.57-1.08.47-1.3.82-.58.21-1.43.59-1.19.14l.93-.72c-.27.2-.48.53-.15.37-.48.23,1.08-1.22-.23-.4l-.56.61c-.58.21-1.7.78-1.52.41-.88.75.14,0-.88.87,1.29-1.09.24.45,1.56-.75-1.19,1-.39.59-1.37,1.52.31-.23.56-.48.5-.24l.3-.17v0l0,0s.06,0,0,0a4.31,4.31,0,0,1,.43-.41c.77-.45.91-.21,1.34-.4-.1.19-.39.22-.7.5l.64-.28c-.69.5-1,1-1.57,1.13l.09.2c-.33.37-.39.62,0,.5-.1.18.93-.33.32,0l.63,0-.18.12c.09.32,1.56-.23.47.92.24,0,.53-.08.42.21l-.61.44c.3,0-.41.75.28.38-1.62,1.2,0,.8-.19,1.19l.83-.5c0,.18.36.17.81.14l.72-.45c.7-.21-.26.71,0,.92-.29.15-.26,0-.11-.11-1.51,1.28,1.58-.08.51.91.31-.09.25,0,.09.17h-.05s0,0,0,0-.24.21-.34.32c.16-.14.3-.25.35-.31a.64.64,0,0,0,.42,0l-.79.49h0c-.26.24.41-.15,1-.53a4.69,4.69,0,0,0,.55-.17c-1.26.79.55,0-.78.82.7-.32.73.11,2.18-.63-.18.1-.26.18-.29.14-.11.18-.23.36.21.22l-1,.59,1.49-.55a4.88,4.88,0,0,1-1.76,1c1.37-.36.58,0,1.92-.41l-.68.34c.08.07,1.05-.26.52.09-1.18.86.34,1-.62,2.16,2-1.09-.79.67.78-.07a4.6,4.6,0,0,1-1.15.58c.59,0-.57.75.82.29-.46.26-.72.28-1,.44.11,0,.45-.12.18.05a1.9,1.9,0,0,1-.64.21c.2.22,1.68-.45,3.07-1.08-.59.44-.46.46.49.14-.43.26-.87.55-1.11.46,0,.13-.39.87.72.38-.27.15,0,.16.12.13,0,.24-.06.31.14.47l.15-.14c1.39-.52.38,0,.61.13l-.14.06c-.8.82.54,0-.41.83l.84-.38c1.83-.75-.93.8-.14.72l.45-.28c.68-.14-2.33,1.38-2.51,1.59a.74.74,0,0,1-.4.08c-.94.76,1.13-.43,1.49-.3-.59.29-1.55.58-1.6.78-.45.27,2.14-.35,1.07.34a3.76,3.76,0,0,1,1.28-.5c.23.11-1.58,1.15,0,.73a2,2,0,0,1-.36.17,4.37,4.37,0,0,0,1.63-.05c-2.93,1.25,1.76.27-1,1.29l.3.35-.29.09c-.09.32.6.18,1.29,0a1.67,1.67,0,0,1-.58.22c-.43.58-.3.57,1.19.41l-.89.35c.56-.09-1.22,1,0,1a3.26,3.26,0,0,1-.42.1c1.22.07-2.19,1.79,1.15.9l.9,0c.15-.44,1.45-.39,2-.71.24.09-.88.69-1.1.56l.16-.08c-1.75.47-.47.64-1.65,1a1.72,1.72,0,0,1-.09,1.17,2.57,2.57,0,0,0-.26,1.17l1.33-.45,0,.26c-.3.14-1,.37-1,.19-.75.29.71.1,1,0-.46.47-1.61.29-1.62.4l.14.11.15-.07c.58,0,1.17-.19,1.16,0-.24.2-.82.28-.86.35s-.14.05,0,.08l0,.32,1-.39c.57,0,0,.3,1.2-.15-1.81.67-.4,1.28-1,1.55.82,0,.85.18.81.43.21-.1,1.42-.42,1.31-.18-2.52.49-1,.61-2.77,1.16,1.17-.4.43.49,2.07-.1-.16.21-.93.21-1.49.46,1.07.18-.47,1,0,1.39a7.54,7.54,0,0,1,1.33-.23l-1.6.58c.18.06,1.92-.28.81.11a2.4,2.4,0,0,1,.8-.15c-.72.63-.28,1,0,1.5s.28,1-1.17,1.68c.62-.23.7-.15.74-.06a9.19,9.19,0,0,1,1.27-.2l-1.19.59c1.27-.11.15.42,1.36.29l-.24-.1c1.45,0,3.11-.68,4.93-.92-1.64,0,2.3-.89,0-.89.36-.13.59,0,1-.13-.79,0-1,0-.65-.29H658c-.27-.51.47-.87.87-1.57l-.89.2c.1-.15.37-.22.59-.32-1.39.09,0,.37-1.53.5,1.78-.49-.15-.91,1.89-1.41,0-.2-1,.26-1,.05l.54-.16-.72.09a3.2,3.2,0,0,1,1.24-.45c-.05,0,.15.07.2.09.63-.29-.32-.44-.11-.54l-.31.26c-.63-.44,0-1.27-1.27-1.55l-.41.13c-.87-.22.38-.41-.07-.77h.1c-.44,0-.67-.06-.65-.19.51,0,.9-.42,1.47-.4-.92-.25-.7-.07-2.31,0l.68-.22c-.65,0-1,.12-1.21,0,.63,0,1-.39,1.85-.38,1.4-.84-1.68-.3.47-1.06-2,.27-1,.65-1.4.64-.6.25-1.47.19-1.31,0,0-.15,2.37-.86,2.23-1.22,0,0,.15,0,.15,0,.45-.26-.73-.09,0-.47-1.17.21,0-.24-1.46.13l.43.24c-.44-.09-2.2.2-1.45-.33a5.52,5.52,0,0,1,.95-.07c.41-.2-.33-.09.09-.31,1.47-.37.42.32,1.59.22.6-.26-1.16-.1.45-.42-2.05.4.16-.44-1.44-.26l.88-.23c-.15,0-.59,0-.59,0l1.18-.19c-1,.07.74-.63.16-.68.13.4-1,.39-1.62.75-1.31-.16,2.21-.94,1.62-1.39.14,0-.44.44-.88.44a2.88,2.88,0,0,1,.87-.6c-.29-.32-.88.32-1.46.33,1-.45-.49-.06-.87-.11l.88-.27c.44-.59-1.88.45-1.31-.13l1.28-.22-.38-.1,1-.27c-.81,0-.64-.11-.42-.4-.61.24-1.61.47-1.69.3.48-.29.85-.2.65-.42.57-.12,1.28-.27.5.1.29-.08.57-.12.86-.19.56-.33,0-.39,0-.49a.3.3,0,0,1-.17.17l-1.34,0a2.47,2.47,0,0,1,.87-.25c-.12,0-.54,0-.65-.05a6,6,0,0,1,1.84-.4l-.91-.11a7.28,7.28,0,0,1,1.06-.51c.35-.34-1.55,0-1.09-.48a1.15,1.15,0,0,1-.41,0c.08-.31.87-.84-.2-.79l1.21-.62c-.37-.13-1.52.8-2.13.58s1-.49,1.36-.71c-.69.09-2.06.34-1.13-.29C655.5,576.73,655.33,576.87,655.46,576.91Zm-1.65-2.59c.2,0,.8-.14.31.11C653.11,574.76,653.57,574.52,653.81,574.32Zm-3.87-3.22c.3-.09.19,0-.1.25C649.75,571.33,649.76,571.26,649.94,571.1ZM638.47,564l0,0C638.27,564.3,638.37,564.18,638.47,564Zm.19-.43a1.77,1.77,0,0,0-.32.21c.2-.12.24-.08.22,0C638.75,563.65,638.87,563.53,638.66,563.59Zm11.1,23.52L650,587C650.26,587,650,587.07,649.76,587.11Z"/><path class="cls-9" d="M651.3,571a3.61,3.61,0,0,1-.44.23A1.17,1.17,0,0,0,651.3,571Z"/><path class="cls-9" d="M656.54,578.53h0l.16,0Z"/><path class="cls-9" d="M647.38,562.61a2.27,2.27,0,0,1-.35.34C647.22,562.83,647.37,562.71,647.38,562.61Z"/><path class="cls-9" d="M636.64,563.47l.29,0c-.08,0,.07-.17.16-.28C636.92,563.3,636.68,563.5,636.64,563.47Z"/><path class="cls-9" d="M640.43,559c-.1,0,0,0-.14,0l-.34.26C640,559.31,640.35,559.16,640.43,559Z"/><path class="cls-9" d="M639,561.55c.63-.46.35-.39.17-.39,0,0,0,0,0,0C638.33,561.79,638.68,561.67,639,561.55Z"/><path class="cls-9" d="M639.17,561.15s-.08,0-.07-.07C638.74,561.33,639.05,561.17,639.17,561.15Z"/><path class="cls-9" d="M638.07,563.63c.13-.15-.83.55-.59.34C636.64,564.49,638.65,563.57,638.07,563.63Z"/><polygon class="cls-9" points="641.06 559.97 640.31 560.57 640.97 560.17 641.06 559.97"/><path class="cls-9" d="M641,561.11l.11-.3a.79.79,0,0,1-.29.15C640.88,561.07,640.79,561.28,641,561.11Z"/><path class="cls-9" d="M640.84,561c0-.06-.07-.09-.22,0A.31.31,0,0,0,640.84,561Z"/><polygon class="cls-9" points="641.44 560 641.31 560.17 641.33 560.31 641.44 560"/><path class="cls-9" d="M642,562.83h.34c.29-.17.42-.32.27-.31A1.9,1.9,0,0,0,642,562.83Z"/><path class="cls-9" d="M643.81,560.85a6.13,6.13,0,0,1-.55.49l1-.67Z"/><path class="cls-9" d="M644.37,561.19c.29-.17,1-.27.75-.45C644.84,560.9,644.49,560.88,644.37,561.19Z"/><polygon class="cls-9" points="644.76 564.59 644.72 564.55 643.07 565.58 644.76 564.59"/><path class="cls-9" d="M650.19,564.61c.28-.45-1.08.54-.69,0-.43.18-.32.4-.69.54C649.3,565.09,649.1,565.3,650.19,564.61Z"/><path class="cls-9" d="M648.81,565.2l-.3.08A1.41,1.41,0,0,0,648.81,565.2Z"/><polygon class="cls-9" points="650.53 595.97 650.15 596.16 650.78 595.98 650.53 595.97"/><path class="cls-9" d="M652,596l-1.22.21,1.13-.07C651.85,596.15,651.73,596.11,652,596Z"/><path class="cls-9" d="M656,572.94l-.28.11c-.29.15-.3.19-.32.28Z"/><polygon class="cls-9" points="655.91 575.37 655.92 575.32 654.89 575.79 655.91 575.37"/><path class="cls-9" d="M657.91,576.62c0-.09-.24-.09-.22-.18C657.93,576.53,656.6,577.12,657.91,576.62Z"/><path class="cls-9" d="M683.05,544.89c.11,0-.56-.48-.67-.58C682.45,544.53,683.22,545,683.05,544.89Z"/><polygon class="cls-9" points="683.79 547.04 683.53 546.84 684.09 547.44 683.79 547.04"/><path class="cls-9" d="M683.1,548c1.22.63,0-.48.59-.4l.28.14-.87-.69C683.1,547.42,683.52,548.09,683.1,548Z"/><path class="cls-9" d="M680.23,547.07c.48.24.32.37.23-.05l-.13,0S680.3,547,680.23,547.07Z"/><path class="cls-9" d="M680.33,547c0-.14-.43-.15,0,0Z"/><path class="cls-9" d="M680.27,547.68l-.32-.4c-.29-.13-.43,0-.6-.19C679.48,547.39,679.77,547.51,680.27,547.68Z"/><path class="cls-9" d="M681.05,548.33l-.13-.18C680.8,548.09,680.75,548.09,681.05,548.33Z"/><path class="cls-9" d="M680.65,547.76l.27.39c.21.08.59.31-.09-.16C681.18,548.21,680.86,548,680.65,547.76Z"/><path class="cls-9" d="M680.89,547.77a1.13,1.13,0,0,1,.85.45C681.74,547.83,680.89,547.38,680.89,547.77Z"/><path class="cls-9" d="M684.26,548.84l.41.11-.33-.33C684.5,548.78,683.89,548.62,684.26,548.84Z"/><path class="cls-9" d="M679.09,548.32c.25.14.71.31,1,.48l-.23-.27A2.31,2.31,0,0,1,679.09,548.32Z"/><path class="cls-9" d="M680.14,548.8l.34.41C680.62,549.09,680.42,549,680.14,548.8Z"/><polygon class="cls-9" points="682.35 549.11 681.6 548.31 682.33 549.17 682.35 549.11"/><polygon class="cls-9" points="678.69 548.98 678.14 548.56 678.95 549.22 678.69 548.98"/><path class="cls-9" d="M678.57,549.49c-.46-.33-.9-.32-1.16-.55,0,.17.4.49.74.78C678,549.51,678.09,549.43,678.57,549.49Z"/><path class="cls-9" d="M678.64,550.15c-.1-.1-.29-.26-.49-.43A2.62,2.62,0,0,0,678.64,550.15Z"/><path class="cls-9" d="M680.19,549.43a2.64,2.64,0,0,0-.81-.25l.76.31Z"/><path class="cls-9" d="M680.16,549.5h0l-.12.13Z"/><path class="cls-9" d="M680.2,549.42h0C680.26,549.46,680.29,549.47,680.2,549.42Z"/><path class="cls-9" d="M681.46,549.17a2.58,2.58,0,0,0,1.38.91A10.48,10.48,0,0,1,681.46,549.17Z"/><path class="cls-9" d="M681.15,549.82l.26-.09a3.06,3.06,0,0,1-.65-.38Z"/><polygon class="cls-9" points="681.33 550.02 681.15 549.82 681.05 549.85 681.33 550.02"/><path class="cls-9" d="M679.48,550.17c.28.24.26.34.27.46a.45.45,0,0,0,.37-.21C679.9,550.29,679.51,550,679.48,550.17Z"/><path class="cls-9" d="M679.87,549.88l0,0C680,549.94,680,549.94,679.87,549.88Z"/><path class="cls-9" d="M679.28,551.6l.14,0-.13-.06Z"/><path class="cls-9" d="M680.27,550.47c.18,0,0-.14-.18-.3a.33.33,0,0,1,0,.25C680.22,550.48,680.29,550.52,680.27,550.47Z"/><path class="cls-9" d="M678.85,550.6a2.79,2.79,0,0,0,.47,0C679.07,550.58,678.66,550.49,678.85,550.6Z"/><path class="cls-9" d="M679.69,549.84s0,0,0,0C679.5,549.76,679.57,549.79,679.69,549.84Z"/><path class="cls-9" d="M679.69,549.84a3.91,3.91,0,0,0,.4.33,1.11,1.11,0,0,0-.18-.26Z"/><path class="cls-9" d="M683.94,554c-.69-.32-1.24-.8-.42-.62a19.1,19.1,0,0,0-4.1-1.77,2.39,2.39,0,0,1,.9.63,3.5,3.5,0,0,1,1.62.45c.25.38-.33.07-.75,0,.91.29,1.12.84,2.42,1.35l-.36-.39A3.35,3.35,0,0,0,683.94,554Z"/><path class="cls-9" d="M679.66,551.34l0-.12a3.87,3.87,0,0,1-1.06-.17,2.79,2.79,0,0,0,.74.54l.28-.33Z"/><path class="cls-9" d="M679.77,550.88a7.51,7.51,0,0,0,1.8,1c0-.23-.55-.44-.81-.73,0,.44-.36-.3-.91-.25a.45.45,0,0,1-.1-.29,1.91,1.91,0,0,1-.43,0l0,0h0c.1,0,.16.05.1,0v0l.27.15c-.2,0-.2-.08-.27-.15l-.11-.06h0l.24.55C679.75,551.19,679.77,551.09,679.77,550.88Z"/><path class="cls-9" d="M684.3,551.1a.67.67,0,0,1-.17-.08C684.2,551.09,684.26,551.13,684.3,551.1Z"/><path class="cls-9" d="M683.79,551c-.09-.08-.37-.25-.25-.29a2.28,2.28,0,0,1,.59.32,1.53,1.53,0,0,0-.87-.49l.09.07a5.9,5.9,0,0,1-1.41-.4C682.62,550.51,683.1,550.73,683.79,551Z"/><path class="cls-9" d="M682,551l.22.46.71.18-.39-.19C682.74,551.37,682.25,551.17,682,551Z"/><polygon class="cls-9" points="678.89 551.47 678.11 551.07 679.15 551.75 678.89 551.47"/><polygon class="cls-9" points="678.8 551.9 678.11 551.58 678.48 551.87 678.8 551.9"/><path class="cls-9" d="M683.76,574.9l.22.09A1.45,1.45,0,0,0,683.76,574.9Z"/><path class="cls-9" d="M683.84,574.31l-.37,0C683.67,574.32,683.82,574.34,683.84,574.31Z"/><path class="cls-9" d="M675.83,561.8c-.72,0-1.83-.06-1,.08l.82.12C675.53,561.88,675.64,561.83,675.83,561.8Z"/><path class="cls-9" d="M679.78,569.07l.25,0-.78-.16Z"/><path class="cls-9" d="M683.19,569.49l-.55.1A3.15,3.15,0,0,0,683.19,569.49Z"/><path class="cls-9" d="M684.57,578.18l.84.11C685.41,578.14,685,578.2,684.57,578.18Z"/><path class="cls-9" d="M677.55,556.08c-.35,0-.51.07-.57.14C677.48,556.22,678.19,556.33,677.55,556.08Z"/><path class="cls-9" d="M675,574.33a1.59,1.59,0,0,0,.5.1A1.24,1.24,0,0,0,675,574.33Z"/><path class="cls-9" d="M676.87,556.55h.21c-.11-.13-.19-.25-.1-.33C676.6,556.21,676.36,556.26,676.87,556.55Z"/><path class="cls-9" d="M684,590.33l-.1,0C684,590.36,684,590.35,684,590.33Z"/><path class="cls-9" d="M675.7,594.07c-.05,0-.05-.1-.07-.15S675.58,594,675.7,594.07Z"/><path class="cls-9" d="M677.81,553.37c0-.11-.08,0,0,0Z"/><path class="cls-9" d="M681,554.19a2.12,2.12,0,0,0,.37.18A3.24,3.24,0,0,1,681,554.19Z"/><path class="cls-9" d="M681.58,558.84h0C681.74,558.87,681.71,558.87,681.58,558.84Z"/><path class="cls-9" d="M678.21,553.38a.76.76,0,0,0-.27,0A1.42,1.42,0,0,0,678.21,553.38Z"/><path class="cls-9" d="M677.84,553.25l.11,0C677.82,553.14,677.74,553.12,677.84,553.25Z"/><path class="cls-9" d="M677.81,553.5s.06-.08.13-.1l-.13,0A.55.55,0,0,1,677.81,553.5Z"/><path class="cls-9" d="M681.68,583.8h-.08C682,583.89,681.89,583.86,681.68,583.8Z"/><path class="cls-9" d="M684,565.42h0Z"/><path class="cls-9" d="M684.51,565.78c-1-.27-.86-.32-.63-.37l-2.38-.29Z"/><path class="cls-9" d="M684,576.34l.75-.18c1.22.27.8.43,1.85.27-2.6-.09-.25-.76-2.85-.86l.55-.11s.13,0,.1.08c1.26-.2-1.87-.24-1.49-.55a1.38,1.38,0,0,1,.89-.09l-.63-.27c0-.07.5,0,.45,0l-.19-.39h.08c-.41-.07-1-.22-1.3-.29.38-.09.27.06.6,0l-.62-.24c.67-.06,1.32.15,1.22.29,2.6-.08-.65-.21.88-.56l.32.21c1.49,0,.95-.24,1.89-.4a10.5,10.5,0,0,1-3,.06c.2,0,.3-.13-.22-.28.93,0,.71-.09.67-.24l1.22.08a8.65,8.65,0,0,0-1.51-.33,4.87,4.87,0,0,1,1.88-.14c.21-.27-1.53.1-1.74-.25.48-.21,0-.41-.72-.75.43-.14.75.08,1.1,0l-1-.22a1.3,1.3,0,0,1,.48,0c-.37-.15-1.22-.1-1.54-.32-1.35-.17,2-.26.49-.62.36,0,.75.09,1.22.11a10.9,10.9,0,0,0-2-.75l.82-.16a7.4,7.4,0,0,1-2.86-.52c-.45,0-.84,0-1,0l-.62-.39a5.45,5.45,0,0,1,1.12.16l-.29-.09a6.1,6.1,0,0,1,1.83.21l-.76,0a16.82,16.82,0,0,0,2.26.36,1,1,0,0,1-.32-.13,2.9,2.9,0,0,0,.51.07c.12,0-.14-.06-.45-.14l1.37.07-.54-.07.89-.32c-1.35-.43-3.32-.9-3.82-1.45a23,23,0,0,0,2.8.37c-1.27,0,.48.42.2.62.14-.11.7,0,.89,0l-1.08-.54a1.86,1.86,0,0,0,1.15-.07c-1.92-.15-1.23-.46-1.79-.71.64.07,1.29.2,1.11.38,1.46,0-2.2-.58-1-.65,0,0-.1.06.23.13-.56-.2-.07-.43.48-.29v.06a.5.5,0,0,0,0-.67,2.29,2.29,0,0,0-1.42-.65c.21,0,1.94.34,2.26.41-1.77-.47-3.54-1-5.31-1.48,1.37.28,4.69.62,5.43,1,.21,0,.45-.11,0-.35a12.86,12.86,0,0,1-2.13-.3,22,22,0,0,0,2.2,0,8.25,8.25,0,0,1-2.37-.56c.32.08,2.14.37,2.36.46l-2.07-.71a13.43,13.43,0,0,0,2.4.38c-.42,0,.09-.26-.11-.38l-.51,0c.39-.29-2.9-.93-2.71-1.29a12.43,12.43,0,0,0,3,.53,37,37,0,0,1-5.86-2l.63.07-.65-.42c1.58.55,4.9,1.74,6.19,2.23.51,0,.73.12.72-.09.59.06.85.29.87.36l.47-.36c-1.26-.26-1.19-.63-2.24-.85l1.2.79c-1.26-.25-3.51-1.08-3.21-1.38.52,0,2.22.58,2.64.67-.42-.14-.76-.5-.45-.46l.64.3c.51-.06-1.59-.69-.34-.62.1-.05,1.67.19.93,0-1.45-.24-5.87-1.31-6.92-1.67a15.58,15.58,0,0,1,2.21,0c1.14.17,2.6.89,3.59,1a7.22,7.22,0,0,1-.87-.34c.31,0,1,.31.94.1-1.26-.37.2-.32-1-.37-.31-.26.31-.11.31-.32a11.21,11.21,0,0,1-3-1.24,7.65,7.65,0,0,0,.94.21c.21-.33.84-.34,1-.67a4.57,4.57,0,0,1,1.24.26c-.2-.11-.61-.29-.61-.4,1.14.16.1.27,1.44.54a3.81,3.81,0,0,1-1.32-.86c-1.13-.32-.32.26.08.55a10.18,10.18,0,0,1-3.65-1.87c-.29-.43,1,.21.83.08.44-.44-2.51-1.4-1.25-1.48a18.13,18.13,0,0,1,2.64.92c.28.35-.74.12-.75.3l.52,0c.3.19.49.42.18.41a.55.55,0,0,0,.7-.36.8.8,0,0,1,.74-.54,2.87,2.87,0,0,0-1-.54l.09.17c-.83-.18-1-.65-1.4-.63-.48-.39-1.25-.93-.71-1l1.1.4c-.32-.13-.71-.1-.4.1-.44-.3,1.61.23.24-.47l-.82-.14c-.48-.4-1.53-1.12-1.1-1.21-1.1-.35.11.1-1.21-.26,1.61.52-.31.57,1.42,1-1.52-.44-.73,0-2.07-.25.37.14.72.2.47.33l.3.16h0a2.67,2.67,0,0,1,.58.11c.79.43.65.72,1,1-.21,0-.39-.21-.8-.3l.58.4c-.81-.29-1.46-.19-1.82-.65l-.14.24c-.51,0-.77.12-.47.37-.21.06.8.62.2.29l.37.57-.2-.07c-.23.36,1.09,1.23-.53,1.21.16.19.37.4.07.55l-.73-.17c.2.24-.86.31-.13.59-2-.36-.65.73-1.07.93l.94.26c-.11.19.1.46.41.8l.84.19c.62.38-.72.41-.71.78-.32-.1-.22-.17,0-.18-2,0,1.19,1.17-.27,1.23.29.16.17.21-.06.23,0,0,0,0,0,0s0,0,0,0l-.47,0a2.77,2.77,0,0,0,.47,0,.69.69,0,0,0,.27.36l-.91-.14,0,0c-.36,0,.41.17,1.1.25a3.71,3.71,0,0,0,.52.24c-1.48-.19.44.37-1.14.19.75.21.48.64,2.08,1-.21,0-.31,0-.32-.08-.2.08-.4.16,0,.35l-1.16-.15,1.51.51a4.39,4.39,0,0,1-2-.27c1.31.6.47.39,1.78.92l-.75-.13c0,.11,1,.44.35.42-1.46,0-.36,1.2-1.77,1.68,2.23.14-1,.18.68.41a3.8,3.8,0,0,1-1.28-.12c.48.39-.89.41.54.8-.53,0-.76-.16-1.08-.16.11,0,.45.16.13.16a1.6,1.6,0,0,1-.66-.17c.06.35,1.67.55,3.19.73-.73.1-.64.19.35.41-.51,0-1,.06-1.2-.17-.08.11-.79.66.43.78-.32,0-.11.15,0,.19-.1.26-.21.27-.12.54l.21-.06c1.46.22.31.24.47.46l-.15,0c-1.09.4.5.24-.75.62l.92,0c2,.17-1.19.33-.45.65l.53-.06c.66.18-2.71.25-3,.39a.69.69,0,0,1-.39-.12c-1.19.33,1.2.12,1.46.43-.66,0-1.65-.16-1.78,0-.54.08,2.08.68.82.89a3.24,3.24,0,0,1,1.38.08c.17.21-1.91.48-.35.73a1.71,1.71,0,0,1-.39,0,3.92,3.92,0,0,0,1.51.66c-3.19,0,1.51,1-1.41.93l.14.49-.29,0c-.2.31.5.43,1.2.56a1.9,1.9,0,0,1-.63,0c-.6.44-.48.49,1,.89l-1,0c.54.11-1.5.64-.39,1.09a1.72,1.72,0,0,1-.43,0c1.12.5-2.63,1.2.82,1.38l.85.32c.27-.42,1.5.06,2.08-.12.2.17-1,.43-1.22.23l.17,0c-1.8-.07-.63.52-1.86.52.1.82-.9,1.65-1,2.42l1.4-.1-.08.27c-.32.07-1.09.11-1-.09-.79.12.67.32,1,.32-.56.38-1.64-.13-1.67,0l.11.16.16,0c.58.12,1.18.12,1.12.35-.28.15-.87.09-.92.15s-.14,0,0,.09l-.11.34,1.1-.16c.55.15-.05.32,1.2.15-1.93.26-.67,1.27-1.27,1.42.81.2.8.4.71.66.23-.07,1.47-.13,1.32.1-2.57,0-1.1.42-2.95.63,1.22-.18.32.62,2,.34-.2.19-1,0-1.56.18,1,.42-.63,1-.28,1.52a5.56,5.56,0,0,1,1.35,0l-1.68.31c.17.11,1.95.07.78.28a2.25,2.25,0,0,1,.82,0c-1.62,1.09,1.39,2.15-1.68,3.28.65-.16.72-.06.74,0a9.16,9.16,0,0,1,1.29,0l-1.26.48c1.27.06.1.48,1.31.51l-.22-.14c1.43.16,3.17-.33,5-.33-1.63-.19,2.39-.61.06-.92.37-.08.59.06,1,0-.79-.07-1-.18-.61-.38l.2,0c-.2-.56.57-.81,1.07-1.45l-.9.07c.11-.14.4-.17.62-.24-1.37-.13-.07.38-1.59.27,1.85-.22,0-.95,2.11-1.11,0-.21-1,.08-1-.13l.57-.06-.74,0a3.16,3.16,0,0,1,1.31-.24c-.06,0,.14.1.18.13.66-.19-.24-.49,0-.56l-.35.21c-.54-.55.19-1.26-1-1.78l-.43,0c-.8-.4.47-.34.09-.79h.1c-.43-.08-.64-.2-.6-.33.51.11,1-.23,1.53-.09-.86-.44-.67-.21-2.27-.48l.71-.08c-.64-.09-1-.09-1.17-.32.61.18,1.08-.17,1.89,0,1.54-.51-1.58-.68.69-.94-2-.19-1.09.43-1.51.31-.64.12-1.47-.15-1.28-.3s2.51-.31,2.47-.69c0,0,.14,0,.13.08.5-.15-.68-.27.13-.46-1.19-.08.06-.23-1.45-.23l.35.34c-.4-.19-2.17-.35-1.32-.69a4.76,4.76,0,0,1,.94.18c.44-.11-.3-.18.16-.29,1.51,0,.33.42,1.49.62.64-.12-1.1-.39.54-.31-2.09-.12.26-.38-1.34-.61h.91c-.14,0-.57-.11-.55-.19l1.18.12c-1-.2.87-.41.32-.6,0,.41-1.09.1-1.75.29-1.22-.5,2.37-.32,1.93-.89.13.07-.54.29-1,.18a2.79,2.79,0,0,1,1-.33c-.19-.38-.94.06-1.5-.09,1.11-.14-.45-.19-.81-.35h.93c.59-.44-1.93-.11-1.22-.5l1.29.16-.34-.21,1.06,0c-.79-.22-.58-.29-.29-.5-.65,0-1.68,0-1.7-.22.55-.13.87.07.74-.2.58.06,1.31.13.46.25.3,0,.58.06.87.07.63-.14.15-.35.14-.45a.29.29,0,0,1-.22.1l-1.28-.39a2.4,2.4,0,0,1,.9,0c-.1-.08-.52-.14-.6-.26a6.82,6.82,0,0,1,1.88.2l-.83-.38a7.1,7.1,0,0,1,1.17-.13c.44-.2-1.46-.52-.87-.79a.9.9,0,0,1-.39-.1c.17-.26,1.1-.47.07-.78l1.35-.15c-.3-.24-1.7.2-2.2-.2s1.15-.09,1.53-.18c-.68-.15-2-.42-1-.66C684.06,576.2,683.86,576.26,684,576.34Zm-.5-2.93c.2.06.79.2.24.22C682.65,573.51,683.16,573.49,683.46,573.41Zm-1.87-4.6c.3.07.14.12-.22.16C681.3,568.91,681.34,568.85,681.59,568.81Zm-3.44-14.25,0,0C677.79,554.59,678,554.59,678.15,554.56Zm.49-.14a1,1,0,0,0-.36-.15c.21.1.2.17.11.21C678.63,554.55,678.8,554.57,678.64,554.42Zm-3.17,30.33.24,0C676,584.81,675.74,584.78,675.47,584.75Z"/><path class="cls-9" d="M682.8,569.44l-.51,0A1.25,1.25,0,0,0,682.8,569.44Z"/><path class="cls-9" d="M684.41,578.16h.16Z"/><path class="cls-9" d="M684.82,560.82a2,2,0,0,1-.48,0C684.55,560.86,684.75,560.88,684.82,560.82Z"/><path class="cls-9" d="M677.78,552.33l.15.27c0-.1.19-.06.34-.05C678.07,552.47,677.77,552.39,677.78,552.33Z"/><path class="cls-9" d="M683.67,553.16c-.09-.07,0-.06-.08-.13l-.39-.18C683.18,553,683.46,553.18,683.67,553.16Z"/><path class="cls-9" d="M680.68,553.35c.72.29.52.08.43-.1,0,0,0,0,0,0C680.12,552.81,680.4,553.08,680.68,553.35Z"/><path class="cls-9" d="M681.1,553.22c0-.05,0-.1,0-.12C680.73,552.91,681,553.11,681.1,553.22Z"/><path class="cls-9" d="M678.3,553.87c.21,0-.92-.39-.61-.31C676.8,553.14,678.65,554.39,678.3,553.87Z"/><polygon class="cls-9" points="683.07 554.26 682.17 553.92 682.86 554.29 683.07 554.26"/><path class="cls-9" d="M682.06,554.89l.32-.08a.8.8,0,0,1-.28-.17C682,554.74,681.79,554.79,682.06,554.89Z"/><path class="cls-9" d="M682.1,554.64c0-.06,0-.12-.09-.21A.25.25,0,0,0,682.1,554.64Z"/><polygon class="cls-9" points="683.24 554.62 683.03 554.59 682.92 554.7 683.24 554.62"/><path class="cls-9" d="M681.15,556.84l.19.29c.31.13.52.13.42,0A1.66,1.66,0,0,0,681.15,556.84Z"/><path class="cls-9" d="M683.83,557.09a4,4,0,0,1-.71-.16l1.12.4Z"/><path class="cls-9" d="M683.91,557.74c.31.13.81.58.82.32C684.42,557.93,684.23,557.65,683.91,557.74Z"/><polygon class="cls-9" points="681.59 560.3 681.59 560.25 679.69 559.77 681.59 560.3"/><path class="cls-9" d="M685.54,563.93c.51-.13-1.17-.29-.55-.37-.44-.15-.5.07-.88-.06C684.55,563.73,684.27,563.75,685.54,563.93Z"/><path class="cls-9" d="M684.11,563.5l-.28-.13Z"/><polygon class="cls-9" points="674.66 594.68 674.26 594.85 674.91 594.73 674.66 594.68"/><path class="cls-9" d="M676.12,595l-1.25.07,1.13.07S675.84,595,676.12,595Z"/><path class="cls-9" d="M686,573.11l-.3,0c-.32,0-.35,0-.4.1Z"/><polygon class="cls-9" points="684.97 575.14 685 575.11 683.87 575.14 684.97 575.14"/><path class="cls-9" d="M686.36,576.93c0-.07-.2-.16-.15-.23C686.41,576.86,685,576.92,686.36,576.93Z"/><path class="cls-9" d="M659.31,576.31c.05-.06-.64.35-.77.42A7.13,7.13,0,0,0,659.31,576.31Z"/><polygon class="cls-9" points="661.11 575.8 660.83 575.96 661.56 575.63 661.11 575.8"/><path class="cls-9" d="M661.31,576.19c1.19-.68-.27,0,.12-.33l.27-.16-1,.5C660.92,576.19,661.62,576,661.31,576.19Z"/><path class="cls-9" d="M658.82,577.79c.46-.26.42-.18.12-.12l-.12.07S658.84,577.75,658.82,577.79Z"/><path class="cls-9" d="M658.82,577.74c-.05,0-.38.23,0,0Z"/><path class="cls-9" d="M659.18,577.77l-.44.17a4.37,4.37,0,0,1-.53.32A3.94,3.94,0,0,0,659.18,577.77Z"/><path class="cls-9" d="M660.09,577.35l-.19.07C659.79,577.48,659.75,577.51,660.09,577.35Z"/><path class="cls-9" d="M659.5,577.56l.4-.14c.19-.11.58-.32-.15,0C660.11,577.28,659.76,577.45,659.5,577.56Z"/><path class="cls-9" d="M659.67,577.43a3.06,3.06,0,0,1,.83-.46C660.29,577,659.45,577.42,659.67,577.43Z"/><path class="cls-9" d="M662.57,575.54l.33-.23-.42.18C662.69,575.4,662.19,575.75,662.57,575.54Z"/><path class="cls-9" d="M658.71,578.4l1-.54-.31.11A6.49,6.49,0,0,1,658.71,578.4Z"/><path class="cls-9" d="M659.72,577.86l.48-.17C660.22,577.61,660,577.71,659.72,577.86Z"/><polygon class="cls-9" points="661.44 576.66 660.47 577.05 661.47 576.67 661.44 576.66"/><polygon class="cls-9" points="658.78 578.62 658.16 578.89 659.1 578.49 658.78 578.62"/><path class="cls-9" d="M659,578.7c-.51.23-.83.45-1.15.58a8.67,8.67,0,0,0,1-.35C658.53,579,658.57,579,659,578.7Z"/><path class="cls-9" d="M659.35,578.7l-.59.23Z"/><path class="cls-9" d="M660.12,577.85a7.38,7.38,0,0,0-.72.41l.72-.38Z"/><path class="cls-9" d="M660.14,577.86l0,0a.39.39,0,0,0,0,.06A.25.25,0,0,1,660.14,577.86Z"/><path class="cls-9" d="M660.12,577.84h0C660.19,577.81,660.21,577.8,660.12,577.84Z"/><path class="cls-9" d="M660.86,577.15a6.94,6.94,0,0,0,1.49-.71C661.84,576.67,661.5,576.89,660.86,577.15Z"/><path class="cls-9" d="M661,577.35l.13-.15a7.18,7.18,0,0,1-.68.34Z"/><polygon class="cls-9" points="661.26 577.26 661.02 577.35 660.97 577.4 661.26 577.26"/><path class="cls-9" d="M660,578.27c.33-.13.37-.12.44-.11s.18-.18.17-.21C660.36,578.05,659.94,578.24,660,578.27Z"/><path class="cls-9" d="M660.13,578l0,0Z"/><path class="cls-9" d="M660.57,578.48l.14-.07-.13.06Z"/><path class="cls-9" d="M660.73,577.87c.13-.09-.06,0-.29.08.08,0,.14,0,.16,0S660.77,577.86,660.73,577.87Z"/><path class="cls-9" d="M659.74,578.62c.14-.09.27-.16.38-.24C659.89,578.51,659.54,578.71,659.74,578.62Z"/><path class="cls-9" d="M660,578.13l0,0C659.78,578.23,659.86,578.19,660,578.13Z"/><path class="cls-9" d="M660,578.13l.47-.18a1.35,1.35,0,0,0-.27.07Z"/><path class="cls-9" d="M665.38,576.35c-.69.32-1.36.54-.66.12-.54.18-2.78,1.3-4,1.94a6.43,6.43,0,0,1,1-.4,10,10,0,0,1,1.45-.79c.4-.08-.21.19-.55.4.84-.44,1.3-.47,2.55-1.08l-.48.13C664.88,576.57,665.21,576.46,665.38,576.35Z"/><path class="cls-9" d="M660.72,578.26l-.09,0c-.11.08-.37.24-.89.53a7.59,7.59,0,0,0,.84-.34l0-.17Z"/><path class="cls-9" d="M660.57,578.17c.75-.34,1.1-.43,1.89-.86a5.77,5.77,0,0,0-1,.36c.25,0-.43.17-.8.46a1,1,0,0,1-.23,0,3.78,3.78,0,0,1-.31.22l0,0h0c.09-.05.15-.08.1,0h0l.29-.13a.59.59,0,0,1-.29.13l-.11.05h0l.47-.08C660.72,578.2,660.68,578.18,660.57,578.17Z"/><path class="cls-9" d="M664,575.7l-.17.09A.45.45,0,0,0,664,575.7Z"/><path class="cls-9" d="M663.54,576c-.1,0-.4.18-.34.11a4.65,4.65,0,0,1,.59-.3,3.77,3.77,0,0,0-.89.44l.11,0c-.23.18-1.11.71-1.22.76C662.45,576.6,662.91,576.34,663.54,576Z"/><path class="cls-9" d="M662.26,577l.41-.08.62-.37-.39.2C663,576.61,662.56,576.86,662.26,577Z"/><polygon class="cls-9" points="660.21 578.67 659.41 579.03 660.55 578.56 660.21 578.67"/><polygon class="cls-9" points="660.36 578.75 659.67 579.07 660.1 578.91 660.36 578.75"/><path class="cls-9" d="M672,584.58h0Z"/><path class="cls-9" d="M672,584.27l-.37.07A1.75,1.75,0,0,0,672,584.27Z"/><path class="cls-9" d="M661.72,581.92c-.66.27-1.68.66-.88.39l.79-.28C661.48,582.05,661.56,582,661.72,581.92Z"/><path class="cls-9" d="M667.2,583l.24-.08-.78.16Z"/><path class="cls-9" d="M670.54,582.16l-.5.2A3.72,3.72,0,0,0,670.54,582.16Z"/><path class="cls-9" d="M673.14,586.07,674,586C674,585.92,673.55,586,673.14,586.07Z"/><path class="cls-9" d="M661.22,580a1.77,1.77,0,0,0-.43.28C661.22,580,661.86,579.7,661.22,580Z"/><path class="cls-9" d="M663.32,586.08a3.32,3.32,0,0,0,.5-.07A2.59,2.59,0,0,0,663.32,586.08Z"/><path class="cls-9" d="M660.84,580.33l.17-.09c-.14,0-.25,0-.22,0C660.48,580.4,660.29,580.51,660.84,580.33Z"/><path class="cls-9" d="M672.86,592.11h-.1C672.87,592.12,672.88,592.12,672.86,592.11Z"/><path class="cls-9" d="M664.43,593.42a.09.09,0,0,1-.06-.06C664.31,593.37,664.32,593.38,664.43,593.42Z"/><path class="cls-9" d="M660.27,579.41c-.07,0-.09,0,0,0Z"/><path class="cls-9" d="M663.2,577.93l.38-.15A3.42,3.42,0,0,1,663.2,577.93Z"/><path class="cls-9" d="M665.77,578.72h0C665.91,578.66,665.89,578.67,665.77,578.72Z"/><path class="cls-9" d="M660.59,579.22l-.21.13A1.35,1.35,0,0,0,660.59,579.22Z"/><path class="cls-9" d="M660.24,579.38l.06,0C660.17,579.38,660.09,579.42,660.24,579.38Z"/><path class="cls-9" d="M660.32,579.43s0,0,.06-.08l-.11.06Z"/><path class="cls-9" d="M670.54,589.08h-.08C670.81,589.1,670.75,589.09,670.54,589.08Z"/><path class="cls-9" d="M670.21,580.11h-.07Z"/><path class="cls-9" d="M670.84,580.06c-1,.24-.9.18-.7.07l-2.28.75Z"/><path class="cls-9" d="M672.37,585.25l.72-.22a6,6,0,0,0,1.85-.19c-2.57.41-.33-.36-2.9.07l.53-.15s.13,0,.11,0c1.2-.34-1.87.23-1.53,0a2.64,2.64,0,0,1,.86-.21h-.66s.49-.12.45-.07l-.24-.15h.08l-1.31.13c.36-.12.28,0,.6-.1l-.64,0c.65-.17,1.31-.22,1.23-.13,2.53-.59-.66,0,.79-.46l.34,0a8.8,8.8,0,0,0,1.77-.63,17.87,17.87,0,0,1-2.88.7c.18-.07.26-.13-.26-.08.9-.19.67-.2.6-.27l1.2-.24a13.89,13.89,0,0,0-1.52.19,9.72,9.72,0,0,1,1.8-.52c.16-.19-1.47.42-1.73.3.43-.22-.07-.2-.82-.18a8.69,8.69,0,0,1,1.07-.26l-1,.15a2.21,2.21,0,0,1,.46-.12c-.38,0-1.19.27-1.54.25-1.31.29,1.88-.64.36-.41.33-.11.73-.16,1.19-.28a17.26,17.26,0,0,0-2.09.23l.75-.31a16.74,16.74,0,0,1-2.84.61l-1,.31-.67,0c.19-.06.6-.16,1.1-.26l-.29.05a14,14,0,0,1,1.79-.45l-.72.24c.73-.15,1.54-.32,2.23-.5l-.33,0,.49-.11c.12,0-.14,0-.45.07l1.31-.38-.53.13.78-.41a35.13,35.13,0,0,1-3.94.57c1-.21,1.58-.42,2.72-.73-1.19.39.56,0,.34.2a4,4,0,0,1,.86-.26l-1.15.1a3.29,3.29,0,0,0,1.06-.4c-1.84.55-1.28.2-1.87.28.62-.18,1.26-.34,1.14-.2,1.36-.5-2.21.47-1.06,0,0,0-.07.06.25,0-.57.1-.17-.16.38-.28l0,0c.17-.22-.13-.49-1.7,0l2.21-.64c-1.78.44-3.56.88-5.32,1.34,1.34-.39,4.49-1.47,5.29-1.57.18-.1.39-.22-.11-.15-.18.08-1.91.66-2,.67,1.46-.56.78-.31,2-.84a16.93,16.93,0,0,1-2.33.68c.32-.09,2.07-.67,2.29-.71l-2.1.51c.38-.09,1.74-.56,2.31-.78-.4.14,0-.15-.23-.12l-.45.22c.25-.28-2.93.79-2.87.59a24.35,24.35,0,0,0,2.83-1c-1.06.31-5.07,1.55-5.92,1.71l.59-.24-.71.15c1.58-.5,4.94-1.47,6.27-1.79.45-.23.7-.26.61-.34a1.94,1.94,0,0,1,.91-.22l.28-.36c-1.21.43-1.28.25-2.29.62l1.35-.2c-1.22.43-3.5,1.07-3.34.85.47-.21,2.17-.74,2.57-.89-.42.13-.85.14-.56,0l.67-.16c.43-.26-1.65.44-.54-.09.07-.06,1.52-.68.8-.42-1.36.57-5.62,2.14-6.67,2.49.09,0,1.26-.65,1.92-.94,1.06-.47,2.61-.89,3.51-1.28-.33.12-.74.24-.88.28.27-.15,1-.37.85-.4-1.23.45,0-.2-1,.35-.38.06.22-.17.13-.25a27.23,27.23,0,0,1-3.08,1c.31-.11.71-.29.89-.37s.56-.49.52-.64a11,11,0,0,1,1.14-.53,2.62,2.62,0,0,1-.68.18c1-.51.2,0,1.43-.54a8.63,8.63,0,0,1-1.48.4c-1.08.46-.15.22.31.11a28.83,28.83,0,0,1-3.85,1.3c-.42,0,.94-.45.72-.38.17-.32-2.67.93-1.66.3.91-.47,1.88-.81,2.55-1.12.4-.06-.54.4-.48.44l.42-.26c.33-.11.59-.15.33,0,.83-.42,0-.43.72-.94a6.85,6.85,0,0,0-1,.39h.16c-.74.38-1.09.37-1.42.59-.56.17-1.43.47-1.05.19l1.06-.5c-.31.14-.61.35-.27.23-.49.17,1.38-.81,0-.21l-.71.4c-.56.18-1.73.62-1.43.39-1,.53.13,0-1.08.59,1.51-.75,0,.22,1.6-.59-1.4.71-.56.37-1.75,1,.35-.16.66-.33.52-.18l.32-.13,0,0,0,0c.06,0,.07,0,0,0a5.89,5.89,0,0,1,.52-.28,8.25,8.25,0,0,1,1.29-.36c-.15.11-.42.16-.79.35l.66-.22a11.93,11.93,0,0,1-1.77.78v.1c-.42.24-.57.38-.22.27-.16.12.91-.27.28,0l.54-.08-.19.08c-.05.17,1.42-.28,0,.45.22,0,.49-.09.29.07l-.69.29c.27,0-.63.43.1.17-1.84.78-.31.41-.61.64l.92-.34c0,.08.25,0,.65,0l.8-.3c.69-.17-.5.4-.37.48-.32.1-.25,0-.07,0-1.78.78,1.43-.18.14.42.31-.07.22,0,0,.08h-.05s0,0,0,0l-.42.19.42-.19a.68.68,0,0,0,.36,0l-.87.31h0c-.31.14.43-.11,1.08-.35l.55-.12c-1.41.49.5-.06-1,.47a18.72,18.72,0,0,0,2.17-.47c-.2.06-.29.11-.31.09s-.33.2.12.1l-1.11.37,1.53-.38a11,11,0,0,1-1.93.62c1.37-.27.53,0,1.88-.33l-.73.22s1-.2.44,0c-1.35.5-.05.51-1.28,1.1,2.14-.63-.93.37.74-.07a10.66,10.66,0,0,1-1.24.34c.53,0-.77.39.67.1-.51.15-.76.17-1.06.26.11,0,.45-.08.15,0a4.39,4.39,0,0,1-.66.14,18,18,0,0,0,3.18-.68c-.69.25-.58.25.4,0a4.24,4.24,0,0,1-1.17.28c-.06.06-.64.44.55.15-.3.09-.07.08.07.06-.05.12-.16.15,0,.22l.19-.07c1.45-.3.34,0,.53,0l-.15,0c-1,.42.52,0-.63.42l.89-.21c1.94-.41-1.1.41-.34.35l.51-.15c.67-.08-2.6.72-2.83.82a1.56,1.56,0,0,1-.4,0c-1.11.37,1.18-.23,1.48-.18a17.06,17.06,0,0,0-1.73.4c-.51.13,2.11-.21.91.12a9.15,9.15,0,0,1,1.35-.25c.19,0-1.82.56-.26.34l-.38.08a8.65,8.65,0,0,0,1.55,0c-3.12.6,1.58.11-1.3.6l.19.15-.3,0c-.17.14.52.07,1.22,0a3.85,3.85,0,0,1-.61.1c-.56.26-.44.25,1,.19l-.93.15c.55,0-1.44.45-.32.46a2.74,2.74,0,0,1-.43,0c1.14,0-2.56.75.88.42l.86,0a14.09,14.09,0,0,1,2.06-.28c.21.05-1,.29-1.2.23l.17,0c-1.8.16-.62.27-1.84.4.12.31-.83.71-.9,1l1.4-.14-.07.11c-.33,0-1.1.12-1,0-.79.09.67.07,1,.06a8.85,8.85,0,0,1-1.66.1l.11.05.16,0c.57,0,1.18,0,1.12.06a8.27,8.27,0,0,1-.92.11c-.1,0-.14,0,0,0l-.12.13,1.11-.11c.54,0-.05.13,1.19,0-1.92.2-.66.54-1.26.62.81.05.8.13.7.24.23,0,1.47-.09,1.32,0-2.56,0-1.11.19-2.95.31,1.22-.09.31.23,2,.1-.21.08-1,0-1.57.09,1,.16-.64.38-.3.58a12.36,12.36,0,0,1,1.35,0l-1.69.11c.17,0,2,0,.78.11a6.83,6.83,0,0,1,.82,0c-.83.2-.49.41-.34.63s.11.44-1.44.57c.66,0,.72,0,.74.06s.83,0,1.29.06l-1.28.11c1.27.1.08.19,1.29.28l-.21-.07c1.42.17,3.17.08,5,.19-1.62-.18,2.41-.13.09-.41.38,0,.59.06,1,.06-.78-.08-1-.14-.59-.21l.19,0c-.18-.27.61-.35,1.13-.64h-.91a2.58,2.58,0,0,1,.64-.09c-1.38-.1-.08.17-1.6.07,1.85,0,0-.43,2.13-.46,0-.1-1.05,0-1-.08l.57,0-.73,0a5.85,5.85,0,0,1,1.31-.09s.14,0,.18.06c.67-.08-.23-.24,0-.27l-.35.09c-.53-.26.22-.6-1-.84l-.42,0c-.8-.17.46-.16.09-.37h.1c-.43,0-.64-.08-.6-.14.51,0,1-.13,1.53-.08a9.41,9.41,0,0,0-2.26-.16l.71-.06a3.43,3.43,0,0,1-1.17-.11c.61.06,1.08-.11,1.88-.05,1.55-.3-1.58-.25.69-.47-2,0-1.08.25-1.51.21-.64.08-1.47,0-1.28-.08a16.79,16.79,0,0,0,2.46-.44s.14,0,.13,0c.5-.1-.69-.09.12-.23-1.19,0,.06-.11-1.45,0l.36.14c-.4-.07-2.18,0-1.33-.23a9.27,9.27,0,0,1,.94,0c.44-.08-.3-.07.15-.15,1.51-.1.34.18,1.5.2.64-.1-1.11-.12.54-.18-2.09.07.25-.21-1.35-.21l.91-.06a2.86,2.86,0,0,1-.56,0l1.18,0c-1,0,.86-.27.31-.33,0,.21-1.09.14-1.74.28-1.24-.13,2.35-.34,1.89-.59.13,0-.53.19-1,.17a5.44,5.44,0,0,1,1-.25c-.21-.17-.93.12-1.49.09,1.09-.17-.46-.05-.82-.09l.92-.09c.56-.28-1.92.14-1.23-.12l1.28-.06-.34-.06,1-.09c-.79,0-.59-.08-.31-.22a5.71,5.71,0,0,1-1.7.09c.53-.12.87-.07.73-.18.57,0,1.3-.09.46.07l.87-.07c.62-.14.13-.19.12-.24a.68.68,0,0,1-.21.08l-1.3,0a5.07,5.07,0,0,1,.9-.09,6,6,0,0,1-.62-.05,12.66,12.66,0,0,1,1.88-.14l-.86-.08c.33-.06.88-.21,1.16-.23s-1.48-.06-.92-.27a1.77,1.77,0,0,1-.4,0c.15-.15,1-.4,0-.4l1.32-.29c-.32-.07-1.67.38-2.19.26s1.12-.23,1.49-.34c-.69,0-2.07.14-1-.16C672.46,585.16,672.26,585.22,672.37,585.25Zm-.85-1.33c.2,0,.79-.08.26.05C670.74,584.15,671.23,584,671.52,583.92Zm-2.65-1.59c.3-.05.16,0-.17.13C668.62,582.46,668.65,582.42,668.87,582.33Zm-7.79-2.92,0,0C660.81,579.58,660.94,579.51,661.08,579.41Zm.33-.26a3.68,3.68,0,0,0-.35.15c.21-.09.24-.07.19,0C661.47,579.18,661.62,579.1,661.41,579.15Zm2.94,10.7.24,0C664.86,589.85,664.62,589.85,664.35,589.85Z"/><path class="cls-9" d="M670.15,582.25l-.48.14A2.9,2.9,0,0,0,670.15,582.25Z"/><path class="cls-9" d="M673,586.08h0l.16,0Z"/><path class="cls-9" d="M669.34,577.87a2.45,2.45,0,0,1-.43.22A1.14,1.14,0,0,0,669.34,577.87Z"/><path class="cls-9" d="M659.76,579.31l.24,0s.13-.11.26-.18A4.81,4.81,0,0,1,659.76,579.31Z"/><path class="cls-9" d="M664.69,576.34c-.11,0,0,0-.13,0l-.38.19A.94.94,0,0,0,664.69,576.34Z"/><path class="cls-9" d="M662.53,578c.7-.32.44-.25.29-.24s0,0,0,0C661.83,578.18,662.18,578.08,662.53,578Z"/><path class="cls-9" d="M662.79,577.73s-.06,0,0,0C662.36,577.88,662.68,577.75,662.79,577.73Z"/><path class="cls-9" d="M660.89,579.24c.17-.1-.92.39-.63.25C659.34,579.87,661.42,579.14,660.89,579.24Z"/><polygon class="cls-9" points="664.84 576.87 663.97 577.29 664.69 576.99 664.84 576.87"/><path class="cls-9" d="M664.36,577.53l.21-.18-.3.11C664.26,577.52,664.11,577.65,664.36,577.53Z"/><path class="cls-9" d="M664.27,577.46s0,0-.18,0C664.11,577.48,664.15,577.49,664.27,577.46Z"/><polygon class="cls-9" points="665.15 576.85 664.97 576.96 664.93 577.04 665.15 576.85"/><path class="cls-9" d="M664.54,578.41l.29,0c.31-.12.48-.22.35-.2A3.49,3.49,0,0,0,664.54,578.41Z"/><path class="cls-9" d="M666.86,577.13l-.66.33,1.1-.47Z"/><path class="cls-9" d="M667.22,577.28c.31-.12.93-.23.81-.32A3,3,0,0,0,667.22,577.28Z"/><polygon class="cls-9" points="666.34 579.16 666.32 579.14 664.49 579.83 666.34 579.16"/><path class="cls-9" d="M671.18,578.84c.4-.27-1.16.35-.64.06-.44.12-.42.24-.81.34A4.72,4.72,0,0,0,671.18,578.84Z"/><path class="cls-9" d="M669.73,579.24l-.29.06Z"/><polygon class="cls-9" points="663.38 593.58 662.97 593.62 663.62 593.62 663.38 593.58"/><path class="cls-9" d="M664.82,593.79l-1.25-.06,1.13.1C664.64,593.82,664.54,593.78,664.82,593.79Z"/><path class="cls-9" d="M673.93,583.2l-.3,0c-.31.08-.33.1-.37.15Z"/><polygon class="cls-9" points="673.22 584.46 673.25 584.44 672.14 584.67 673.22 584.46"/><path class="cls-9" d="M674.8,585.14s-.22,0-.18-.1C674.84,585.09,673.41,585.37,674.8,585.14Z"/><path class="cls-10" d="M708.7,471.27s11.78-59.37-9.89-58-22.15,40.15-22.15,40.15,1.89-57.45-24-53-8,51.57-8,51.57-20.73-19.22-30.63-8.2-2.2,28.28-2.2,28.28Z"/><path class="cls-11" d="M710.33,472.86s11.78-59.37-9.89-58S678.3,455,678.3,455s1.88-57.46-24-53-8,51.56-8,51.56-20.73-19.22-30.63-8.2-2.2,28.29-2.2,28.29Z"/><path class="cls-12" d="M613.43,473.66s-13.27,14.12-7.39,17.77,38.54-4.26,38.54-4.26,6.08,27,26,26.37,17.85-18.91,17.85-18.91,16.83,14.65,33.77,10.59-2.66-29-11.83-32.36Z"/><polygon class="cls-13" points="2015.71 551.03 2059.49 594.13 2100.22 593.54 2053.1 551.08 2015.71 551.03"/><polygon class="cls-14" points="2164.58 508.18 2207.07 541.59 2240.72 541 2186.54 508.23 2164.58 508.18"/><polygon class="cls-11" points="2122.98 435.02 2170.96 167.2 2229.7 435.83 2122.98 435.02"/><polygon class="cls-15" points="2164.58 508.18 2171.34 237.08 2186.54 508.23 2164.58 508.18"/><polygon class="cls-10" points="2106.59 472.3 2042.23 144.29 1966.45 471.76 2022.49 471.98 2015.71 551.03 2050.22 550.89 2045.71 472.07 2106.59 472.3"/><polygon class="cls-5" points="1969.33 472.32 2109.48 472.85 2045.11 144.85 1969.33 472.32"/><path class="cls-15" d="M2062.47,366.57S2044,391,2044.12,392.88h0l-4.71-84.08-10.83,126.26-16-21.4,14.93,33.74-8.93,104.18,34.51-.5-8.32-146.43Z"/><polygon class="cls-16" points="139.71 540.42 182.19 602.99 365.19 601.22 285.27 540.42 139.71 540.42"/><path class="cls-10" d="M32.8,231.87h445s-1.49-57.48-31.26-60.43-47.62,30.22-47.62,30.22S357.26-11.32,183.12.47,32.8,231.87,32.8,231.87Z"/><polygon class="cls-10" points="180.31 220.41 141.87 540.42 282.81 540.42 232.27 283.84 265.01 231.87 245.08 228.86 226.58 251.42 217.32 220.41 180.31 220.41"/><polygon class="cls-4" points="182.77 220.41 144.34 540.42 285.27 540.42 234.74 283.84 267.48 231.87 247.55 228.86 229.04 251.42 219.79 220.41 182.77 220.41"/><path class="cls-5" d="M37.37,231.87h445s-1.49-57.48-31.26-60.43-47.62,30.22-47.62,30.22S361.83-11.32,187.69.47,37.37,231.87,37.37,231.87Z"/><path class="cls-7" d="M63.25,231.87S86.52,75.92,170.15,70.81,270.8,182.25,270.8,182.25s12.76-45.94,51.89-41.68,67.2,91.3,67.2,91.3Z"/><rect class="cls-17" x="189.33" y="190.31" width="29.4" height="69.61" transform="translate(31.52 -24.98) rotate(7.59)"/></svg>