<svg id="Layer_1" data-name="Layer 1" xmlns="http://www.w3.org/2000/svg" xmlns:xlink="http://www.w3.org/1999/xlink" width="4083.7" height="651.63" viewBox="0 0 4083.7 651.63"><defs><style>.cls-1{fill:url(#linear-gradient);}.cls-2{fill:url(#linear-gradient-2);}.cls-10,.cls-3{fill:#fff;}.cls-4{fill:url(#linear-gradient-3);}.cls-5{fill:#849d3c;}.cls-6{fill:#adacaf;}.cls-7{fill:#612f26;}.cls-8{fill:#2b1210;opacity:0.51;}.cls-9{fill:#728336;}.cls-10{opacity:0.18;}.cls-11{opacity:0.33;fill:url(#linear-gradient-4);}.cls-12{opacity:0.27;fill:url(#linear-gradient-5);}.cls-13{fill:#6d321f;}</style><linearGradient id="linear-gradient" x1="513.9" y1="599.28" x2="532.38" y2="316.8" gradientUnits="userSpaceOnUse"><stop offset="0" stop-color="#2e5026"/><stop offset="1" stop-color="#6fa943"/></linearGradient><linearGradient id="linear-gradient-2" x1="2.79" y1="484.95" x2="2077.37" y2="484.95" xlink:href="#linear-gradient"/><linearGradient id="linear-gradient-3" x1="2730.65" y1="1142.76" x2="2798.86" y2="294.42" xlink:href="#linear-gradient"/><linearGradient id="linear-gradient-4" x1="1176.07" y1="531.94" x2="1178.43" y2="497.74" gradientUnits="userSpaceOnUse"><stop offset="0" stop-color="#445225"/><stop offset="1" stop-color="#19332f"/></linearGradient><linearGradient id="linear-gradient-5" x1="1468.9" y1="467.56" x2="1471.71" y2="426.82" xlink:href="#linear-gradient-4"/></defs><path class="cls-1" d="M984.92,539.14s-240.15-287.3-332-279.65S599.37,448.25,494.79,432.94,300.94,198.28,239.72,223.78,107.08,455.9,61.17,448.25.29,384.47.29,384.47L0,623.24l1041.88-28.77Z"/><path class="cls-2" d="M1869.89,528S1843.59,126,3.14,543.82c-1,74.23.52-2.56.52,70.13l2073.71,2Z"/><path class="cls-3" d="M4011.05,437.07c-153.47-8.54-200.37,153.49-379.41,168.58S3311.91,322,3090.24,314.14s-243,213.8-481.72,242.66S2276,241,2050.07,233.6s-592.56,401.81-592.56,401.81l2626.18,11.44c.06-50.1-.79-100.29-4-150.72C4009.17,464.61,4062.51,439.94,4011.05,437.07Z"/><path class="cls-4" d="M4080,501c-70.61-31.59-17.39-56.33-68.93-59.19-153.47-8.54-200.37,153.48-379.41,168.58s-319.73-283.67-541.4-291.51-243,213.79-481.72,242.66S2276,245.76,2050.07,238.37s-592.56,401.82-592.56,401.82l2626.17,11.44C4083.79,601.56,4083.05,551.42,4080,501Z"/><path class="cls-5" d="M3020.49,638.69c1.69.16,1.1-1,1.35-1.22C3019.05,637.63,3020.55,639,3020.49,638.69Z"/><path class="cls-5" d="M2992.29,636.86l.62-.32h-1.09l-1.09,0-2.19-.09C2989.8,636.55,2991,636.73,2992.29,636.86Z"/><path class="cls-5" d="M2967.67,626.46a4.74,4.74,0,0,0,2,2c.48.29,1,.57,1.58.85s1.19.5,1.83.75l1.95.74c.66.25,1.34.46,2,.71a24.82,24.82,0,0,1,3.58,1.63l.56.71,2.58-.67c-1.35-.49-2.84-.94-4.34-1.44s-3-1-4.48-1.62l-2.12-.87c-.69-.29-1.35-.58-2-.9A24.23,24.23,0,0,1,2967.67,626.46Z"/><path class="cls-5" d="M2958.14,615.3c.12.56-.58.25-.65.22s.09,0,.54.3l1,.58,1.64.94a4.92,4.92,0,0,1-.37-.48A23.48,23.48,0,0,1,2958.14,615.3Z"/><path class="cls-5" d="M2960.27,616.86c2.28,1.48-1.11-1.54,0,0Z"/><path class="cls-5" d="M2950,609.5c1.08.59,2.11,1.23,3.2,1.78-.33-.8-2.65-3-1.55-2.44-1.51-1-2.2-1.35-2.37-1.18S2949.46,608.54,2950,609.5Z"/><path class="cls-5" d="M2946.5,608.3l1.58,1.06C2948,609,2947.65,608.61,2946.5,608.3Z"/><path class="cls-5" d="M2951.52,611.48l-3.44-2.12c.19.58-.18,1.1,1.54,1C2949,610.61,2950,610.7,2951.52,611.48Z"/><path class="cls-5" d="M2953.09,613.12c1.32,1.6,3.27,3.45-.05,1.72a18.45,18.45,0,0,0,3.24,2c.73.33,1.08.35,1.08.14s-.36-.68-1.08-1.33c-.36-.32-.82-.69-1.35-1.1S2953.79,613.63,2953.09,613.12Z"/><path class="cls-5" d="M2965.47,627.54l1.09,1,1.11.93,2.48.58a13.29,13.29,0,0,1-2.76-1.56C2966.39,627.81,2965.56,627.22,2965.47,627.54Z"/><path class="cls-5" d="M2935.32,592.73c-.48.08-.12,1.62-.36,2.17l2.05,1.76C2936.37,595.41,2934.94,593.25,2935.32,592.73Z"/><path class="cls-5" d="M2935,594.9c-1.05-.87-2-1.79-3-2.71.52.72,1,1.29,1.32,1.72a6.79,6.79,0,0,0,.9.9C2934.62,595.18,2934.85,595.13,2935,594.9Z"/><path class="cls-5" d="M2944.53,609.47c1,.56,2,1.16,3,1.69l3,1.58-3.54-2-3.47-2.14Z"/><polygon class="cls-5" points="2926.92 580.32 2928.88 581.72 2925.61 579.07 2926.92 580.32"/><path class="cls-5" d="M2922.15,571.62c.73.57.78-.08.83-.7s.08-1.22.65-.54a20.91,20.91,0,0,0-2-3.17c-.66-1-1.36-1.86-2-2.71a16.83,16.83,0,0,1,1.43,3.15A26.21,26.21,0,0,1,2922.15,571.62Z"/><path class="cls-5" d="M2917.66,561.73a12.67,12.67,0,0,0,.86,1.35l.5.68.58.74c-.15-.25-.3-.5-.46-.75s-.29-.46-.45-.68C2918.38,562.62,2918,562.17,2917.66,561.73Z"/><path class="cls-5" d="M2928.15,586.49a5,5,0,0,0-.69-3.28l-.15,1.95C2927.57,585.57,2927.85,586,2928.15,586.49Z"/><path class="cls-5" d="M2927.31,585.23v-.07c-.45-.73-.84-1.34-1.13-1.83s-.48-.87-.61-1.09C2925.79,582.62,2926.27,583.54,2927.31,585.23Z"/><path class="cls-5" d="M2928.36,586.83a3.87,3.87,0,0,1-.21-.34C2928.13,586.69,2928.15,586.78,2928.36,586.83Z"/><path class="cls-5" d="M2937.74,601.13c-1-.68-2.51-1.83-3.43-2.3-.45-.24-.76-.31-.82,0a1.54,1.54,0,0,0,.13.69,9.64,9.64,0,0,0,.65,1.28C2936,601.54,2934.62,599.09,2937.74,601.13Z"/><path class="cls-5" d="M2928.25,589.28c.75,1.23,1.49,2.47,2.31,3.66.2-.26.1-1.14,1.07-.4-.57-.53-1.16-1-1.72-1.6Z"/><path class="cls-5" d="M2926.75,587.75c.47.53,1,1,1.5,1.53l-.83-1.36Z"/><path class="cls-5" d="M2919.08,568.65a13.72,13.72,0,0,1-1.51-2.5q-.33-.67-.66-1.41c-.2-.48-.39-1-.58-1.45.13.56.26,1.1.45,1.69s.37,1.18.57,1.76.39,1.17.6,1.74.47,1.12.7,1.67C2919.13,570.32,2920.16,571,2919.08,568.65Z"/><path class="cls-5" d="M2922.62,576.91c-.09-.09-.18-.23-.26-.32C2922.4,576.85,2922.46,577.05,2922.62,576.91Z"/><path class="cls-5" d="M2914.9,544.08l-.28.19.17.11Z"/><path class="cls-5" d="M2918.62,570.61a8.18,8.18,0,0,0,.91,2.1,9,9,0,0,0,1.13,1.33c-.34-.59-.72-1.19-1-1.84s-.65-1.34-1-2.05C2918.44,570.08,2918.33,570.1,2918.62,570.61Z"/><path class="cls-5" d="M2915.79,556.41a18.89,18.89,0,0,0,0,2.94C2915.89,558.42,2916.14,556.65,2915.79,556.41Z"/><path class="cls-5" d="M2922.37,575.89c.05.08.11.14.17.22C2922.49,575.47,2922.42,575.59,2922.37,575.89Z"/><path class="cls-5" d="M2922.37,575.89a15.58,15.58,0,0,0-1.71-1.85,22.54,22.54,0,0,0,1.7,2.55A2.32,2.32,0,0,1,2922.37,575.89Z"/><path class="cls-5" d="M2911.28,535.15c.29.5-.22,1.89-.9,3.6-.32.87-.72,1.82-1.12,2.82s-.86,2-1.36,3.07a3.82,3.82,0,0,0,.21,1.35,1.7,1.7,0,0,0,.55.77,1.84,1.84,0,0,0,1.7.11,19.36,19.36,0,0,0,4.26-2.6.85.85,0,0,1-.54-.68,5.79,5.79,0,0,1,.39-2.94,2.51,2.51,0,0,0-.51.44,7.89,7.89,0,0,0-.65.77,20,20,0,0,0-1.3,2,6.07,6.07,0,0,1-1,1.46c-.26.19-.47,0-.53-.89.35-2.65,1-3.59,1.51-4.13a4.61,4.61,0,0,1,.84-.63c.16-.11.32-.22.49-.36a4.52,4.52,0,0,0,.61-.48c-.55.21-.73-.05-.69-.62a6.28,6.28,0,0,1,.26-1,11.75,11.75,0,0,1,.56-1.22c.43-.87,1-1.7,1.36-2.4s.48-1.23-.07-1.48a16.35,16.35,0,0,0-3.46,4c-.16-.06,0-.53,0-.87S2911.89,534.68,2911.28,535.15Z"/><path class="cls-5" d="M2913.71,550.76c.05.51.11,1,.19,1.52a8.51,8.51,0,0,1,.44-2.4,11.57,11.57,0,0,1,1.17-2.52,16.88,16.88,0,0,0-.31-2.23,1.28,1.28,0,0,0-.41-.75,22,22,0,0,0-.91,6.9Z"/><path class="cls-5" d="M2915,559.3a10.65,10.65,0,0,1-2-2.41c-.57-.76-1.08-1.1-1.51.25.51,2.46,1,3.25,1.45,3.77a7.74,7.74,0,0,1,1.57,2.11,15.18,15.18,0,0,1-.86-2.95c0-.25.2.06.44.43s.55.79.73.76.23-.48.06-1.87c.55,1.42,1,2.7,1.45,3.9a27.59,27.59,0,0,1-.58-3.94l0,.19v0h0c-.06.35-.12.48-.13.1a.59.59,0,0,1-.06-.14,1.19,1.19,0,0,1-.52-.23c-.25-2.21.22-.41.52.23a.65.65,0,0,0,.19,0,0,0,0,0,0,0,0,42.16,42.16,0,0,1-1.82-7.26,14.5,14.5,0,0,0,.17,2.79A31.94,31.94,0,0,0,2915,559.3Z"/><path class="cls-5" d="M2929.36,598.9c-.08-.27,0-.31,0-.38C2928.94,598.18,2928.72,598.07,2929.36,598.9Z"/><path class="cls-5" d="M2927.75,595.65c.25.21.55.34.93.63a7.52,7.52,0,0,1,1.42,1.57c.84,1.59-.45.35-.7.67,1,.76,3.38,2.77,1.4-.55l-.5-.37a26.92,26.92,0,0,1-2.23-4.75c-.48-1.45-.68-2.46-.44-2.26A9.91,9.91,0,0,0,2927.75,595.65Z"/><path class="cls-5" d="M2919.11,577.61l-1.81-3c-.31-.5-.59-1-.86-1.54l-.85-1.56.26,1.86c.08.63.17,1.25.29,1.86l.48-.43C2918.17,578.51,2918.47,577.38,2919.11,577.61Z"/><path class="cls-5" d="M2915.64,543.74c.32.33.66.67,1,1a14.27,14.27,0,0,1-.62-3A13.54,13.54,0,0,0,2915.64,543.74Z"/><path class="cls-5" d="M2918.63,539.15c.18.33.36.65.55,1a8.08,8.08,0,0,1,.68-1.3c-.2,0-.41.08-.61.14Z"/><path class="cls-5" d="M3097.22,518.59l0,2.46A20,20,0,0,0,3097.22,518.59Z"/><path class="cls-5" d="M3097,501.26l-.6-.32C3096.78,501.67,3097.05,502,3097,501.26Z"/><path class="cls-5" d="M3001.75,531.19c-.62-3.17-.78-6.94-1.7-6l-.62,1.4A19.68,19.68,0,0,1,3001.75,531.19Z"/><path class="cls-5" d="M3003.33,419.56l-.84-.52c-.82.28-1.57.51-2.25.79C3001.17,419.7,3002.21,419.65,3003.33,419.56Z"/><path class="cls-5" d="M3006.51,415.14c1.36.53,2.69,1.13,4,1.73A23.15,23.15,0,0,0,3006.51,415.14Z"/><path class="cls-5" d="M3067,441.05l.22-.85c.08-.28.17-.56.27-.83.18-.56.38-1.13.58-1.69a16.46,16.46,0,0,0-1.6,2.17c-.24.48-.28.71-.22.83S3066.88,440.71,3067,441.05Z"/><path class="cls-5" d="M2999,562.36l1.2,1.38,1.09,1.24c.7.78,1.38,1.43,2,2-.88-1.28-1.65-2.49-2.33-3.39S2999.67,562.23,2999,562.36Z"/><path class="cls-5" d="M3085,511.6a10.77,10.77,0,0,0,.33,1.25c.1.27.22.39.36.38a7.38,7.38,0,0,0-.11-.8,2.64,2.64,0,0,0-.18-.56C3085.28,511.58,3085.15,511.48,3085,511.6Z"/><path class="cls-5" d="M3008.54,572.11c-.23-.4-.49-.75-.74-1.14-.72-.58-1.42-1.19-2.17-1.82s-1.51-1.32-2.3-2.12a18.84,18.84,0,0,0,2.24,2.8A10.22,10.22,0,0,0,3008.54,572.11Z"/><path class="cls-5" d="M3226.21,534.94c.28.06.61.09.85.15C3227.15,534.93,3226.77,534.92,3226.21,534.94Z"/><path class="cls-5" d="M3239.51,614.45c.19-.82.67-2.1,1-3.34a10.85,10.85,0,0,0-.44,1.22C3239.92,612.88,3239.72,613.57,3239.51,614.45Z"/><path class="cls-5" d="M2949.49,539.26c-1.84-.32-.32.07,0,0Z"/><path class="cls-5" d="M2941.14,533c.43-.08.76-.21.85-.47A1.33,1.33,0,0,1,2941.14,533Z"/><path class="cls-5" d="M3026.47,582.39l.1.14C3026.42,581.91,3026.44,582,3026.47,582.39Z"/><path class="cls-5" d="M2946.84,538.17l1.07.4c.38.14.78.28,1.21.41A16.11,16.11,0,0,0,2946.84,538.17Z"/><path class="cls-5" d="M2947.1,538.79l-1.58-.4C2945.25,538.55,2945.44,538.71,2947.1,538.79Z"/><path class="cls-5" d="M2952,539.76c-1-.24-2-.48-2.92-.78.34.16.47.26.37.28C2950,539.36,2950.79,539.48,2952,539.76Z"/><path class="cls-5" d="M3173,512.79c0,.14,0,.3,0,.45C3173.84,515.2,3173.61,514.31,3173,512.79Z"/><path class="cls-5" d="M2968,489.83c.05.08.1.12.14.19l-.07-.29Z"/><path class="cls-5" d="M2964.43,483.39a11.25,11.25,0,0,1,2.51,3.19,18.26,18.26,0,0,1,1.09,3.15c.76-1.18,1.5-2.35,2.28-3.52Q2967.39,484.83,2964.43,483.39Z"/><path class="cls-5" d="M3065.92,493.51l.46,2.75.56,2.75c-.52-.68-1-1.35-1.45-2s-.79-1.28-1.13-1.86-.63-1.11-.88-1.58-.44-.87-.61-1.19c-.69-1.25-.89-1.12-.76,1.66.95-.12,1.93,1.08,2.92,2.93.53.91,1.06,2,1.61,3.13s1.15,2.35,1.78,3.55c2.47,4.79,5.49,9.3,7.29,8.55.44,1.14.87,2.29,1.38,3.41-.58-.86-.86-.86-1.4-1.74,1.26,3.42,2.65,4.08,4.26,4.77a16.67,16.67,0,0,1,2.7,1.42,13,13,0,0,1,1.62,1.37,19.73,19.73,0,0,1,1.95,2.1l.26.36,6.25,8.36,2.85-11c.74-2.89,1.53-4.8,1.64-2.63,0-.61.05-1.23,0-1.84l-.1-1.84-.11-1.83c0-.6-.15-1.2-.22-1.8,0-2.09.71-1.61.65.51l-.1-2.77c0-.92-.17-1.83-.26-2.74-.15-1.84-.52-3.62-.84-5.41l.12.07c-.38-.73-1.06-1.88-1.66-3-.31-.57-.59-1.16-.89-1.68l-.77-1.36c-.21-2.72.75,1.18,1,.4l-1.23-2.69-1.38-2.59c.08-1.28.72-.88,1.51.36a13.68,13.68,0,0,1,1.2,2.37,26.26,26.26,0,0,1,.92,3,7.63,7.63,0,0,0,.5-3.61,7.21,7.21,0,0,0-1.13-2.56c-.27-.45-.56-.94-.87-1.52a21.05,21.05,0,0,1-1-2,47.15,47.15,0,0,1-2.27-6.52c.5.79.93,1.62,1.41,2.43s.94,1.62,1.36,2.47a9,9,0,0,0-.15-3.11,17.77,17.77,0,0,0-1-3.22c-.45-1.1-.92-2.29-1.47-3.56s-1.09-2.66-1.64-4.2c.06.41.3,1.42.57,2.62a33.06,33.06,0,0,1,.68,3.74c.24,2.35,0,3.76-1.91,1.17a13.82,13.82,0,0,0-.52-1.36c-.23-.48-.49-1-.81-1.51a18.06,18.06,0,0,0-1.12-1.67,20.26,20.26,0,0,0-1.58-1.78c.55-.36.33-1.21-.33-2.39-.35-.58-.8-1.24-1.32-2s-1.09-1.53-1.72-2.34l1.61-.8c-3.06-3.37-3.61-2.49-5.83-4.07-2.94-3.94-2.63-5.56-2.51-7.23-2.58-3.08-2.06-1.68-1.73-.37s.48,2.49-2.78-.85c-4-5.23-7.87-8-14.53-12.19-3.18-3.34,1.31-.34.35-1.76-1.37-.49-2.7-1-4.07-1.41-.77-.63-.26-.78,0-.86-1.53-.82-1.85-.5-2.36-.33s-1.2.17-3.52-1.16c-.57.2-1.32-.22-2.22-1s-2-1.9-3.27-3.06c-.64-.58-1.31-1.2-2-1.77a26.5,26.5,0,0,0-2.26-1.63,13,13,0,0,0-5-2c-1.25-1.18,1.18-.61,1-1.45-4.46-1.39-6.4-1.85-8.14-2.24-.88-.17-1.72-.31-2.81-.45s-2.46-.27-4.38-.39q-2.82-1.53-5.78-2.91c2.11,1.25,1.57,1.87-.1,2.15a24.77,24.77,0,0,1-3.2.31c-1.24.1-2.59.12-3.89.23,1.45.91,2.64,1.78,3.47,2.22-2.65-.26-5.29-.47-7.92-.49-.9-.42-.05-.91,1.36-1.46-.56.07-1.09.14-1.51.22-1.36-.54-1.66-.95-1.34-1.39a5.31,5.31,0,0,1,2.38-1.16l1.39.74,1.33.8c2.15-.74,4.28-1.44,4.08-2.56a15.24,15.24,0,0,1-2.78-.07c.59-.2,1-.39.77-.61s-1.19,0-2.61.21c-.51-.77-1-1.49-1.6-2.24l-.57.71a91.49,91.49,0,0,0-11-2.07,63.17,63.17,0,0,0-11.86,4.21,54,54,0,0,0-6.28,3.42,28.36,28.36,0,0,0-6.33,5.37c.58-1.55.37-2.15-.21-2.47s-1.47-.37-2-1.05c2.07-.73,4.09-2.46,6.78-4.12a22.8,22.8,0,0,1,9.37-3.47c-1.78.18-2.54.13-2.73-.11s.18-.59.62-.82a38.62,38.62,0,0,0-6,2.55,27.88,27.88,0,0,0-5.5,3.84c-.27-.66-1-.49-2.12.19a29.17,29.17,0,0,0-3.86,3.2c1-.15,1.12.42.83,1.35a17.93,17.93,0,0,1-.73,1.68c-.27.67-.66,1.4-1,2.21l-.48,1.26c-.09.22-.17.43-.25.65l-.2.67-.39,1.36c-.12.46-.19.92-.28,1.37a16.47,16.47,0,0,0-.28,4.75c-.48.13-.93-.11-1.17-1.2s-.25-3.1.91-6.31a9.42,9.42,0,0,0-.71,1.2,9.67,9.67,0,0,0-.43,1.16,8.2,8.2,0,0,0-.28,1.11c0,.36-.06.71-.07,1a10.93,10.93,0,0,0,.67,3.66,32.27,32.27,0,0,1,1.12,3.36,8.19,8.19,0,0,1,.16.91c.05.31.09.63.11,1a12.28,12.28,0,0,1-.1,2.22c-.12-.7-.15-1.26-.22-1.7a1.8,1.8,0,0,0-.44-1,48,48,0,0,1,1.29,6.66c.29,2.17.35,3.74-.28,2.92-.12-.45-.25-.9-.35-1.37a65.33,65.33,0,0,0,2.15,8c1,2.85,2,5.86,3.08,8.6,2.3,5.43,4.56,9.83,5.94,10a9.34,9.34,0,0,1-3.72-.43c4.42,4.06,8.74,8,13.26,11.82-1.2-.24-2.39,1.33-3.76,2.18s-2.94,1-4.92-2.25a27.67,27.67,0,0,0,3.73,8.53c-.36-1.45,1.25-4.5,2.18-2.74.15,5.88.44,3.92,1.46,10.86-.5-2.17,3.35-1.28,4.75,1.84-.66-.28-2.7,1.6-3.54.6,2.18,2.14,4.33,4.27,6.51,6.37-1.45-1.66-2.54.82-2.45,2.93.07-.53.89,1.13,1.86,3.17a48.47,48.47,0,0,0,2.77,5.37c-.36-1.17-.7-2.36-1-3.56a17.67,17.67,0,0,0,3.08,4.86,20.57,20.57,0,0,0,3.14,2.71,19,19,0,0,1,6.5,7.27c-1.11-.69-4.84-.59-2.82,3.87,1.22.6,4.13,1.79,7.36,3.67a42.3,42.3,0,0,1,4.94,3.32,27.51,27.51,0,0,1,4.54,4.36l0,1.85c1.38,1.68,2.81,3.32,4.22,5-1-.54-2.44-1.39-4.06-2.42s-3.39-2.27-5.21-3.58-3.69-2.67-5.35-4-3.2-2.62-4.4-3.73c1.18,3.5-.43,1.41,2.34,6.08.22,2.09-2.59-1.92-3.43-3.29,1.92,3.77,3.92,7.48,5.91,11.2.67-.72,2.28,1.13,3.91,3s3.22,3.72,3.76,3.11l-4.38-5.34-4.32-5.41c.65-.7,2.8.33,5.31,2.51a36.62,36.62,0,0,1,7.6,9.34c.55,2.32-3.7.3-4.13.77,1.13.67,5.5,6.54,5.55,7.48l-2.85-2.68c1,2.29,2.62,3.68,4.16,5.25a13.65,13.65,0,0,1,3.93,6.27c1,1.8,1.3,6.46,2.42,6.17,0-4,5.13-8.06,7.67-7.06.27.68,4.13,10.12,4.55,12.64.46,3.73-6.09-2.07-5.72,1.12.5-.18,2,1,2.64,1.58.82,2-1.81.11.95,3.91a1.59,1.59,0,0,1,1.3.65l7.07-3.81c-1.46-2.07-2.4-6.6-1.2-.55a23.62,23.62,0,0,1-1.32-2.53c-.31-.71-.56-1.31-.79-1.95s-.46-1.31-.79-2.13a31.92,31.92,0,0,0-1.5-3c-.06.54-.46.65-1.07.48a9.82,9.82,0,0,1-2.36-1.27,26.57,26.57,0,0,1-2.87-2.27,21.54,21.54,0,0,1-2.62-2.61c.55-.05.5-1.24.44-1.81-2.55-3.94-4.63-6.9-6.69-9.79-1.08-1.41-2.1-2.85-3.33-4.25-.6-.71-1.22-1.45-1.89-2.19s-1.41-1.48-2.19-2.26c-.22-.92-3-4.24-1.11-3.58-.58-.32-1.19-.57-1.92-1a13.81,13.81,0,0,1-2.63-1.78c-.72-1.2-.82-1.52-.53-1.46a6.82,6.82,0,0,1,1.6,1.08c1.34,1,2.84,2.17,2,.09-.25.15-.78,0-1.47-.35s-1.56-.88-2.54-1.45-2-1.26-3-1.87-2-1.19-2.92-1.64a2.83,2.83,0,0,0,1.1,1.8,12.52,12.52,0,0,0,1.24,1c.46.35,1,.73,1.49,1.1,2.15,1.44,4.67,3,6.35,4.07-.77.85-2.85.6-5.62-.45a47.37,47.37,0,0,1-4.71-2c-.88-.4-1.78-.85-2.7-1.34s-1.9-1-2.88-1.52a19.33,19.33,0,0,1-2.87-2c-.47-.45-.53-.72-.43-.9.19-.36,1-.34.41-.55a27.51,27.51,0,0,0-6.69-3.59,22.13,22.13,0,0,0-4.51-1.07,23,23,0,0,1-4-.91c-.37-.13-.75-.28-1.15-.46s-.83-.36-1.29-.59c-.91-.44-1.9-1.05-3.08-1.75-1.72-1.5-1.51-2.22-.9-2.71s1.61-.78,1.35-1.46c.71.22,1.36.44,2,.68s1.16.52,1.69.79a23.61,23.61,0,0,1,2.82,1.68c.84.58,1.62,1.14,2.41,1.67a21.41,21.41,0,0,0,2.45,1.51l-2-1.46c-.67-.47-1.36-.93-2-1.4a17.54,17.54,0,0,1,3.71,1.25c.68.3,1.35.64,2,1a10.38,10.38,0,0,1,1.55,1.09c-1.28-1.52-6.32-4.4-12.39-7-3.05-1.29-6.32-2.6-9.49-3.72-.8-.28-1.57-.58-2.34-.84l-2.26-.78c-1.46-.54-2.85-1-4.1-1.47h-1.61c-.56,0-1.11,0-1.56.07-.89.08-1.36.26-.68.71,1.1.17,2.2.31,3.28.54,1.34,1-.28,1-1.71,1s-2.72,0-.76.72c-1.12,0-2.26,0-3.45,0s-2.41,0-3.67,0a38.6,38.6,0,0,1-3.94-.21,33.21,33.21,0,0,1-4.28-.62l-1-1.76c.11.46,3.9,1.34,5.66,1a7.2,7.2,0,0,1-2.57-.28l-1.62-.44c-.56-.16-1.15-.29-1.74-.43a15.57,15.57,0,0,0-3.46-.51,4.18,4.18,0,0,0-2.7.78c1.4.39,2.78.81,4.17,1.29a45,45,0,0,0-6.74,1.58c-2.21.67-4.18,1.39-6,1.89a4.5,4.5,0,0,0,1.09.33,1,1,0,0,0,.5-.09c.31-.11.8-.26,2.37.45-.72-.49-.47-.85.33-1.13a14,14,0,0,1,3.62-.43,35.49,35.49,0,0,0,3.62-.12c.77-.12.86-.44-.4-1.13a11.55,11.55,0,0,0,2.66,1.29,25.85,25.85,0,0,0,2.6.62c.88.2,1.8.38,2.79.67a15.22,15.22,0,0,1,3.2,1.39c0-.29-.43-.62-.29-.76s.85-.15,3,.39a4.62,4.62,0,0,1,1-.32l.29.1-.23-.11c.2,0,.22-.06-.08,0a6,6,0,0,1-2.07-1.23,15.32,15.32,0,0,1,5.89-.08l1.75.21,1.64.25a18.19,18.19,0,0,0,2.58.24c2.49,1-1.24.31,0,1.29l3.73.06c0,.65,1.51,1.69,2.25,2.41s.7,1.11-2.33.5l2.62.89c.87.31,1.72.65,2.59,1a48.39,48.39,0,0,0,4.78,2.64,26.38,26.38,0,0,0,4.68,1.88c2.22,1.34,6.49,1.81,4,1.59l2,.85,2,.92c.66.31,1.33.6,2,.92l1.95,1-.09.31c3.59,2.35,7.52,4.47,11.29,7.14a35.52,35.52,0,0,1,10,10.2,35,35,0,0,1,7.4,7.75l-.24,1.41c.32.33.66.72,1,1.15s.67.94,1,1.45l1,1.59c.34.54.66,1.1,1,1.63,1.31,2.13,2.39,4.07,3.3,4.43a8.09,8.09,0,0,0,.51,2.89c.19.54.43,1.11.7,1.71s.54,1.23.86,1.87l4.26,8.26,15.69-8.45a81.2,81.2,0,0,1-4.86-7.21l-1.32.55c-1.27-2-2.59-3.92-4.06-5.9s-3.1-4-4.91-6.37l-.85,1c-3.59-3.73-6.25-11.48-10.52-18.25.69.22,1.64,2,2.14,3.4-1.29-4.83-4.37-8.84-7.38-12.78s-6-7.77-7.31-12a11.54,11.54,0,0,1-2.54-4.58,2.27,2.27,0,0,0,.32.44c-.09-.2-.25-.49-.42-.78-.27-.94-.53-1.91-.86-2.94a16.11,16.11,0,0,0,.63,2.53c-.82-1.45-2.2-3.57-3.63-5.6l.68-1.56c-.11-.17-.18-.31-.3-.49-.7-2.36-1.47-1.42-1.74.19a20.88,20.88,0,0,0-2.25-2.51c.5-1.38-.44-2.71-1.35-4.16s-1.86-3-1.44-4.71c-.86-.5-2.5-3.15-4.12-5.76s-3.42-5.11-4.77-5.21c.24-.2.06-.92.65.28-.94-2.61-1.79-5.25-3.42-7.23l1.06-1.75c-1.53-1.51-3-3.07-4.47-4.62-.47-3.78-.5-5.39,2.11-2.56-1.31-1.82-2.19-3.12-2.82-4.15s-1-1.79-1.39-2.5a40.09,40.09,0,0,0-3.74-5.84l1.16,0c-1-2.48-3.76-6-3.45-7.82a35.7,35.7,0,0,0-1.42-7.27c-.43-1.57-1-3.33-1.49-5.14s-1-3.72-1.45-5.69a34.46,34.46,0,0,1-.81-11.79c.55-3.66,2.17-6.58,4.37-8.14-.94-.16-1.16-.38-.92-.73a1.79,1.79,0,0,1,.24-.27,3.47,3.47,0,0,1,.4-.26,6.15,6.15,0,0,1,1.06-.55l.6-.26c.22-.07.43-.15.63-.23.39-.17.81-.3,1.13-.48.67-.34,1.13-.73,1-1.36.5.21,1.17.24,1.52.41s.36.44-.37,1.12a12.21,12.21,0,0,1,3.88-1.42,26.81,26.81,0,0,1,3.61-.41,19.82,19.82,0,0,0,6.89-1.31c.82.76-1.56,1.13-.82,1.58a10.42,10.42,0,0,1,1.46-.34,2.6,2.6,0,0,1,1.59.17c.71.48-1.08.59-2.21.93.91,0,1.72,0,2.44-.1s1.36-.13,1.93-.23A7.86,7.86,0,0,0,2995,425a5.13,5.13,0,0,0,2.14-2.91,17.78,17.78,0,0,0,4.6,1.35,11.37,11.37,0,0,0,4.12-.41c.6.48,1.4,1.08,1.46,1.41s-.61.39-3,0c1.31.29,5.23,1.5,8.82,2.7s6.9,2.33,7.37,1.56a5.71,5.71,0,0,0,2,1.1,15.55,15.55,0,0,0,2.13.65c2.74,1.33,4.18,2.17,5.61,3,.73.39,1.44.8,2.3,1.29l1.43.79,1.75,1-1.28-1.11a4.69,4.69,0,0,1,4,1.2c1.27.95,2.64,2.28,4.7,3.6l-.24.09c4.08,3.9,5,4.58,6.1,5.18a10.75,10.75,0,0,1,1.83,1.41,19.8,19.8,0,0,1,1.52,1.57c.6.68,1.34,1.52,2.19,2.62l.45-1.39c.67-.35,1.4,0,2.18.71a20.43,20.43,0,0,1,2.5,3.26c1.79,2.66,3.7,6,6.19,8.1-.31-.75-.62-1.51-1-2.25,1.54,1,2.42,3.51,3.06,6.12.31,1.3.56,2.63.86,3.81a11.1,11.1,0,0,0,1,3c.23.75-1-.71-1.76-1.43,1.93,4.06,2.37,4.06,3,3.67s1.22-1.17,3.23,1.52c-.15,1.54-2.83,0-.66,3.79a8,8,0,0,0,1.6,2.52c.45.54.92,1.16,1.44,1.82s1.09,1.36,1.6,2.12c2.19,3,4.1,6.73,4.13,9.79.18-.73.27-1.45.57-1.67.14-.1.32-.08.56.14a2.83,2.83,0,0,1,.41.49,7.57,7.57,0,0,1,.46.84,14.77,14.77,0,0,1,.74,3.93c.05.73.09,1.48.14,2.25s0,1.53,0,2.29c0,.37,0,.75,0,1.12s0,.74,0,1.11a17.67,17.67,0,0,0,.12,2.09,8.11,8.11,0,0,0,.9,3.59c-.23.57-.44.77-.62.79.07.74.14,1.68.17,2.74s-.08,2.2-.13,3.36l8-2.36c-1.18-1-2.4-2.05-3.43-2.93-.52-.44-1-.81-1.45-1.13a5.85,5.85,0,0,0-1.16-.71,3.83,3.83,0,0,0-.2-2.28,12.61,12.61,0,0,0-1.4-2.68c-.58-1-1.35-1.94-2.08-3q-.57-.78-1.17-1.56c-.38-.54-.77-1.07-1.15-1.6-.79-1-1.46-2.15-2.12-3.14a26.92,26.92,0,0,1-1.51-2.83c-.71-1.72-.82-3,.17-3.33a77.76,77.76,0,0,1-3.58-10.43l.49.17-.27-1.23c-.08-.4-.16-.78-.23-1.14-.15-.73-.32-1.39-.47-2a30.85,30.85,0,0,0-.89-3.1,31.7,31.7,0,0,0-1.79-4.09c.2-1.64.66-.48.88-.36,0-1.27.11-2.39.17-3.39s.15-1.88.26-2.68.15-1.52.24-2.19.12-1.3.19-1.91c.1-1.23.17-2.41.25-3.82.07-.69.08-1.47.2-2.29.06-.42.1-.87.17-1.34s.17-.95.27-1.47c.52-.06,1.06-.09,1.6-.11a3.58,3.58,0,0,1,.46-1.1,15,15,0,0,1,1.14-1.52,20.58,20.58,0,0,1,4.05-3.37,24.9,24.9,0,0,1,2.71-1.48c1-.45,2-.85,3-1.22s2.14-.68,3.25-1l3.38-.88c-.08.16-.25.45-.94.71a18.2,18.2,0,0,1,8.31,0,40.4,40.4,0,0,1,8.3,2.85c2.57,1.14,4.83,2.35,6.82,3.11a14.55,14.55,0,0,0,2.83.86,5.29,5.29,0,0,0,2.52-.17c1.21.42,2.34,1,3.51,1.54l1.76.82c.6.26,1.15.6,1.72.9l-1.24-1.06c-.36-.28-.66-.53-.91-.75a3.56,3.56,0,0,1-.85-.95c-.19-.41.27-.44.91-.37,1.26.13,3.22.67,1.7-.86a12.47,12.47,0,0,1,2.57,2,17.74,17.74,0,0,1,1.91,2.18c.44.63.62,1.14.47,1.26s-.63-.12-1.65-.8l-.45-.66c-.76.24-.55.88.16,1.72a33.69,33.69,0,0,0,3,3.1l.9.84.83.88c.53.57,1,1.12,1.43,1.6a6.83,6.83,0,0,1,.88,1.25c.16.34.16.61,0,.74,1.64,1.78,3.31,3.53,4.78,5.45s2.89,3.86,4.28,5.82c.66,1,1.27,2,1.9,3l1,1.52L3151,478c.57,1.05,1.15,2.09,1.7,3.14l1.53,3.2c.53,1,1,2.15,1.43,3.23l.68,1.62c.23.54.47,1.08.66,1.63.4,1.1.81,2.19,1.21,3.28l.3.82.27.83.53,1.66c.75,2.18,1.33,4.41,2,6.61.32,1.1.54,2.22.82,3.32s.56,2.2.77,3.32l.76-1.25.73-1.26c.27,1,.44,2.1.65,3.16s.42,2.1.6,3.16c-.09.88-.39,1.51-.75,1.35s-.73-1.1-1.19-3.32a4.72,4.72,0,0,0,.13,2.21,12.3,12.3,0,0,0,.84,2.41,17,17,0,0,0,1.08,2c.32.51.57.83.68.85.18,4.52-.52,3.7-1.22,2.14-.35-.79-.7-1.76-1-2.37s-.41-.84-.3-.17l.62,3.64.13-.86c.6,1.44,1.14,2.2,1.54,3.3a12.74,12.74,0,0,1,.54,2,20.3,20.3,0,0,1,.34,3.27c-.22,3.51-1.15,1.85-1.15,3.22-.07,0-.12.11-.12.43a12,12,0,0,0,.12,1.67c0,1.34,0,2.68,0,4l-.14,4,1.64-3.21c.78,3.62-.33,7.68,1.66,3.95a11.76,11.76,0,0,0-1,2.89c-.14.61-.26,1.27-.38,2s-.26,1.46-.38,2.25c-.24,1.57-.43,3.29-.69,5.07-.11.89-.23,1.8-.34,2.71s-.25,1.83-.38,2.74c-1,7.3-2.19,14.34-3,15.91a44.1,44.1,0,0,1-2,12.56l6.89,1.68c.14-.53.29-1.08.45-1.64.07-.28.15-.57.23-.85a6.64,6.64,0,0,1,.28-.86,2.22,2.22,0,0,1-.71.72.57.57,0,0,1-.71,0,1.44,1.44,0,0,1-.27-1.2,11.7,11.7,0,0,1,.79-2.77c.71.79,1.33.63,2,0a20.39,20.39,0,0,0,2.16-3.08,32.85,32.85,0,0,1,2.78-3.91,8.94,8.94,0,0,1,3.37-2.53c-.9.44-.84,0-.3-1a16,16,0,0,1,1.11-1.7l1.52-2c2.12-2.61,4.29-5,1.25-3.84,1.7-1.41,2-1.21,2.22-.86s.42.83,1.93,0c3.33-4,8.08-7.33,13.4-10.33l2-1.13c.66-.36,1.33-.71,2-1.06,1.35-.69,2.73-1.36,4.12-2,2.78-1.28,5.6-2.44,8.41-3.5,0-.52-2.18-.58.13-2.09a32.86,32.86,0,0,1,6.64,1c1.07-.26,1.5-1,2.23-1.49a2.28,2.28,0,0,1,1.39-.44,3,3,0,0,1,1,.15,5.49,5.49,0,0,1,1.26.55c-.49-.46-1.33-1.17.19-1.17a20.13,20.13,0,0,1,13,8.8c3,4.62,4.64,10.68,5.2,16.94a66.82,66.82,0,0,1,.09,9.61c0,.82-.1,1.63-.17,2.45s-.13,1.63-.22,2.44l-.32,2.42-.17,1.22-.22,1.2a65.44,65.44,0,0,1-6,18.45c1.9-3,1.35-.81.58,1.74.73-1.59,1.13.39,1.86.27l-.62,1.23-.66,1.21-1.32,2.41c-.95,1.58-1.83,3.16-2.83,4.68a4.76,4.76,0,0,1-.29,2.77,37.56,37.56,0,0,1-1.56,3.7c-.62,1.25-1.21,2.49-1.62,3.51s-.62,1.84-.37,2.3c.45-1.07.94-2.11,1.34-3.19-.12,2.51,1.62,1.65,3.67.26l1.58-1.08c.52-.36,1-.71,1.5-1,1-.55,1.8-.82,2.33-.39.07-2.94,2.22-5.86,4.3-9.41s4-7.74,3.45-12.49c1-1.8.43,1.85,1.28,1a11.11,11.11,0,0,1-.09-4.14,44.2,44.2,0,0,1,1.35-6l.18.62c1.09-7.08,1.73-12.16,2.29-17.5a74.44,74.44,0,0,0,.5-8.71c0-.8,0-1.63-.05-2.49s-.12-1.75-.18-2.68-.22-1.89-.35-2.89-.33-2-.58-3.13c-.3.54-.63,1.06-1,1.58-.74-3.64-.71-4.52-1-6.34-.89-.85-1.07-.62-.91.11a6.25,6.25,0,0,0,.17.64c.07.24.14.51.23.79.17.57.39,1.21.58,1.85s.33,1.29.47,1.87a7.11,7.11,0,0,1,.19,1.48c0,.78-.24,1-1,.22a6,6,0,0,0,.19-1.15,12.79,12.79,0,0,0-.07-1.46,19.55,19.55,0,0,0-.78-3.63,28.44,28.44,0,0,0-4.47-8.43,23.63,23.63,0,0,0-1.64-2,24.68,24.68,0,0,0-1.76-1.78c-.31-.28-.58-.57-.89-.82l-.92-.74c-.6-.49-1.17-1-1.75-1.37-2.27-1.67-4.19-2.79-4.85-3.84a5.73,5.73,0,0,0-2.53-.51c-.26.08-.07.32.11.57s.35.48.1.56a8.2,8.2,0,0,1-2.43-.31c-.49-.36-1-.71-1.52-1.06q-.86.43-1.65.9c-3.91-.41-5.95-1.06-6.19-1.78,1,0,2.77-.41,3.86-.45a22.32,22.32,0,0,0-9.5.9c-3.06.87-5.47,2-6.31,2.14a54.91,54.91,0,0,1,5.48-1.16,79.25,79.25,0,0,0-11.33,4.46c-1.85.9-3.68,1.86-5.47,2.87s-3.56,2.11-5.23,3.21a92.55,92.55,0,0,0-9.66,7.08,59.79,59.79,0,0,0-8,8.09l1.21-.32c-.89,1-1.61,2-2.27,2.73-.32.38-.63.73-.92,1.06l-.79.93c-.5.58-1,1.06-1.39,1.5s-.82.88-1.24,1.29l-1.28,1.34c-.45.49-.89,1.07-1.41,1.74a21.89,21.89,0,0,0-1.67,2.43,32.64,32.64,0,0,0-1.9,3.54l.08-.47c-.15.62-.34,1.28-.56,2l-.17.52-.15.54c-.11.36-.22.73-.34,1.1s-.25.75-.38,1.13-.28.75-.39,1.15c-.25.79-.51,1.58-.8,2.38.08-.79-.08-.88-.36-.61a7.71,7.71,0,0,0-1,1.51c-.69,1.23-1.37,2.4-1.22.22-.18,1.08-.32,2-.39,2.67l11.09,2.71c.59-4.07.63-5.06.47-6a24.79,24.79,0,0,1-.75-5.23l1.37-1.47c-.38-2.71-.77-3,0-8.69,0,4.8,2.22-3.34,2.38,2.08.28-.72.53-1.43.75-2.11s.38-1.36.54-2a35.56,35.56,0,0,0,.68-3.72c.13-1.17.2-2.28.24-3.33s.06-2,0-3a36.44,36.44,0,0,1,.18-5,9.28,9.28,0,0,1,1.56-4.27c-1.27-2.9-1.77-.26-2.14,2.65-.08.73-.15,1.48-.21,2.17s-.15,1.32-.2,1.81c-.11,1-.19,1.38-.26.59-.6,1.25-1,0-1.18-1.91-.09-1-.17-2.16-.16-3.32a28.8,28.8,0,0,1,.19-3.26,8.61,8.61,0,0,1,.72-2.76c.39-.94.89-1.92,1.34-3.11a24.75,24.75,0,0,0,1.27-4.27,28.21,28.21,0,0,0,.37-6.21c0,1,.26,1,.27,2a9.53,9.53,0,0,0,0-2.77c-.09-.93-.25-1.86-.39-2.81s-.32-1.93-.39-3a13.68,13.68,0,0,1,.12-3.29,7.26,7.26,0,0,1-1.36-3.87,5.46,5.46,0,0,0-.43-1.6,1.51,1.51,0,0,0-1.16-.82c.18.73.32,1.47.45,2.21l.42,2.22c.13.74.29,1.48.4,2.22l.33,2.24c-.48-2.53-1.62-4.89-2.53-7.65a33.87,33.87,0,0,1-1.34-4.5c-.16-.83-.36-1.69-.51-2.62s-.25-1.91-.32-3a19.55,19.55,0,0,1,2.32,4.48,10.11,10.11,0,0,0-.63-3.56c-.18-.58-.35-1.15-.48-1.75a7.62,7.62,0,0,1-.24-1.88c.57,0,1.08.73,1.51,1.83a34.45,34.45,0,0,1,1.14,4.23c.37,1.65.65,3.46,1.06,5.18.22.85.4,1.7.62,2.49a15.3,15.3,0,0,0,.77,2.2c.28-1.39-.41-4-1-5.84s-.78-3.12.62-1.94a6.15,6.15,0,0,1-1.11-1.42,8.42,8.42,0,0,1-.75-1.64,23.12,23.12,0,0,1-.8-3.85,44.29,44.29,0,0,0-1-4.36,12.48,12.48,0,0,0-.88-2.25,15.9,15.9,0,0,0-1.33-2.2l1.38,0c-.26-.48-.68-1.21-1.15-2.05a16,16,0,0,1-1.29-2.7c.93.93,1.9,1.87,2.8,2.84a15.83,15.83,0,0,1-1.76-3.73c-.21-.64-.38-1.29-.54-1.94s-.35-1.29-.51-1.94c-.33-1.3-.61-2.62-1-3.89a16.63,16.63,0,0,0-1.75-3.6c2.44,5.07,2.2,5.85,1.68,5.87s-1.51-.6-1.07,1.73c-.85-1.48-1.46-2.72-2-3.76a19,19,0,0,1-1.1-2.7,14.57,14.57,0,0,1-.61-3.86c0-.59-.07-1.21-.16-1.9a10.72,10.72,0,0,0-.55-2.35,27.49,27.49,0,0,0-4-7.28,13.64,13.64,0,0,1,1.1,1.77,12.28,12.28,0,0,1,.91,2.09c.42,1.28.39,2-.7.77-.16-.34-.32-.69-.49-1l-.54-1.07c-.37-.73-.73-1.47-1.06-2.19s-.62-1.44-.89-2.07a13.23,13.23,0,0,1-.62-1.66c-3.17-4.11-3.27-3.52-2.86-2.4s1.08,2.93-.53,1.43a4.76,4.76,0,0,0-1-2.17,6.67,6.67,0,0,0-1.57-1.37c-.61-.39-1.27-.77-2-1.23a15.55,15.55,0,0,1-2.39-1.7l1-.92a17.07,17.07,0,0,0-3.92-4,2.65,2.65,0,0,0-1.8-.52,2.43,2.43,0,0,1-1.62-.35,17.19,17.19,0,0,1-3.62-3.21q2.23.72,4.54,1.5l-2.23-1.63c-.75-.53-1.47-1.09-2.26-1.57.61-.16,1.25-.34,1.85-.47-1.36-.73-2.48-1.32-3.43-1.91s-1.76-1.15-2.59-1.67-1.6-1.13-2.48-1.8c-.44-.33-.89-.71-1.4-1.08l-1.69-1.17c.35.76-.13,1.17-1.25,1.09a16.63,16.63,0,0,1-5.18-1.84c-1.43-1.14-.86-1.2-.76-1.37s-.27-.49-3.8-1.81a9.57,9.57,0,0,1,3.05.08,6.6,6.6,0,0,1,3.48,2.15,3.29,3.29,0,0,1,1.2-.08,3.85,3.85,0,0,0,1.18-.05c-.18-.18-.37-.35-.57-.52l-.67-.48a13.67,13.67,0,0,0-1.48-.92,25.68,25.68,0,0,0-3.27-1.54c-2.22-.88-4.39-1.45-5.74-1.88a13,13,0,0,1,2.78,1.3,59.18,59.18,0,0,0-11.22-1.16c-1.66-.76-.22-1,1.23-1.09a10.19,10.19,0,0,0-1.63-.1c-.54,0-1.06,0-1.62,0l-1.82.06c-.66,0-1.4,0-2.24,0,.46-.52.66-1.06,1.37-1.5s1.94-.76,4.43-.63a49.34,49.34,0,0,0-11.35.7,14.86,14.86,0,0,0-3.18-.5c-1.27-.11-2.29-.21-1.54-.56-3.4.3-7.49,2.14-11.18,4.93a42.7,42.7,0,0,0-5.22,4.68l-1.17,1.3c-.39.44-.81.85-1.16,1.3-.73.89-1.52,1.74-2.22,2.63a18.63,18.63,0,0,1-1.25,3.09,42.06,42.06,0,0,0-4.7,10.83,27.66,27.66,0,0,0-.49,12.22c-.32.84-.61,1.69-.88,2.54l-.41,1.3-.37,1.3c.27,1.74.57,2.14.8,2a6,6,0,0,0,.74-1.49c.27-.58.56-1,.9-.61s.69,1.66,1.31,4.34c.23.94.39,1.69.49,2.29a8.24,8.24,0,0,1,.17,1.4c0,.68-.19.94-.45,1-.53.21-1.33-.18-1.31,1.24.45.91,1,2,1.65,3.13s1.31,2.47,2,3.86a39.77,39.77,0,0,1,3.32,9.51,19.94,19.94,0,0,1-1.45-2.94C3066.69,495.49,3066.38,494.52,3065.92,493.51ZM3088.2,478c.47.63,1.28,1.52,1.91,2.47a4.36,4.36,0,0,1,1,2.6,3.37,3.37,0,0,1-1.91-2C3088.83,480.26,3088.61,479.25,3088.2,478Zm-95.76-62.31a4.81,4.81,0,0,1,2.1-.07,13.49,13.49,0,0,1,2.66.75,16.6,16.6,0,0,1-2.25-.2A19.33,19.33,0,0,1,2992.44,415.66Zm-23,128.71h.16c.67.4,1.1.69,1.35.86l.25.17C2971.08,545.33,2970.39,544.88,2969.45,544.37Zm-5.78-2.84c-.67,0-.69.15-.49.41.53-.17,1.89.31,3.4,1C2966.28,542.42,2965.58,541.91,2963.67,541.53Zm202.79-6.69c.11-.42.19-.85.29-1.28.28,1.43.26,2,.18,2S3166.66,535.23,3166.46,534.84Z"/><path class="cls-5" d="M3006.08,415.63a1.21,1.21,0,0,1,.49.85C3007.21,416.39,3007.28,416.14,3006.08,415.63Z"/><path class="cls-5" d="M3066.86,441.67c.07-.08.12-.16.18-.24a.62.62,0,0,0,0-.38Z"/><path class="cls-5" d="M3029.49,600.28a9.24,9.24,0,0,1-.9-2.62C3028.28,597.77,3028.4,598.45,3029.49,600.28Z"/><path class="cls-5" d="M2930.43,537.56l1.94-.11,2,0a12.9,12.9,0,0,1-3.55-.62C2930.91,537.1,2931.62,537.57,2930.43,537.56Z"/><path class="cls-5" d="M2907.38,552.08c.19.62.1,1.34.32,1.95l.61-.23a15.86,15.86,0,0,0-.48-2.89C2907.67,550.45,2907.47,550.67,2907.38,552.08Z"/><path class="cls-5" d="M2926.8,533.21c-.37-1.1-2.93-.59-5.37.33.15,0,.29-.09.45-.12-.16.86.37,1,1.26.78S2925.36,533.56,2926.8,533.21Z"/><path class="cls-5" d="M2920.87,533.75c-.74.29-1.45.62-2.15.9C2918.75,535.34,2919.56,534.34,2920.87,533.75Z"/><path class="cls-5" d="M2955.7,539.81c-1.24-.62-1.19,1.17-1.81.54-.91.52,1.37.61,3,.57S2959.38,540.49,2955.7,539.81Z"/><path class="cls-5" d="M2924.12,529.77c.42.4.83.82,1.22,1.24.5-.43,1-.83,1.57-1.24C2926,529.74,2925.05,529.72,2924.12,529.77Z"/><path class="cls-5" d="M2947.74,532.27l-2.33-.61c-.78-.2-1.57-.35-2.35-.54,0,.24-.59.29-1.34.29l2.18.37,1,.18.92.19C2947,532.38,2947.76,532.48,2947.74,532.27Z"/><path class="cls-5" d="M2941.72,531.41a17.85,17.85,0,0,0-2.17-.23,8.19,8.19,0,0,0-1.69,0l1.77.12C2940.34,531.37,2941.1,531.4,2941.72,531.41Z"/><path class="cls-5" d="M2930.73,529l1.43.34c1.14.08,2.28.2,3.41.3C2934,529.43,2932.36,529.18,2930.73,529Z"/><path class="cls-5" d="M2994.78,552.48c1.5.91,3,1.81,4.46,2.79.71,0-.23-1.18-1.94-2.18C2996.08,552.62,2994.39,551.64,2994.78,552.48Z"/><path class="cls-5" d="M2983,540.89a5.28,5.28,0,0,1,1.6,2l1-1.43Z"/><path class="cls-5" d="M2996.72,548.71c.69-.09,7.22,3.5,1.53-.45C2997.55,548.28,2992.8,545.62,2996.72,548.71Z"/><polygon class="cls-5" points="3028.96 590.85 3029.71 591.97 3031.97 590.27 3028.96 590.85"/><path class="cls-5" d="M2986.83,533.81a9.41,9.41,0,0,0,1.4,2.66,1.23,1.23,0,0,0,.88.48c.51.07,1,.07,2,2.78,1.3,1-1.66-4.42-.42-3.37-1.24-1.49-2-2.74-2.53-3.31S2987.24,532.59,2986.83,533.81Z"/><path class="cls-5" d="M2990.67,536.36q.59.74,1.32,1.5A11.46,11.46,0,0,0,2990.67,536.36Z"/><path class="cls-5" d="M3232.69,626.82l-1.11,1.57-.56.78-.58.77c.68-.57,1.32-1.16,2-1.75Z"/><path class="cls-5" d="M3231.08,634.31l-2-.11.23,2.82C3229.67,636.22,3230.4,634.69,3231.08,634.31Z"/><path class="cls-5" d="M3085.09,465.79l-.55,0a3.06,3.06,0,0,0,.4,1.37c.27.53.67,1.18,1.18,2.07C3085.81,468,3085.44,466.92,3085.09,465.79Z"/><path class="cls-5" d="M3082.43,523.88l.67.79c0-.84-.07-1.67-.08-2.5C3082.81,522.74,3082.62,523.31,3082.43,523.88Z"/><path class="cls-5" d="M3058.54,479.47c.31,2.09,1.18,4.44,1.65,6.5a15.48,15.48,0,0,1-.64-5.25C3059.54,479.53,3059.5,479,3058.54,479.47Z"/><polygon class="cls-6" points="1065.5 265.18 1082.75 263.21 1113.2 293.58 1117.62 264.71 1169.07 263.21 1191.04 468.77 1086.49 468.18 1106.91 334.71 1065.5 265.18"/><polygon class="cls-7" points="1061.97 265.18 1079.23 263.21 1109.67 293.58 1114.09 264.71 1165.54 263.21 1187.52 468.77 1082.97 468.18 1103.38 334.71 1061.97 265.18"/><polygon class="cls-8" points="1170.12 273.05 1113.26 270.16 1114.09 264.71 1169.07 263.21 1170.12 273.05"/><polygon class="cls-8" points="1061.97 265.18 1084.73 265.18 1089.51 269.95 1066.16 272.21 1061.97 265.18"/><path class="cls-5" d="M1263.82,263.34,942.3,266.28a13.38,13.38,0,0,1-13.1-16.67c7.71-30.25,27.71-90.38,64.3-87.16,16,1.4,27.42,7.45,35.62,15a13.39,13.39,0,0,0,22.41-8.37c6.07-55.4,26.47-140.62,94.73-130.4,94.57,14.16,126.57,130.43,130.81,210.6A13.4,13.4,0,0,1,1263.82,263.34Z"/><path class="cls-9" d="M1227.71,263.22S1201.05,127,1119.06,127c-52.64,0-62.4,117.36-62.4,117.36s-17.1-50.76-47.58-49.38-51.14,70.25-51.14,70.25Z"/><rect class="cls-10" x="1124.74" y="226.61" width="32.33" height="69.95" transform="translate(2311.42 262.52) rotate(167.13)"/><polygon class="cls-11" points="1082.97 468.18 1124.42 541.23 1273.02 540.05 1187.52 468.77 1082.97 468.18"/><polygon class="cls-12" points="1387.57 391.65 1547.51 488.29 1560.28 397.68 1387.57 391.65"/><path class="cls-5" d="M1392,397l166.19.63a4.19,4.19,0,0,0,4.11-5.19l-90-388.91c-1.07-4.61-7.63-4.72-8.53-.15l-76.22,388.28A4.52,4.52,0,0,0,1392,397Z"/><polygon class="cls-9" points="1428.52 397.16 1464.61 72.14 1560.28 397.68 1428.52 397.16"/><path class="cls-13" d="M1499.43,263.46s-22.22,30.8-22,33.21h0L1466.06,122l-6.38,227.9-21.14-27,20.35,42.6-1.12,32h33.78l-12.76-86Z"/></svg>